;TYPE=PLATED
;Layer: PTH_Through
;EasyEDA Pro Client v1.7.31.78bc6e, 2022-08-09 17:47:51
;Gerber Generator version 0.3
M48
METRIC,LZ,000.000
;Hole size 1 = 0.305 METRIC
T01C0.305
;Hole size 2 = 0.305 METRIC
T02C0.305
;Hole size 3 = 0.889 METRIC
T03C0.889
;Hole size 4 = 1.067 METRIC
T04C1.067
%
G05
G90
T01
X021717Y008001
X019685Y010033
X021717Y010033
X019685Y008001
T02
X002413Y002667
X019685Y003175
X026162Y014605
X025273Y010922
X022860Y005117
X025400Y002107
X018796Y018542
X019812Y019634
X013843Y017272
X017526Y016637
X009414Y013145
X011049Y014732
X013081Y014732
X015113Y014732
X012065Y015875
X014097Y015875
X016129Y015875
X007493Y011049
X004572Y017399
X004572Y014986
X003810Y019431
X010541Y025654
X016637Y023876
X014478Y025654
X021082Y023876
X021082Y020828
X021082Y025654
X008636Y009017
X008636Y007493
X003683Y003810
X011049Y003810
X007493Y002667
X014351Y002794
X025250Y008128
X015621Y017526
X021082Y017399
X024638Y020828
X001397Y009144
X004826Y025654
X011938Y011303
X011938Y010287
X011938Y009271
X019558Y015367
X005602Y009144
X008890Y021844
X009525Y006096
X002667Y009144
X011430Y006096
X012827Y005461
X014351Y005461
X015875Y005461
X012446Y008382
X013335Y007874
X014478Y007874
X007493Y009779
X013081Y013145
X014478Y011303
X014478Y010287
X014478Y009144
X018466Y005969
T03
X011024Y013145
T04
X020701Y009017
M30