G04 Layer: TopPasteMaskLayer*
G04 EasyEDA Pro v1.7.31.78bc6e, 2022-08-09 17:47:50*
G04 Gerber Generator version 0.3*
G04 Scale: 100 percent, Rotated: No, Reflected: No*
G04 Dimensions in millimeters*
G04 Leading zeros omitted, absolute positions, 3 integers and 3 decimals*
%FSLAX33Y33*%
%MOMM*%
%ADD10C,0.00508*%
%ADD11O,1.745005X0.559994*%
G75*


G04 PolygonModel Start*
G36*
G01X14327Y20201D02*
G01X13867Y20201D01*
G01X13827Y20241D01*
G01Y20742D01*
G01X13867Y20782D01*
G01X14327D01*
G01X14367Y20742D01*
G01Y20241D01*
G01X14327Y20201D01*
G37*
G54D10*
G01X14327Y20201D02*
G01X13867Y20201D01*
G01X13827Y20241D01*
G01Y20742D01*
G01X13867Y20782D01*
G01X14327D01*
G01X14367Y20742D01*
G01Y20241D01*
G01X14327Y20201D01*
G36*
G01X14327Y19931D02*
G01X13867Y19931D01*
G01X13827Y19891D01*
G01Y19390D01*
G01X13867Y19350D01*
G01X14327D01*
G01X14367Y19390D01*
G01Y19891D01*
G01X14327Y19931D01*
G37*
G01X14327Y19931D02*
G01X13867Y19931D01*
G01X13827Y19891D01*
G01Y19390D01*
G01X13867Y19350D01*
G01X14327D01*
G01X14367Y19390D01*
G01Y19891D01*
G01X14327Y19931D01*
G36*
G01X15597Y20201D02*
G01X15137Y20201D01*
G01X15097Y20241D01*
G01Y20742D01*
G01X15137Y20782D01*
G01X15597D01*
G01X15637Y20742D01*
G01Y20241D01*
G01X15597Y20201D01*
G37*
G01X15597Y20201D02*
G01X15137Y20201D01*
G01X15097Y20241D01*
G01Y20742D01*
G01X15137Y20782D01*
G01X15597D01*
G01X15637Y20742D01*
G01Y20241D01*
G01X15597Y20201D01*
G36*
G01X15597Y19931D02*
G01X15137Y19931D01*
G01X15097Y19891D01*
G01Y19390D01*
G01X15137Y19350D01*
G01X15597D01*
G01X15637Y19390D01*
G01Y19891D01*
G01X15597Y19931D01*
G37*
G01X15597Y19931D02*
G01X15137Y19931D01*
G01X15097Y19891D01*
G01Y19390D01*
G01X15137Y19350D01*
G01X15597D01*
G01X15637Y19390D01*
G01Y19891D01*
G01X15597Y19931D01*
G36*
G01X17226Y6796D02*
G01X17226Y7072D01*
G01X17250Y7096D01*
G01X17579D01*
G01X17603Y7072D01*
G01Y6796D01*
G01X17579Y6772D01*
G01X17250D01*
G01X17226Y6796D01*
G37*
G01X17226Y6796D02*
G01X17226Y7072D01*
G01X17250Y7096D01*
G01X17579D01*
G01X17603Y7072D01*
G01Y6796D01*
G01X17579Y6772D01*
G01X17250D01*
G01X17226Y6796D01*
G36*
G01X17064Y6796D02*
G01X17064Y7072D01*
G01X17040Y7096D01*
G01X16711D01*
G01X16687Y7072D01*
G01Y6796D01*
G01X16711Y6772D01*
G01X17040D01*
G01X17064Y6796D01*
G37*
G01X17064Y6796D02*
G01X17064Y7072D01*
G01X17040Y7096D01*
G01X16711D01*
G01X16687Y7072D01*
G01Y6796D01*
G01X16711Y6772D01*
G01X17040D01*
G01X17064Y6796D01*
G36*
G01X17064Y6107D02*
G01X17064Y5831D01*
G01X17040Y5807D01*
G01X16711D01*
G01X16687Y5831D01*
G01Y6107D01*
G01X16711Y6131D01*
G01X17040D01*
G01X17064Y6107D01*
G37*
G01X17064Y6107D02*
G01X17064Y5831D01*
G01X17040Y5807D01*
G01X16711D01*
G01X16687Y5831D01*
G01Y6107D01*
G01X16711Y6131D01*
G01X17040D01*
G01X17064Y6107D01*
G36*
G01X17226Y6107D02*
G01X17226Y5831D01*
G01X17250Y5807D01*
G01X17579D01*
G01X17603Y5831D01*
G01Y6107D01*
G01X17579Y6131D01*
G01X17250D01*
G01X17226Y6107D01*
G37*
G01X17226Y6107D02*
G01X17226Y5831D01*
G01X17250Y5807D01*
G01X17579D01*
G01X17603Y5831D01*
G01Y6107D01*
G01X17579Y6131D01*
G01X17250D01*
G01X17226Y6107D01*
G36*
G01X15670Y6796D02*
G01X15670Y7072D01*
G01X15694Y7096D01*
G01X16024D01*
G01X16048Y7072D01*
G01Y6796D01*
G01X16024Y6772D01*
G01X15694D01*
G01X15670Y6796D01*
G37*
G01X15670Y6796D02*
G01X15670Y7072D01*
G01X15694Y7096D01*
G01X16024D01*
G01X16048Y7072D01*
G01Y6796D01*
G01X16024Y6772D01*
G01X15694D01*
G01X15670Y6796D01*
G36*
G01X15508Y6796D02*
G01X15508Y7072D01*
G01X15484Y7096D01*
G01X15155D01*
G01X15131Y7072D01*
G01Y6796D01*
G01X15155Y6772D01*
G01X15484D01*
G01X15508Y6796D01*
G37*
G01X15508Y6796D02*
G01X15508Y7072D01*
G01X15484Y7096D01*
G01X15155D01*
G01X15131Y7072D01*
G01Y6796D01*
G01X15155Y6772D01*
G01X15484D01*
G01X15508Y6796D01*
G36*
G01X12267Y7313D02*
G01X12090Y7102D01*
G01X12056Y7099D01*
G01X11803Y7310D01*
G01X11801Y7344D01*
G01X11978Y7556D01*
G01X12012Y7559D01*
G01X12264Y7347D01*
G01X12267Y7313D01*
G37*
G01X12267Y7313D02*
G01X12090Y7102D01*
G01X12056Y7099D01*
G01X11803Y7310D01*
G01X11801Y7344D01*
G01X11978Y7556D01*
G01X12012Y7559D01*
G01X12264Y7347D01*
G01X12267Y7313D01*
G36*
G01X12391Y7209D02*
G01X12214Y6997D01*
G01X12217Y6964D01*
G01X12469Y6752D01*
G01X12503Y6755D01*
G01X12680Y6966D01*
G01X12677Y7000D01*
G01X12425Y7212D01*
G01X12391Y7209D01*
G37*
G01X12391Y7209D02*
G01X12214Y6997D01*
G01X12217Y6964D01*
G01X12469Y6752D01*
G01X12503Y6755D01*
G01X12680Y6966D01*
G01X12677Y7000D01*
G01X12425Y7212D01*
G01X12391Y7209D01*
G36*
G01X9514Y7539D02*
G01X9790Y7539D01*
G01X9814Y7515D01*
G01Y7186D01*
G01X9790Y7162D01*
G01X9514D01*
G01X9490Y7186D01*
G01Y7515D01*
G01X9514Y7539D01*
G37*
G01X9514Y7539D02*
G01X9790Y7539D01*
G01X9814Y7515D01*
G01Y7186D01*
G01X9790Y7162D01*
G01X9514D01*
G01X9490Y7186D01*
G01Y7515D01*
G01X9514Y7539D01*
G36*
G01X9514Y7701D02*
G01X9790Y7701D01*
G01X9814Y7725D01*
G01Y8054D01*
G01X9790Y8078D01*
G01X9514D01*
G01X9490Y8054D01*
G01Y7725D01*
G01X9514Y7701D01*
G37*
G01X9514Y7701D02*
G01X9790Y7701D01*
G01X9814Y7725D01*
G01Y8054D01*
G01X9790Y8078D01*
G01X9514D01*
G01X9490Y8054D01*
G01Y7725D01*
G01X9514Y7701D01*
G36*
G01X11162Y9622D02*
G01X10886Y9622D01*
G01X10862Y9598D01*
G01Y9268D01*
G01X10886Y9244D01*
G01X11162D01*
G01X11186Y9268D01*
G01Y9598D01*
G01X11162Y9622D01*
G37*
G01X11162Y9622D02*
G01X10886Y9622D01*
G01X10862Y9598D01*
G01Y9268D01*
G01X10886Y9244D01*
G01X11162D01*
G01X11186Y9268D01*
G01Y9598D01*
G01X11162Y9622D01*
G36*
G01X11162Y9784D02*
G01X10886Y9784D01*
G01X10862Y9808D01*
G01Y10137D01*
G01X10886Y10161D01*
G01X11162D01*
G01X11186Y10137D01*
G01Y9808D01*
G01X11162Y9784D01*
G37*
G01X11162Y9784D02*
G01X10886Y9784D01*
G01X10862Y9808D01*
G01Y10137D01*
G01X10886Y10161D01*
G01X11162D01*
G01X11186Y10137D01*
G01Y9808D01*
G01X11162Y9784D01*
G36*
G01X10886Y11222D02*
G01X11162Y11222D01*
G01X11186Y11198D01*
G01Y10869D01*
G01X11162Y10845D01*
G01X10886D01*
G01X10862Y10869D01*
G01Y11198D01*
G01X10886Y11222D01*
G37*
G01X10886Y11222D02*
G01X11162Y11222D01*
G01X11186Y11198D01*
G01Y10869D01*
G01X11162Y10845D01*
G01X10886D01*
G01X10862Y10869D01*
G01Y11198D01*
G01X10886Y11222D01*
G36*
G01X10886Y11384D02*
G01X11162Y11384D01*
G01X11186Y11408D01*
G01Y11737D01*
G01X11162Y11761D01*
G01X10886D01*
G01X10862Y11737D01*
G01Y11408D01*
G01X10886Y11384D01*
G37*
G01X10886Y11384D02*
G01X11162Y11384D01*
G01X11186Y11408D01*
G01Y11737D01*
G01X11162Y11761D01*
G01X10886D01*
G01X10862Y11737D01*
G01Y11408D01*
G01X10886Y11384D01*
G36*
G01X16989Y10594D02*
G01X16539Y10594D01*
G01X16489Y10664D01*
G01Y11144D01*
G01X16539Y11194D01*
G01X16989D01*
G01X17039Y11144D01*
G01Y10664D01*
G01X16989Y10594D01*
G37*
G01X16989Y10594D02*
G01X16539Y10594D01*
G01X16489Y10664D01*
G01Y11144D01*
G01X16539Y11194D01*
G01X16989D01*
G01X17039Y11144D01*
G01Y10664D01*
G01X16989Y10594D01*
G36*
G01X16989Y9634D02*
G01X16539Y9634D01*
G01X16489Y9684D01*
G01Y10164D01*
G01X16539Y10234D01*
G01X16989D01*
G01X17039Y10164D01*
G01Y9684D01*
G01X16989Y9634D01*
G37*
G01X16989Y9634D02*
G01X16539Y9634D01*
G01X16489Y9684D01*
G01Y10164D01*
G01X16539Y10234D01*
G01X16989D01*
G01X17039Y10164D01*
G01Y9684D01*
G01X16989Y9634D01*
G36*
G01X15719Y10594D02*
G01X15269Y10594D01*
G01X15219Y10664D01*
G01Y11144D01*
G01X15269Y11194D01*
G01X15719D01*
G01X15769Y11144D01*
G01Y10664D01*
G01X15719Y10594D01*
G37*
G01X15719Y10594D02*
G01X15269Y10594D01*
G01X15219Y10664D01*
G01Y11144D01*
G01X15269Y11194D01*
G01X15719D01*
G01X15769Y11144D01*
G01Y10664D01*
G01X15719Y10594D01*
G36*
G01X15719Y9634D02*
G01X15269Y9634D01*
G01X15219Y9684D01*
G01Y10164D01*
G01X15269Y10234D01*
G01X15719D01*
G01X15769Y10164D01*
G01Y9684D01*
G01X15719Y9634D01*
G37*
G01X15719Y9634D02*
G01X15269Y9634D01*
G01X15219Y9684D01*
G01Y10164D01*
G01X15269Y10234D01*
G01X15719D01*
G01X15769Y10164D01*
G01Y9684D01*
G01X15719Y9634D01*
G36*
G01X15994Y8595D02*
G01X15994Y8423D01*
G01X15725Y8239D01*
G01X15229D01*
G01X15189Y8279D01*
G01Y8739D01*
G01X15229Y8779D01*
G01X15725D01*
G01X15994Y8595D01*
G37*
G01X15994Y8595D02*
G01X15994Y8423D01*
G01X15725Y8239D01*
G01X15229D01*
G01X15189Y8279D01*
G01Y8739D01*
G01X15229Y8779D01*
G01X15725D01*
G01X15994Y8595D01*
G36*
G01X16264Y8595D02*
G01X16264Y8423D01*
G01X16533Y8239D01*
G01X17029D01*
G01X17069Y8279D01*
G01Y8739D01*
G01X17029Y8779D01*
G01X16533D01*
G01X16264Y8595D01*
G37*
G01X16264Y8595D02*
G01X16264Y8423D01*
G01X16533Y8239D01*
G01X17029D01*
G01X17069Y8279D01*
G01Y8739D01*
G01X17029Y8779D01*
G01X16533D01*
G01X16264Y8595D01*
G36*
G01X17555Y3249D02*
G01X18005Y3249D01*
G01X18055Y3179D01*
G01Y2699D01*
G01X18005Y2649D01*
G01X17555D01*
G01X17505Y2699D01*
G01Y3179D01*
G01X17555Y3249D01*
G37*
G01X17555Y3249D02*
G01X18005Y3249D01*
G01X18055Y3179D01*
G01Y2699D01*
G01X18005Y2649D01*
G01X17555D01*
G01X17505Y2699D01*
G01Y3179D01*
G01X17555Y3249D01*
G36*
G01X17555Y4209D02*
G01X18005Y4209D01*
G01X18055Y4159D01*
G01Y3679D01*
G01X18005Y3609D01*
G01X17555D01*
G01X17505Y3679D01*
G01Y4159D01*
G01X17555Y4209D01*
G37*
G01X17555Y4209D02*
G01X18005Y4209D01*
G01X18055Y4159D01*
G01Y3679D01*
G01X18005Y3609D01*
G01X17555D01*
G01X17505Y3679D01*
G01Y4159D01*
G01X17555Y4209D01*
G36*
G01X16285Y3249D02*
G01X16735Y3249D01*
G01X16785Y3179D01*
G01Y2699D01*
G01X16735Y2649D01*
G01X16285D01*
G01X16235Y2699D01*
G01Y3179D01*
G01X16285Y3249D01*
G37*
G01X16285Y3249D02*
G01X16735Y3249D01*
G01X16785Y3179D01*
G01Y2699D01*
G01X16735Y2649D01*
G01X16285D01*
G01X16235Y2699D01*
G01Y3179D01*
G01X16285Y3249D01*
G36*
G01X16285Y4209D02*
G01X16735Y4209D01*
G01X16785Y4159D01*
G01Y3679D01*
G01X16735Y3609D01*
G01X16285D01*
G01X16235Y3679D01*
G01Y4159D01*
G01X16285Y4209D01*
G37*
G01X16285Y4209D02*
G01X16735Y4209D01*
G01X16785Y4159D01*
G01Y3679D01*
G01X16735Y3609D01*
G01X16285D01*
G01X16235Y3679D01*
G01Y4159D01*
G01X16285Y4209D01*
G36*
G01X21715Y13065D02*
G01X21715Y13342D01*
G01X21989Y13635D01*
G01X22492D01*
G01X22556Y13571D01*
G01Y12835D01*
G01X22492Y12771D01*
G01X21989D01*
G01X21715Y13065D01*
G37*
G01X21715Y13065D02*
G01X21715Y13342D01*
G01X21989Y13635D01*
G01X22492D01*
G01X22556Y13571D01*
G01Y12835D01*
G01X22492Y12771D01*
G01X21989D01*
G01X21715Y13065D01*
G36*
G01X21199Y13054D02*
G01X21199Y13330D01*
G01X20925Y13624D01*
G01X20421D01*
G01X20357Y13560D01*
G01Y12824D01*
G01X20421Y12760D01*
G01X20925D01*
G01X21199Y13054D01*
G37*
G01X21199Y13054D02*
G01X21199Y13330D01*
G01X20925Y13624D01*
G01X20421D01*
G01X20357Y13560D01*
G01Y12824D01*
G01X20421Y12760D01*
G01X20925D01*
G01X21199Y13054D01*
G36*
G01X23905Y4392D02*
G01X24355Y4392D01*
G01X24405Y4322D01*
G01Y3842D01*
G01X24355Y3792D01*
G01X23905D01*
G01X23855Y3842D01*
G01Y4322D01*
G01X23905Y4392D01*
G37*
G01X23905Y4392D02*
G01X24355Y4392D01*
G01X24405Y4322D01*
G01Y3842D01*
G01X24355Y3792D01*
G01X23905D01*
G01X23855Y3842D01*
G01Y4322D01*
G01X23905Y4392D01*
G36*
G01X23905Y5352D02*
G01X24355Y5352D01*
G01X24405Y5302D01*
G01Y4822D01*
G01X24355Y4752D01*
G01X23905D01*
G01X23855Y4822D01*
G01Y5302D01*
G01X23905Y5352D01*
G37*
G01X23905Y5352D02*
G01X24355Y5352D01*
G01X24405Y5302D01*
G01Y4822D01*
G01X24355Y4752D01*
G01X23905D01*
G01X23855Y4822D01*
G01Y5302D01*
G01X23905Y5352D01*
G36*
G01X22635Y4392D02*
G01X23085Y4392D01*
G01X23135Y4322D01*
G01Y3842D01*
G01X23085Y3792D01*
G01X22635D01*
G01X22585Y3842D01*
G01Y4322D01*
G01X22635Y4392D01*
G37*
G01X22635Y4392D02*
G01X23085Y4392D01*
G01X23135Y4322D01*
G01Y3842D01*
G01X23085Y3792D01*
G01X22635D01*
G01X22585Y3842D01*
G01Y4322D01*
G01X22635Y4392D01*
G36*
G01X22635Y5352D02*
G01X23085Y5352D01*
G01X23135Y5302D01*
G01Y4822D01*
G01X23085Y4752D01*
G01X22635D01*
G01X22585Y4822D01*
G01Y5302D01*
G01X22635Y5352D01*
G37*
G01X22635Y5352D02*
G01X23085Y5352D01*
G01X23135Y5302D01*
G01Y4822D01*
G01X23085Y4752D01*
G01X22635D01*
G01X22585Y4822D01*
G01Y5302D01*
G01X22635Y5352D01*
G36*
G01X21365Y4392D02*
G01X21815Y4392D01*
G01X21865Y4322D01*
G01Y3842D01*
G01X21815Y3792D01*
G01X21365D01*
G01X21315Y3842D01*
G01Y4322D01*
G01X21365Y4392D01*
G37*
G01X21365Y4392D02*
G01X21815Y4392D01*
G01X21865Y4322D01*
G01Y3842D01*
G01X21815Y3792D01*
G01X21365D01*
G01X21315Y3842D01*
G01Y4322D01*
G01X21365Y4392D01*
G36*
G01X21365Y5352D02*
G01X21815Y5352D01*
G01X21865Y5302D01*
G01Y4822D01*
G01X21815Y4752D01*
G01X21365D01*
G01X21315Y4822D01*
G01Y5302D01*
G01X21365Y5352D01*
G37*
G01X21365Y5352D02*
G01X21815Y5352D01*
G01X21865Y5302D01*
G01Y4822D01*
G01X21815Y4752D01*
G01X21365D01*
G01X21315Y4822D01*
G01Y5302D01*
G01X21365Y5352D01*
G36*
G01X19529Y13896D02*
G01X19079Y13896D01*
G01X19029Y13966D01*
G01Y14446D01*
G01X19079Y14496D01*
G01X19529D01*
G01X19579Y14446D01*
G01Y13966D01*
G01X19529Y13896D01*
G37*
G01X19529Y13896D02*
G01X19079Y13896D01*
G01X19029Y13966D01*
G01Y14446D01*
G01X19079Y14496D01*
G01X19529D01*
G01X19579Y14446D01*
G01Y13966D01*
G01X19529Y13896D01*
G36*
G01X19529Y12936D02*
G01X19079Y12936D01*
G01X19029Y12986D01*
G01Y13466D01*
G01X19079Y13536D01*
G01X19529D01*
G01X19579Y13466D01*
G01Y12986D01*
G01X19529Y12936D01*
G37*
G01X19529Y12936D02*
G01X19079Y12936D01*
G01X19029Y12986D01*
G01Y13466D01*
G01X19079Y13536D01*
G01X19529D01*
G01X19579Y13466D01*
G01Y12986D01*
G01X19529Y12936D01*
G36*
G01X25170Y2405D02*
G01X25630Y2405D01*
G01X25670Y2365D01*
G01Y1864D01*
G01X25630Y1824D01*
G01X25170D01*
G01X25130Y1864D01*
G01Y2365D01*
G01X25170Y2405D01*
G37*
G01X25170Y2405D02*
G01X25630Y2405D01*
G01X25670Y2365D01*
G01Y1864D01*
G01X25630Y1824D01*
G01X25170D01*
G01X25130Y1864D01*
G01Y2365D01*
G01X25170Y2405D01*
G36*
G01X25170Y2675D02*
G01X25630Y2675D01*
G01X25670Y2715D01*
G01Y3216D01*
G01X25630Y3256D01*
G01X25170D01*
G01X25130Y3216D01*
G01Y2715D01*
G01X25170Y2675D01*
G37*
G01X25170Y2675D02*
G01X25630Y2675D01*
G01X25670Y2715D01*
G01Y3216D01*
G01X25630Y3256D01*
G01X25170D01*
G01X25130Y3216D01*
G01Y2715D01*
G01X25170Y2675D01*
G36*
G01X9693Y9644D02*
G01X9865Y9644D01*
G01X10049Y9375D01*
G01Y8879D01*
G01X10009Y8839D01*
G01X9549D01*
G01X9509Y8879D01*
G01Y9375D01*
G01X9693Y9644D01*
G37*
G01X9693Y9644D02*
G01X9865Y9644D01*
G01X10049Y9375D01*
G01Y8879D01*
G01X10009Y8839D01*
G01X9549D01*
G01X9509Y8879D01*
G01Y9375D01*
G01X9693Y9644D01*
G36*
G01X9693Y9914D02*
G01X9865Y9914D01*
G01X10049Y10183D01*
G01Y10679D01*
G01X10009Y10719D01*
G01X9549D01*
G01X9509Y10679D01*
G01Y10183D01*
G01X9693Y9914D01*
G37*
G01X9693Y9914D02*
G01X9865Y9914D01*
G01X10049Y10183D01*
G01Y10679D01*
G01X10009Y10719D01*
G01X9549D01*
G01X9509Y10679D01*
G01Y10183D01*
G01X9693Y9914D01*
G36*
G01X22868Y25043D02*
G01X22868Y25503D01*
G01X22908Y25543D01*
G01X23409D01*
G01X23449Y25503D01*
G01Y25043D01*
G01X23409Y25003D01*
G01X22908D01*
G01X22868Y25043D01*
G37*
G01X22868Y25043D02*
G01X22868Y25503D01*
G01X22908Y25543D01*
G01X23409D01*
G01X23449Y25503D01*
G01Y25043D01*
G01X23409Y25003D01*
G01X22908D01*
G01X22868Y25043D01*
G36*
G01X22598Y25043D02*
G01X22598Y25503D01*
G01X22558Y25543D01*
G01X22057D01*
G01X22017Y25503D01*
G01Y25043D01*
G01X22057Y25003D01*
G01X22558D01*
G01X22598Y25043D01*
G37*
G01X22598Y25043D02*
G01X22598Y25503D01*
G01X22558Y25543D01*
G01X22057D01*
G01X22017Y25503D01*
G01Y25043D01*
G01X22057Y25003D01*
G01X22558D01*
G01X22598Y25043D01*
G36*
G01X22868Y23773D02*
G01X22868Y24233D01*
G01X22908Y24273D01*
G01X23409D01*
G01X23449Y24233D01*
G01Y23773D01*
G01X23409Y23733D01*
G01X22908D01*
G01X22868Y23773D01*
G37*
G01X22868Y23773D02*
G01X22868Y24233D01*
G01X22908Y24273D01*
G01X23409D01*
G01X23449Y24233D01*
G01Y23773D01*
G01X23409Y23733D01*
G01X22908D01*
G01X22868Y23773D01*
G36*
G01X22598Y23773D02*
G01X22598Y24233D01*
G01X22558Y24273D01*
G01X22057D01*
G01X22017Y24233D01*
G01Y23773D01*
G01X22057Y23733D01*
G01X22558D01*
G01X22598Y23773D01*
G37*
G01X22598Y23773D02*
G01X22598Y24233D01*
G01X22558Y24273D01*
G01X22057D01*
G01X22017Y24233D01*
G01Y23773D01*
G01X22057Y23733D01*
G01X22558D01*
G01X22598Y23773D01*
G36*
G01X4836Y23294D02*
G01X4386Y23294D01*
G01X4336Y23364D01*
G01Y23844D01*
G01X4386Y23894D01*
G01X4836D01*
G01X4886Y23844D01*
G01Y23364D01*
G01X4836Y23294D01*
G37*
G01X4836Y23294D02*
G01X4386Y23294D01*
G01X4336Y23364D01*
G01Y23844D01*
G01X4386Y23894D01*
G01X4836D01*
G01X4886Y23844D01*
G01Y23364D01*
G01X4836Y23294D01*
G36*
G01X4836Y22334D02*
G01X4386Y22334D01*
G01X4336Y22384D01*
G01Y22864D01*
G01X4386Y22934D01*
G01X4836D01*
G01X4886Y22864D01*
G01Y22384D01*
G01X4836Y22334D01*
G37*
G01X4836Y22334D02*
G01X4386Y22334D01*
G01X4336Y22384D01*
G01Y22864D01*
G01X4386Y22934D01*
G01X4836D01*
G01X4886Y22864D01*
G01Y22384D01*
G01X4836Y22334D01*
G36*
G01X3142Y22934D02*
G01X3592Y22934D01*
G01X3642Y22864D01*
G01Y22384D01*
G01X3592Y22334D01*
G01X3142D01*
G01X3092Y22384D01*
G01Y22864D01*
G01X3142Y22934D01*
G37*
G01X3142Y22934D02*
G01X3592Y22934D01*
G01X3642Y22864D01*
G01Y22384D01*
G01X3592Y22334D01*
G01X3142D01*
G01X3092Y22384D01*
G01Y22864D01*
G01X3142Y22934D01*
G36*
G01X3142Y23894D02*
G01X3592Y23894D01*
G01X3642Y23844D01*
G01Y23364D01*
G01X3592Y23294D01*
G01X3142D01*
G01X3092Y23364D01*
G01Y23844D01*
G01X3142Y23894D01*
G37*
G01X3142Y23894D02*
G01X3592Y23894D01*
G01X3642Y23844D01*
G01Y23364D01*
G01X3592Y23294D01*
G01X3142D01*
G01X3092Y23364D01*
G01Y23844D01*
G01X3142Y23894D01*
G36*
G01X4879Y10443D02*
G01X4879Y10893D01*
G01X4949Y10943D01*
G01X5429D01*
G01X5479Y10893D01*
G01Y10443D01*
G01X5429Y10393D01*
G01X4949D01*
G01X4879Y10443D01*
G37*
G01X4879Y10443D02*
G01X4879Y10893D01*
G01X4949Y10943D01*
G01X5429D01*
G01X5479Y10893D01*
G01Y10443D01*
G01X5429Y10393D01*
G01X4949D01*
G01X4879Y10443D01*
G36*
G01X3919Y10443D02*
G01X3919Y10893D01*
G01X3969Y10943D01*
G01X4449D01*
G01X4519Y10893D01*
G01Y10443D01*
G01X4449Y10393D01*
G01X3969D01*
G01X3919Y10443D01*
G37*
G01X3919Y10443D02*
G01X3919Y10893D01*
G01X3969Y10943D01*
G01X4449D01*
G01X4519Y10893D01*
G01Y10443D01*
G01X4449Y10393D01*
G01X3969D01*
G01X3919Y10443D01*
G36*
G01X5669Y22934D02*
G01X6119Y22934D01*
G01X6169Y22864D01*
G01Y22384D01*
G01X6119Y22334D01*
G01X5669D01*
G01X5619Y22384D01*
G01Y22864D01*
G01X5669Y22934D01*
G37*
G01X5669Y22934D02*
G01X6119Y22934D01*
G01X6169Y22864D01*
G01Y22384D01*
G01X6119Y22334D01*
G01X5669D01*
G01X5619Y22384D01*
G01Y22864D01*
G01X5669Y22934D01*
G36*
G01X5669Y23894D02*
G01X6119Y23894D01*
G01X6169Y23844D01*
G01Y23364D01*
G01X6119Y23294D01*
G01X5669D01*
G01X5619Y23364D01*
G01Y23844D01*
G01X5669Y23894D01*
G37*
G01X5669Y23894D02*
G01X6119Y23894D01*
G01X6169Y23844D01*
G01Y23364D01*
G01X6119Y23294D01*
G01X5669D01*
G01X5619Y23364D01*
G01Y23844D01*
G01X5669Y23894D01*
G36*
G01X11856Y20201D02*
G01X11396Y20201D01*
G01X11356Y20241D01*
G01Y20742D01*
G01X11396Y20782D01*
G01X11856D01*
G01X11896Y20742D01*
G01Y20241D01*
G01X11856Y20201D01*
G37*
G01X11856Y20201D02*
G01X11396Y20201D01*
G01X11356Y20241D01*
G01Y20742D01*
G01X11396Y20782D01*
G01X11856D01*
G01X11896Y20742D01*
G01Y20241D01*
G01X11856Y20201D01*
G36*
G01X11856Y19931D02*
G01X11396Y19931D01*
G01X11356Y19891D01*
G01Y19390D01*
G01X11396Y19350D01*
G01X11856D01*
G01X11896Y19390D01*
G01Y19891D01*
G01X11856Y19931D01*
G37*
G01X11856Y19931D02*
G01X11396Y19931D01*
G01X11356Y19891D01*
G01Y19390D01*
G01X11396Y19350D01*
G01X11856D01*
G01X11896Y19390D01*
G01Y19891D01*
G01X11856Y19931D01*
G36*
G01X13105Y20201D02*
G01X12645Y20201D01*
G01X12605Y20241D01*
G01Y20742D01*
G01X12645Y20782D01*
G01X13105D01*
G01X13145Y20742D01*
G01Y20241D01*
G01X13105Y20201D01*
G37*
G01X13105Y20201D02*
G01X12645Y20201D01*
G01X12605Y20241D01*
G01Y20742D01*
G01X12645Y20782D01*
G01X13105D01*
G01X13145Y20742D01*
G01Y20241D01*
G01X13105Y20201D01*
G36*
G01X13105Y19931D02*
G01X12645Y19931D01*
G01X12605Y19891D01*
G01Y19390D01*
G01X12645Y19350D01*
G01X13105D01*
G01X13145Y19390D01*
G01Y19891D01*
G01X13105Y19931D01*
G37*
G01X13105Y19931D02*
G01X12645Y19931D01*
G01X12605Y19891D01*
G01Y19390D01*
G01X12645Y19350D01*
G01X13105D01*
G01X13145Y19390D01*
G01Y19891D01*
G01X13105Y19931D01*
G36*
G01X6700Y6523D02*
G01X6976Y6523D01*
G01X7000Y6499D01*
G01Y6170D01*
G01X6976Y6146D01*
G01X6700D01*
G01X6676Y6170D01*
G01Y6499D01*
G01X6700Y6523D01*
G37*
G01X6700Y6523D02*
G01X6976Y6523D01*
G01X7000Y6499D01*
G01Y6170D01*
G01X6976Y6146D01*
G01X6700D01*
G01X6676Y6170D01*
G01Y6499D01*
G01X6700Y6523D01*
G36*
G01X6700Y6685D02*
G01X6976Y6685D01*
G01X7000Y6709D01*
G01Y7038D01*
G01X6976Y7062D01*
G01X6700D01*
G01X6676Y7038D01*
G01Y6709D01*
G01X6700Y6685D01*
G37*
G01X6700Y6685D02*
G01X6976Y6685D01*
G01X7000Y6709D01*
G01Y7038D01*
G01X6976Y7062D01*
G01X6700D01*
G01X6676Y7038D01*
G01Y6709D01*
G01X6700Y6685D01*
G36*
G01X10513Y20147D02*
G01X10237Y20147D01*
G01X10213Y20171D01*
G01Y20500D01*
G01X10237Y20524D01*
G01X10513D01*
G01X10537Y20500D01*
G01Y20171D01*
G01X10513Y20147D01*
G37*
G01X10513Y20147D02*
G01X10237Y20147D01*
G01X10213Y20171D01*
G01Y20500D01*
G01X10237Y20524D01*
G01X10513D01*
G01X10537Y20500D01*
G01Y20171D01*
G01X10513Y20147D01*
G36*
G01X10513Y19985D02*
G01X10237Y19985D01*
G01X10213Y19961D01*
G01Y19632D01*
G01X10237Y19608D01*
G01X10513D01*
G01X10537Y19632D01*
G01Y19961D01*
G01X10513Y19985D01*
G37*
G01X10513Y19985D02*
G01X10237Y19985D01*
G01X10213Y19961D01*
G01Y19632D01*
G01X10237Y19608D01*
G01X10513D01*
G01X10537Y19632D01*
G01Y19961D01*
G01X10513Y19985D01*
G04 PolygonModel End*

G04 Pad Start*
G36*
G01X18771Y6883D02*
G01X18771Y6579D01*
G03X18821Y6528I51J0D01*
G01X18923D01*
G03X18974Y6579I0J51D01*
G01Y6883D01*
G03X18923Y6934I-51J0D01*
G01X18821D01*
G03X18771Y6883I0J-51D01*
G37*
G36*
G01X19177Y6883D02*
G01X19177Y6579D01*
G03X19228Y6528I51J0D01*
G01X19329D01*
G03X19380Y6579I0J51D01*
G01Y6883D01*
G03X19329Y6934I-51J0D01*
G01X19228D01*
G03X19177Y6883I0J-51D01*
G37*
G36*
G01X19583Y6883D02*
G01X19583Y6579D01*
G03X19634Y6528I51J0D01*
G01X19736D01*
G03X19787Y6579I0J51D01*
G01Y6883D01*
G03X19736Y6934I-51J0D01*
G01X19634D01*
G03X19583Y6883I0J-51D01*
G37*
G36*
G01X19990Y6883D02*
G01X19990Y6579D01*
G03X20041Y6528I51J0D01*
G01X20142D01*
G03X20193Y6579I0J51D01*
G01Y6883D01*
G03X20142Y6934I-51J0D01*
G01X20041D01*
G03X19990Y6883I0J-51D01*
G37*
G36*
G01X20396Y6883D02*
G01X20396Y6579D01*
G03X20447Y6528I51J0D01*
G01X20549D01*
G03X20599Y6579I0J51D01*
G01Y6883D01*
G03X20549Y6934I-51J0D01*
G01X20447D01*
G03X20396Y6883I0J-51D01*
G37*
G36*
G01X20803Y6883D02*
G01X20803Y6579D01*
G03X20853Y6528I51J0D01*
G01X20955D01*
G03X21006Y6579I0J51D01*
G01Y6883D01*
G03X20955Y6934I-51J0D01*
G01X20853D01*
G03X20803Y6883I0J-51D01*
G37*
G36*
G01X21209Y6883D02*
G01X21209Y6579D01*
G03X21260Y6528I51J0D01*
G01X21361D01*
G03X21412Y6579I0J51D01*
G01Y6883D01*
G03X21361Y6934I-51J0D01*
G01X21260D01*
G03X21209Y6883I0J-51D01*
G37*
G36*
G01X21615Y6883D02*
G01X21615Y6579D01*
G03X21666Y6528I51J0D01*
G01X21768D01*
G03X21819Y6579I0J51D01*
G01Y6883D01*
G03X21768Y6934I-51J0D01*
G01X21666D01*
G03X21615Y6883I0J-51D01*
G37*
G36*
G01X22022Y6883D02*
G01X22022Y6579D01*
G03X22073Y6528I51J0D01*
G01X22174D01*
G03X22225Y6579I0J51D01*
G01Y6883D01*
G03X22174Y6934I-51J0D01*
G01X22073D01*
G03X22022Y6883I0J-51D01*
G37*
G36*
G01X22428Y6883D02*
G01X22428Y6579D01*
G03X22479Y6528I51J0D01*
G01X22581D01*
G03X22631Y6579I0J51D01*
G01Y6883D01*
G03X22581Y6934I-51J0D01*
G01X22479D01*
G03X22428Y6883I0J-51D01*
G37*
G36*
G01X22784Y7239D02*
G01X22784Y7137D01*
G03X22835Y7087I51J0D01*
G01X23139D01*
G03X23190Y7137I0J51D01*
G01Y7239D01*
G03X23139Y7290I-51J0D01*
G01X22835D01*
G03X22784Y7239I0J-51D01*
G37*
G36*
G01X22784Y7645D02*
G01X22784Y7544D01*
G03X22835Y7493I51J0D01*
G01X23139D01*
G03X23190Y7544I0J51D01*
G01Y7645D01*
G03X23139Y7696I-51J0D01*
G01X22835D01*
G03X22784Y7645I0J-51D01*
G37*
G36*
G01X22784Y8052D02*
G01X22784Y7950D01*
G03X22835Y7899I51J0D01*
G01X23139D01*
G03X23190Y7950I0J51D01*
G01Y8052D01*
G03X23139Y8103I-51J0D01*
G01X22835D01*
G03X22784Y8052I0J-51D01*
G37*
G36*
G01X22784Y8458D02*
G01X22784Y8357D01*
G03X22835Y8306I51J0D01*
G01X23139D01*
G03X23190Y8357I0J51D01*
G01Y8458D01*
G03X23139Y8509I-51J0D01*
G01X22835D01*
G03X22784Y8458I0J-51D01*
G37*
G36*
G01X22784Y8865D02*
G01X22784Y8763D01*
G03X22835Y8712I51J0D01*
G01X23139D01*
G03X23190Y8763I0J51D01*
G01Y8865D01*
G03X23139Y8915I-51J0D01*
G01X22835D01*
G03X22784Y8865I0J-51D01*
G37*
G36*
G01X22784Y9271D02*
G01X22784Y9169D01*
G03X22835Y9119I51J0D01*
G01X23139D01*
G03X23190Y9169I0J51D01*
G01Y9271D01*
G03X23139Y9322I-51J0D01*
G01X22835D01*
G03X22784Y9271I0J-51D01*
G37*
G36*
G01X22784Y9677D02*
G01X22784Y9576D01*
G03X22835Y9525I51J0D01*
G01X23139D01*
G03X23190Y9576I0J51D01*
G01Y9677D01*
G03X23139Y9728I-51J0D01*
G01X22835D01*
G03X22784Y9677I0J-51D01*
G37*
G36*
G01X22784Y10084D02*
G01X22784Y9982D01*
G03X22835Y9931I51J0D01*
G01X23139D01*
G03X23190Y9982I0J51D01*
G01Y10084D01*
G03X23139Y10135I-51J0D01*
G01X22835D01*
G03X22784Y10084I0J-51D01*
G37*
G36*
G01X22784Y10490D02*
G01X22784Y10389D01*
G03X22835Y10338I51J0D01*
G01X23139D01*
G03X23190Y10389I0J51D01*
G01Y10490D01*
G03X23139Y10541I-51J0D01*
G01X22835D01*
G03X22784Y10490I0J-51D01*
G37*
G36*
G01X22784Y10897D02*
G01X22784Y10795D01*
G03X22835Y10744I51J0D01*
G01X23139D01*
G03X23190Y10795I0J51D01*
G01Y10897D01*
G03X23139Y10947I-51J0D01*
G01X22835D01*
G03X22784Y10897I0J-51D01*
G37*
G36*
G01X22428Y11455D02*
G01X22428Y11151D01*
G03X22479Y11100I51J0D01*
G01X22581D01*
G03X22631Y11151I0J51D01*
G01Y11455D01*
G03X22581Y11506I-51J0D01*
G01X22479D01*
G03X22428Y11455I0J-51D01*
G37*
G36*
G01X22022Y11455D02*
G01X22022Y11151D01*
G03X22073Y11100I51J0D01*
G01X22174D01*
G03X22225Y11151I0J51D01*
G01Y11455D01*
G03X22174Y11506I-51J0D01*
G01X22073D01*
G03X22022Y11455I0J-51D01*
G37*
G36*
G01X21615Y11455D02*
G01X21615Y11151D01*
G03X21666Y11100I51J0D01*
G01X21768D01*
G03X21819Y11151I0J51D01*
G01Y11455D01*
G03X21768Y11506I-51J0D01*
G01X21666D01*
G03X21615Y11455I0J-51D01*
G37*
G36*
G01X21209Y11455D02*
G01X21209Y11151D01*
G03X21260Y11100I51J0D01*
G01X21361D01*
G03X21412Y11151I0J51D01*
G01Y11455D01*
G03X21361Y11506I-51J0D01*
G01X21260D01*
G03X21209Y11455I0J-51D01*
G37*
G36*
G01X20803Y11455D02*
G01X20803Y11151D01*
G03X20853Y11100I51J0D01*
G01X20955D01*
G03X21006Y11151I0J51D01*
G01Y11455D01*
G03X20955Y11506I-51J0D01*
G01X20853D01*
G03X20803Y11455I0J-51D01*
G37*
G36*
G01X20396Y11455D02*
G01X20396Y11151D01*
G03X20447Y11100I51J0D01*
G01X20549D01*
G03X20599Y11151I0J51D01*
G01Y11455D01*
G03X20549Y11506I-51J0D01*
G01X20447D01*
G03X20396Y11455I0J-51D01*
G37*
G36*
G01X19990Y11455D02*
G01X19990Y11151D01*
G03X20041Y11100I51J0D01*
G01X20142D01*
G03X20193Y11151I0J51D01*
G01Y11455D01*
G03X20142Y11506I-51J0D01*
G01X20041D01*
G03X19990Y11455I0J-51D01*
G37*
G36*
G01X19583Y11455D02*
G01X19583Y11151D01*
G03X19634Y11100I51J0D01*
G01X19736D01*
G03X19787Y11151I0J51D01*
G01Y11455D01*
G03X19736Y11506I-51J0D01*
G01X19634D01*
G03X19583Y11455I0J-51D01*
G37*
G36*
G01X19177Y11455D02*
G01X19177Y11151D01*
G03X19228Y11100I51J0D01*
G01X19329D01*
G03X19380Y11151I0J51D01*
G01Y11455D01*
G03X19329Y11506I-51J0D01*
G01X19228D01*
G03X19177Y11455I0J-51D01*
G37*
G36*
G01X18771Y11455D02*
G01X18771Y11151D01*
G03X18821Y11100I51J0D01*
G01X18923D01*
G03X18974Y11151I0J51D01*
G01Y11455D01*
G03X18923Y11506I-51J0D01*
G01X18821D01*
G03X18771Y11455I0J-51D01*
G37*
G36*
G01X18212Y10897D02*
G01X18212Y10795D01*
G03X18263Y10744I51J0D01*
G01X18567D01*
G03X18618Y10795I0J51D01*
G01Y10897D01*
G03X18567Y10947I-51J0D01*
G01X18263D01*
G03X18212Y10897I0J-51D01*
G37*
G36*
G01X18212Y10490D02*
G01X18212Y10389D01*
G03X18263Y10338I51J0D01*
G01X18567D01*
G03X18618Y10389I0J51D01*
G01Y10490D01*
G03X18567Y10541I-51J0D01*
G01X18263D01*
G03X18212Y10490I0J-51D01*
G37*
G36*
G01X18212Y10084D02*
G01X18212Y9982D01*
G03X18263Y9931I51J0D01*
G01X18567D01*
G03X18618Y9982I0J51D01*
G01Y10084D01*
G03X18567Y10135I-51J0D01*
G01X18263D01*
G03X18212Y10084I0J-51D01*
G37*
G36*
G01X18212Y9677D02*
G01X18212Y9576D01*
G03X18263Y9525I51J0D01*
G01X18567D01*
G03X18618Y9576I0J51D01*
G01Y9677D01*
G03X18567Y9728I-51J0D01*
G01X18263D01*
G03X18212Y9677I0J-51D01*
G37*
G36*
G01X18212Y9271D02*
G01X18212Y9169D01*
G03X18263Y9119I51J0D01*
G01X18567D01*
G03X18618Y9169I0J51D01*
G01Y9271D01*
G03X18567Y9322I-51J0D01*
G01X18263D01*
G03X18212Y9271I0J-51D01*
G37*
G36*
G01X18212Y8865D02*
G01X18212Y8763D01*
G03X18263Y8712I51J0D01*
G01X18567D01*
G03X18618Y8763I0J51D01*
G01Y8865D01*
G03X18567Y8915I-51J0D01*
G01X18263D01*
G03X18212Y8865I0J-51D01*
G37*
G36*
G01X18212Y8458D02*
G01X18212Y8357D01*
G03X18263Y8306I51J0D01*
G01X18567D01*
G03X18618Y8357I0J51D01*
G01Y8458D01*
G03X18567Y8509I-51J0D01*
G01X18263D01*
G03X18212Y8458I0J-51D01*
G37*
G36*
G01X18212Y8052D02*
G01X18212Y7950D01*
G03X18263Y7899I51J0D01*
G01X18567D01*
G03X18618Y7950I0J51D01*
G01Y8052D01*
G03X18567Y8103I-51J0D01*
G01X18263D01*
G03X18212Y8052I0J-51D01*
G37*
G36*
G01X18212Y7645D02*
G01X18212Y7544D01*
G03X18263Y7493I51J0D01*
G01X18567D01*
G03X18618Y7544I0J51D01*
G01Y7645D01*
G03X18567Y7696I-51J0D01*
G01X18263D01*
G03X18212Y7645I0J-51D01*
G37*
G36*
G01X18212Y7239D02*
G01X18212Y7137D01*
G03X18263Y7087I51J0D01*
G01X18567D01*
G03X18618Y7137I0J51D01*
G01Y7239D01*
G03X18567Y7290I-51J0D01*
G01X18263D01*
G03X18212Y7239I0J-51D01*
G37*
G36*
G01X10524Y8355D02*
G01X10725Y8355D01*
G01Y8556D01*
G01X10524D01*
G01Y8355D01*
G37*
G36*
G01X10923Y8355D02*
G01X11124Y8355D01*
G01Y8556D01*
G01X10923D01*
G01Y8355D01*
G37*
G36*
G01X11325Y8355D02*
G01X11525Y8355D01*
G01Y8556D01*
G01X11325D01*
G01Y8355D01*
G37*
G36*
G01X11325Y7954D02*
G01X11525Y7954D01*
G01Y8155D01*
G01X11325D01*
G01Y7954D01*
G37*
G36*
G01X10923Y7954D02*
G01X11124Y7954D01*
G01Y8155D01*
G01X10923D01*
G01Y7954D01*
G37*
G36*
G01X10524Y7954D02*
G01X10725Y7954D01*
G01Y8155D01*
G01X10524D01*
G01Y7954D01*
G37*
G36*
G01X13339Y6810D02*
G01X13339Y6485D01*
G01X13639D01*
G01Y6810D01*
G01X13339D01*
G37*
G36*
G01X14146Y6773D02*
G01X14146Y7098D01*
G01X13846D01*
G01Y6773D01*
G01X14146D01*
G37*
G36*
G01X14351Y7098D02*
G01X14351Y6773D01*
G01X14651D01*
G01Y7098D01*
G01X14351D01*
G37*
G36*
G01X14351Y6522D02*
G01X14351Y6197D01*
G01X14651D01*
G01Y6522D01*
G01X14351D01*
G37*
G36*
G01X14146Y6197D02*
G01X14146Y6522D01*
G01X13846D01*
G01Y6197D01*
G01X14146D01*
G37*
G36*
G01X23915Y6328D02*
G01X25615Y6328D01*
G01Y7377D01*
G01X23915D01*
G01Y6328D01*
G37*
G36*
G01X23915Y8879D02*
G01X25615Y8879D01*
G01Y9928D01*
G01X23915D01*
G01Y8879D01*
G37*
G36*
G01X20898Y1675D02*
G01X20898Y2176D01*
G01X20072D01*
G01Y1675D01*
G01X20898D01*
G37*
G36*
G01X20898Y4174D02*
G01X20898Y4675D01*
G01X20072D01*
G01Y4174D01*
G01X20898D01*
G37*
G36*
G01X19298Y4174D02*
G01X19298Y4675D01*
G01X18472D01*
G01Y4174D01*
G01X19298D01*
G37*
G36*
G01X19298Y1675D02*
G01X19298Y2176D01*
G01X18472D01*
G01Y1675D01*
G01X19298D01*
G37*
G36*
G01X18899Y3526D02*
G01X18470Y3526D01*
G01Y2824D01*
G01X18899D01*
G01Y3526D01*
G37*
G36*
G01X20900Y3526D02*
G01X20471Y3526D01*
G01Y2824D01*
G01X20900D01*
G01Y3526D01*
G37*
G36*
G01X21763Y15309D02*
G01X21763Y14409D01*
G01X22563D01*
G01Y15309D01*
G01X21763D01*
G37*
G36*
G01X20363Y15309D02*
G01X20363Y14409D01*
G01X21163D01*
G01Y15309D01*
G01X20363D01*
G37*
G36*
G01X24211Y12758D02*
G01X24211Y13658D01*
G01X23411D01*
G01Y12758D01*
G01X24211D01*
G37*
G36*
G01X25611Y12758D02*
G01X25611Y13658D01*
G01X24811D01*
G01Y12758D01*
G01X25611D01*
G37*
G36*
G01X23541Y2863D02*
G01X23541Y1963D01*
G01X24341D01*
G01Y2863D01*
G01X23541D01*
G37*
G36*
G01X22141Y2863D02*
G01X22141Y1963D01*
G01X22941D01*
G01Y2863D01*
G01X22141D01*
G37*
G36*
G01X25100Y3726D02*
G01X25700Y3726D01*
G01Y4326D01*
G01X25100D01*
G01Y3726D01*
G37*
G36*
G01X25700Y5926D02*
G01X25100Y5926D01*
G01Y5326D01*
G01X25700D01*
G01Y5926D01*
G37*
G36*
G01X9553Y11353D02*
G01X9553Y11802D01*
G01X9274D01*
G01Y11353D01*
G01X9553D01*
G37*
G36*
G01X10213Y11353D02*
G01X10213Y11802D01*
G01X9934D01*
G01Y11353D01*
G01X10213D01*
G37*
G36*
G01X8875Y23572D02*
G01X8875Y26572D01*
G01X6775D01*
G01Y23572D01*
G01X8875D01*
G37*
G36*
G01X20225Y23572D02*
G01X20225Y26572D01*
G01X18125D01*
G01Y23572D01*
G01X20225D01*
G37*
G36*
G01X17025Y21372D02*
G01X17025Y22972D01*
G01X16225D01*
G01Y21372D01*
G01X17025D01*
G37*
G36*
G01X15775Y21372D02*
G01X15775Y22972D01*
G01X14975D01*
G01Y21372D01*
G01X15775D01*
G37*
G36*
G01X14525Y21372D02*
G01X14525Y22972D01*
G01X13725D01*
G01Y21372D01*
G01X14525D01*
G37*
G36*
G01X13275Y21372D02*
G01X13275Y22972D01*
G01X12475D01*
G01Y21372D01*
G01X13275D01*
G37*
G36*
G01X12025Y21372D02*
G01X12025Y22972D01*
G01X11225D01*
G01Y21372D01*
G01X12025D01*
G37*
G36*
G01X10775Y21372D02*
G01X10775Y22972D01*
G01X9975D01*
G01Y21372D01*
G01X10775D01*
G37*
G54D11*
G01X1766Y21034D03*
G01X1766Y19764D03*
G01X1766Y18494D03*
G01X1766Y17224D03*
G01X1766Y15954D03*
G01X1766Y14684D03*
G01X1766Y13414D03*
G01X1766Y12144D03*
G01X7511Y21034D03*
G01X7511Y19764D03*
G01X7511Y18494D03*
G01X7511Y17224D03*
G01X7511Y15954D03*
G01X7511Y14684D03*
G01X7511Y13414D03*
G01X7511Y12144D03*
G36*
G01X5847Y7179D02*
G01X5847Y8336D01*
G01X5357D01*
G01Y7179D01*
G01X5847D01*
G37*
G36*
G01X4897Y7179D02*
G01X4897Y8336D01*
G01X4407D01*
G01Y7179D01*
G01X4897D01*
G37*
G36*
G01X3947Y7179D02*
G01X3947Y8336D01*
G01X3457D01*
G01Y7179D01*
G01X3947D01*
G37*
G36*
G01X3947Y4863D02*
G01X3947Y6038D01*
G01X3457D01*
G01Y4863D01*
G01X3947D01*
G37*
G36*
G01X5847Y4863D02*
G01X5847Y6038D01*
G01X5357D01*
G01Y4863D01*
G01X5847D01*
G37*
G36*
G01X19431Y7366D02*
G01X19050Y7747D01*
G01Y10668D01*
G01X22352D01*
G01Y7366D01*
G01X19431D01*
G37*
G04 Pad End*

M02*
