G04 Layer: TopSilkscreenLayer*
G04 EasyEDA Pro v1.7.31.78bc6e, 2022-08-09 17:47:50*
G04 Gerber Generator version 0.3*
G04 Scale: 100 percent, Rotated: No, Reflected: No*
G04 Dimensions in millimeters*
G04 Leading zeros omitted, absolute positions, 3 integers and 3 decimals*
%FSLAX33Y33*%
%MOMM*%
%ADD10C,0.0762*%
%ADD11C,0.1524*%
%ADD12C,0.0508*%
%ADD13C,0.09906*%
%ADD14C,0.1*%
%ADD15C,0.2557*%
%ADD16C,0.254*%
%ADD17C,0.151994*%
%ADD18C,0.12954*%
%ADD19C,0.06096*%
%ADD20C,0.127*%
%ADD21C,0.14986*%
%ADD22C,0.299999*%
G75*


G04 Text Start*
G04 //text: GND*
G04 SCL*
G04 SDA*
G04 VCC*
G54D10*
G01X24989Y21669D02*
G01X24961Y21727D01*
G01X24902Y21786D01*
G01X24844Y21816D01*
G01X24724D01*
G01X24666Y21786D01*
G01X24608Y21727D01*
G01X24580Y21669D01*
G01X24549Y21580D01*
G01Y21433D01*
G01X24580Y21346D01*
G01X24608Y21288D01*
G01X24666Y21227D01*
G01X24724Y21199D01*
G01X24844D01*
G01X24902Y21227D01*
G01X24961Y21288D01*
G01X24989Y21346D01*
G01Y21433D01*
G01X24844Y21433D02*
G01X24989Y21433D01*
G01X25207Y21816D02*
G01X25207Y21199D01*
G01X25207Y21816D02*
G01X25618Y21199D01*
G01X25618Y21816D02*
G01X25618Y21199D01*
G01X25834Y21816D02*
G01X25834Y21199D01*
G01X25834Y21816D02*
G01X26040Y21816D01*
G01X26129Y21786D01*
G01X26187Y21727D01*
G01X26218Y21669D01*
G01X26246Y21580D01*
G01Y21433D01*
G01X26218Y21346D01*
G01X26187Y21288D01*
G01X26129Y21227D01*
G01X26040Y21199D01*
G01X25834D01*
G01X24961Y20711D02*
G01X24902Y20770D01*
G01X24813Y20800D01*
G01X24696D01*
G01X24608Y20770D01*
G01X24549Y20711D01*
G01Y20653D01*
G01X24580Y20594D01*
G01X24608Y20564D01*
G01X24666Y20536D01*
G01X24844Y20477D01*
G01X24902Y20447D01*
G01X24930Y20417D01*
G01X24961Y20358D01*
G01Y20272D01*
G01X24902Y20211D01*
G01X24813Y20183D01*
G01X24696D01*
G01X24608Y20211D01*
G01X24549Y20272D01*
G01X25618Y20653D02*
G01X25588Y20711D01*
G01X25530Y20770D01*
G01X25471Y20800D01*
G01X25354D01*
G01X25296Y20770D01*
G01X25237Y20711D01*
G01X25207Y20653D01*
G01X25176Y20564D01*
G01Y20417D01*
G01X25207Y20330D01*
G01X25237Y20272D01*
G01X25296Y20211D01*
G01X25354Y20183D01*
G01X25471D01*
G01X25530Y20211D01*
G01X25588Y20272D01*
G01X25618Y20330D01*
G01X25834Y20800D02*
G01X25834Y20183D01*
G01X25834Y20183D02*
G01X26187Y20183D01*
G01X24961Y19695D02*
G01X24902Y19754D01*
G01X24813Y19784D01*
G01X24696D01*
G01X24608Y19754D01*
G01X24549Y19695D01*
G01Y19637D01*
G01X24580Y19578D01*
G01X24608Y19548D01*
G01X24666Y19520D01*
G01X24844Y19461D01*
G01X24902Y19431D01*
G01X24930Y19401D01*
G01X24961Y19342D01*
G01Y19256D01*
G01X24902Y19195D01*
G01X24813Y19167D01*
G01X24696D01*
G01X24608Y19195D01*
G01X24549Y19256D01*
G01X25176Y19784D02*
G01X25176Y19167D01*
G01X25176Y19784D02*
G01X25382Y19784D01*
G01X25471Y19754D01*
G01X25530Y19695D01*
G01X25560Y19637D01*
G01X25588Y19548D01*
G01Y19401D01*
G01X25560Y19314D01*
G01X25530Y19256D01*
G01X25471Y19195D01*
G01X25382Y19167D01*
G01X25176D01*
G01X26040Y19784D02*
G01X25806Y19167D01*
G01X26040Y19784D02*
G01X26276Y19167D01*
G01X25893Y19373D02*
G01X26187Y19373D01*
G01X24549Y18768D02*
G01X24785Y18151D01*
G01X25019Y18768D02*
G01X24785Y18151D01*
G01X25677Y18621D02*
G01X25646Y18679D01*
G01X25588Y18738D01*
G01X25530Y18768D01*
G01X25413D01*
G01X25354Y18738D01*
G01X25296Y18679D01*
G01X25265Y18621D01*
G01X25237Y18532D01*
G01Y18385D01*
G01X25265Y18298D01*
G01X25296Y18240D01*
G01X25354Y18179D01*
G01X25413Y18151D01*
G01X25530D01*
G01X25588Y18179D01*
G01X25646Y18240D01*
G01X25677Y18298D01*
G01X26335Y18621D02*
G01X26304Y18679D01*
G01X26246Y18738D01*
G01X26187Y18768D01*
G01X26071D01*
G01X26012Y18738D01*
G01X25954Y18679D01*
G01X25923Y18621D01*
G01X25893Y18532D01*
G01Y18385D01*
G01X25923Y18298D01*
G01X25954Y18240D01*
G01X26012Y18179D01*
G01X26071Y18151D01*
G01X26187D01*
G01X26246Y18179D01*
G01X26304Y18240D01*
G01X26335Y18298D01*
G04 //text: git-3c68de*
G01X1290Y3851D02*
G01X1633Y3851D01*
G01X1697Y3830D01*
G01X1720Y3807D01*
G01X1740Y3767D01*
G01Y3701D01*
G01X1720Y3658D01*
G01X1354Y3851D02*
G01X1311Y3807D01*
G01X1290Y3767D01*
G01Y3701D01*
G01X1311Y3658D01*
G01X1354Y3614D01*
G01X1417Y3594D01*
G01X1461D01*
G01X1527Y3614D01*
G01X1570Y3658D01*
G01X1590Y3701D01*
G01Y3767D01*
G01X1570Y3807D01*
G01X1527Y3851D01*
G01X1140Y4031D02*
G01X1161Y4051D01*
G01X1140Y4074D01*
G01X1118Y4051D01*
G01X1140Y4031D01*
G01X1290Y4051D02*
G01X1590Y4051D01*
G01X1140Y4315D02*
G01X1504Y4315D01*
G01X1570Y4338D01*
G01X1590Y4382D01*
G01Y4425D01*
G01X1290Y4252D02*
G01X1290Y4402D01*
G01X1397Y4602D02*
G01X1397Y4989D01*
G01X1140Y5210D02*
G01X1140Y5446D01*
G01X1311Y5319D01*
G01Y5382D01*
G01X1334Y5425D01*
G01X1354Y5446D01*
G01X1417Y5469D01*
G01X1461D01*
G01X1527Y5446D01*
G01X1570Y5403D01*
G01X1590Y5339D01*
G01Y5276D01*
G01X1570Y5210D01*
G01X1547Y5189D01*
G01X1504Y5169D01*
G01X1354Y5903D02*
G01X1311Y5862D01*
G01X1290Y5819D01*
G01Y5753D01*
G01X1311Y5710D01*
G01X1354Y5669D01*
G01X1417Y5646D01*
G01X1461D01*
G01X1527Y5669D01*
G01X1570Y5710D01*
G01X1590Y5753D01*
G01Y5819D01*
G01X1570Y5862D01*
G01X1527Y5903D01*
G01X1204Y6340D02*
G01X1161Y6320D01*
G01X1140Y6253D01*
G01Y6213D01*
G01X1161Y6147D01*
G01X1227Y6104D01*
G01X1334Y6083D01*
G01X1440D01*
G01X1527Y6104D01*
G01X1570Y6147D01*
G01X1590Y6213D01*
G01Y6233D01*
G01X1570Y6297D01*
G01X1527Y6340D01*
G01X1461Y6363D01*
G01X1440D01*
G01X1377Y6340D01*
G01X1334Y6297D01*
G01X1311Y6233D01*
G01Y6213D01*
G01X1334Y6147D01*
G01X1377Y6104D01*
G01X1440Y6083D01*
G01X1140Y6647D02*
G01X1161Y6584D01*
G01X1204Y6563D01*
G01X1247D01*
G01X1290Y6584D01*
G01X1311Y6627D01*
G01X1334Y6713D01*
G01X1354Y6777D01*
G01X1397Y6820D01*
G01X1440Y6840D01*
G01X1504D01*
G01X1547Y6820D01*
G01X1570Y6797D01*
G01X1590Y6734D01*
G01Y6647D01*
G01X1570Y6584D01*
G01X1547Y6563D01*
G01X1504Y6541D01*
G01X1440D01*
G01X1397Y6563D01*
G01X1354Y6604D01*
G01X1334Y6670D01*
G01X1311Y6754D01*
G01X1290Y6797D01*
G01X1247Y6820D01*
G01X1204D01*
G01X1161Y6797D01*
G01X1140Y6734D01*
G01Y6647D01*
G01X1140Y7277D02*
G01X1590Y7277D01*
G01X1354Y7277D02*
G01X1311Y7234D01*
G01X1290Y7191D01*
G01Y7127D01*
G01X1311Y7084D01*
G01X1354Y7041D01*
G01X1417Y7021D01*
G01X1461D01*
G01X1527Y7041D01*
G01X1570Y7084D01*
G01X1590Y7127D01*
G01Y7191D01*
G01X1570Y7234D01*
G01X1527Y7277D01*
G01X1417Y7455D02*
G01X1417Y7714D01*
G01X1377D01*
G01X1334Y7691D01*
G01X1311Y7671D01*
G01X1290Y7628D01*
G01Y7564D01*
G01X1311Y7521D01*
G01X1354Y7478D01*
G01X1417Y7455D01*
G01X1461D01*
G01X1527Y7478D01*
G01X1570Y7521D01*
G01X1590Y7564D01*
G01Y7628D01*
G01X1570Y7671D01*
G01X1527Y7714D01*
G04 //text: 202208090857*
G01X2263Y3614D02*
G01X2243Y3614D01*
G01X2200Y3637D01*
G01X2177Y3658D01*
G01X2156Y3701D01*
G01Y3787D01*
G01X2177Y3830D01*
G01X2200Y3851D01*
G01X2243Y3874D01*
G01X2283D01*
G01X2327Y3851D01*
G01X2393Y3807D01*
G01X2606Y3594D01*
G01Y3894D01*
G01X2156Y4201D02*
G01X2177Y4138D01*
G01X2243Y4094D01*
G01X2350Y4074D01*
G01X2413D01*
G01X2520Y4094D01*
G01X2586Y4138D01*
G01X2606Y4201D01*
G01Y4244D01*
G01X2586Y4308D01*
G01X2520Y4351D01*
G01X2413Y4374D01*
G01X2350D01*
G01X2243Y4351D01*
G01X2177Y4308D01*
G01X2156Y4244D01*
G01Y4201D01*
G01X2263Y4575D02*
G01X2243Y4575D01*
G01X2200Y4595D01*
G01X2177Y4618D01*
G01X2156Y4658D01*
G01Y4745D01*
G01X2177Y4788D01*
G01X2200Y4811D01*
G01X2243Y4831D01*
G01X2283D01*
G01X2327Y4811D01*
G01X2393Y4768D01*
G01X2606Y4552D01*
G01Y4851D01*
G01X2263Y5052D02*
G01X2243Y5052D01*
G01X2200Y5075D01*
G01X2177Y5095D01*
G01X2156Y5138D01*
G01Y5225D01*
G01X2177Y5268D01*
G01X2200Y5288D01*
G01X2243Y5311D01*
G01X2283D01*
G01X2327Y5288D01*
G01X2393Y5245D01*
G01X2606Y5032D01*
G01Y5331D01*
G01X2156Y5639D02*
G01X2177Y5575D01*
G01X2243Y5532D01*
G01X2350Y5512D01*
G01X2413D01*
G01X2520Y5532D01*
G01X2586Y5575D01*
G01X2606Y5639D01*
G01Y5682D01*
G01X2586Y5745D01*
G01X2520Y5789D01*
G01X2413Y5812D01*
G01X2350D01*
G01X2243Y5789D01*
G01X2177Y5745D01*
G01X2156Y5682D01*
G01Y5639D01*
G01X2156Y6096D02*
G01X2177Y6033D01*
G01X2220Y6012D01*
G01X2263D01*
G01X2306Y6033D01*
G01X2327Y6076D01*
G01X2350Y6162D01*
G01X2370Y6226D01*
G01X2413Y6269D01*
G01X2456Y6289D01*
G01X2520D01*
G01X2563Y6269D01*
G01X2586Y6246D01*
G01X2606Y6182D01*
G01Y6096D01*
G01X2586Y6033D01*
G01X2563Y6012D01*
G01X2520Y5989D01*
G01X2456D01*
G01X2413Y6012D01*
G01X2370Y6053D01*
G01X2350Y6119D01*
G01X2327Y6205D01*
G01X2306Y6246D01*
G01X2263Y6269D01*
G01X2220D01*
G01X2177Y6246D01*
G01X2156Y6182D01*
G01Y6096D01*
G01X2156Y6596D02*
G01X2177Y6533D01*
G01X2243Y6490D01*
G01X2350Y6469D01*
G01X2413D01*
G01X2520Y6490D01*
G01X2586Y6533D01*
G01X2606Y6596D01*
G01Y6640D01*
G01X2586Y6706D01*
G01X2520Y6746D01*
G01X2413Y6769D01*
G01X2350D01*
G01X2243Y6746D01*
G01X2177Y6706D01*
G01X2156Y6640D01*
G01Y6596D01*
G01X2306Y7226D02*
G01X2370Y7206D01*
G01X2413Y7163D01*
G01X2433Y7097D01*
G01Y7076D01*
G01X2413Y7013D01*
G01X2370Y6970D01*
G01X2306Y6947D01*
G01X2283D01*
G01X2220Y6970D01*
G01X2177Y7013D01*
G01X2156Y7076D01*
G01Y7097D01*
G01X2177Y7163D01*
G01X2220Y7206D01*
G01X2306Y7226D01*
G01X2413D01*
G01X2520Y7206D01*
G01X2586Y7163D01*
G01X2606Y7097D01*
G01Y7056D01*
G01X2586Y6990D01*
G01X2543Y6970D01*
G01X2156Y7534D02*
G01X2177Y7470D01*
G01X2243Y7427D01*
G01X2350Y7407D01*
G01X2413D01*
G01X2520Y7427D01*
G01X2586Y7470D01*
G01X2606Y7534D01*
G01Y7577D01*
G01X2586Y7640D01*
G01X2520Y7684D01*
G01X2413Y7706D01*
G01X2350D01*
G01X2243Y7684D01*
G01X2177Y7640D01*
G01X2156Y7577D01*
G01Y7534D01*
G01X2156Y7991D02*
G01X2177Y7927D01*
G01X2220Y7907D01*
G01X2263D01*
G01X2306Y7927D01*
G01X2327Y7971D01*
G01X2350Y8057D01*
G01X2370Y8120D01*
G01X2413Y8164D01*
G01X2456Y8184D01*
G01X2520D01*
G01X2563Y8164D01*
G01X2586Y8141D01*
G01X2606Y8077D01*
G01Y7991D01*
G01X2586Y7927D01*
G01X2563Y7907D01*
G01X2520Y7884D01*
G01X2456D01*
G01X2413Y7907D01*
G01X2370Y7950D01*
G01X2350Y8014D01*
G01X2327Y8100D01*
G01X2306Y8141D01*
G01X2263Y8164D01*
G01X2220D01*
G01X2177Y8141D01*
G01X2156Y8077D01*
G01Y7991D01*
G01X2156Y8621D02*
G01X2156Y8407D01*
G01X2350Y8385D01*
G01X2327Y8407D01*
G01X2306Y8471D01*
G01Y8534D01*
G01X2327Y8600D01*
G01X2370Y8644D01*
G01X2433Y8664D01*
G01X2477D01*
G01X2543Y8644D01*
G01X2586Y8600D01*
G01X2606Y8534D01*
G01Y8471D01*
G01X2586Y8407D01*
G01X2563Y8385D01*
G01X2520Y8364D01*
G01X2156Y9144D02*
G01X2606Y8928D01*
G01X2156Y8842D02*
G01X2156Y9144D01*
G04 //text: e*
G36*
G01X13445Y4110D02*
G01X13415Y4109D01*
G01X13386Y4107D01*
G01X13368Y4103D01*
G01X13361Y4100D01*
G01X13312Y4076D01*
G01X13292Y4064D01*
G01X13280Y4055D01*
G01X13257Y4035D01*
G01X13241Y4023D01*
G01X13234Y4016D01*
G01X13229Y4009D01*
G01X13222Y3991D01*
G01X13210Y3971D01*
G01X13190Y3943D01*
G01X13180Y3925D01*
G01X13162Y3892D01*
G01X13122Y3827D01*
G01X13109Y3805D01*
G01X13099Y3784D01*
G01X13087Y3756D01*
G01X13079Y3742D01*
G01X13072Y3730D01*
G01X13046Y3693D01*
G01X13029Y3666D01*
G01X13006Y3626D01*
G01X12983Y3582D01*
G01X12971Y3562D01*
G01X12948Y3522D01*
G01X12933Y3493D01*
G01X12922Y3475D01*
G01X12905Y3452D01*
G01X12898Y3439D01*
G01X12891Y3426D01*
G01X12879Y3398D01*
G01X12872Y3384D01*
G01X12864Y3372D01*
G01X12847Y3348D01*
G01X12840Y3335D01*
G01X12833Y3322D01*
G01X12815Y3283D01*
G01X12810Y3274D01*
G01X12798Y3261D01*
G01X12786Y3244D01*
G01X12769Y3211D01*
G01X12746Y3173D01*
G01X12718Y3121D01*
G01X12706Y3100D01*
G01X12637Y2985D01*
G01X12622Y2959D01*
G01X12820D01*
G01X12821Y2970D01*
G01X12825Y2982D01*
G01X12833Y2996D01*
G01X12855Y3036D01*
G01X12873Y3070D01*
G01X12913Y3134D01*
G01X12936Y3174D01*
G01X12954Y3208D01*
G01X12971Y3236D01*
G01X12977Y3247D01*
G01X12995Y3286D01*
G01X13003Y3303D01*
G01X13009Y3311D01*
G01X13018Y3320D01*
G01X13029Y3338D01*
G01X13044Y3366D01*
G01X13056Y3383D01*
G01X13072Y3406D01*
G01X13079Y3419D01*
G01X13087Y3432D01*
G01X13101Y3467D01*
G01X13113Y3488D01*
G01X13145Y3539D01*
G01X13179Y3597D01*
G01X13202Y3636D01*
G01X13220Y3670D01*
G01X13243Y3707D01*
G01X13266Y3751D01*
G01X13306Y3816D01*
G01X13315Y3830D01*
G01X13325Y3843D01*
G01X13336Y3856D01*
G01X13347Y3868D01*
G01X13364Y3884D01*
G01X13378Y3892D01*
G01X13391Y3899D01*
G01X13406Y3905D01*
G01X13429Y3911D01*
G01X13445Y3913D01*
G01X13471Y3914D01*
G01X13487Y3912D01*
G01X13503Y3907D01*
G01X13518Y3900D01*
G01X13526Y3896D01*
G01X13572Y3868D01*
G01X13580Y3861D01*
G01X13586Y3853D01*
G01X13591Y3844D01*
G01X13598Y3822D01*
G01X13602Y3813D01*
G01X13607Y3805D01*
G01X13618Y3792D01*
G01X13630Y3774D01*
G01X13647Y3742D01*
G01X13670Y3705D01*
G01X13698Y3652D01*
G01X13710Y3631D01*
G01X13780Y3515D01*
G01X13792Y3494D01*
G01X13802Y3472D01*
G01X13814Y3445D01*
G01X13823Y3428D01*
G01X13829Y3420D01*
G01X13837Y3411D01*
G01X13849Y3393D01*
G01X13866Y3361D01*
G01X13889Y3324D01*
G01X13912Y3280D01*
G01X13929Y3252D01*
G01X13934Y3242D01*
G01X13938Y3229D01*
G01X13941Y3216D01*
G01X13942Y3209D01*
G01Y3202D01*
G01X13940Y3196D01*
G01X13937Y3191D01*
G01X13932Y3186D01*
G01X13927Y3182D01*
G01X13920Y3178D01*
G01X13889Y3166D01*
G01X13865Y3155D01*
G01X13856Y3149D01*
G01X13842Y3144D01*
G01X13825Y3140D01*
G01X13791Y3134D01*
G01X13750Y3131D01*
G01X13595Y3129D01*
G01X13468Y3127D01*
G01X13440Y3124D01*
G01X13435Y3123D01*
G01X13413Y3117D01*
G01X13373Y3108D01*
G01X13347Y3100D01*
G01X13335Y3094D01*
G01X13289Y3071D01*
G01X13267Y3060D01*
G01X13110Y2962D01*
G01X13091Y2949D01*
G01X13072Y2936D01*
G01X13063Y2927D01*
G01X13045Y2915D01*
G01X13024Y2903D01*
G01X13014Y2897D01*
G01X13007Y2889D01*
G01X13000Y2880D01*
G01X12994Y2873D01*
G01X12986Y2869D01*
G01X12976Y2868D01*
G01X12966Y2869D01*
G01X12925Y2880D01*
G01X12908Y2888D01*
G01X12872Y2909D01*
G01X12840Y2927D01*
G01X12832Y2934D01*
G01X12828Y2938D01*
G01X12825Y2941D01*
G01X12823Y2945D01*
G01X12821Y2950D01*
G01X12820Y2959D01*
G01X12622D01*
G01X12614Y2944D01*
G01X12591Y2901D01*
G01X12579Y2880D01*
G01X12550Y2832D01*
G01X13032D01*
G01X13033Y2842D01*
G01X13040Y2852D01*
G01X13052Y2863D01*
G01X13089Y2892D01*
G01X13098Y2898D01*
G01X13191Y2956D01*
G01X13249Y2997D01*
G01X13266Y3007D01*
G01X13277Y3013D01*
G01X13323Y3036D01*
G01X13343Y3045D01*
G01X13381Y3060D01*
G01X13399Y3065D01*
G01X13416Y3068D01*
G01X13433Y3070D01*
G01X13467Y3071D01*
G01X13492Y3074D01*
G01X13512Y3079D01*
G01X13535Y3082D01*
G01X13562D01*
G01X13585Y3079D01*
G01X13600Y3075D01*
G01X13628Y3072D01*
G01X13693Y3071D01*
G01X13752Y3072D01*
G01X13783Y3075D01*
G01X13791Y3077D01*
G01X13879Y3110D01*
G01X13902Y3119D01*
G01X13936Y3134D01*
G01X13948Y3137D01*
G01X13962Y3139D01*
G01X13976Y3140D01*
G01X13983D01*
G01X13989Y3139D01*
G01X13994Y3137D01*
G01X13999Y3134D01*
G01X14003Y3131D01*
G01X14006Y3127D01*
G01X14009Y3123D01*
G01X14012Y3112D01*
G01X14016Y3100D01*
G01X14022Y3089D01*
G01X14042Y3059D01*
G01X14049Y3046D01*
G01X14056Y3033D01*
G01X14074Y2995D01*
G01X14080Y2986D01*
G01X14085Y2979D01*
G01X14091Y2972D01*
G01X14103Y2951D01*
G01X14120Y2914D01*
G01X14126Y2905D01*
G01X14138Y2892D01*
G01X14149Y2874D01*
G01X14166Y2842D01*
G01X14178Y2823D01*
G01X14183Y2814D01*
G01X14186Y2804D01*
G01X14188Y2793D01*
G01X14189Y2782D01*
G01X14188Y2772D01*
G01X14185Y2763D01*
G01X14180Y2754D01*
G01X14164Y2741D01*
G01X14156Y2734D01*
G01X14149Y2724D01*
G01X14132Y2691D01*
G01X14115Y2664D01*
G01X14106Y2644D01*
G01X14095Y2609D01*
G01X14085Y2586D01*
G01X14069Y2555D01*
G01X14056Y2534D01*
G01X14048Y2521D01*
G01X14035Y2505D01*
G01X14026Y2497D01*
G01X14014Y2488D01*
G01X13999Y2473D01*
G01X13986Y2456D01*
G01X13977Y2448D01*
G01X13966Y2439D01*
G01X13933Y2418D01*
G01X13916Y2404D01*
G01X13906Y2396D01*
G01X13888Y2384D01*
G01X13872Y2376D01*
G01X13859Y2372D01*
G01X13847Y2371D01*
G01X13833D01*
G01X13826Y2372D01*
G01X13804Y2378D01*
G01X13783Y2385D01*
G01X13754Y2396D01*
G01X13740Y2403D01*
G01X13728Y2410D01*
G01X13699Y2431D01*
G01X13681Y2441D01*
G01X13639Y2464D01*
G01X13618Y2477D01*
G01X13560Y2511D01*
G01X13520Y2534D01*
G01X13486Y2552D01*
G01X13421Y2592D01*
G01X13382Y2615D01*
G01X13348Y2632D01*
G01X13311Y2655D01*
G01X13267Y2679D01*
G01X13202Y2719D01*
G01X13162Y2742D01*
G01X13129Y2759D01*
G01X13091Y2782D01*
G01X13059Y2800D01*
G01X13050Y2807D01*
G01X13041Y2814D01*
G01X13035Y2823D01*
G01X13032Y2832D01*
G01X12550D01*
G01X12510Y2765D01*
G01X12487Y2725D01*
G01X12458Y2667D01*
G01X12448Y2650D01*
G01X12437Y2632D01*
G01X12417Y2604D01*
G01X12406Y2586D01*
G01X12388Y2553D01*
G01X12348Y2488D01*
G01X12336Y2468D01*
G01X12327Y2447D01*
G01X12321Y2433D01*
G01X12310Y2412D01*
G01X12294Y2390D01*
G01X12286Y2377D01*
G01X12279Y2364D01*
G01X12261Y2325D01*
G01X12256Y2316D01*
G01X12244Y2303D01*
G01X12233Y2285D01*
G01X12210Y2243D01*
G01X12198Y2223D01*
G01X12157Y2156D01*
G01X12140Y2117D01*
G01X12132Y2101D01*
G01X12125Y2093D01*
G01X12117Y2083D01*
G01X12106Y2066D01*
G01X12088Y2034D01*
G01X12071Y2005D01*
G01X12065Y1994D01*
G01X12045Y1949D01*
G01X12034Y1927D01*
G01X12027Y1917D01*
G01X12025Y1910D01*
G01X12024Y1905D01*
G01X12215D01*
G01X12216Y1916D01*
G01X12218Y1927D01*
G01X12221Y1936D01*
G01X12233Y1955D01*
G01X12238Y1965D01*
G01X12256Y2005D01*
G01X12264Y2021D01*
G01X12270Y2029D01*
G01X12278Y2039D01*
G01X12290Y2056D01*
G01X12312Y2098D01*
G01X12325Y2118D01*
G01X12365Y2185D01*
G01X12383Y2225D01*
G01X12391Y2240D01*
G01X12397Y2248D01*
G01X12405Y2258D01*
G01X12417Y2275D01*
G01X12434Y2308D01*
G01X12458Y2345D01*
G01X12481Y2389D01*
G01X12504Y2426D01*
G01X12527Y2469D01*
G01X12567Y2534D01*
G01X12590Y2574D01*
G01X12608Y2608D01*
G01X12631Y2645D01*
G01X12654Y2689D01*
G01X12677Y2726D01*
G01X12705Y2779D01*
G01X12722Y2807D01*
G01X12727Y2812D01*
G01X12732Y2816D01*
G01X12738Y2820D01*
G01X12744Y2822D01*
G01X12750Y2823D01*
G01X12756Y2824D01*
G01X12771Y2821D01*
G01X12784Y2817D01*
G01X12798Y2811D01*
G01X12810Y2804D01*
G01X12833Y2787D01*
G01X12850Y2777D01*
G01X12867Y2768D01*
G01X12872Y2764D01*
G01X12876Y2760D01*
G01X12879Y2755D01*
G01X12881Y2750D01*
G01X12883Y2744D01*
G01X12884Y2738D01*
G01Y2723D01*
G01X12883Y2711D01*
G01X12880Y2701D01*
G01X12878Y2697D01*
G01X12876Y2693D01*
G01X12868Y2683D01*
G01X12863Y2674D01*
G01X12859Y2663D01*
G01X12852Y2636D01*
G01X12846Y2618D01*
G01X12841Y2608D01*
G01X12833Y2594D01*
G01X12829Y2583D01*
G01X12824Y2571D01*
G01X12817Y2538D01*
G01X12811Y2520D01*
G01X12810Y2517D01*
G01X12862D01*
G01X12863Y2543D01*
G01X12865Y2569D01*
G01X12868Y2581D01*
G01X12871Y2587D01*
G01X12885Y2612D01*
G01X12902Y2652D01*
G01X12909Y2665D01*
G01X12917Y2678D01*
G01X12930Y2695D01*
G01X12934Y2700D01*
G01X12939Y2704D01*
G01X12944Y2706D01*
G01X12949Y2708D01*
G01X12955Y2709D01*
G01X12960D01*
G01X12966Y2708D01*
G01X12976Y2704D01*
G01X12986Y2700D01*
G01X12994Y2695D01*
G01X13006Y2685D01*
G01X13013Y2680D01*
G01X13021Y2676D01*
G01X13038Y2669D01*
G01X13058Y2658D01*
G01X13087Y2638D01*
G01X13104Y2627D01*
G01X13121Y2618D01*
G01X13126Y2614D01*
G01X13130Y2611D01*
G01X13133Y2607D01*
G01X13135Y2602D01*
G01X13137Y2597D01*
G01X13138Y2592D01*
G01X13139Y2586D01*
G01X13138Y2576D01*
G01X13136Y2566D01*
G01X13132Y2558D01*
G01X13122Y2546D01*
G01X13117Y2538D01*
G01X13113Y2531D01*
G01X13103Y2505D01*
G01X13093Y2488D01*
G01X13088Y2479D01*
G01X13084Y2466D01*
G01X13083Y2460D01*
G01X13127D01*
G01X13129Y2472D01*
G01X13132Y2483D01*
G01X13134Y2487D01*
G01X13136Y2491D01*
G01X13145Y2500D01*
G01X13156Y2518D01*
G01X13173Y2549D01*
G01X13182Y2560D01*
G01X13185Y2563D01*
G01X13191Y2567D01*
G01X13199D01*
G01X13209Y2564D01*
G01X13220Y2557D01*
G01X13225Y2553D01*
G01X13229Y2548D01*
G01X13232Y2543D01*
G01X13234Y2537D01*
G01X13235Y2531D01*
G01Y2525D01*
G01X13233Y2518D01*
G01X13226Y2493D01*
G01X13222Y2469D01*
G01X13220Y2438D01*
G01Y2430D01*
G01X13266D01*
G01Y2457D01*
G01X13269Y2478D01*
G01X13272Y2488D01*
G01X13275Y2496D01*
G01X13279Y2502D01*
G01X13283Y2507D01*
G01X13289Y2511D01*
G01X13295Y2513D01*
G01X13302D01*
G01X13310Y2510D01*
G01X13318Y2505D01*
G01X13326Y2499D01*
G01X13332Y2492D01*
G01X13337Y2485D01*
G01X13341Y2477D01*
G01X13345Y2456D01*
G01X13347Y2423D01*
G01X13348Y2413D01*
G01X13407D01*
G01X13408Y2422D01*
G01X13410Y2430D01*
G01X13414Y2437D01*
G01X13421Y2440D01*
G01X13432D01*
G01X13445Y2436D01*
G01X13451Y2433D01*
G01X13457Y2430D01*
G01X13463Y2426D01*
G01X13467Y2422D01*
G01X13470Y2417D01*
G01X13472Y2412D01*
G01X13473Y2407D01*
G01X13474Y2401D01*
G01X13472Y2391D01*
G01X13468Y2383D01*
G01X13460Y2376D01*
G01X13450Y2372D01*
G01X13440Y2370D01*
G01X13432D01*
G01X13425D01*
G01X13421Y2372D01*
G01X13416Y2382D01*
G01X13410Y2396D01*
G01X13408Y2404D01*
G01X13407Y2413D01*
G01X13348D01*
G01Y2410D01*
G01X13351Y2399D01*
G01X13355Y2389D01*
G01X13363Y2375D01*
G01X13368Y2364D01*
G01X13372Y2352D01*
G01X13377Y2331D01*
G01Y2318D01*
G01X13376Y2306D01*
G01X13374Y2301D01*
G01X13372Y2296D01*
G01X13370Y2292D01*
G01X13363Y2283D01*
G01X13355Y2276D01*
G01X13346Y2269D01*
G01X13335Y2263D01*
G01X13324Y2258D01*
G01X13316Y2256D01*
G01X13310D01*
G01X13306Y2257D01*
G01X13299Y2266D01*
G01X13289Y2280D01*
G01X13284Y2290D01*
G01X13280Y2300D01*
G01X13278Y2313D01*
G01X13277Y2340D01*
G01X13274Y2363D01*
G01X13272Y2372D01*
G01X13269Y2383D01*
G01X13267Y2396D01*
G01X13266Y2430D01*
G01X13220D01*
G01Y2401D01*
G01X13221Y2357D01*
G01X13222Y2335D01*
G01X13226Y2313D01*
G01X13230Y2301D01*
G01X13246Y2266D01*
G01X13254Y2245D01*
G01X13272Y2200D01*
G01X13274Y2191D01*
G01X13273Y2182D01*
G01X13270Y2173D01*
G01X13266Y2165D01*
G01X13260Y2157D01*
G01X13253Y2150D01*
G01X13245Y2145D01*
G01X13237Y2142D01*
G01X13229Y2140D01*
G01X13222Y2139D01*
G01X13217Y2140D01*
G01X13214Y2142D01*
G01X13210Y2145D01*
G01X13179Y2165D01*
G01X13172Y2170D01*
G01X13166Y2175D01*
G01X13162Y2182D01*
G01X13158Y2189D01*
G01X13154Y2198D01*
G01X13152Y2207D01*
G01X13150Y2228D01*
G01X13151Y2259D01*
G01X13154Y2281D01*
G01X13156Y2292D01*
G01X13158Y2300D01*
G01X13159Y2309D01*
G01X13158Y2318D01*
G01X13148Y2356D01*
G01X13136Y2398D01*
G01X13130Y2417D01*
G01X13128Y2440D01*
G01X13127Y2460D01*
G01X13083D01*
G01X13082Y2452D01*
G01X13081Y2436D01*
G01X13083Y2406D01*
G01X13086Y2389D01*
G01X13104Y2332D01*
G01X13109Y2315D01*
G01X13113Y2300D01*
G01X13116Y2280D01*
G01X13115Y2263D01*
G01X13112Y2243D01*
G01X13108Y2224D01*
G01X13107Y2209D01*
G01X13108Y2192D01*
G01X13110Y2171D01*
G01X13113Y2149D01*
G01X13119Y2124D01*
G01X13124Y2112D01*
G01X13130Y2102D01*
G01X13135Y2089D01*
G01X13139Y2074D01*
G01X13189D01*
G01Y2079D01*
G01Y2084D01*
G01X13190Y2088D01*
G01X13192Y2091D01*
G01X13194Y2093D01*
G01X13196Y2096D01*
G01X13206Y2092D01*
G01X13207Y2090D01*
G01X13277D01*
G01X13278Y2101D01*
G01X13282Y2113D01*
G01X13287Y2124D01*
G01X13307Y2153D01*
G01X13317Y2171D01*
G01X13329Y2193D01*
G01X13337Y2202D01*
G01X13344Y2210D01*
G01X13360Y2223D01*
G01X13375Y2237D01*
G01X13394Y2262D01*
G01X13418Y2280D01*
G01X13433Y2295D01*
G01X13445Y2311D01*
G01X13452Y2318D01*
G01X13459Y2323D01*
G01X13476Y2330D01*
G01X13484Y2334D01*
G01X13490Y2338D01*
G01X13504Y2349D01*
G01X13512Y2354D01*
G01X13523Y2358D01*
G01X13544Y2362D01*
G01X13551Y2363D01*
G01X13558Y2362D01*
G01X13565Y2361D01*
G01X13571Y2359D01*
G01X13577Y2357D01*
G01X13583Y2354D01*
G01X13601Y2341D01*
G01X13612Y2335D01*
G01X13905D01*
G01X13908Y2342D01*
G01X13914Y2349D01*
G01X13934Y2361D01*
G01X13952Y2372D01*
G01X13964Y2384D01*
G01X13987Y2401D01*
G01X14003Y2415D01*
G01X14022Y2438D01*
G01X14037Y2453D01*
G01X14061Y2472D01*
G01X14074Y2488D01*
G01X14111Y2540D01*
G01X14120Y2557D01*
G01X14124Y2569D01*
G01X14133Y2598D01*
G01X14153Y2643D01*
G01X14164Y2670D01*
G01X14168Y2677D01*
G01X14172Y2684D01*
G01X14178Y2690D01*
G01X14201Y2713D01*
G01X14207Y2718D01*
G01X14214Y2720D01*
G01X14221Y2721D01*
G01X14230Y2719D01*
G01X14238Y2715D01*
G01X14244Y2710D01*
G01X14249Y2704D01*
G01X14256Y2687D01*
G01X14265Y2670D01*
G01X14299Y2615D01*
G01X14322Y2575D01*
G01X14339Y2542D01*
G01X14380Y2477D01*
G01X14403Y2436D01*
G01X14420Y2403D01*
G01X14443Y2365D01*
G01X14471Y2312D01*
G01X14484Y2292D01*
G01X14553Y2176D01*
G01X14576Y2136D01*
G01X14598Y2093D01*
G01X14611Y2073D01*
G01X14646Y2015D01*
G01X14658Y1993D01*
G01X14668Y1972D01*
G01X14674Y1957D01*
G01X14691Y1911D01*
G01X14693Y1902D01*
G01Y1895D01*
G01X14690Y1888D01*
G01X14686Y1882D01*
G01X14679Y1878D01*
G01X14670Y1876D01*
G01X14659Y1878D01*
G01X14646Y1882D01*
G01X14631Y1888D01*
G01X14618Y1895D01*
G01X14606Y1902D01*
G01X14582Y1919D01*
G01X14569Y1927D01*
G01X14556Y1933D01*
G01X14517Y1951D01*
G01X14508Y1957D01*
G01X14495Y1969D01*
G01X14477Y1980D01*
G01X14445Y1997D01*
G01X14407Y2020D01*
G01X14368Y2042D01*
G01X14351Y2052D01*
G01X14318Y2075D01*
G01X14303Y2082D01*
G01X14282Y2091D01*
G01X14218Y2130D01*
G01X14161Y2165D01*
G01X14120Y2187D01*
G01X14062Y2217D01*
G01X14045Y2226D01*
G01X14028Y2237D01*
G01X13999Y2258D01*
G01X13982Y2268D01*
G01X13948Y2286D01*
G01X13929Y2298D01*
G01X13922Y2304D01*
G01X13915Y2310D01*
G01X13910Y2318D01*
G01X13907Y2327D01*
G01X13905Y2335D01*
G01X13612D01*
G01X13613Y2334D01*
G01X13627Y2327D01*
G01X13654Y2314D01*
G01X13664Y2308D01*
G01X13668Y2304D01*
G01X13671Y2300D01*
G01X13674Y2296D01*
G01X13675Y2292D01*
G01X13677Y2283D01*
G01X13675Y2276D01*
G01X13671Y2269D01*
G01X13664Y2263D01*
G01X13595Y2217D01*
G01X13579Y2204D01*
G01X13566Y2188D01*
G01X13548Y2165D01*
G01X13537Y2153D01*
G01X13533Y2146D01*
G01X13529Y2139D01*
G01X13522Y2122D01*
G01X13518Y2116D01*
G01X13571D01*
G01X13573Y2128D01*
G01X13579Y2140D01*
G01X13589Y2153D01*
G01X13601Y2166D01*
G01X13613Y2176D01*
G01X13627Y2183D01*
G01X13634Y2186D01*
G01X13648Y2189D01*
G01X13655D01*
G01X13661D01*
G01X13667Y2188D01*
G01X13672Y2186D01*
G01X13678Y2183D01*
G01X13682Y2180D01*
G01X13687Y2176D01*
G01X13699Y2164D01*
G01X13704Y2154D01*
G01X13708Y2146D01*
G01X13710Y2142D01*
G01X13711Y2133D01*
G01X13710Y2123D01*
G01X13706Y2112D01*
G01X13699Y2101D01*
G01X13694Y2096D01*
G01X13689Y2091D01*
G01X13684Y2088D01*
G01X13678Y2085D01*
G01X13672Y2084D01*
G01X13666Y2083D01*
G01X13660D01*
G01X13653Y2084D01*
G01X13632Y2087D01*
G01X13601Y2090D01*
G01X13590Y2091D01*
G01X13582Y2094D01*
G01X13576Y2100D01*
G01X13572Y2107D01*
G01X13571Y2116D01*
G01X13518D01*
G01X13517Y2114D01*
G01X13510Y2107D01*
G01X13503Y2101D01*
G01X13492Y2097D01*
G01X13479Y2094D01*
G01X13464Y2093D01*
G01X13425Y2098D01*
G01X13407Y2099D01*
G01X13383Y2097D01*
G01X13361Y2092D01*
G01X13347Y2087D01*
G01X13332Y2080D01*
G01X13299Y2062D01*
G01X13294Y2061D01*
G01X13291Y2060D01*
G01X13287Y2059D01*
G01X13285Y2060D01*
G01X13283Y2061D01*
G01X13279Y2071D01*
G01X13277Y2090D01*
G01X13207D01*
G01X13214Y2073D01*
G01X13217Y2053D01*
G01Y2043D01*
G01X13216Y2039D01*
G01X13215Y2035D01*
G01X13214Y2032D01*
G01X13208Y2025D01*
G01X13202Y2026D01*
G01X13199Y2030D01*
G01X13196Y2038D01*
G01X13191Y2061D01*
G01X13189Y2074D01*
G01X13139D01*
G01Y2072D01*
G01X13145Y2038D01*
G01X13150Y1980D01*
G01X13277D01*
G01X13278Y1990D01*
G01X13279Y1999D01*
G01X13281Y2007D01*
G01X13285Y2015D01*
G01X13289Y2021D01*
G01X13293Y2027D01*
G01X13299Y2033D01*
G01X13306Y2038D01*
G01X13321Y2046D01*
G01X13335Y2052D01*
G01X13349Y2057D01*
G01X13364Y2061D01*
G01X13379Y2063D01*
G01X13407Y2066D01*
G01X13439Y2067D01*
G01X13459Y2065D01*
G01X13468Y2063D01*
G01X13475Y2061D01*
G01X13481Y2057D01*
G01X13485Y2054D01*
G01X13489Y2049D01*
G01X13491Y2044D01*
G01X13492Y2033D01*
G01X13491Y2023D01*
G01X13486Y2015D01*
G01X13471Y2003D01*
G01X13469Y2001D01*
G01X13523D01*
G01X13524Y2009D01*
G01X13527Y2018D01*
G01X13531Y2026D01*
G01X13537Y2034D01*
G01X13544Y2041D01*
G01X13552Y2046D01*
G01X13560Y2049D01*
G01X13569Y2051D01*
G01X13576Y2049D01*
G01X13583Y2045D01*
G01X13589Y2038D01*
G01X13594Y2029D01*
G01X13598Y2019D01*
G01X13600Y2009D01*
G01X13601Y1997D01*
G01X13599Y1987D01*
G01X13594Y1979D01*
G01X13584Y1973D01*
G01X13572Y1969D01*
G01X13553Y1966D01*
G01X13545D01*
G01X13541D01*
G01X13539Y1967D01*
G01X13537Y1969D01*
G01X13531Y1977D01*
G01X13526Y1991D01*
G01X13523Y2001D01*
G01X13469D01*
G01X13465Y1996D01*
G01X13460Y1988D01*
G01X13453Y1972D01*
G01X13448Y1964D01*
G01X13441Y1957D01*
G01X13417Y1940D01*
G01X13404Y1928D01*
G01X13397Y1923D01*
G01X13388Y1918D01*
G01X13377Y1914D01*
G01X13364Y1911D01*
G01X13344Y1908D01*
G01X13332D01*
G01X13322Y1910D01*
G01X13318Y1911D01*
G01X13310Y1914D01*
G01X13302Y1918D01*
G01X13295Y1923D01*
G01X13289Y1928D01*
G01X13284Y1935D01*
G01X13280Y1947D01*
G01X13278Y1962D01*
G01X13277Y1980D01*
G01X13150D01*
G01Y1963D01*
G01X13149Y1953D01*
G01X13146Y1946D01*
G01X13140Y1941D01*
G01X13133Y1940D01*
G01X13125Y1941D01*
G01X13119Y1944D01*
G01X13114Y1949D01*
G01X13106Y1966D01*
G01X13100Y1977D01*
G01X13092Y1989D01*
G01X13081Y2003D01*
G01X13070Y2016D01*
G01X13059Y2027D01*
G01X13045Y2041D01*
G01X13031Y2049D01*
G01X13019Y2055D01*
G01X12973Y2073D01*
G01X12967Y2077D01*
G01X12961Y2081D01*
G01X12957Y2085D01*
G01X12953Y2090D01*
G01X12950Y2096D01*
G01X12945Y2113D01*
G01X12936Y2136D01*
G01X12926Y2160D01*
G01X12923Y2173D01*
G01X12919Y2197D01*
G01X12918Y2236D01*
G01X12915Y2252D01*
G01X12908Y2277D01*
G01X12902Y2303D01*
G01X12887Y2392D01*
G01X12883Y2408D01*
G01X12876Y2430D01*
G01X12871Y2442D01*
G01X12866Y2458D01*
G01X12865Y2468D01*
G01X12863Y2490D01*
G01X12862Y2517D01*
G01X12810D01*
G01X12808Y2511D01*
G01X12807Y2504D01*
G01X12808Y2496D01*
G01X12815Y2468D01*
G01X12833Y2390D01*
G01X12844Y2350D01*
G01X12849Y2331D01*
G01X12850Y2298D01*
G01X12853Y2278D01*
G01X12858Y2259D01*
G01X12861Y2236D01*
G01X12863Y2209D01*
G01X12865Y2197D01*
G01X12868Y2186D01*
G01X12873Y2176D01*
G01X12879Y2167D01*
G01X12883Y2156D01*
G01X12887Y2144D01*
G01X12894Y2116D01*
G01X12900Y2099D01*
G01X12905Y2088D01*
G01X12913Y2075D01*
G01X12922Y2055D01*
G01X12932Y2020D01*
G01X12936Y2013D01*
G01X12993D01*
G01X12994Y2018D01*
G01X12996Y2023D01*
G01X12999Y2027D01*
G01X13002Y2030D01*
G01X13006Y2031D01*
G01X13012Y2032D01*
G01X13023Y2031D01*
G01X13032Y2027D01*
G01X13040Y2022D01*
G01X13046Y2015D01*
G01X13069Y1980D01*
G01X13075Y1971D01*
G01X13079Y1960D01*
G01X13084Y1948D01*
G01X13087Y1934D01*
G01X13093Y1905D01*
G01X13064Y1911D01*
G01X13050Y1915D01*
G01X13038Y1921D01*
G01X13027Y1929D01*
G01X13018Y1940D01*
G01X13009Y1952D01*
G01X13003Y1965D01*
G01X12998Y1981D01*
G01X12995Y1997D01*
G01X12994Y2006D01*
G01X12993Y2013D01*
G01X12936D01*
G01X12948Y1986D01*
G01X12957Y1963D01*
G01X12963Y1941D01*
G01X12967Y1931D01*
G01X12972Y1923D01*
G01X12983Y1911D01*
G01X13000Y1888D01*
G01X13007Y1880D01*
G01X13014Y1874D01*
G01X13024Y1868D01*
G01X13035Y1864D01*
G01X13075Y1853D01*
G01X13085Y1852D01*
G01X13095Y1853D01*
G01X13108Y1857D01*
G01X13122Y1864D01*
G01X13135Y1874D01*
G01X13151Y1886D01*
G01X13159Y1895D01*
G01X13185Y1934D01*
G01X13195Y1950D01*
G01X13202Y1963D01*
G01X13210Y1970D01*
G01X13220Y1969D01*
G01X13225Y1964D01*
G01X13230Y1957D01*
G01X13233Y1947D01*
G01X13241Y1921D01*
G01X13246Y1910D01*
G01X13249Y1904D01*
G01X13256Y1896D01*
G01X13260Y1893D01*
G01X13294Y1870D01*
G01X13313Y1860D01*
G01X13335Y1853D01*
G01X13346Y1851D01*
G01X13357Y1852D01*
G01X13366Y1854D01*
G01X13384Y1864D01*
G01X13402Y1873D01*
G01X13418Y1880D01*
G01X13426Y1883D01*
G01X13439Y1893D01*
G01X13468Y1922D01*
G01X13479Y1930D01*
G01X13485Y1934D01*
G01X13491Y1935D01*
G01X13498D01*
G01X13506Y1933D01*
G01X13523Y1923D01*
G01X13536Y1919D01*
G01X13550Y1917D01*
G01X13574D01*
G01X13588Y1919D01*
G01X13595Y1921D01*
G01X13600Y1923D01*
G01X13605Y1926D01*
G01X13609Y1930D01*
G01X13624Y1950D01*
G01X13635Y1963D01*
G01X13641Y1970D01*
G01X13647Y1980D01*
G01X13653Y1993D01*
G01X13662Y2017D01*
G01X13665Y2024D01*
G01X13669Y2030D01*
G01X13674Y2035D01*
G01X13679Y2039D01*
G01X13686Y2041D01*
G01X13692Y2043D01*
G01X13706Y2044D01*
G01X13712Y2045D01*
G01X13719Y2048D01*
G01X13725Y2051D01*
G01X13730Y2055D01*
G01X13735Y2060D01*
G01X13740Y2066D01*
G01X13749Y2080D01*
G01X13756Y2094D01*
G01X13760Y2109D01*
G01X13762Y2123D01*
G01Y2137D01*
G01X13761Y2149D01*
G01X13758Y2160D01*
G01X13754Y2168D01*
G01X13745Y2177D01*
G01X13728Y2200D01*
G01X13718Y2215D01*
G01X13710Y2228D01*
G01X13713Y2238D01*
G01X13733Y2245D01*
G01X13747Y2247D01*
G01X13759D01*
G01X13765Y2246D01*
G01X13770Y2244D01*
G01X13775Y2242D01*
G01X13826Y2211D01*
G01X13884Y2176D01*
G01X13905Y2164D01*
G01X13927Y2153D01*
G01X13954Y2142D01*
G01X13971Y2133D01*
G01X13979Y2128D01*
G01X13988Y2118D01*
G01X14009Y2107D01*
G01X14047Y2090D01*
G01X14055Y2084D01*
G01X14069Y2073D01*
G01X14086Y2061D01*
G01X14119Y2044D01*
G01X14147Y2026D01*
G01X14157Y2020D01*
G01X14197Y2003D01*
G01X14213Y1994D01*
G01X14221Y1989D01*
G01X14231Y1980D01*
G01X14248Y1969D01*
G01X14276Y1953D01*
G01X14293Y1942D01*
G01X14317Y1925D01*
G01X14329Y1918D01*
G01X14343Y1911D01*
G01X14377Y1896D01*
G01X14398Y1885D01*
G01X14514Y1813D01*
G01X14557Y1790D01*
G01X14592Y1766D01*
G01X14605Y1755D01*
G01X14609Y1749D01*
G01X14610Y1743D01*
G01X14606Y1737D01*
G01X14599Y1732D01*
G01X14593Y1730D01*
G01X14554Y1728D01*
G01X13456Y1720D01*
G01X12335Y1725D01*
G01X12326Y1726D01*
G01X12325D01*
G01X12321Y1729D01*
G01X12314Y1732D01*
G01X12290Y1739D01*
G01X12278Y1745D01*
G01X12267Y1754D01*
G01X12256Y1765D01*
G01X12244Y1780D01*
G01X12235Y1795D01*
G01X12228Y1813D01*
G01X12222Y1831D01*
G01X12221Y1842D01*
G01X12216Y1878D01*
G01X12215Y1905D01*
G01X12024D01*
G01X12022Y1891D01*
G01X12020Y1864D01*
G01X12019Y1830D01*
G01X12020Y1796D01*
G01X12022Y1764D01*
G01X12025Y1750D01*
G01X12027Y1743D01*
G01X12030Y1737D01*
G01X12042Y1719D01*
G01X12060Y1685D01*
G01X12068Y1673D01*
G01X12088Y1645D01*
G01X12100Y1632D01*
G01X12113Y1620D01*
G01X12126Y1608D01*
G01X12140Y1599D01*
G01X12206Y1559D01*
G01X12233Y1547D01*
G01X12241Y1546D01*
G01X12319Y1542D01*
G01X13445Y1536D01*
G01X14635Y1540D01*
G01X14645Y1541D01*
G01X14665Y1547D01*
G01X14706Y1557D01*
G01X14719Y1562D01*
G01X14731Y1568D01*
G01X14792Y1611D01*
G01X14807Y1626D01*
G01X14842Y1674D01*
G01X14850Y1686D01*
G01X14857Y1699D01*
G01X14865Y1712D01*
G01X14871Y1726D01*
G01X14888Y1772D01*
G01X14890Y1784D01*
G01X14892Y1800D01*
G01X14894Y1847D01*
G01X14893Y1874D01*
G01X14890Y1901D01*
G01X14886Y1918D01*
G01X14868Y1959D01*
G01X14853Y1993D01*
G01X14845Y2009D01*
G01X14839Y2017D01*
G01X14830Y2027D01*
G01X14818Y2044D01*
G01X14796Y2086D01*
G01X14784Y2107D01*
G01X14761Y2147D01*
G01X14744Y2181D01*
G01X14720Y2218D01*
G01X14697Y2262D01*
G01X14657Y2327D01*
G01X14634Y2366D01*
G01X14617Y2400D01*
G01X14593Y2437D01*
G01X14565Y2490D01*
G01X14553Y2511D01*
G01X14484Y2626D01*
G01X14461Y2666D01*
G01X14438Y2710D01*
G01X14426Y2731D01*
G01X14392Y2788D01*
G01X14379Y2810D01*
G01X14369Y2832D01*
G01X14357Y2860D01*
G01X14349Y2871D01*
G01X14342Y2879D01*
G01X14334Y2886D01*
G01X14326Y2893D01*
G01X14320Y2901D01*
G01X14314Y2910D01*
G01X14307Y2932D01*
G01X14299Y2952D01*
G01X14265Y3007D01*
G01X14242Y3047D01*
G01X14226Y3077D01*
G01X14215Y3094D01*
G01X14193Y3127D01*
G01X14185Y3141D01*
G01X14176Y3163D01*
G01X14155Y3199D01*
G01X14132Y3243D01*
G01X14091Y3308D01*
G01X14056Y3366D01*
G01X14044Y3387D01*
G01X14034Y3409D01*
G01X14022Y3437D01*
G01X14013Y3452D01*
G01X14008Y3460D01*
G01X13992Y3479D01*
G01X13976Y3504D01*
G01X13953Y3544D01*
G01X13930Y3587D01*
G01X13918Y3608D01*
G01X13895Y3648D01*
G01X13878Y3681D01*
G01X13855Y3719D01*
G01X13826Y3772D01*
G01X13814Y3793D01*
G01X13710Y3966D01*
G01X13696Y3987D01*
G01X13670Y4023D01*
G01X13654Y4042D01*
G01X13643Y4051D01*
G01X13634Y4056D01*
G01X13612Y4066D01*
G01X13585Y4081D01*
G01X13573Y4087D01*
G01X13543Y4099D01*
G01X13523Y4104D01*
G01X13501Y4107D01*
G01X13475Y4109D01*
G37*
G04 //text: GND*
G04 TTLT*
G04 TTLR*
G04 232T*
G04 232R*
G04 VCC*
G01X23574Y20096D02*
G01X23632Y20124D01*
G01X23691Y20183D01*
G01X23721Y20241D01*
G01Y20361D01*
G01X23691Y20419D01*
G01X23632Y20477D01*
G01X23574Y20505D01*
G01X23485Y20536D01*
G01X23338D01*
G01X23251Y20505D01*
G01X23193Y20477D01*
G01X23132Y20419D01*
G01X23104Y20361D01*
G01Y20241D01*
G01X23132Y20183D01*
G01X23193Y20124D01*
G01X23251Y20096D01*
G01X23338D01*
G01X23338Y20241D02*
G01X23338Y20096D01*
G01X23721Y19878D02*
G01X23104Y19878D01*
G01X23721Y19878D02*
G01X23104Y19467D01*
G01X23721Y19467D02*
G01X23104Y19467D01*
G01X23721Y19251D02*
G01X23104Y19251D01*
G01X23721Y19251D02*
G01X23721Y19045D01*
G01X23691Y18956D01*
G01X23632Y18898D01*
G01X23574Y18867D01*
G01X23485Y18839D01*
G01X23338D01*
G01X23251Y18867D01*
G01X23193Y18898D01*
G01X23132Y18956D01*
G01X23104Y19045D01*
G01Y19251D01*
G01X22705Y20330D02*
G01X22088Y20330D01*
G01X22705Y20536D02*
G01X22705Y20124D01*
G01X22705Y19703D02*
G01X22088Y19703D01*
G01X22705Y19909D02*
G01X22705Y19497D01*
G01X22705Y19279D02*
G01X22088Y19279D01*
G01X22088Y19279D02*
G01X22088Y18926D01*
G01X22705Y18504D02*
G01X22088Y18504D01*
G01X22705Y18710D02*
G01X22705Y18298D01*
G01X21689Y20330D02*
G01X21072Y20330D01*
G01X21689Y20536D02*
G01X21689Y20124D01*
G01X21689Y19703D02*
G01X21072Y19703D01*
G01X21689Y19909D02*
G01X21689Y19497D01*
G01X21689Y19279D02*
G01X21072Y19279D01*
G01X21072Y19279D02*
G01X21072Y18926D01*
G01X21689Y18710D02*
G01X21072Y18710D01*
G01X21689Y18710D02*
G01X21689Y18445D01*
G01X21659Y18357D01*
G01X21631Y18329D01*
G01X21570Y18298D01*
G01X21511D01*
G01X21453Y18329D01*
G01X21425Y18357D01*
G01X21394Y18445D01*
G01Y18710D01*
G01X21394Y18504D02*
G01X21072Y18298D01*
G01X20526Y20505D02*
G01X20554Y20505D01*
G01X20615Y20477D01*
G01X20643Y20447D01*
G01X20673Y20389D01*
G01Y20272D01*
G01X20643Y20213D01*
G01X20615Y20183D01*
G01X20554Y20155D01*
G01X20495D01*
G01X20437Y20183D01*
G01X20350Y20241D01*
G01X20056Y20536D01*
G01Y20124D01*
G01X20673Y19848D02*
G01X20673Y19525D01*
G01X20437Y19703D01*
G01Y19614D01*
G01X20409Y19555D01*
G01X20378Y19525D01*
G01X20290Y19497D01*
G01X20231D01*
G01X20145Y19525D01*
G01X20084Y19583D01*
G01X20056Y19672D01*
G01Y19761D01*
G01X20084Y19848D01*
G01X20114Y19878D01*
G01X20173Y19909D01*
G01X20526Y19251D02*
G01X20554Y19251D01*
G01X20615Y19220D01*
G01X20643Y19192D01*
G01X20673Y19131D01*
G01Y19014D01*
G01X20643Y18956D01*
G01X20615Y18926D01*
G01X20554Y18898D01*
G01X20495D01*
G01X20437Y18926D01*
G01X20350Y18987D01*
G01X20056Y19279D01*
G01Y18867D01*
G01X20673Y18445D02*
G01X20056Y18445D01*
G01X20673Y18651D02*
G01X20673Y18240D01*
G01X19510Y20505D02*
G01X19538Y20505D01*
G01X19599Y20477D01*
G01X19627Y20447D01*
G01X19657Y20389D01*
G01Y20272D01*
G01X19627Y20213D01*
G01X19599Y20183D01*
G01X19538Y20155D01*
G01X19479D01*
G01X19421Y20183D01*
G01X19334Y20241D01*
G01X19040Y20536D01*
G01Y20124D01*
G01X19657Y19848D02*
G01X19657Y19525D01*
G01X19421Y19703D01*
G01Y19614D01*
G01X19393Y19555D01*
G01X19362Y19525D01*
G01X19274Y19497D01*
G01X19215D01*
G01X19129Y19525D01*
G01X19068Y19583D01*
G01X19040Y19672D01*
G01Y19761D01*
G01X19068Y19848D01*
G01X19098Y19878D01*
G01X19157Y19909D01*
G01X19510Y19251D02*
G01X19538Y19251D01*
G01X19599Y19220D01*
G01X19627Y19192D01*
G01X19657Y19131D01*
G01Y19014D01*
G01X19627Y18956D01*
G01X19599Y18926D01*
G01X19538Y18898D01*
G01X19479D01*
G01X19421Y18926D01*
G01X19334Y18987D01*
G01X19040Y19279D01*
G01Y18867D01*
G01X19657Y18651D02*
G01X19040Y18651D01*
G01X19657Y18651D02*
G01X19657Y18387D01*
G01X19627Y18298D01*
G01X19599Y18270D01*
G01X19538Y18240D01*
G01X19479D01*
G01X19421Y18270D01*
G01X19393Y18298D01*
G01X19362Y18387D01*
G01Y18651D01*
G01X19362Y18445D02*
G01X19040Y18240D01*
G01X18641Y20536D02*
G01X18024Y20300D01*
G01X18641Y20066D02*
G01X18024Y20300D01*
G01X18494Y19408D02*
G01X18552Y19439D01*
G01X18611Y19497D01*
G01X18641Y19555D01*
G01Y19672D01*
G01X18611Y19731D01*
G01X18552Y19789D01*
G01X18494Y19820D01*
G01X18405Y19848D01*
G01X18258D01*
G01X18171Y19820D01*
G01X18113Y19789D01*
G01X18052Y19731D01*
G01X18024Y19672D01*
G01Y19555D01*
G01X18052Y19497D01*
G01X18113Y19439D01*
G01X18171Y19408D01*
G01X18494Y18750D02*
G01X18552Y18781D01*
G01X18611Y18839D01*
G01X18641Y18898D01*
G01Y19014D01*
G01X18611Y19073D01*
G01X18552Y19131D01*
G01X18494Y19162D01*
G01X18405Y19192D01*
G01X18258D01*
G01X18171Y19162D01*
G01X18113Y19131D01*
G01X18052Y19073D01*
G01X18024Y19014D01*
G01Y18898D01*
G01X18052Y18839D01*
G01X18113Y18781D01*
G01X18171Y18750D01*
G04 //text: U1*
G54D11*
G01X24310Y11608D02*
G01X23846Y11608D01*
G01X23754Y11577D01*
G01X23691Y11514D01*
G01X23660Y11422D01*
G01Y11359D01*
G01X23691Y11267D01*
G01X23754Y11206D01*
G01X23846Y11173D01*
G01X24310D01*
G01X24186Y10874D02*
G01X24219Y10810D01*
G01X24310Y10719D01*
G01X23660D01*
G04 //text: U2*
G01X14404Y11227D02*
G01X13940Y11227D01*
G01X13848Y11196D01*
G01X13785Y11133D01*
G01X13754Y11041D01*
G01Y10978D01*
G01X13785Y10886D01*
G01X13848Y10825D01*
G01X13940Y10792D01*
G01X14404D01*
G01X14249Y10462D02*
G01X14280Y10462D01*
G01X14343Y10429D01*
G01X14374Y10399D01*
G01X14404Y10338D01*
G01Y10213D01*
G01X14374Y10152D01*
G01X14343Y10122D01*
G01X14280Y10089D01*
G01X14219D01*
G01X14158Y10122D01*
G01X14064Y10183D01*
G01X13754Y10493D01*
G01Y10058D01*
G04 //text: L1*
G01X12878Y4646D02*
G01X12878Y5296D01*
G01X12878Y5296D02*
G01X12507Y5296D01*
G01X12205Y4770D02*
G01X12144Y4737D01*
G01X12050Y4646D01*
G01Y5296D01*
G04 //text: X1*
G01X24458Y7696D02*
G01X25108Y8131D01*
G01X24458Y8131D02*
G01X25108Y7696D01*
G01X24582Y8430D02*
G01X24549Y8494D01*
G01X24458Y8585D01*
G01X25108D01*
G04 //text: X2*
G01X7059Y1854D02*
G01X7709Y2289D01*
G01X7059Y2289D02*
G01X7709Y1854D01*
G01X7214Y2619D02*
G01X7183Y2619D01*
G01X7120Y2652D01*
G01X7089Y2682D01*
G01X7059Y2743D01*
G01Y2868D01*
G01X7089Y2929D01*
G01X7120Y2959D01*
G01X7183Y2992D01*
G01X7244D01*
G01X7305Y2959D01*
G01X7399Y2898D01*
G01X7709Y2588D01*
G01Y3023D01*
G04 //text: R1*
G01X14404Y18847D02*
G01X13754Y18847D01*
G01X14404Y18847D02*
G01X14404Y18567D01*
G01X14374Y18476D01*
G01X14343Y18445D01*
G01X14280Y18412D01*
G01X14219D01*
G01X14158Y18445D01*
G01X14127Y18476D01*
G01X14094Y18567D01*
G01Y18847D01*
G01X14094Y18631D02*
G01X13754Y18412D01*
G01X14280Y18113D02*
G01X14313Y18049D01*
G01X14404Y17958D01*
G01X13754D01*
G04 //text: R2*
G01X15674Y18847D02*
G01X15024Y18847D01*
G01X15674Y18847D02*
G01X15674Y18567D01*
G01X15644Y18476D01*
G01X15613Y18445D01*
G01X15550Y18412D01*
G01X15489D01*
G01X15428Y18445D01*
G01X15397Y18476D01*
G01X15364Y18567D01*
G01Y18847D01*
G01X15364Y18631D02*
G01X15024Y18412D01*
G01X15519Y18082D02*
G01X15550Y18082D01*
G01X15613Y18049D01*
G01X15644Y18019D01*
G01X15674Y17958D01*
G01Y17833D01*
G01X15644Y17772D01*
G01X15613Y17742D01*
G01X15550Y17709D01*
G01X15489D01*
G01X15428Y17742D01*
G01X15334Y17803D01*
G01X15024Y18113D01*
G01Y17678D01*
G04 //text: L2*
G01X15545Y4646D02*
G01X15545Y5296D01*
G01X15545Y5296D02*
G01X15174Y5296D01*
G01X14841Y4801D02*
G01X14841Y4770D01*
G01X14811Y4707D01*
G01X14780Y4676D01*
G01X14717Y4646D01*
G01X14595D01*
G01X14531Y4676D01*
G01X14501Y4707D01*
G01X14470Y4770D01*
G01Y4831D01*
G01X14501Y4892D01*
G01X14562Y4986D01*
G01X14872Y5296D01*
G01X14440D01*
G04 //text: C1*
G01X15080Y3912D02*
G01X15110Y3848D01*
G01X15174Y3787D01*
G01X15235Y3757D01*
G01X15359D01*
G01X15420Y3787D01*
G01X15484Y3848D01*
G01X15514Y3912D01*
G01X15545Y4003D01*
G01Y4158D01*
G01X15514Y4252D01*
G01X15484Y4313D01*
G01X15420Y4376D01*
G01X15359Y4407D01*
G01X15235D01*
G01X15174Y4376D01*
G01X15110Y4313D01*
G01X15080Y4252D01*
G01X14780Y3881D02*
G01X14717Y3848D01*
G01X14625Y3757D01*
G01Y4407D01*
G04 //text: C2*
G01X13810Y4801D02*
G01X13840Y4737D01*
G01X13904Y4676D01*
G01X13965Y4646D01*
G01X14089D01*
G01X14150Y4676D01*
G01X14214Y4737D01*
G01X14244Y4801D01*
G01X14275Y4892D01*
G01Y5047D01*
G01X14244Y5141D01*
G01X14214Y5202D01*
G01X14150Y5265D01*
G01X14089Y5296D01*
G01X13965D01*
G01X13904Y5265D01*
G01X13840Y5202D01*
G01X13810Y5141D01*
G01X13477Y4801D02*
G01X13477Y4770D01*
G01X13447Y4707D01*
G01X13416Y4676D01*
G01X13355Y4646D01*
G01X13231D01*
G01X13170Y4676D01*
G01X13137Y4707D01*
G01X13106Y4770D01*
G01Y4831D01*
G01X13137Y4892D01*
G01X13200Y4986D01*
G01X13510Y5296D01*
G01X13076D01*
G04 //text: C3*
G01X11208Y5843D02*
G01X11225Y5912D01*
G01X11216Y5999D01*
G01X11188Y6062D01*
G01X11093Y6142D01*
G01X11027Y6158D01*
G01X10939Y6152D01*
G01X10875Y6123D01*
G01X10793Y6072D01*
G01X10693Y5953D01*
G01X10656Y5862D01*
G01X10640Y5796D01*
G01X10648Y5706D01*
G01X10675Y5644D01*
G01X10771Y5564D01*
G01X10837Y5548D01*
G01X10926Y5556D01*
G01X10989Y5583D01*
G01X11585Y5729D02*
G01X11846Y5510D01*
G01X11546Y5440D01*
G01X11616Y5382D01*
G01X11645Y5317D01*
G01X11647Y5272D01*
G01X11612Y5183D01*
G01X11571Y5134D01*
G01X11489Y5084D01*
G01X11399Y5076D01*
G01X11309Y5111D01*
G01X11237Y5172D01*
G01X11187Y5254D01*
G01X11185Y5299D01*
G01X11199Y5367D01*
G04 //text: C4*
G01X13360Y10127D02*
G01X13424Y10157D01*
G01X13485Y10221D01*
G01X13515Y10282D01*
G01Y10406D01*
G01X13485Y10467D01*
G01X13424Y10531D01*
G01X13360Y10561D01*
G01X13269Y10592D01*
G01X13114D01*
G01X13020Y10561D01*
G01X12959Y10531D01*
G01X12896Y10467D01*
G01X12865Y10406D01*
G01Y10282D01*
G01X12896Y10221D01*
G01X12959Y10157D01*
G01X13020Y10127D01*
G01X13515Y9517D02*
G01X13084Y9827D01*
G01Y9362D01*
G01X13515Y9517D02*
G01X12865Y9517D01*
G04 //text: L3*
G01X14404Y12497D02*
G01X13754Y12497D01*
G01X13754Y12497D02*
G01X13754Y12126D01*
G01X14404Y11763D02*
G01X14404Y11422D01*
G01X14158Y11608D01*
G01Y11514D01*
G01X14127Y11453D01*
G01X14094Y11422D01*
G01X14003Y11392D01*
G01X13940D01*
G01X13848Y11422D01*
G01X13785Y11483D01*
G01X13754Y11577D01*
G01Y11669D01*
G01X13785Y11763D01*
G01X13818Y11793D01*
G01X13879Y11824D01*
G04 //text: C5*
G01X14249Y13429D02*
G01X14313Y13459D01*
G01X14374Y13523D01*
G01X14404Y13584D01*
G01Y13708D01*
G01X14374Y13769D01*
G01X14313Y13833D01*
G01X14249Y13863D01*
G01X14158Y13894D01*
G01X14003D01*
G01X13909Y13863D01*
G01X13848Y13833D01*
G01X13785Y13769D01*
G01X13754Y13708D01*
G01Y13584D01*
G01X13785Y13523D01*
G01X13848Y13459D01*
G01X13909Y13429D01*
G01X14404Y12756D02*
G01X14404Y13066D01*
G01X14127Y13096D01*
G01X14158Y13066D01*
G01X14188Y12974D01*
G01Y12880D01*
G01X14158Y12789D01*
G01X14094Y12725D01*
G01X14003Y12695D01*
G01X13940D01*
G01X13848Y12725D01*
G01X13785Y12789D01*
G01X13754Y12880D01*
G01Y12974D01*
G01X13785Y13066D01*
G01X13818Y13096D01*
G01X13879Y13129D01*
G04 //text: C6*
G01X16670Y12471D02*
G01X16640Y12535D01*
G01X16576Y12596D01*
G01X16515Y12626D01*
G01X16391D01*
G01X16330Y12596D01*
G01X16266Y12535D01*
G01X16236Y12471D01*
G01X16205Y12380D01*
G01Y12225D01*
G01X16236Y12131D01*
G01X16266Y12070D01*
G01X16330Y12007D01*
G01X16391Y11976D01*
G01X16515D01*
G01X16576Y12007D01*
G01X16640Y12070D01*
G01X16670Y12131D01*
G01X17343Y12535D02*
G01X17310Y12596D01*
G01X17219Y12626D01*
G01X17155D01*
G01X17064Y12596D01*
G01X17003Y12502D01*
G01X16970Y12349D01*
G01Y12195D01*
G01X17003Y12070D01*
G01X17064Y12007D01*
G01X17155Y11976D01*
G01X17188D01*
G01X17280Y12007D01*
G01X17343Y12070D01*
G01X17374Y12162D01*
G01Y12195D01*
G01X17343Y12286D01*
G01X17280Y12349D01*
G01X17188Y12380D01*
G01X17155D01*
G01X17064Y12349D01*
G01X17003Y12286D01*
G01X16970Y12195D01*
G04 //text: C7*
G01X15291Y12489D02*
G01X15260Y12552D01*
G01X15197Y12613D01*
G01X15136Y12644D01*
G01X15011D01*
G01X14950Y12613D01*
G01X14887Y12552D01*
G01X14856Y12489D01*
G01X14826Y12398D01*
G01Y12243D01*
G01X14856Y12149D01*
G01X14887Y12088D01*
G01X14950Y12024D01*
G01X15011Y11994D01*
G01X15136D01*
G01X15197Y12024D01*
G01X15260Y12088D01*
G01X15291Y12149D01*
G01X16025Y12644D02*
G01X15715Y11994D01*
G01X15590Y12644D02*
G01X16025Y12644D01*
G04 //text: L4*
G01X13917Y7950D02*
G01X14567Y7950D01*
G01X14567Y7950D02*
G01X14567Y8321D01*
G01X13917Y8933D02*
G01X14348Y8623D01*
G01Y9088D01*
G01X13917Y8933D02*
G01X14567Y8933D01*
G04 //text: C8*
G01X6452Y2319D02*
G01X6388Y2289D01*
G01X6327Y2225D01*
G01X6297Y2164D01*
G01Y2040D01*
G01X6327Y1979D01*
G01X6388Y1915D01*
G01X6452Y1885D01*
G01X6543Y1854D01*
G01X6698D01*
G01X6792Y1885D01*
G01X6853Y1915D01*
G01X6916Y1979D01*
G01X6947Y2040D01*
G01Y2164D01*
G01X6916Y2225D01*
G01X6853Y2289D01*
G01X6792Y2319D01*
G01X6297Y2774D02*
G01X6327Y2682D01*
G01X6388Y2652D01*
G01X6452D01*
G01X6513Y2682D01*
G01X6543Y2743D01*
G01X6574Y2868D01*
G01X6607Y2959D01*
G01X6668Y3023D01*
G01X6728Y3053D01*
G01X6822D01*
G01X6883Y3023D01*
G01X6916Y2992D01*
G01X6947Y2898D01*
G01Y2774D01*
G01X6916Y2682D01*
G01X6883Y2652D01*
G01X6822Y2619D01*
G01X6728D01*
G01X6668Y2652D01*
G01X6607Y2713D01*
G01X6574Y2804D01*
G01X6543Y2929D01*
G01X6513Y2992D01*
G01X6452Y3023D01*
G01X6388D01*
G01X6327Y2992D01*
G01X6297Y2898D01*
G01Y2774D01*
G04 //text: C9*
G01X5563Y2319D02*
G01X5499Y2289D01*
G01X5438Y2225D01*
G01X5408Y2164D01*
G01Y2040D01*
G01X5438Y1979D01*
G01X5499Y1915D01*
G01X5563Y1885D01*
G01X5654Y1854D01*
G01X5809D01*
G01X5903Y1885D01*
G01X5964Y1915D01*
G01X6027Y1979D01*
G01X6058Y2040D01*
G01Y2164D01*
G01X6027Y2225D01*
G01X5964Y2289D01*
G01X5903Y2319D01*
G01X5624Y3023D02*
G01X5718Y2992D01*
G01X5779Y2929D01*
G01X5809Y2837D01*
G01Y2804D01*
G01X5779Y2713D01*
G01X5718Y2652D01*
G01X5624Y2619D01*
G01X5593D01*
G01X5499Y2652D01*
G01X5438Y2713D01*
G01X5408Y2804D01*
G01Y2837D01*
G01X5438Y2929D01*
G01X5499Y2992D01*
G01X5624Y3023D01*
G01X5779D01*
G01X5933Y2992D01*
G01X6027Y2929D01*
G01X6058Y2837D01*
G01Y2774D01*
G01X6027Y2682D01*
G01X5964Y2652D01*
G04 //text: L5*
G01X23190Y15039D02*
G01X23190Y14389D01*
G01X23190Y14389D02*
G01X23561Y14389D01*
G01X24234Y15039D02*
G01X23924Y15039D01*
G01X23894Y14762D01*
G01X23924Y14793D01*
G01X24018Y14823D01*
G01X24110D01*
G01X24204Y14793D01*
G01X24265Y14729D01*
G01X24295Y14638D01*
G01Y14575D01*
G01X24265Y14483D01*
G01X24204Y14420D01*
G01X24110Y14389D01*
G01X24018D01*
G01X23924Y14420D01*
G01X23894Y14453D01*
G01X23863Y14514D01*
G04 //text: C10*
G01X23528Y15900D02*
G01X23498Y15964D01*
G01X23434Y16025D01*
G01X23373Y16055D01*
G01X23249D01*
G01X23188Y16025D01*
G01X23124Y15964D01*
G01X23094Y15900D01*
G01X23063Y15809D01*
G01Y15654D01*
G01X23094Y15560D01*
G01X23124Y15499D01*
G01X23188Y15436D01*
G01X23249Y15405D01*
G01X23373D01*
G01X23434Y15436D01*
G01X23498Y15499D01*
G01X23528Y15560D01*
G01X23828Y15931D02*
G01X23891Y15964D01*
G01X23983Y16055D01*
G01Y15405D01*
G01X24470Y16055D02*
G01X24376Y16025D01*
G01X24315Y15931D01*
G01X24285Y15778D01*
G01Y15685D01*
G01X24315Y15530D01*
G01X24376Y15436D01*
G01X24470Y15405D01*
G01X24531D01*
G01X24625Y15436D01*
G01X24686Y15530D01*
G01X24717Y15685D01*
G01Y15778D01*
G01X24686Y15931D01*
G01X24625Y16025D01*
G01X24531Y16055D01*
G01X24470D01*
G04 //text: C11*
G01X25494Y11532D02*
G01X25524Y11468D01*
G01X25588Y11407D01*
G01X25649Y11377D01*
G01X25773D01*
G01X25834Y11407D01*
G01X25898Y11468D01*
G01X25928Y11532D01*
G01X25959Y11623D01*
G01Y11778D01*
G01X25928Y11872D01*
G01X25898Y11933D01*
G01X25834Y11996D01*
G01X25773Y12027D01*
G01X25649D01*
G01X25588Y11996D01*
G01X25524Y11933D01*
G01X25494Y11872D01*
G01X25194Y11501D02*
G01X25131Y11468D01*
G01X25039Y11377D01*
G01Y12027D01*
G01X24737Y11501D02*
G01X24676Y11468D01*
G01X24582Y11377D01*
G01Y12027D01*
G04 //text: C12*
G01X9177Y2311D02*
G01X9147Y2375D01*
G01X9083Y2436D01*
G01X9022Y2466D01*
G01X8898D01*
G01X8837Y2436D01*
G01X8773Y2375D01*
G01X8743Y2311D01*
G01X8712Y2220D01*
G01Y2065D01*
G01X8743Y1971D01*
G01X8773Y1910D01*
G01X8837Y1847D01*
G01X8898Y1816D01*
G01X9022D01*
G01X9083Y1847D01*
G01X9147Y1910D01*
G01X9177Y1971D01*
G01X9477Y2342D02*
G01X9540Y2375D01*
G01X9632Y2466D01*
G01Y1816D01*
G01X9964Y2311D02*
G01X9964Y2342D01*
G01X9995Y2405D01*
G01X10025Y2436D01*
G01X10089Y2466D01*
G01X10211D01*
G01X10274Y2436D01*
G01X10305Y2405D01*
G01X10335Y2342D01*
G01Y2281D01*
G01X10305Y2220D01*
G01X10244Y2126D01*
G01X9934Y1816D01*
G01X10366D01*
G04 //text: C13*
G01X10008Y3462D02*
G01X9944Y3432D01*
G01X9883Y3368D01*
G01X9853Y3307D01*
G01Y3183D01*
G01X9883Y3122D01*
G01X9944Y3058D01*
G01X10008Y3028D01*
G01X10099Y2997D01*
G01X10254D01*
G01X10348Y3028D01*
G01X10409Y3058D01*
G01X10472Y3122D01*
G01X10503Y3183D01*
G01Y3307D01*
G01X10472Y3368D01*
G01X10409Y3432D01*
G01X10348Y3462D01*
G01X9977Y3762D02*
G01X9944Y3825D01*
G01X9853Y3917D01*
G01X10503D01*
G01X9853Y4280D02*
G01X9853Y4620D01*
G01X10099Y4435D01*
G01Y4529D01*
G01X10130Y4590D01*
G01X10163Y4620D01*
G01X10254Y4651D01*
G01X10317D01*
G01X10409Y4620D01*
G01X10472Y4559D01*
G01X10503Y4465D01*
G01Y4374D01*
G01X10472Y4280D01*
G01X10439Y4249D01*
G01X10378Y4219D01*
G04 //text: C14*
G01X9119Y3462D02*
G01X9055Y3432D01*
G01X8994Y3368D01*
G01X8964Y3307D01*
G01Y3183D01*
G01X8994Y3122D01*
G01X9055Y3058D01*
G01X9119Y3028D01*
G01X9210Y2997D01*
G01X9365D01*
G01X9459Y3028D01*
G01X9520Y3058D01*
G01X9583Y3122D01*
G01X9614Y3183D01*
G01Y3307D01*
G01X9583Y3368D01*
G01X9520Y3432D01*
G01X9459Y3462D01*
G01X9088Y3762D02*
G01X9055Y3825D01*
G01X8964Y3917D01*
G01X9614D01*
G01X8964Y4529D02*
G01X9395Y4219D01*
G01Y4684D01*
G01X8964Y4529D02*
G01X9614Y4529D01*
G04 //text: C15*
G01X8230Y3462D02*
G01X8166Y3432D01*
G01X8105Y3368D01*
G01X8075Y3307D01*
G01Y3183D01*
G01X8105Y3122D01*
G01X8166Y3058D01*
G01X8230Y3028D01*
G01X8321Y2997D01*
G01X8476D01*
G01X8570Y3028D01*
G01X8631Y3058D01*
G01X8694Y3122D01*
G01X8725Y3183D01*
G01Y3307D01*
G01X8694Y3368D01*
G01X8631Y3432D01*
G01X8570Y3462D01*
G01X8199Y3762D02*
G01X8166Y3825D01*
G01X8075Y3917D01*
G01X8725D01*
G01X8075Y4590D02*
G01X8075Y4280D01*
G01X8352Y4249D01*
G01X8321Y4280D01*
G01X8291Y4374D01*
G01Y4465D01*
G01X8321Y4559D01*
G01X8385Y4620D01*
G01X8476Y4651D01*
G01X8539D01*
G01X8631Y4620D01*
G01X8694Y4559D01*
G01X8725Y4465D01*
G01Y4374D01*
G01X8694Y4280D01*
G01X8661Y4249D01*
G01X8600Y4219D01*
G04 //text: C16*
G01X18313Y14191D02*
G01X18377Y14221D01*
G01X18438Y14285D01*
G01X18468Y14346D01*
G01Y14470D01*
G01X18438Y14531D01*
G01X18377Y14595D01*
G01X18313Y14625D01*
G01X18222Y14656D01*
G01X18067D01*
G01X17973Y14625D01*
G01X17912Y14595D01*
G01X17849Y14531D01*
G01X17818Y14470D01*
G01Y14346D01*
G01X17849Y14285D01*
G01X17912Y14221D01*
G01X17973Y14191D01*
G01X18344Y13891D02*
G01X18377Y13828D01*
G01X18468Y13736D01*
G01X17818D01*
G01X18377Y13063D02*
G01X18438Y13094D01*
G01X18468Y13188D01*
G01Y13249D01*
G01X18438Y13343D01*
G01X18344Y13404D01*
G01X18191Y13434D01*
G01X18037D01*
G01X17912Y13404D01*
G01X17849Y13343D01*
G01X17818Y13249D01*
G01Y13218D01*
G01X17849Y13124D01*
G01X17912Y13063D01*
G01X18004Y13033D01*
G01X18037D01*
G01X18128Y13063D01*
G01X18191Y13124D01*
G01X18222Y13218D01*
G01Y13249D01*
G01X18191Y13343D01*
G01X18128Y13404D01*
G01X18037Y13434D01*
G04 //text: D1*
G01X10742Y3124D02*
G01X11392Y3124D01*
G01X10742Y3124D02*
G01X10742Y3340D01*
G01X10772Y3434D01*
G01X10833Y3495D01*
G01X10897Y3526D01*
G01X10988Y3559D01*
G01X11143D01*
G01X11237Y3526D01*
G01X11298Y3495D01*
G01X11361Y3434D01*
G01X11392Y3340D01*
G01Y3124D01*
G01X10866Y3858D02*
G01X10833Y3922D01*
G01X10742Y4013D01*
G01X11392D01*
G04 //text: R3*
G01X10742Y1727D02*
G01X11392Y1727D01*
G01X10742Y1727D02*
G01X10742Y2007D01*
G01X10772Y2098D01*
G01X10803Y2129D01*
G01X10866Y2162D01*
G01X10927D01*
G01X10988Y2129D01*
G01X11019Y2098D01*
G01X11052Y2007D01*
G01Y1727D01*
G01X11052Y1943D02*
G01X11392Y2162D01*
G01X10742Y2525D02*
G01X10742Y2865D01*
G01X10988Y2677D01*
G01Y2771D01*
G01X11019Y2832D01*
G01X11052Y2865D01*
G01X11143Y2896D01*
G01X11206D01*
G01X11298Y2865D01*
G01X11361Y2802D01*
G01X11392Y2710D01*
G01Y2616D01*
G01X11361Y2525D01*
G01X11328Y2492D01*
G01X11267Y2461D01*
G04 //text: L6*
G01X13515Y12497D02*
G01X12865Y12497D01*
G01X12865Y12497D02*
G01X12865Y12126D01*
G01X13424Y11453D02*
G01X13485Y11483D01*
G01X13515Y11577D01*
G01Y11638D01*
G01X13485Y11732D01*
G01X13391Y11793D01*
G01X13238Y11824D01*
G01X13084D01*
G01X12959Y11793D01*
G01X12896Y11732D01*
G01X12865Y11638D01*
G01Y11608D01*
G01X12896Y11514D01*
G01X12959Y11453D01*
G01X13051Y11422D01*
G01X13084D01*
G01X13175Y11453D01*
G01X13238Y11514D01*
G01X13269Y11608D01*
G01Y11638D01*
G01X13238Y11732D01*
G01X13175Y11793D01*
G01X13084Y11824D01*
G04 //text: R4*
G01X20396Y25644D02*
G01X20396Y24994D01*
G01X20396Y25644D02*
G01X20676Y25644D01*
G01X20767Y25613D01*
G01X20798Y25583D01*
G01X20831Y25519D01*
G01Y25458D01*
G01X20798Y25397D01*
G01X20767Y25367D01*
G01X20676Y25334D01*
G01X20396D01*
G01X20612Y25334D02*
G01X20831Y24994D01*
G01X21440Y25644D02*
G01X21130Y25212D01*
G01X21595D01*
G01X21440Y25644D02*
G01X21440Y24994D01*
G04 //text: R5*
G01X20396Y24374D02*
G01X20396Y23724D01*
G01X20396Y24374D02*
G01X20676Y24374D01*
G01X20767Y24343D01*
G01X20798Y24313D01*
G01X20831Y24249D01*
G01Y24188D01*
G01X20798Y24127D01*
G01X20767Y24097D01*
G01X20676Y24064D01*
G01X20396D01*
G01X20612Y24064D02*
G01X20831Y23724D01*
G01X21501Y24374D02*
G01X21194Y24374D01*
G01X21161Y24097D01*
G01X21194Y24127D01*
G01X21285Y24158D01*
G01X21379D01*
G01X21471Y24127D01*
G01X21534Y24064D01*
G01X21565Y23973D01*
G01Y23909D01*
G01X21534Y23818D01*
G01X21471Y23754D01*
G01X21379Y23724D01*
G01X21285D01*
G01X21194Y23754D01*
G01X21161Y23787D01*
G01X21130Y23848D01*
G04 //text: D2*
G01X13513Y13155D02*
G01X13513Y13805D01*
G01X13513Y13155D02*
G01X13297Y13155D01*
G01X13203Y13185D01*
G01X13142Y13246D01*
G01X13111Y13310D01*
G01X13078Y13401D01*
G01Y13556D01*
G01X13111Y13650D01*
G01X13142Y13711D01*
G01X13203Y13774D01*
G01X13297Y13805D01*
G01X13513D01*
G01X12748Y13310D02*
G01X12748Y13279D01*
G01X12715Y13216D01*
G01X12685Y13185D01*
G01X12624Y13155D01*
G01X12499D01*
G01X12438Y13185D01*
G01X12408Y13216D01*
G01X12375Y13279D01*
G01Y13340D01*
G01X12408Y13401D01*
G01X12469Y13495D01*
G01X12779Y13805D01*
G01X12344D01*
G04 //text: CN1*
G01X19342Y21801D02*
G01X19370Y21747D01*
G01X19421Y21697D01*
G01X19474Y21669D01*
G01X19578D01*
G01X19632Y21697D01*
G01X19682Y21747D01*
G01X19710Y21801D01*
G01X19736Y21880D01*
G01Y22009D01*
G01X19710Y22088D01*
G01X19682Y22141D01*
G01X19632Y22195D01*
G01X19578Y22220D01*
G01X19474D01*
G01X19421Y22195D01*
G01X19370Y22141D01*
G01X19342Y22088D01*
G01X19065Y21669D02*
G01X19065Y22220D01*
G01X19065Y21669D02*
G01X18697Y22220D01*
G01X18697Y21669D02*
G01X18697Y22220D01*
G01X18420Y21775D02*
G01X18367Y21747D01*
G01X18288Y21669D01*
G01Y22220D01*
G04 //text: U3*
G01X1219Y23040D02*
G01X1219Y22576D01*
G01X1250Y22484D01*
G01X1313Y22421D01*
G01X1405Y22390D01*
G01X1468D01*
G01X1560Y22421D01*
G01X1621Y22484D01*
G01X1654Y22576D01*
G01Y23040D01*
G01X2017Y23040D02*
G01X2357Y23040D01*
G01X2169Y22794D01*
G01X2263D01*
G01X2324Y22763D01*
G01X2357Y22730D01*
G01X2388Y22639D01*
G01Y22576D01*
G01X2357Y22484D01*
G01X2294Y22421D01*
G01X2202Y22390D01*
G01X2108D01*
G01X2017Y22421D01*
G01X1984Y22454D01*
G01X1953Y22515D01*
G04 //text: C17*
G01X4395Y25045D02*
G01X4332Y25015D01*
G01X4271Y24951D01*
G01X4240Y24890D01*
G01Y24766D01*
G01X4271Y24705D01*
G01X4332Y24641D01*
G01X4395Y24611D01*
G01X4487Y24580D01*
G01X4642D01*
G01X4736Y24611D01*
G01X4797Y24641D01*
G01X4860Y24705D01*
G01X4891Y24766D01*
G01Y24890D01*
G01X4860Y24951D01*
G01X4797Y25015D01*
G01X4736Y25045D01*
G01X4365Y25345D02*
G01X4332Y25408D01*
G01X4240Y25500D01*
G01X4891D01*
G01X4240Y26234D02*
G01X4891Y25926D01*
G01X4240Y25802D02*
G01X4240Y26234D01*
G04 //text: C18*
G01X3151Y25064D02*
G01X3087Y25033D01*
G01X3026Y24970D01*
G01X2996Y24909D01*
G01Y24784D01*
G01X3026Y24723D01*
G01X3087Y24660D01*
G01X3151Y24629D01*
G01X3242Y24599D01*
G01X3397D01*
G01X3491Y24629D01*
G01X3552Y24660D01*
G01X3615Y24723D01*
G01X3646Y24784D01*
G01Y24909D01*
G01X3615Y24970D01*
G01X3552Y25033D01*
G01X3491Y25064D01*
G01X3120Y25363D02*
G01X3087Y25427D01*
G01X2996Y25518D01*
G01X3646D01*
G01X2996Y25976D02*
G01X3026Y25882D01*
G01X3087Y25851D01*
G01X3151D01*
G01X3212Y25882D01*
G01X3242Y25945D01*
G01X3273Y26067D01*
G01X3306Y26161D01*
G01X3367Y26222D01*
G01X3427Y26252D01*
G01X3521D01*
G01X3582Y26222D01*
G01X3615Y26192D01*
G01X3646Y26098D01*
G01Y25976D01*
G01X3615Y25882D01*
G01X3582Y25851D01*
G01X3521Y25821D01*
G01X3427D01*
G01X3367Y25851D01*
G01X3306Y25912D01*
G01X3273Y26006D01*
G01X3242Y26131D01*
G01X3212Y26192D01*
G01X3151Y26222D01*
G01X3087D01*
G01X3026Y26192D01*
G01X2996Y26098D01*
G01Y25976D01*
G04 //text: C19*
G01X2065Y10884D02*
G01X2035Y10947D01*
G01X1971Y11008D01*
G01X1910Y11039D01*
G01X1786D01*
G01X1725Y11008D01*
G01X1661Y10947D01*
G01X1631Y10884D01*
G01X1600Y10792D01*
G01Y10638D01*
G01X1631Y10544D01*
G01X1661Y10483D01*
G01X1725Y10419D01*
G01X1786Y10389D01*
G01X1910D01*
G01X1971Y10419D01*
G01X2035Y10483D01*
G01X2065Y10544D01*
G01X2365Y10914D02*
G01X2428Y10947D01*
G01X2520Y11039D01*
G01Y10389D01*
G01X3223Y10823D02*
G01X3193Y10729D01*
G01X3132Y10668D01*
G01X3038Y10638D01*
G01X3007D01*
G01X2913Y10668D01*
G01X2852Y10729D01*
G01X2822Y10823D01*
G01Y10853D01*
G01X2852Y10947D01*
G01X2913Y11008D01*
G01X3007Y11039D01*
G01X3038D01*
G01X3132Y11008D01*
G01X3193Y10947D01*
G01X3223Y10823D01*
G01Y10668D01*
G01X3193Y10513D01*
G01X3132Y10419D01*
G01X3038Y10389D01*
G01X2977D01*
G01X2883Y10419D01*
G01X2852Y10483D01*
G04 //text: C20*
G01X5678Y25015D02*
G01X5614Y24984D01*
G01X5553Y24921D01*
G01X5523Y24860D01*
G01Y24735D01*
G01X5553Y24674D01*
G01X5614Y24611D01*
G01X5678Y24580D01*
G01X5769Y24550D01*
G01X5924D01*
G01X6018Y24580D01*
G01X6079Y24611D01*
G01X6143Y24674D01*
G01X6173Y24735D01*
G01Y24860D01*
G01X6143Y24921D01*
G01X6079Y24984D01*
G01X6018Y25015D01*
G01X5678Y25347D02*
G01X5647Y25347D01*
G01X5584Y25378D01*
G01X5553Y25408D01*
G01X5523Y25469D01*
G01Y25594D01*
G01X5553Y25655D01*
G01X5584Y25688D01*
G01X5647Y25718D01*
G01X5708D01*
G01X5769Y25688D01*
G01X5863Y25624D01*
G01X6173Y25314D01*
G01Y25749D01*
G01X5523Y26236D02*
G01X5553Y26142D01*
G01X5647Y26081D01*
G01X5800Y26048D01*
G01X5894D01*
G01X6049Y26081D01*
G01X6143Y26142D01*
G01X6173Y26236D01*
G01Y26297D01*
G01X6143Y26391D01*
G01X6049Y26452D01*
G01X5894Y26483D01*
G01X5800D01*
G01X5647Y26452D01*
G01X5553Y26391D01*
G01X5523Y26297D01*
G01Y26236D01*
G04 //text: R6*
G01X11991Y18847D02*
G01X11341Y18847D01*
G01X11991Y18847D02*
G01X11991Y18567D01*
G01X11961Y18476D01*
G01X11930Y18445D01*
G01X11867Y18412D01*
G01X11806D01*
G01X11745Y18445D01*
G01X11714Y18476D01*
G01X11681Y18567D01*
G01Y18847D01*
G01X11681Y18631D02*
G01X11341Y18412D01*
G01X11900Y17742D02*
G01X11961Y17772D01*
G01X11991Y17864D01*
G01Y17927D01*
G01X11961Y18019D01*
G01X11867Y18082D01*
G01X11714Y18113D01*
G01X11560D01*
G01X11435Y18082D01*
G01X11372Y18019D01*
G01X11341Y17927D01*
G01Y17897D01*
G01X11372Y17803D01*
G01X11435Y17742D01*
G01X11527Y17709D01*
G01X11560D01*
G01X11651Y17742D01*
G01X11714Y17803D01*
G01X11745Y17897D01*
G01Y17927D01*
G01X11714Y18019D01*
G01X11651Y18082D01*
G01X11560Y18113D01*
G04 //text: R7*
G01X13198Y18872D02*
G01X12548Y18872D01*
G01X13198Y18872D02*
G01X13198Y18593D01*
G01X13167Y18501D01*
G01X13137Y18471D01*
G01X13073Y18438D01*
G01X13012D01*
G01X12951Y18471D01*
G01X12921Y18501D01*
G01X12888Y18593D01*
G01Y18872D01*
G01X12888Y18656D02*
G01X12548Y18438D01*
G01X13198Y17704D02*
G01X12548Y18014D01*
G01X13198Y18138D02*
G01X13198Y17704D01*
G04 //text: U4*
G01X6146Y4001D02*
G01X6146Y4465D01*
G01X6115Y4557D01*
G01X6052Y4620D01*
G01X5960Y4651D01*
G01X5897D01*
G01X5805Y4620D01*
G01X5744Y4557D01*
G01X5711Y4465D01*
G01Y4001D01*
G01X5102Y4001D02*
G01X5412Y4432D01*
G01X4947D01*
G01X5102Y4001D02*
G01X5102Y4651D01*
G04 //text: C21*
G01X6996Y5164D02*
G01X7060Y5194D01*
G01X7121Y5258D01*
G01X7151Y5319D01*
G01Y5443D01*
G01X7121Y5504D01*
G01X7060Y5568D01*
G01X6996Y5598D01*
G01X6905Y5629D01*
G01X6750D01*
G01X6656Y5598D01*
G01X6595Y5568D01*
G01X6531Y5504D01*
G01X6501Y5443D01*
G01Y5319D01*
G01X6531Y5258D01*
G01X6595Y5194D01*
G01X6656Y5164D01*
G01X6996Y4831D02*
G01X7027Y4831D01*
G01X7090Y4801D01*
G01X7121Y4770D01*
G01X7151Y4709D01*
G01Y4585D01*
G01X7121Y4524D01*
G01X7090Y4491D01*
G01X7027Y4460D01*
G01X6966D01*
G01X6905Y4491D01*
G01X6811Y4554D01*
G01X6501Y4864D01*
G01Y4430D01*
G01X7027Y4130D02*
G01X7060Y4067D01*
G01X7151Y3975D01*
G01X6501D01*
G04 //text: C22*
G01X9119Y19845D02*
G01X9055Y19815D01*
G01X8994Y19751D01*
G01X8964Y19690D01*
G01Y19566D01*
G01X8994Y19505D01*
G01X9055Y19441D01*
G01X9119Y19411D01*
G01X9210Y19380D01*
G01X9365D01*
G01X9459Y19411D01*
G01X9520Y19441D01*
G01X9583Y19505D01*
G01X9614Y19566D01*
G01Y19690D01*
G01X9583Y19751D01*
G01X9520Y19815D01*
G01X9459Y19845D01*
G01X9119Y20178D02*
G01X9088Y20178D01*
G01X9025Y20208D01*
G01X8994Y20239D01*
G01X8964Y20300D01*
G01Y20424D01*
G01X8994Y20485D01*
G01X9025Y20518D01*
G01X9088Y20549D01*
G01X9149D01*
G01X9210Y20518D01*
G01X9304Y20455D01*
G01X9614Y20145D01*
G01Y20579D01*
G01X9119Y20912D02*
G01X9088Y20912D01*
G01X9025Y20942D01*
G01X8994Y20973D01*
G01X8964Y21034D01*
G01Y21158D01*
G01X8994Y21222D01*
G01X9025Y21252D01*
G01X9088Y21283D01*
G01X9149D01*
G01X9210Y21252D01*
G01X9304Y21189D01*
G01X9614Y20879D01*
G01Y21313D01*
G04 Text End*

G04 PolygonModel Start*
G54D12*
G01X11176Y6477D02*
G01X12192Y5461D01*
G01X15621D01*
G01X15748Y5334D01*
G01Y3810D01*
G01X15494Y3556D01*
G01X14478D01*
G01X14351Y3683D01*
G01Y4191D01*
G01X14097Y4445D01*
G01X11684D01*
G01X10414Y5715D01*
G01Y6096D01*
G01X10795Y6477D01*
G01X11176D01*
G01X12192Y13970D02*
G01X14605Y13970D01*
G01Y10033D01*
G01X13716Y9144D01*
G01X12192D01*
G01Y13971D01*
G01X9017Y12192D02*
G01X11811Y12192D01*
G01Y8001D01*
G01X10541Y6731D01*
G01X9017D01*
G01Y12192D01*
G01X7874Y3810D02*
G01X7366Y3302D01*
G01X5461D01*
G01X5080Y2921D01*
G01Y1905D01*
G01X5334Y1651D01*
G01X11557D01*
G01Y4064D01*
G01X10795Y4826D01*
G01X7874D01*
G01Y3810D01*
G01X17780Y7493D02*
G01X12827Y7493D01*
G01X12319Y8001D01*
G01X11938D01*
G01X11430Y7493D01*
G01Y6985D01*
G01X12446Y5969D01*
G01X15875D01*
G01X16510Y5334D01*
G01X17780D01*
G01X17993Y5547D01*
G01Y7316D01*
G01X17780Y7493D01*
G01X15875Y4572D02*
G01X15875Y2159D01*
G01X16637Y1397D01*
G01X26035D01*
G01Y5461D01*
G01X25578Y5918D01*
G01X21158D01*
G01X20066Y4826D01*
G01X16129D01*
G01X15875Y4572D01*
G54D11*
G01X18133Y11090D02*
G01X18133Y11585D01*
G01X18133Y11585D02*
G01X18628Y11585D01*
G01X23269Y11090D02*
G01X23269Y11585D01*
G01X23269Y11585D02*
G01X22774Y11585D01*
G01X18133Y6944D02*
G01X18133Y6449D01*
G01X18133Y6449D02*
G01X18628Y6449D01*
G01X23269Y6944D02*
G01X23269Y6449D01*
G01X23269Y6449D02*
G01X22774Y6449D01*
G54D13*
G01X10394Y7844D02*
G01X10404Y8664D01*
G01X10404Y8664D02*
G01X11633Y8664D01*
G01X11633Y8654D02*
G01X11633Y7844D01*
G01X11633Y7844D02*
G01X10394Y7846D01*
G01X10254Y7785D02*
G01X10254Y7704D01*
G01X10254Y7704D02*
G01X10693Y7704D01*
G01X10254Y8166D02*
G01X10254Y7785D01*
G54D14*
G01X13245Y7217D02*
G01X14745Y7217D01*
G01X14745Y7217D02*
G01X14745Y6087D01*
G01X14745Y6087D02*
G01X13245Y6087D01*
G01X13245Y6087D02*
G01X13245Y6317D01*
G01X13245Y6317D02*
G01X13245Y7217D01*
G54D11*
G01X25845Y6099D02*
G01X23686Y6099D01*
G01X23686Y6099D02*
G01X23686Y10157D01*
G01X23686Y10157D02*
G01X25845Y10157D01*
G01X25845Y10157D02*
G01X25845Y6099D01*
G54D16*
G01X19535Y4425D02*
G01X19835Y4425D01*
G01X19535Y1925D02*
G01X19835Y1925D01*
G01X20686Y3726D02*
G01X20686Y3975D01*
G01X20686Y2375D02*
G01X20686Y2624D01*
G01X18684Y2324D02*
G01X18684Y2624D01*
G01X18684Y3726D02*
G01X18684Y4026D01*
G54D11*
G01X14596Y19840D02*
G01X14596Y19122D01*
G01X14596Y19122D02*
G01X13598Y19122D01*
G01X13598Y19122D02*
G01X13598Y19840D01*
G01X14596Y20292D02*
G01X14596Y21010D01*
G01X14596Y21010D02*
G01X13598Y21010D01*
G01X13598Y21010D02*
G01X13598Y20292D01*
G01X15866Y19840D02*
G01X15866Y19122D01*
G01X15866Y19122D02*
G01X14868Y19122D01*
G01X14868Y19122D02*
G01X14868Y19840D01*
G01X15866Y20292D02*
G01X15866Y21010D01*
G01X15866Y21010D02*
G01X14868Y21010D01*
G01X14868Y21010D02*
G01X14868Y20292D01*
G01X17311Y6544D02*
G01X17680Y6544D01*
G01X17680Y6544D02*
G01X17832Y6696D01*
G01X17832Y6696D02*
G01X17832Y7172D01*
G01X17832Y7172D02*
G01X17680Y7325D01*
G01X17680Y7325D02*
G01X17311Y7325D01*
G01X16979Y6544D02*
G01X16610Y6544D01*
G01X16610Y6544D02*
G01X16458Y6696D01*
G01X16458Y6696D02*
G01X16458Y7172D01*
G01X16458Y7172D02*
G01X16610Y7325D01*
G01X16610Y7325D02*
G01X16979Y7325D01*
G01X16610Y5578D02*
G01X16979Y5578D01*
G01X16979Y6360D02*
G01X16610Y6360D01*
G01X16458Y6207D02*
G01X16458Y5731D01*
G01X17680Y5578D02*
G01X17311Y5578D01*
G01X17311Y6360D02*
G01X17680Y6360D01*
G01X17832Y6207D02*
G01X17832Y5731D01*
G01X16610Y6360D02*
G03X16458Y6207I0J-152D01*
G01X16458Y5731D02*
G03X16610Y5578I152J0D01*
G01X17680Y6360D02*
G02X17832Y6207I0J-152D01*
G01X17832Y5731D02*
G02X17680Y5578I-152J0D01*
G01X16124Y7325D02*
G01X15756Y7325D01*
G01X15756Y6544D02*
G01X16124Y6544D01*
G01X16276Y6696D02*
G01X16276Y7172D01*
G01X15055Y7325D02*
G01X15423Y7325D01*
G01X15423Y6544D02*
G01X15055Y6544D01*
G01X14902Y6696D02*
G01X14902Y7172D01*
G01X16124Y6544D02*
G03X16276Y6696I0J152D01*
G01X16276Y7172D02*
G03X16124Y7325I-152J0D01*
G01X15055Y6544D02*
G02X14902Y6696I0J152D01*
G01X14902Y7172D02*
G02X15055Y7325I152J0D01*
G01X11580Y7200D02*
G01X11862Y6963D01*
G01X12364Y7561D02*
G01X12082Y7798D01*
G01X11867Y7779D02*
G01X11561Y7414D01*
G01X12399Y6512D02*
G01X12117Y6749D01*
G01X12619Y7348D02*
G01X12901Y7111D01*
G01X12920Y6896D02*
G01X12614Y6531D01*
G01X12082Y7798D02*
G03X11867Y7779I-98J-117D01*
G01X11561Y7414D02*
G03X11580Y7200I117J-98D01*
G01X12901Y7111D02*
G02X12920Y6896I-98J-117D01*
G01X12614Y6531D02*
G02X12399Y6512I-117J98D01*
G01X10043Y7085D02*
G01X10043Y7454D01*
G01X9261Y7454D02*
G01X9261Y7085D01*
G01X9414Y6933D02*
G01X9890Y6933D01*
G01X10043Y8155D02*
G01X10043Y7786D01*
G01X9261Y7786D02*
G01X9261Y8155D01*
G01X9414Y8307D02*
G01X9890Y8307D01*
G01X9261Y7085D02*
G03X9414Y6933I152J0D01*
G01X9890Y6933D02*
G03X10043Y7085I0J152D01*
G01X9261Y8155D02*
G02X9414Y8307I152J0D01*
G01X9890Y8307D02*
G02X10043Y8155I0J-152D01*
G01X11298Y8814D02*
G01X10749Y8814D01*
G01X11414Y9869D02*
G01X11414Y10237D01*
G01X11414Y10237D02*
G01X11262Y10390D01*
G01X11262Y10390D02*
G01X10785Y10390D01*
G01X10785Y10390D02*
G01X10633Y10237D01*
G01X10633Y10237D02*
G01X10633Y9869D01*
G01X11414Y9537D02*
G01X11414Y9168D01*
G01X11414Y9168D02*
G01X11262Y9016D01*
G01X11262Y9016D02*
G01X10785Y9016D01*
G01X10785Y9016D02*
G01X10633Y9168D01*
G01X10633Y9168D02*
G01X10633Y9537D01*
G01X11414Y10768D02*
G01X11414Y11137D01*
G01X10633Y11137D02*
G01X10633Y10768D01*
G01X10785Y10616D02*
G01X11262Y10616D01*
G01X11414Y11838D02*
G01X11414Y11469D01*
G01X10633Y11469D02*
G01X10633Y11838D01*
G01X10785Y11990D02*
G01X11262Y11990D01*
G01X10633Y10768D02*
G03X10785Y10616I152J0D01*
G01X11262Y10616D02*
G03X11414Y10768I0J152D01*
G01X10633Y11838D02*
G02X10785Y11990I152J0D01*
G01X11262Y11990D02*
G02X11414Y11838I0J-152D01*
G01X17263Y9398D02*
G01X17263Y10188D01*
G01X16265Y10188D02*
G01X16265Y9398D01*
G01X16418Y9245D02*
G01X17110Y9245D01*
G01X17263Y11430D02*
G01X17263Y10640D01*
G01X16265Y10640D02*
G01X16265Y11430D01*
G01X16418Y11583D02*
G01X17110Y11583D01*
G01X16265Y9398D02*
G03X16418Y9245I152J0D01*
G01X17110Y9245D02*
G03X17263Y9398I0J152D01*
G01X16265Y11430D02*
G02X16418Y11583I152J0D01*
G01X17110Y11583D02*
G02X17263Y11430I0J-152D01*
G01X15993Y9398D02*
G01X15993Y10188D01*
G01X14995Y10188D02*
G01X14995Y9398D01*
G01X15148Y9245D02*
G01X15840Y9245D01*
G01X15993Y11430D02*
G01X15993Y10640D01*
G01X14995Y10640D02*
G01X14995Y11430D01*
G01X15148Y11583D02*
G01X15840Y11583D01*
G01X14995Y9398D02*
G03X15148Y9245I152J0D01*
G01X15840Y9245D02*
G03X15993Y9398I0J152D01*
G01X14995Y11430D02*
G02X15148Y11583I152J0D01*
G01X15840Y11583D02*
G02X15993Y11430I0J-152D01*
G01X15903Y9008D02*
G01X15113Y9008D01*
G01X15113Y9008D02*
G01X14960Y8855D01*
G01X14960Y8855D02*
G01X14960Y8163D01*
G01X14960Y8163D02*
G01X15113Y8010D01*
G01X15113Y8010D02*
G01X15903Y8010D01*
G01X16355Y9008D02*
G01X17145Y9008D01*
G01X17145Y9008D02*
G01X17298Y8855D01*
G01X17298Y8855D02*
G01X17298Y8163D01*
G01X17298Y8163D02*
G01X17145Y8010D01*
G01X17145Y8010D02*
G01X16355Y8010D01*
G01X17281Y4445D02*
G01X17281Y3655D01*
G01X18279Y3655D02*
G01X18279Y4445D01*
G01X18126Y4598D02*
G01X17434Y4598D01*
G01X17281Y2413D02*
G01X17281Y3203D01*
G01X18279Y3203D02*
G01X18279Y2413D01*
G01X18126Y2260D02*
G01X17434Y2260D01*
G01X18279Y4445D02*
G03X18126Y4598I-152J0D01*
G01X17434Y4598D02*
G03X17281Y4445I0J-152D01*
G01X18279Y2413D02*
G02X18126Y2260I-152J0D01*
G01X17434Y2260D02*
G02X17281Y2413I0J152D01*
G01X16011Y4445D02*
G01X16011Y3655D01*
G01X17009Y3655D02*
G01X17009Y4445D01*
G01X16856Y4598D02*
G01X16164Y4598D01*
G01X16011Y2413D02*
G01X16011Y3203D01*
G01X17009Y3203D02*
G01X17009Y2413D01*
G01X16856Y2260D02*
G01X16164Y2260D01*
G01X17009Y4445D02*
G03X16856Y4598I-152J0D01*
G01X16164Y4598D02*
G03X16011Y4445I0J-152D01*
G01X17009Y2413D02*
G02X16856Y2260I-152J0D01*
G01X16164Y2260D02*
G02X16011Y2413I0J152D01*
G54D17*
G01X22735Y13859D02*
G01X21973Y13859D01*
G01X20205Y13859D02*
G01X20967Y13859D01*
G01X20205Y12538D02*
G01X20967Y12538D01*
G54D11*
G01X20205Y12538D02*
G01X20052Y12691D01*
G01X20052Y12691D02*
G01X20052Y13707D01*
G01X20052Y13707D02*
G01X20205Y13859D01*
G54D17*
G01X22735Y12538D02*
G01X21973Y12538D01*
G54D11*
G01X22735Y13859D02*
G01X22887Y13707D01*
G01X22887Y13707D02*
G01X22887Y12691D01*
G01X22887Y12691D02*
G01X22735Y12538D01*
G54D16*
G01X22853Y15259D02*
G01X22853Y14459D01*
G01X21743Y15569D02*
G01X22543Y15569D01*
G01X21743Y14149D02*
G01X22543Y14149D01*
G01X21167Y15574D02*
G01X20367Y15574D01*
G01X20058Y15265D02*
G01X20058Y14465D01*
G01X21167Y14155D02*
G01X20367Y14155D01*
G01X20057Y15265D02*
G02X20367Y15574I310J0D01*
G01X20367Y14155D02*
G02X20057Y14465I-0J310D01*
G01X22543Y15569D02*
G02X22853Y15259I0J-310D01*
G01X22853Y14459D02*
G02X22543Y14149I-310J0D01*
G01X23121Y12808D02*
G01X23121Y13608D01*
G01X24231Y12498D02*
G01X23431Y12498D01*
G01X24231Y13918D02*
G01X23431Y13918D01*
G01X24807Y12493D02*
G01X25607Y12493D01*
G01X25916Y12802D02*
G01X25916Y13602D01*
G01X24807Y13912D02*
G01X25607Y13912D01*
G01X25917Y12802D02*
G02X25607Y12493I-310J0D01*
G01X25607Y13912D02*
G02X25917Y13602I0J-310D01*
G01X23431Y12498D02*
G02X23121Y12808I-0J310D01*
G01X23121Y13608D02*
G02X23431Y13918I310J0D01*
G01X24631Y2813D02*
G01X24631Y2013D01*
G01X23521Y3123D02*
G01X24321Y3123D01*
G01X23521Y1703D02*
G01X24321Y1703D01*
G01X22945Y3128D02*
G01X22145Y3128D01*
G01X21836Y2819D02*
G01X21836Y2019D01*
G01X22945Y1709D02*
G01X22145Y1709D01*
G01X21835Y2819D02*
G02X22145Y3128I310J0D01*
G01X22145Y1709D02*
G02X21835Y2019I-0J310D01*
G01X24321Y3123D02*
G02X24631Y2813I0J-310D01*
G01X24631Y2013D02*
G02X24321Y1703I-310J0D01*
G54D11*
G01X23631Y5588D02*
G01X23631Y4798D01*
G01X24629Y4798D02*
G01X24629Y5588D01*
G01X24476Y5741D02*
G01X23784Y5741D01*
G01X23631Y3556D02*
G01X23631Y4346D01*
G01X24629Y4346D02*
G01X24629Y3556D01*
G01X24476Y3403D02*
G01X23784Y3403D01*
G01X24629Y5588D02*
G03X24476Y5741I-152J0D01*
G01X23784Y5741D02*
G03X23631Y5588I0J-152D01*
G01X24629Y3556D02*
G02X24476Y3403I-152J0D01*
G01X23784Y3403D02*
G02X23631Y3556I0J152D01*
G01X22361Y5588D02*
G01X22361Y4798D01*
G01X23359Y4798D02*
G01X23359Y5588D01*
G01X23206Y5741D02*
G01X22514Y5741D01*
G01X22361Y3556D02*
G01X22361Y4346D01*
G01X23359Y4346D02*
G01X23359Y3556D01*
G01X23206Y3403D02*
G01X22514Y3403D01*
G01X23359Y5588D02*
G03X23206Y5741I-152J0D01*
G01X22514Y5741D02*
G03X22361Y5588I0J-152D01*
G01X23359Y3556D02*
G02X23206Y3403I-152J0D01*
G01X22514Y3403D02*
G02X22361Y3556I0J152D01*
G01X21091Y5588D02*
G01X21091Y4798D01*
G01X22089Y4798D02*
G01X22089Y5588D01*
G01X21936Y5741D02*
G01X21244Y5741D01*
G01X21091Y3556D02*
G01X21091Y4346D01*
G01X22089Y4346D02*
G01X22089Y3556D01*
G01X21936Y3403D02*
G01X21244Y3403D01*
G01X22089Y5588D02*
G03X21936Y5741I-152J0D01*
G01X21244Y5741D02*
G03X21091Y5588I0J-152D01*
G01X22089Y3556D02*
G02X21936Y3403I-152J0D01*
G01X21244Y3403D02*
G02X21091Y3556I0J152D01*
G01X19803Y12700D02*
G01X19803Y13490D01*
G01X18805Y13490D02*
G01X18805Y12700D01*
G01X18958Y12547D02*
G01X19650Y12547D01*
G01X19803Y14732D02*
G01X19803Y13942D01*
G01X18805Y13942D02*
G01X18805Y14732D01*
G01X18958Y14885D02*
G01X19650Y14885D01*
G01X18805Y12700D02*
G03X18958Y12547I152J0D01*
G01X19650Y12547D02*
G03X19803Y12700I0J152D01*
G01X18805Y14732D02*
G02X18958Y14885I152J0D01*
G01X19650Y14885D02*
G02X19803Y14732I0J-152D01*
G54D18*
G01X25850Y5476D02*
G01X25850Y4176D01*
G01X25806Y4547D02*
G01X24956Y4547D01*
G01X24950Y5476D02*
G01X24950Y4176D01*
G54D11*
G01X24901Y2766D02*
G01X24901Y3484D01*
G01X24901Y3484D02*
G01X25899Y3484D01*
G01X25899Y3484D02*
G01X25899Y2766D01*
G01X24901Y2314D02*
G01X24901Y1596D01*
G01X24901Y1596D02*
G01X25899Y1596D01*
G01X25899Y1596D02*
G01X25899Y2314D01*
G01X9280Y9553D02*
G01X9280Y8763D01*
G01X9280Y8763D02*
G01X9433Y8610D01*
G01X9433Y8610D02*
G01X10125Y8610D01*
G01X10125Y8610D02*
G01X10278Y8763D01*
G01X10278Y8763D02*
G01X10278Y9553D01*
G01X9280Y10005D02*
G01X9280Y10795D01*
G01X9280Y10795D02*
G01X9433Y10948D01*
G01X9433Y10948D02*
G01X10125Y10948D01*
G01X10125Y10948D02*
G01X10278Y10795D01*
G01X10278Y10795D02*
G01X10278Y10005D01*
G01X22507Y24774D02*
G01X21789Y24774D01*
G01X21789Y24774D02*
G01X21789Y25772D01*
G01X21789Y25772D02*
G01X22507Y25772D01*
G01X22959Y24774D02*
G01X23677Y24774D01*
G01X23677Y24774D02*
G01X23677Y25772D01*
G01X23677Y25772D02*
G01X22959Y25772D01*
G01X22507Y23504D02*
G01X21789Y23504D01*
G01X21789Y23504D02*
G01X21789Y24502D01*
G01X21789Y24502D02*
G01X22507Y24502D01*
G01X22959Y23504D02*
G01X23677Y23504D01*
G01X23677Y23504D02*
G01X23677Y24502D01*
G01X23677Y24502D02*
G01X22959Y24502D01*
G54D19*
G01X9149Y11976D02*
G01X10348Y11976D01*
G01X10348Y11976D02*
G01X10348Y11176D01*
G01X10348Y11176D02*
G01X9149Y11176D01*
G01X9149Y11176D02*
G01X9149Y11976D01*
G54D16*
G01X17790Y21692D02*
G01X17790Y22281D01*
G01X17790Y22281D02*
G01X17769Y22281D01*
G01X17769Y22281D02*
G01X17480Y21992D01*
G01X17480Y21992D02*
G01X17749Y21723D01*
G01X17749Y21723D02*
G01X17790Y21682D01*
G54D11*
G01X2867Y21665D02*
G01X6410Y21665D01*
G01X6410Y21665D02*
G01X6410Y11513D01*
G01X6410Y11513D02*
G01X2867Y11513D01*
G01X2867Y11513D02*
G01X2867Y21665D01*
G01X5110Y22098D02*
G01X5110Y22888D01*
G01X4113Y22888D02*
G01X4113Y22098D01*
G01X4265Y21945D02*
G01X4957Y21945D01*
G01X5110Y24130D02*
G01X5110Y23340D01*
G01X4113Y23340D02*
G01X4113Y24130D01*
G01X4265Y24283D02*
G01X4957Y24283D01*
G01X4113Y22098D02*
G03X4265Y21945I152J0D01*
G01X4957Y21945D02*
G03X5110Y22098I0J152D01*
G01X4113Y24130D02*
G02X4265Y24283I152J0D01*
G01X4957Y24283D02*
G02X5110Y24130I0J-152D01*
G01X2868Y24130D02*
G01X2868Y23340D01*
G01X3865Y23340D02*
G01X3865Y24130D01*
G01X3713Y24283D02*
G01X3020Y24283D01*
G01X2868Y22098D02*
G01X2868Y22888D01*
G01X3865Y22888D02*
G01X3865Y22098D01*
G01X3713Y21945D02*
G01X3020Y21945D01*
G01X3865Y24130D02*
G03X3713Y24283I-152J0D01*
G01X3020Y24283D02*
G03X2868Y24130I0J-152D01*
G01X3865Y22098D02*
G02X3713Y21945I-152J0D01*
G01X3020Y21945D02*
G02X2868Y22098I0J152D01*
G01X3683Y10169D02*
G01X4473Y10169D01*
G01X4473Y11167D02*
G01X3683Y11167D01*
G01X3530Y11014D02*
G01X3530Y10322D01*
G01X5715Y10169D02*
G01X4925Y10169D01*
G01X4925Y11167D02*
G01X5715Y11167D01*
G01X5868Y11014D02*
G01X5868Y10322D01*
G01X3683Y11167D02*
G03X3530Y11014I0J-152D01*
G01X3530Y10322D02*
G03X3683Y10169I152J0D01*
G01X5715Y11167D02*
G02X5868Y11014I0J-152D01*
G01X5868Y10322D02*
G02X5715Y10169I-152J0D01*
G01X5395Y24130D02*
G01X5395Y23340D01*
G01X6392Y23340D02*
G01X6392Y24130D01*
G01X6240Y24283D02*
G01X5548Y24283D01*
G01X5395Y22098D02*
G01X5395Y22888D01*
G01X6392Y22888D02*
G01X6392Y22098D01*
G01X6240Y21945D02*
G01X5548Y21945D01*
G01X6392Y24130D02*
G03X6240Y24283I-152J0D01*
G01X5548Y24283D02*
G03X5395Y24130I0J-152D01*
G01X6392Y22098D02*
G02X6240Y21945I-152J0D01*
G01X5548Y21945D02*
G02X5395Y22098I0J152D01*
G01X12124Y19840D02*
G01X12124Y19122D01*
G01X12124Y19122D02*
G01X11127Y19122D01*
G01X11127Y19122D02*
G01X11127Y19840D01*
G01X12124Y20292D02*
G01X12124Y21010D01*
G01X12124Y21010D02*
G01X11127Y21010D01*
G01X11127Y21010D02*
G01X11127Y20292D01*
G01X13374Y19840D02*
G01X13374Y19122D01*
G01X13374Y19122D02*
G01X12377Y19122D01*
G01X12377Y19122D02*
G01X12377Y19840D01*
G01X13374Y20292D02*
G01X13374Y21010D01*
G01X13374Y21010D02*
G01X12377Y21010D01*
G01X12377Y21010D02*
G01X12377Y20292D01*
G01X6178Y7455D02*
G01X6178Y5753D01*
G01X3125Y7455D02*
G01X3125Y5753D01*
G01X4175Y5753D02*
G01X5128Y5753D01*
G01X7229Y6069D02*
G01X7229Y6438D01*
G01X6448Y6438D02*
G01X6448Y6069D01*
G01X6600Y5917D02*
G01X7077Y5917D01*
G01X7229Y7139D02*
G01X7229Y6770D01*
G01X6448Y6770D02*
G01X6448Y7139D01*
G01X6600Y7291D02*
G01X7077Y7291D01*
G01X6448Y6069D02*
G03X6600Y5917I152J0D01*
G01X7077Y5917D02*
G03X7229Y6069I0J152D01*
G01X6448Y7139D02*
G02X6600Y7291I152J0D01*
G01X7077Y7291D02*
G02X7229Y7139I0J-152D01*
G01X9985Y20601D02*
G01X9985Y20232D01*
G01X10766Y20232D02*
G01X10766Y20601D01*
G01X10614Y20753D02*
G01X10137Y20753D01*
G01X9985Y19531D02*
G01X9985Y19900D01*
G01X10766Y19900D02*
G01X10766Y19531D01*
G01X10614Y19379D02*
G01X10137Y19379D01*
G01X10766Y20601D02*
G03X10614Y20753I-152J0D01*
G01X10137Y20753D02*
G03X9985Y20601I0J-152D01*
G01X10766Y19531D02*
G02X10614Y19379I-152J0D01*
G01X10137Y19379D02*
G02X9985Y19531I0J152D01*
G04 PolygonModel End*

G04 Rect Start*
G54D20*
G01X24257Y22098D02*
G01X24257Y17907D01*
G01X26670D01*
G01Y22098D01*
G01X24257D01*
G01X17653Y20828D02*
G01X17653Y17907D01*
G01X24003D01*
G01Y20828D01*
G01X17653D01*
G54D16*
G01X19737Y22500D02*
G01X19737Y26900D01*
G01X7337D01*
G01Y22500D01*
G01X19737D01*
G04 Rect End*

G04 Circle Start*
G54D21*
G01X18390Y6045D02*
G03X18542Y6045I76J0D01*
G03X18390I-76J0D01*
G01X10389Y7465D02*
G03X10561Y7465I86J0D01*
G03X10389I-86J0D01*
G54D14*
G01X13069Y6817D02*
G03X13141Y6817I36J0D01*
G03X13069I-36J0D01*
G54D16*
G01X20610Y1176D02*
G03X20762Y1176I76J0D01*
G03X20610I-76J0D01*
G54D22*
G01X3469Y21034D02*
G03X3769Y21034I150J0D01*
G03X3469I-150J0D01*
G01X1616Y21766D02*
G03X1916Y21766I150J0D01*
G03X1616I-150J0D01*
G01X6153Y7747D02*
G03X6453Y7747I150J0D01*
G03X6153I-150J0D01*
G04 Circle End*

M02*
