G04 Layer: TopLayer*
G04 EasyEDA Pro v1.7.31.78bc6e, 2022-08-09 17:47:50*
G04 Gerber Generator version 0.3*
G04 Scale: 100 percent, Rotated: No, Reflected: No*
G04 Dimensions in millimeters*
G04 Leading zeros omitted, absolute positions, 3 integers and 3 decimals*
%FSLAX33Y33*%
%MOMM*%
%ADD999C,0.2032*%
%ADD10C,0.2032*%
%ADD11C,0.00508*%
%ADD12C,0.6096*%
%ADD13O,1.745005X0.559994*%
%ADD14C,0.610001*%
%ADD15C,1.2954*%
%ADD16C,1.397*%
%ADD17C,0.2572*%
%ADD18C,0.254*%
%ADD19C,0.32512*%
%ADD20C,0.49022*%
G75*


G04 Copper Start*
G36*
G01X26820Y2203D02*
G02X25102Y485I-1718J0D01*
G01X2152D01*
G02X483Y1799I0J1718D01*
G01Y25557D01*
G02X1748Y26822I1669J-404D01*
G01X6597D01*
G03X6468Y26572I178J-250D01*
G01Y24101D01*
G03X6164Y24361I-304J-47D01*
G01X5624D01*
G03X5316Y24054I0J-307D01*
G01Y23264D01*
G03X5356Y23114I307J0D01*
G03X5316Y22964I268J-150D01*
G01Y22174D01*
G03X5459Y21914I307J0D01*
G01Y21538D01*
G03X5587Y21231I434J0D01*
G01X6091Y20727D01*
G03X6398Y20600I307J307D01*
G01X6523D01*
G03X6918Y20447I395J434D01*
G01X8103D01*
G03X8691Y21034I0J587D01*
G03X8633Y21288I-587J0D01*
G03X8890Y21232I257J556D01*
G03X9322Y21410I0J612D01*
G01X9668D01*
G01Y21372D01*
G03X9941Y21067I307J0D01*
G01Y20667D01*
G03X9906Y20525I272J-142D01*
G01Y20156D01*
G03X9920Y20066I307J0D01*
G03X9906Y19976I294J-90D01*
G01Y19607D01*
G03X10213Y19300I307J0D01*
G01X10537D01*
G03X10845Y19607I0J307D01*
G01Y19976D01*
G03X10831Y20066I-307J0D01*
G03X10845Y20156I-294J90D01*
G01Y20525D01*
G03X10810Y20667I-307J0D01*
G01Y21067D01*
G03X11000Y21163I-34J305D01*
G03X11191Y21067I225J209D01*
G01Y21041D01*
G03X11048Y20782I165J-260D01*
G01Y20216D01*
G03X11087Y20066I307J0D01*
G03X11048Y19916I268J-150D01*
G01Y19350D01*
G03X11054Y19289I307J0D01*
G01X10694Y18928D01*
G01X8499D01*
G03X8103Y19081I-395J-434D01*
G01X6918D01*
G03X6331Y18494I0J-587D01*
G03X6918Y17907I587J0D01*
G01X8103D01*
G03X8499Y18060I0J587D01*
G01X10874D01*
G03X11181Y18187I0J434D01*
G01X11933Y18938D01*
G03X12023Y19071I-307J307D01*
G03X12203Y19350I-128J280D01*
G01Y19916D01*
G03X12164Y20066I-307J0D01*
G03X12203Y20216I-268J150D01*
G01Y20782D01*
G03X12060Y21042I-307J0D01*
G01Y21067D01*
G03X12250Y21163I-34J305D01*
G03X12441Y21067I225J209D01*
G01Y21041D01*
G03X12298Y20782I164J-260D01*
G01Y20216D01*
G03X12337Y20066I307J0D01*
G03X12298Y19916I268J-150D01*
G01Y19350D01*
G03X12308Y19272I307J0D01*
G01X10694Y17658D01*
G01X8499D01*
G03X8103Y17811I-395J-434D01*
G01X6918D01*
G03X6331Y17224I0J-587D01*
G03X6918Y16637I587J0D01*
G01X8103D01*
G03X8499Y16790I0J587D01*
G01X10460D01*
G01X10059Y16388D01*
G01X8499D01*
G03X8103Y16541I-395J-434D01*
G01X6918D01*
G03X6331Y15954I0J-587D01*
G03X6918Y15367I587J0D01*
G01X8103D01*
G03X8499Y15520I0J587D01*
G01X9765D01*
G01X9364Y15118D01*
G01X8499D01*
G03X8103Y15271I-395J-434D01*
G01X6918D01*
G03X6331Y14684I0J-587D01*
G03X6918Y14097I587J0D01*
G01X8103D01*
G03X8499Y14250I0J587D01*
G01X9544D01*
G03X9851Y14377I0J434D01*
G01X11677Y16203D01*
G01X17094D01*
G03X17526Y16025I432J434D01*
G03X17958Y16203I0J612D01*
G01X18037D01*
G01X17491Y15656D01*
G03X17371Y15367I289J-289D01*
G01Y10668D01*
G03X17491Y10379I409J0D01*
G01X17719Y10150D01*
G03X17904Y10044I289J289D01*
G01Y9982D01*
G03X17939Y9830I358J0D01*
G03X17904Y9677I324J-152D01*
G01Y9576D01*
G03X17939Y9423I358J0D01*
G03X17904Y9271I324J-152D01*
G01Y9169D01*
G03X17939Y9017I358J0D01*
G03X17904Y8865I324J-152D01*
G01Y8763D01*
G03X17939Y8611I358J0D01*
G03X17904Y8458I324J-152D01*
G01Y8410D01*
G01X17376D01*
G01Y8779D01*
G03X17083Y9086I-307J0D01*
G01Y9170D01*
G03X17341Y9474I-49J303D01*
G01Y10264D01*
G03X17302Y10414I-307J0D01*
G03X17341Y10564I-268J150D01*
G01Y11354D01*
G03X17034Y11661I-307J0D01*
G01X16494D01*
G03X16187Y11354I0J-307D01*
G01Y10564D01*
G03X16226Y10414I307J0D01*
G03X16187Y10264I268J-150D01*
G01Y9474D01*
G03X16265Y9269I307J0D01*
G01Y9086D01*
G03X16129Y9047I14J-307D01*
G03X15993Y9086I-150J-268D01*
G01Y9269D01*
G03X16071Y9474I-229J205D01*
G01Y10264D01*
G03X16032Y10414I-307J0D01*
G03X16071Y10564I-268J150D01*
G01Y11354D01*
G03X15764Y11661I-307J0D01*
G01X15224D01*
G03X14917Y11354I0J-307D01*
G01Y10564D01*
G03X14956Y10414I307J0D01*
G03X14917Y10264I268J-150D01*
G01Y9474D01*
G03X15175Y9170I307J0D01*
G01Y9086D01*
G03X14882Y8779I14J-307D01*
G01Y8239D01*
G03X15189Y7932I307J0D01*
G03X15295Y7749I395J106D01*
G01X15642Y7401D01*
G03X15589Y7390I37J-305D01*
G03X15499Y7404I-90J-294D01*
G01X15131D01*
G03X14949Y7344I0J-307D01*
G01X14835D01*
G03X14651Y7405I-184J-246D01*
G01X14351D01*
G03X14249Y7387I0J-307D01*
G03X14146Y7405I-103J-290D01*
G01X13846D01*
G03X13539Y7117I0J-307D01*
G01X13339D01*
G03X13177Y7070I0J-307D01*
G02X12962Y7138I196J995D01*
G03X12893Y7220I-266J-153D01*
G01X12611Y7457D01*
G03X12533Y7504I-198J-235D01*
G03X12473Y7573I-258J-167D01*
G01X12191Y7809D01*
G03X12004Y7881I-198J-235D01*
G02X11833Y8114I916J851D01*
G01Y8155D01*
G03X11816Y8255I-307J0D01*
G03X11833Y8355I-291J100D01*
G01Y8556D01*
G03X11525Y8863I-307J0D01*
G01X11433D01*
G01Y9061D01*
G03X11493Y9244I-247J183D01*
G01Y9613D01*
G03X11479Y9703I-307J0D01*
G03X11493Y9793I-294J90D01*
G01Y10161D01*
G03X11433Y10344I-307J0D01*
G01Y10661D01*
G03X11493Y10844I-247J183D01*
G01Y11213D01*
G03X11479Y11303I-307J0D01*
G03X11493Y11393I-294J90D01*
G01Y11762D01*
G03X11458Y11904I-307J0D01*
G01Y12294D01*
G03X11979Y13145I-434J851D01*
G03X11024Y14100I-955J0D01*
G03X10069Y13145I0J-955D01*
G03X10589Y12294I955J0D01*
G01Y11986D01*
G01X10459D01*
G03X10213Y12109I-246J-184D01*
G01X9934D01*
G03X9744Y12043I0J-307D01*
G03X9553Y12109I-190J-241D01*
G01X9274D01*
G03X8966Y11802I0J-307D01*
G01Y11353D01*
G03X9274Y11045I307J0D01*
G01X9553D01*
G03X9744Y11111I0J307D01*
G03X9934Y11045I191J241D01*
G01X10213D01*
G03X10459Y11168I0J307D01*
G01X10554D01*
G01Y10844D01*
G03X10615Y10661I307J0D01*
G01Y10344D01*
G03X10554Y10161I247J-183D01*
G01Y9793D01*
G03X10568Y9703I307J0D01*
G03X10554Y9613I294J-90D01*
G01Y9244D01*
G03X10615Y9061I307J0D01*
G01Y8865D01*
G01X10356D01*
G01Y9629D01*
G03X10317Y9779I-307J0D01*
G03X10356Y9929I-268J150D01*
G01Y10719D01*
G03X10049Y11026I-307J0D01*
G01X9509D01*
G03X9204Y10758I0J-307D01*
G01X8941D01*
G03X8509Y10936I-432J-434D01*
G03X7897Y10324I0J-612D01*
G03X8509Y9712I612J0D01*
G03X8941Y9890I0J612D01*
G01X9204D01*
G03X9241Y9779I305J39D01*
G03X9202Y9629I268J-150D01*
G01Y8839D01*
G03X9436Y8540I307J0D01*
G03X9490Y8474I343J223D01*
G01X9578Y8386D01*
G01X9490D01*
G03X9183Y8079I0J-307D01*
G01Y7710D01*
G03X9196Y7620I307J0D01*
G03X9183Y7530I294J-90D01*
G01Y7161D01*
G03X9243Y6978I307J0D01*
G03X9363Y6696I409J7D01*
G01X9617Y6442D01*
G03X9906Y6322I289J289D01*
G01X10668D01*
G03X10957Y6442I0J409D01*
G01X11313Y6797D01*
G03X11433Y7087I-289J289D01*
G01Y7295D01*
G03X11491Y7237I1487J1438D01*
G03X11587Y7090I294J89D01*
G01X11870Y6854D01*
G03X11947Y6806I198J235D01*
G03X12008Y6738I258J167D01*
G01X12290Y6501D01*
G03X12488Y6429I198J235D01*
G03X12540Y6433I0J307D01*
G03X13144Y6248I833J1632D01*
G03X13339Y6177I196J237D01*
G01X13539D01*
G03X13846Y5889I307J19D01*
G01X14146D01*
G03X14249Y5907I0J307D01*
G03X14351Y5889I103J290D01*
G01X14651D01*
G03X14959Y6197I0J307D01*
G01Y6518D01*
G03X15131Y6465I172J255D01*
G01X15499D01*
G03X15589Y6478I0J307D01*
G03X15680Y6465I90J294D01*
G01X16048D01*
G03X16231Y6525I0J307D01*
G01X16462D01*
G01Y6341D01*
G03X16379Y6131I225J-210D01*
G01Y5807D01*
G03X16686Y5500I307J0D01*
G01X17055D01*
G03X17145Y5513I0J307D01*
G03X17235Y5500I90J294D01*
G01X17604D01*
G03X17911Y5807I0J307D01*
G01Y6131D01*
G03X17604Y6438I-307J0D01*
G01X17280D01*
G01Y6465D01*
G01X17604D01*
G03X17793Y6530I0J307D01*
G03X18018Y6645I-64J404D01*
G01X18153Y6779D01*
G01X18263D01*
G01X18415D01*
G01X18463D01*
G01Y6731D01*
G01Y6579D01*
G03X18821Y6220I358J0D01*
G01X18870D01*
G01Y5605D01*
G01X18627Y5362D01*
G01X17932D01*
G03X17643Y5242I0J-409D01*
G01X17491Y5090D01*
G03X17371Y4801I289J-289D01*
G01Y4643D01*
G03X17205Y4408I139J-274D01*
G01X17085D01*
G03X16780Y4676I-305J-39D01*
G01X16240D01*
G03X15933Y4369I0J-307D01*
G01Y3579D01*
G03X15972Y3429I307J0D01*
G03X15933Y3279I268J-150D01*
G01Y2489D01*
G03X16080Y2227I307J0D01*
G03X16203Y1979I430J59D01*
G01X16564Y1618D01*
G03X16871Y1491I307J307D01*
G01X18226D01*
G03X18472Y1368I246J184D01*
G01X19298D01*
G03X19605Y1675I0J307D01*
G01Y2176D01*
G03X19298Y2483I-307J0D01*
G01X18472D01*
G03X18356Y2460I0J-307D01*
G03X18357Y2489I-306J29D01*
G01Y2538D01*
G03X18470Y2517I112J286D01*
G01X18899D01*
G03X19206Y2824I0J307D01*
G01Y3526D01*
G03X18899Y3833I-307J0D01*
G01X18470D01*
G03X18357Y3812I0J-307D01*
G01Y3889D01*
G03X18472Y3867I115J285D01*
G01X19298D01*
G03X19580Y4052I0J307D01*
G03X19700Y4136I-169J372D01*
G01X19765Y4201D01*
G01Y4174D01*
G03X20072Y3867I307J0D01*
G01X20898D01*
G03X21013Y3889I0J307D01*
G01Y3812D01*
G03X20900Y3833I-112J-286D01*
G01X20471D01*
G03X20164Y3526I0J-307D01*
G01Y2824D01*
G03X20471Y2517I307J0D01*
G01X20900D01*
G03X21208Y2824I0J307D01*
G01Y3346D01*
G03X21320Y3325I112J286D01*
G01X21860D01*
G03X22167Y3632I0J307D01*
G01Y4422D01*
G03X22128Y4572I-307J0D01*
G03X22167Y4722I-268J150D01*
G01Y5509D01*
G01X22283D01*
G01Y5321D01*
G03X22248Y5117I577J-204D01*
G03X22283Y4913I612J0D01*
G01Y4722D01*
G03X22322Y4572I307J0D01*
G03X22283Y4422I268J-150D01*
G01Y3632D01*
G03X22590Y3325I307J0D01*
G01X23130D01*
G03X23437Y3632I0J307D01*
G01Y4422D01*
G03X23398Y4572I-307J0D01*
G03X23437Y4722I-268J150D01*
G01Y4913D01*
G03X23472Y5117I-577J204D01*
G03X23437Y5321I-612J0D01*
G01Y5512D01*
G03X23262Y5790I-307J0D01*
G03X23240Y5865I-402J-75D01*
G01X23275D01*
G01X23560Y5580D01*
G03X23553Y5512I300J-67D01*
G01Y4722D01*
G03X23592Y4572I307J0D01*
G03X23553Y4422I268J-150D01*
G01Y3632D01*
G03X23860Y3325I307J0D01*
G01X24400D01*
G03X24707Y3632I0J307D01*
G01Y4422D01*
G03X24668Y4572I-307J0D01*
G03X24707Y4722I-268J150D01*
G01Y5080D01*
G01X24819Y5192D01*
G01X24824D01*
G03X24867Y5127I276J135D01*
G03X24788Y4826I533J-301D01*
G03X24867Y4525I612J0D01*
G03X24793Y4326I234J-200D01*
G01Y3726D01*
G03X24918Y3478I307J0D01*
G03X24823Y3256I212J-223D01*
G01Y2690D01*
G03X24862Y2540I307J0D01*
G03X24823Y2390I268J-150D01*
G01Y2311D01*
G03X24788Y2107I577J-204D01*
G03X24823Y1903I612J0D01*
G01Y1824D01*
G03X25130Y1517I307J0D01*
G01X25237D01*
G03X25400Y1495I163J590D01*
G03X25563Y1517I0J612D01*
G01X25670D01*
G03X25977Y1824I0J307D01*
G01Y1903D01*
G03X26012Y2107I-577J204D01*
G03X25977Y2311I-612J0D01*
G01Y2390D01*
G03X25938Y2540I-307J0D01*
G03X25977Y2690I-268J150D01*
G01Y3256D01*
G03X25882Y3478I-307J0D01*
G03X26007Y3726I-182J248D01*
G01Y4326D01*
G03X25933Y4525I-307J0D01*
G03X26012Y4826I-533J301D01*
G03X25933Y5127I-612J0D01*
G03X26007Y5326I-234J200D01*
G01Y5926D01*
G03X25881Y6174I-307J0D01*
G03X25922Y6328I-266J154D01*
G01Y7377D01*
G03X25615Y7685I-307J0D01*
G01X24011D01*
G01X24898Y8571D01*
G01X25615D01*
G03X25922Y8879I0J307D01*
G01Y9928D01*
G03X25615Y10235I-307J0D01*
G01X24275D01*
G01X24553Y10513D01*
G01X24817D01*
G03X25273Y10310I456J409D01*
G03X25885Y10922I0J612D01*
G03X25732Y11327I-612J0D01*
G03X25994Y11446I-27J408D01*
G01X26451Y11903D01*
G03X26571Y12192I-289J289D01*
G01Y14149D01*
G03X26774Y14605I-409J456D01*
G03X26162Y15217I-612J0D01*
G03X25550Y14605I0J-612D01*
G03X25753Y14149I612J0D01*
G01Y13931D01*
G03X25611Y13965I-142J-273D01*
G01X24811D01*
G03X24511Y13725I0J-307D01*
G03X24245Y13963I-300J-67D01*
G01Y14307D01*
G03X24511Y14247I266J552D01*
G03X25123Y14859I0J612D01*
G03X24511Y15471I-612J0D01*
G03X24079Y15293I0J-612D01*
G01X24003D01*
G03X23696Y15166I0J-434D01*
G01X23504Y14974D01*
G03X23377Y14667I307J-307D01*
G01Y13963D01*
G03X23104Y13658I34J-305D01*
G01Y12758D01*
G03X23402Y12451I307J0D01*
G01Y12169D01*
G01X22945Y11712D01*
G01X22831D01*
G03X22581Y11814I-250J-257D01*
G01X22532D01*
G01Y12469D01*
G01X22563D01*
G03X22870Y12776I0J307D01*
G01Y13640D01*
G03X22563Y13947I-307J0D01*
G01X21763D01*
G03X21463Y13707I0J-307D01*
G03X21172Y13947I-300J-67D01*
G01Y14102D01*
G03X21463Y14342I-9J307D01*
G03X21763Y14102I300J67D01*
G01X22563D01*
G03X22870Y14409I0J307D01*
G01Y15309D01*
G03X22563Y15616I-307J0D01*
G01X21763D01*
G03X21463Y15376I0J-307D01*
G03X21163Y15616I-300J-67D01*
G01X20363D01*
G03X20056Y15309I0J-307D01*
G01Y14409D01*
G03X20354Y14102I307J0D01*
G01Y13947D01*
G03X20056Y13640I9J-307D01*
G01Y12776D01*
G03X20060Y12728I307J0D01*
G01X19878D01*
G03X19881Y12776I-304J48D01*
G01Y13566D01*
G03X19842Y13716I-307J0D01*
G03X19881Y13866I-268J150D01*
G01Y14656D01*
G03X19574Y14963I-307J0D01*
G01X19034D01*
G03X18727Y14656I0J-307D01*
G01Y13866D01*
G03X18766Y13716I307J0D01*
G03X18727Y13566I268J-150D01*
G01Y12776D01*
G03X18902Y12498I307J0D01*
G03X19015Y12284I402J75D01*
G01X19269Y12030D01*
G03X19558Y11910I289J289D01*
G01X20846D01*
G01X20902Y11854D01*
G01Y11814D01*
G01X20853D01*
G03X20701Y11779I0J-358D01*
G03X20549Y11814I-152J-324D01*
G01X20447D01*
G03X20295Y11779I0J-358D01*
G03X20142Y11814I-152J-324D01*
G01X20041D01*
G03X19888Y11779I0J-358D01*
G03X19736Y11814I-152J-324D01*
G01X19634D01*
G03X19482Y11779I0J-358D01*
G03X19329Y11814I-152J-324D01*
G01X19228D01*
G03X19075Y11779I0J-358D01*
G03X18923Y11814I-152J-324D01*
G01X18821D01*
G03X18545Y11683I0J-358D01*
G01Y15050D01*
G01X19367Y15872D01*
G01X25171D01*
G03X25461Y15992I0J409D01*
G01X26324Y16856D01*
G03X26444Y17145I-289J289D01*
G01Y24511D01*
G03X26324Y24800I-409J0D01*
G01X25689Y25435D01*
G03X25400Y25555I-289J-289D01*
G01X24967D01*
G03X24853Y25654I-456J-409D01*
G03X25123Y26162I-342J508D01*
G03X24511Y26774I-612J0D01*
G03X23899Y26162I0J-612D01*
G03X24169Y25654I612J0D01*
G03X24080Y25580I342J-508D01*
G01X23754D01*
G03X23449Y25850I-305J-37D01*
G01X22883D01*
G03X22733Y25811I0J-307D01*
G03X22583Y25850I-150J-268D01*
G01X22017D01*
G03X21710Y25543I0J-307D01*
G01Y25003D01*
G03X21866Y24736I307J0D01*
G01Y24540D01*
G03X21710Y24273I152J-267D01*
G01Y23733D01*
G03X21866Y23466I307J0D01*
G01Y23420D01*
G03X21993Y23113I434J0D01*
G01X22299Y22807D01*
G03X22606Y22680I307J307D01*
G01X22733D01*
G03X23165Y22502I432J434D01*
G03X23596Y22680I0J612D01*
G01X24080D01*
G03X24511Y22502I431J434D01*
G03X25123Y23114I0J612D01*
G03X24853Y23622I-612J0D01*
G03X24967Y23721I-342J508D01*
G01X25104D01*
G01X25245Y23580D01*
G01Y17436D01*
G01X24855Y17046D01*
G01X19230D01*
G01Y18110D01*
G03X19408Y18542I-434J432D01*
G03X18796Y19154I-612J0D01*
G03X18364Y18976I0J-612D01*
G01X16814D01*
G03X16383Y19154I-431J-434D01*
G03X15952Y18976I0J-612D01*
G01X14658D01*
G01X14539Y19095D01*
G03X14674Y19350I-172J255D01*
G01Y19916D01*
G03X14635Y20066I-307J0D01*
G03X14674Y20216I-268J150D01*
G01Y20782D01*
G03X14560Y21021I-307J0D01*
G01Y21067D01*
G03X14750Y21163I-34J305D01*
G03X14941Y21067I225J209D01*
G01Y21046D01*
G03X14790Y20782I156J-265D01*
G01Y20216D01*
G03X14829Y20066I307J0D01*
G03X14790Y19916I268J-150D01*
G01Y19350D01*
G03X15097Y19043I307J0D01*
G01X15637D01*
G03X15905Y19200I0J307D01*
G01X16587D01*
G03X17018Y19022I431J434D01*
G03X17449Y19200I0J612D01*
G01X19380D01*
G03X19812Y19022I432J434D01*
G03X20424Y19634I0J612D01*
G03X19812Y20247I-612J0D01*
G03X19380Y20069I0J-612D01*
G01X17449D01*
G03X17018Y20246I-431J-434D01*
G03X16587Y20069I0J-612D01*
G01X15907D01*
G03X15944Y20216I-270J147D01*
G01Y20782D01*
G03X15810Y21036I-307J0D01*
G01Y21067D01*
G03X16000Y21163I-34J305D01*
G03X16225Y21065I225J209D01*
G01X17025D01*
G03X17333Y21372I0J307D01*
G01Y22972D01*
G03X17025Y23279I-307J0D01*
G01X16225D01*
G03X16000Y23181I0J-307D01*
G03X15775Y23279I-225J-209D01*
G01X14975D01*
G03X14750Y23181I0J-307D01*
G03X14525Y23279I-225J-209D01*
G01X13725D01*
G03X13500Y23181I0J-307D01*
G03X13275Y23279I-225J-209D01*
G01X12475D01*
G03X12250Y23181I0J-307D01*
G03X12025Y23279I-225J-209D01*
G01X11225D01*
G03X11000Y23181I0J-307D01*
G03X10775Y23279I-225J-209D01*
G01X9975D01*
G03X9668Y22972I0J-307D01*
G01Y22278D01*
G01X9322D01*
G03X8890Y22456I-432J-434D01*
G03X8278Y21844I0J-612D01*
G03X8342Y21571I612J0D01*
G03X8103Y21621I-239J-537D01*
G01X6918D01*
G03X6553Y21494I0J-587D01*
G01X6328Y21718D01*
G01Y21914D01*
G03X6469Y22135I-164J260D01*
G01X7187D01*
G03X7620Y21956I433J433D01*
G03X8232Y22568I0J612D01*
G03X7620Y23180I-612J0D01*
G03X7189Y23003I0J-612D01*
G01X6469D01*
G03X6432Y23114I-305J-39D01*
G03X6471Y23264I-268J150D01*
G01Y23525D01*
G03X6775Y23265I304J47D01*
G01X8875D01*
G03X9182Y23572I0J307D01*
G01Y26572D01*
G03X9053Y26822I-307J0D01*
G01X17947D01*
G03X17818Y26572I178J-250D01*
G01Y23572D01*
G03X18125Y23265I307J0D01*
G01X20225D01*
G03X20533Y23572I0J307D01*
G01Y26572D01*
G03X20403Y26822I-307J0D01*
G01X25506D01*
G02X26820Y25153I-404J-1669D01*
G01Y2203D01*
G37*
%LPC*%
G36*
G01X586Y18494D02*
G03X1173Y17907I587J0D01*
G01X2358D01*
G03X2754Y18060I0J587D01*
G01X4016D01*
G03X4323Y18187I0J434D01*
G01X4918Y18782D01*
G03X5045Y19089I-307J307D01*
G01Y21914D01*
G03X5188Y22174I-164J260D01*
G01Y22964D01*
G03X5149Y23114I-307J0D01*
G03X5188Y23264I-268J150D01*
G01Y24054D01*
G03X5045Y24314I-307J0D01*
G01Y24726D01*
G03X4918Y25033I-434J0D01*
G01X4752Y25199D01*
G03X4445Y25326I-307J-307D01*
G01X2159D01*
G03X1852Y25199I0J-434D01*
G01X1459Y24806D01*
G03X1331Y24499I307J-307D01*
G01Y21621D01*
G01X1173D01*
G03X586Y21034I0J-587D01*
G03X1173Y20447I587J0D01*
G01X2358D01*
G03X2932Y20909I0J587D01*
G01Y20310D01*
G01X2820Y20198D01*
G01X2754D01*
G03X2358Y20351I-395J-434D01*
G01X1173D01*
G03X586Y19764I0J-587D01*
G03X1173Y19177I587J0D01*
G01X2358D01*
G03X2754Y19330I0J587D01*
G01X3000D01*
G03X3307Y19457I0J434D01*
G01X3674Y19823D01*
G03X3801Y20131I-307J307D01*
G01Y21914D01*
G03X3944Y22174I-164J260D01*
G01Y22964D01*
G03X3905Y23114I-307J0D01*
G03X3944Y23264I-268J150D01*
G01Y24054D01*
G03X3637Y24361I-307J0D01*
G01X3097D01*
G03X2789Y24054I0J-307D01*
G01Y23264D01*
G03X2828Y23114I307J0D01*
G03X2789Y22964I268J-150D01*
G01Y22174D01*
G03X2932Y21914I307J0D01*
G01Y21159D01*
G03X2358Y21621I-574J-125D01*
G01X2200D01*
G01Y24319D01*
G01X2339Y24458D01*
G01X4177D01*
G01Y24314D01*
G03X4034Y24054I164J-260D01*
G01Y23264D01*
G03X4073Y23114I307J0D01*
G03X4034Y22964I268J-150D01*
G01Y22174D01*
G03X4177Y21914I307J0D01*
G01Y19269D01*
G01X3836Y18928D01*
G01X2754D01*
G03X2358Y19081I-395J-434D01*
G01X1173D01*
G03X586Y18494I0J-587D01*
G37*
G36*
G01X5639Y10091D02*
G03X5946Y10398I0J307D01*
G01Y10938D01*
G03X5639Y11245I-307J0D01*
G01X4849D01*
G03X4699Y11206I0J-307D01*
G03X4588Y11243I-150J-268D01*
G01Y14007D01*
G03X4461Y14314I-434J0D01*
G01X3784Y14991D01*
G03X3477Y15118I-307J-307D01*
G01X2754D01*
G03X2358Y15271I-395J-434D01*
G01X1173D01*
G03X586Y14684I0J-587D01*
G03X1173Y14097I587J0D01*
G01X2358D01*
G03X2754Y14250I0J587D01*
G01X3297D01*
G01X3720Y13827D01*
G01Y11243D01*
G03X3452Y10938I39J-305D01*
G01Y10398D01*
G03X3759Y10091I307J0D01*
G01X4549D01*
G03X4699Y10130I0J307D01*
G03X4849Y10091I150J268D01*
G01X5639D01*
G37*
G36*
G01X4988Y3810D02*
G03X5601Y3198I612J0D01*
G03X6213Y3810I0J612D01*
G03X6154Y4072I-612J0D01*
G01Y4980D01*
G01X6466D01*
G03X6799Y5118I0J470D01*
G01X7171Y5490D01*
G03X7308Y5822I-332J332D01*
G01Y6330D01*
G01Y6353D01*
G01Y6514D01*
G03X7294Y6604I-307J0D01*
G03X7308Y6694I-294J90D01*
G01Y7063D01*
G03X7000Y7370I-307J0D01*
G01X6676D01*
G03X6369Y7063I0J-307D01*
G01Y6694D01*
G03X6383Y6604I307J0D01*
G03X6369Y6514I294J-90D01*
G01Y6353D01*
G01Y6330D01*
G01Y6017D01*
G01X6272Y5920D01*
G01X6154D01*
G01Y6038D01*
G03X5847Y6345I-307J0D01*
G01X5357D01*
G03X5049Y6038I0J-307D01*
G01Y5462D01*
G01Y5450D01*
G01Y4076D01*
G03X4988Y3810I552J-266D01*
G37*
G36*
G01X4897Y6872D02*
G03X5127Y6975I0J307D01*
G03X5357Y6872I230J204D01*
G01X5847D01*
G03X6154Y7179I0J307D01*
G01Y8336D01*
G03X6036Y8578I-307J0D01*
G01Y8712D01*
G03X6214Y9144I-434J432D01*
G03X5602Y9756I-612J0D01*
G03X5170Y9578I0J-612D01*
G01X3937D01*
G03X3630Y9451I0J-434D01*
G01X3395Y9216D01*
G03X3267Y8909I307J-307D01*
G01Y8578D01*
G03X3149Y8336I189J-242D01*
G01Y7179D01*
G03X3457Y6872I307J0D01*
G01X3947D01*
G03X4177Y6975I0J307D01*
G03X4407Y6872I230J204D01*
G01X4897D01*
G37*
G36*
G01X22941Y1656D02*
G03X23241Y1896I0J307D01*
G03X23541Y1656I300J67D01*
G01X24341D01*
G03X24648Y1963I0J307D01*
G01Y2863D01*
G03X24341Y3170I-307J0D01*
G01X23541D01*
G03X23241Y2930I0J-307D01*
G03X22941Y3170I-300J-67D01*
G01X22141D01*
G03X21834Y2863I0J-307D01*
G01Y1963D01*
G03X22141Y1656I307J0D01*
G01X22941D01*
G37*
G36*
G01X2358Y15367D02*
G03X2946Y15954I0J587D01*
G03X2358Y16541I-587J0D01*
G01X1173D01*
G03X586Y15954I0J-587D01*
G03X1173Y15367I587J0D01*
G01X2358D01*
G37*
G36*
G01X6331Y12144D02*
G03X6918Y11557I587J0D01*
G01X8103D01*
G03X8691Y12144I0J587D01*
G03X8103Y12731I-587J0D01*
G01X6918D01*
G03X6331Y12144I0J-587D01*
G37*
G36*
G01X586Y12144D02*
G03X1173Y11557I587J0D01*
G01X2358D01*
G03X2946Y12144I0J587D01*
G03X2358Y12731I-587J0D01*
G01X1173D01*
G03X586Y12144I0J-587D01*
G37*
G36*
G01X8103Y19177D02*
G03X8691Y19764I0J587D01*
G03X8103Y20351I-587J0D01*
G01X6918D01*
G03X6331Y19764I0J-587D01*
G03X6918Y19177I587J0D01*
G01X8103D01*
G37*
G36*
G01X6331Y13414D02*
G03X6918Y12827I587J0D01*
G01X8103D01*
G03X8691Y13414I0J587D01*
G03X8103Y14001I-587J0D01*
G01X6918D01*
G03X6331Y13414I0J-587D01*
G37*
G36*
G01X2358Y12827D02*
G03X2946Y13414I0J587D01*
G03X2358Y14001I-587J0D01*
G01X1173D01*
G03X586Y13414I0J-587D01*
G03X1173Y12827I587J0D01*
G01X2358D01*
G37*
G36*
G01X586Y17224D02*
G03X1173Y16637I587J0D01*
G01X2358D01*
G03X2946Y17224I0J587D01*
G03X2358Y17811I-587J0D01*
G01X1173D01*
G03X586Y17224I0J-587D01*
G37*
G36*
G01X3947Y4555D02*
G03X4254Y4863I0J307D01*
G01Y6038D01*
G03X3947Y6345I-307J0D01*
G01X3457D01*
G03X3149Y6038I0J-307D01*
G01Y4863D01*
G03X3457Y4555I307J0D01*
G01X3947D01*
G37*
G36*
G01X20898Y1368D02*
G03X21205Y1675I0J307D01*
G01Y2176D01*
G03X20898Y2483I-307J0D01*
G01X20072D01*
G03X19765Y2176I0J-307D01*
G01Y1675D01*
G03X20072Y1368I307J0D01*
G01X20898D01*
G37*
G36*
G01X16129Y12532D02*
G03X16741Y13145I0J612D01*
G03X16129Y13757I-612J0D01*
G03X15517Y13145I0J-612D01*
G03X16129Y12532I612J0D01*
G37*
%LPD*%
G36*
G01X5127Y8540D02*
G03X4897Y8644I-230J-204D01*
G01X4407D01*
G03X4177Y8540I0J-307D01*
G03X4136Y8578I-230J-204D01*
G01Y8710D01*
G01X5167D01*
G01Y8578D01*
G03X5127Y8540I189J-242D01*
G37*
G36*
G01X10121Y7140D02*
G01X10121Y7161D01*
G01Y7530D01*
G03X10108Y7620I-307J0D01*
G03X10121Y7710I-294J90D01*
G01Y8047D01*
G01X10217D01*
G01Y7954D01*
G03X10524Y7647I307J0D01*
G01X10615D01*
G01Y7256D01*
G01X10499Y7140D01*
G01X10121D01*
G37*
G36*
G01X14422Y17071D02*
G03X14455Y17272I-579J201D01*
G03X13843Y17884I-612J0D01*
G03X13411Y17706I0J-612D01*
G01X11971D01*
G01X13182Y18918D01*
G03X13283Y19076I-307J307D01*
G03X13453Y19350I-138J275D01*
G01Y19916D01*
G03X13414Y20066I-307J0D01*
G03X13453Y20216I-268J150D01*
G01Y20782D01*
G03X13310Y21041I-307J0D01*
G01Y21067D01*
G03X13500Y21163I-34J305D01*
G03X13691Y21067I225J209D01*
G01Y21057D01*
G03X13520Y20782I136J-276D01*
G01Y20216D01*
G03X13559Y20066I307J0D01*
G03X13520Y19916I268J-150D01*
G01Y19350D01*
G03X13663Y19091I307J0D01*
G01Y18923D01*
G03X13790Y18616I434J0D01*
G01X14171Y18235D01*
G03X14478Y18108I307J307D01*
G01X15952D01*
G03X16383Y17930I431J434D01*
G03X16814Y18108I0J612D01*
G01X18362D01*
G01Y17102D01*
G01X18331Y17071D01*
G01X17958D01*
G03X17526Y17249I-432J-434D01*
G03X17094Y17071I0J-612D01*
G01X14422D01*
G37*
G36*
G01X17203Y2489D02*
G03X17231Y2360I307J0D01*
G01X17059D01*
G03X17087Y2489I-279J129D01*
G01Y3279D01*
G03X17048Y3429I-307J0D01*
G03X17085Y3540I-268J150D01*
G01X17205D01*
G03X17242Y3429I305J39D01*
G03X17203Y3279I268J-150D01*
G01Y2489D01*
G37*
G36*
G01X21013Y4960D02*
G03X20898Y4982I-115J-285D01*
G01X20094D01*
G01Y6118D01*
G03X20209Y5893I404J64D01*
G01X21013Y5089D01*
G01Y4960D01*
G37*
G36*
G01X24156Y11780D02*
G03X24220Y12000I-345J220D01*
G01Y12451D01*
G03X24511Y12691I-9J307D01*
G03X24811Y12451I300J67D01*
G01X25611D01*
G03X25753Y12485I0J307D01*
G01Y12361D01*
G01X25536Y12144D01*
G01X24689D01*
G03X24400Y12024I0J-409D01*
G01X24156Y11780D01*
G37*
G54D999*
G01X26820Y2203D02*
G02X25102Y485I-1718J0D01*
G01X2152D01*
G02X483Y1799I0J1718D01*
G01Y25557D01*
G02X1748Y26822I1669J-404D01*
G01X6597D01*
G03X6468Y26572I178J-250D01*
G01Y24101D01*
G03X6164Y24361I-304J-47D01*
G01X5624D01*
G03X5316Y24054I0J-307D01*
G01Y23264D01*
G03X5356Y23114I307J0D01*
G03X5316Y22964I268J-150D01*
G01Y22174D01*
G03X5459Y21914I307J0D01*
G01Y21538D01*
G03X5587Y21231I434J0D01*
G01X6091Y20727D01*
G03X6398Y20600I307J307D01*
G01X6523D01*
G03X6918Y20447I395J434D01*
G01X8103D01*
G03X8691Y21034I0J587D01*
G03X8633Y21288I-587J0D01*
G03X8890Y21232I257J556D01*
G03X9322Y21410I0J612D01*
G01X9668D01*
G01Y21372D01*
G03X9941Y21067I307J0D01*
G01Y20667D01*
G03X9906Y20525I272J-142D01*
G01Y20156D01*
G03X9920Y20066I307J0D01*
G03X9906Y19976I294J-90D01*
G01Y19607D01*
G03X10213Y19300I307J0D01*
G01X10537D01*
G03X10845Y19607I0J307D01*
G01Y19976D01*
G03X10831Y20066I-307J0D01*
G03X10845Y20156I-294J90D01*
G01Y20525D01*
G03X10810Y20667I-307J0D01*
G01Y21067D01*
G03X11000Y21163I-34J305D01*
G03X11191Y21067I225J209D01*
G01Y21041D01*
G03X11048Y20782I165J-260D01*
G01Y20216D01*
G03X11087Y20066I307J0D01*
G03X11048Y19916I268J-150D01*
G01Y19350D01*
G03X11054Y19289I307J0D01*
G01X10694Y18928D01*
G01X8499D01*
G03X8103Y19081I-395J-434D01*
G01X6918D01*
G03X6331Y18494I0J-587D01*
G03X6918Y17907I587J0D01*
G01X8103D01*
G03X8499Y18060I0J587D01*
G01X10874D01*
G03X11181Y18187I0J434D01*
G01X11933Y18938D01*
G03X12023Y19071I-307J307D01*
G03X12203Y19350I-128J280D01*
G01Y19916D01*
G03X12164Y20066I-307J0D01*
G03X12203Y20216I-268J150D01*
G01Y20782D01*
G03X12060Y21042I-307J0D01*
G01Y21067D01*
G03X12250Y21163I-34J305D01*
G03X12441Y21067I225J209D01*
G01Y21041D01*
G03X12298Y20782I164J-260D01*
G01Y20216D01*
G03X12337Y20066I307J0D01*
G03X12298Y19916I268J-150D01*
G01Y19350D01*
G03X12308Y19272I307J0D01*
G01X10694Y17658D01*
G01X8499D01*
G03X8103Y17811I-395J-434D01*
G01X6918D01*
G03X6331Y17224I0J-587D01*
G03X6918Y16637I587J0D01*
G01X8103D01*
G03X8499Y16790I0J587D01*
G01X10460D01*
G01X10059Y16388D01*
G01X8499D01*
G03X8103Y16541I-395J-434D01*
G01X6918D01*
G03X6331Y15954I0J-587D01*
G03X6918Y15367I587J0D01*
G01X8103D01*
G03X8499Y15520I0J587D01*
G01X9765D01*
G01X9364Y15118D01*
G01X8499D01*
G03X8103Y15271I-395J-434D01*
G01X6918D01*
G03X6331Y14684I0J-587D01*
G03X6918Y14097I587J0D01*
G01X8103D01*
G03X8499Y14250I0J587D01*
G01X9544D01*
G03X9851Y14377I0J434D01*
G01X11677Y16203D01*
G01X17094D01*
G03X17526Y16025I432J434D01*
G03X17958Y16203I0J612D01*
G01X18037D01*
G01X17491Y15656D01*
G03X17371Y15367I289J-289D01*
G01Y10668D01*
G03X17491Y10379I409J0D01*
G01X17719Y10150D01*
G03X17904Y10044I289J289D01*
G01Y9982D01*
G03X17939Y9830I358J0D01*
G03X17904Y9677I324J-152D01*
G01Y9576D01*
G03X17939Y9423I358J0D01*
G03X17904Y9271I324J-152D01*
G01Y9169D01*
G03X17939Y9017I358J0D01*
G03X17904Y8865I324J-152D01*
G01Y8763D01*
G03X17939Y8611I358J0D01*
G03X17904Y8458I324J-152D01*
G01Y8410D01*
G01X17376D01*
G01Y8779D01*
G03X17083Y9086I-307J0D01*
G01Y9170D01*
G03X17341Y9474I-49J303D01*
G01Y10264D01*
G03X17302Y10414I-307J0D01*
G03X17341Y10564I-268J150D01*
G01Y11354D01*
G03X17034Y11661I-307J0D01*
G01X16494D01*
G03X16187Y11354I0J-307D01*
G01Y10564D01*
G03X16226Y10414I307J0D01*
G03X16187Y10264I268J-150D01*
G01Y9474D01*
G03X16265Y9269I307J0D01*
G01Y9086D01*
G03X16129Y9047I14J-307D01*
G03X15993Y9086I-150J-268D01*
G01Y9269D01*
G03X16071Y9474I-229J205D01*
G01Y10264D01*
G03X16032Y10414I-307J0D01*
G03X16071Y10564I-268J150D01*
G01Y11354D01*
G03X15764Y11661I-307J0D01*
G01X15224D01*
G03X14917Y11354I0J-307D01*
G01Y10564D01*
G03X14956Y10414I307J0D01*
G03X14917Y10264I268J-150D01*
G01Y9474D01*
G03X15175Y9170I307J0D01*
G01Y9086D01*
G03X14882Y8779I14J-307D01*
G01Y8239D01*
G03X15189Y7932I307J0D01*
G03X15295Y7749I395J106D01*
G01X15642Y7401D01*
G03X15589Y7390I37J-305D01*
G03X15499Y7404I-90J-294D01*
G01X15131D01*
G03X14949Y7344I0J-307D01*
G01X14835D01*
G03X14651Y7405I-184J-246D01*
G01X14351D01*
G03X14249Y7387I0J-307D01*
G03X14146Y7405I-103J-290D01*
G01X13846D01*
G03X13539Y7117I0J-307D01*
G01X13339D01*
G03X13177Y7070I0J-307D01*
G02X12962Y7138I196J995D01*
G03X12893Y7220I-266J-153D01*
G01X12611Y7457D01*
G03X12533Y7504I-198J-235D01*
G03X12473Y7573I-258J-167D01*
G01X12191Y7809D01*
G03X12004Y7881I-198J-235D01*
G02X11833Y8114I916J851D01*
G01Y8155D01*
G03X11816Y8255I-307J0D01*
G03X11833Y8355I-291J100D01*
G01Y8556D01*
G03X11525Y8863I-307J0D01*
G01X11433D01*
G01Y9061D01*
G03X11493Y9244I-247J183D01*
G01Y9613D01*
G03X11479Y9703I-307J0D01*
G03X11493Y9793I-294J90D01*
G01Y10161D01*
G03X11433Y10344I-307J0D01*
G01Y10661D01*
G03X11493Y10844I-247J183D01*
G01Y11213D01*
G03X11479Y11303I-307J0D01*
G03X11493Y11393I-294J90D01*
G01Y11762D01*
G03X11458Y11904I-307J0D01*
G01Y12294D01*
G03X11979Y13145I-434J851D01*
G03X11024Y14100I-955J0D01*
G03X10069Y13145I0J-955D01*
G03X10589Y12294I955J0D01*
G01Y11986D01*
G01X10459D01*
G03X10213Y12109I-246J-184D01*
G01X9934D01*
G03X9744Y12043I0J-307D01*
G03X9553Y12109I-190J-241D01*
G01X9274D01*
G03X8966Y11802I0J-307D01*
G01Y11353D01*
G03X9274Y11045I307J0D01*
G01X9553D01*
G03X9744Y11111I0J307D01*
G03X9934Y11045I191J241D01*
G01X10213D01*
G03X10459Y11168I0J307D01*
G01X10554D01*
G01Y10844D01*
G03X10615Y10661I307J0D01*
G01Y10344D01*
G03X10554Y10161I247J-183D01*
G01Y9793D01*
G03X10568Y9703I307J0D01*
G03X10554Y9613I294J-90D01*
G01Y9244D01*
G03X10615Y9061I307J0D01*
G01Y8865D01*
G01X10356D01*
G01Y9629D01*
G03X10317Y9779I-307J0D01*
G03X10356Y9929I-268J150D01*
G01Y10719D01*
G03X10049Y11026I-307J0D01*
G01X9509D01*
G03X9204Y10758I0J-307D01*
G01X8941D01*
G03X8509Y10936I-432J-434D01*
G03X7897Y10324I0J-612D01*
G03X8509Y9712I612J0D01*
G03X8941Y9890I0J612D01*
G01X9204D01*
G03X9241Y9779I305J39D01*
G03X9202Y9629I268J-150D01*
G01Y8839D01*
G03X9436Y8540I307J0D01*
G03X9490Y8474I343J223D01*
G01X9578Y8386D01*
G01X9490D01*
G03X9183Y8079I0J-307D01*
G01Y7710D01*
G03X9196Y7620I307J0D01*
G03X9183Y7530I294J-90D01*
G01Y7161D01*
G03X9243Y6978I307J0D01*
G03X9363Y6696I409J7D01*
G01X9617Y6442D01*
G03X9906Y6322I289J289D01*
G01X10668D01*
G03X10957Y6442I0J409D01*
G01X11313Y6797D01*
G03X11433Y7087I-289J289D01*
G01Y7295D01*
G03X11491Y7237I1487J1438D01*
G03X11587Y7090I294J89D01*
G01X11870Y6854D01*
G03X11947Y6806I198J235D01*
G03X12008Y6738I258J167D01*
G01X12290Y6501D01*
G03X12488Y6429I198J235D01*
G03X12540Y6433I0J307D01*
G03X13144Y6248I833J1632D01*
G03X13339Y6177I196J237D01*
G01X13539D01*
G03X13846Y5889I307J19D01*
G01X14146D01*
G03X14249Y5907I0J307D01*
G03X14351Y5889I103J290D01*
G01X14651D01*
G03X14959Y6197I0J307D01*
G01Y6518D01*
G03X15131Y6465I172J255D01*
G01X15499D01*
G03X15589Y6478I0J307D01*
G03X15680Y6465I90J294D01*
G01X16048D01*
G03X16231Y6525I0J307D01*
G01X16462D01*
G01Y6341D01*
G03X16379Y6131I225J-210D01*
G01Y5807D01*
G03X16686Y5500I307J0D01*
G01X17055D01*
G03X17145Y5513I0J307D01*
G03X17235Y5500I90J294D01*
G01X17604D01*
G03X17911Y5807I0J307D01*
G01Y6131D01*
G03X17604Y6438I-307J0D01*
G01X17280D01*
G01Y6465D01*
G01X17604D01*
G03X17793Y6530I0J307D01*
G03X18018Y6645I-64J404D01*
G01X18153Y6779D01*
G01X18263D01*
G01X18415D01*
G01X18463D01*
G01Y6731D01*
G01Y6579D01*
G03X18821Y6220I358J0D01*
G01X18870D01*
G01Y5605D01*
G01X18627Y5362D01*
G01X17932D01*
G03X17643Y5242I0J-409D01*
G01X17491Y5090D01*
G03X17371Y4801I289J-289D01*
G01Y4643D01*
G03X17205Y4408I139J-274D01*
G01X17085D01*
G03X16780Y4676I-305J-39D01*
G01X16240D01*
G03X15933Y4369I0J-307D01*
G01Y3579D01*
G03X15972Y3429I307J0D01*
G03X15933Y3279I268J-150D01*
G01Y2489D01*
G03X16080Y2227I307J0D01*
G03X16203Y1979I430J59D01*
G01X16564Y1618D01*
G03X16871Y1491I307J307D01*
G01X18226D01*
G03X18472Y1368I246J184D01*
G01X19298D01*
G03X19605Y1675I0J307D01*
G01Y2176D01*
G03X19298Y2483I-307J0D01*
G01X18472D01*
G03X18356Y2460I0J-307D01*
G03X18357Y2489I-306J29D01*
G01Y2538D01*
G03X18470Y2517I112J286D01*
G01X18899D01*
G03X19206Y2824I0J307D01*
G01Y3526D01*
G03X18899Y3833I-307J0D01*
G01X18470D01*
G03X18357Y3812I0J-307D01*
G01Y3889D01*
G03X18472Y3867I115J285D01*
G01X19298D01*
G03X19580Y4052I0J307D01*
G03X19700Y4136I-169J372D01*
G01X19765Y4201D01*
G01Y4174D01*
G03X20072Y3867I307J0D01*
G01X20898D01*
G03X21013Y3889I0J307D01*
G01Y3812D01*
G03X20900Y3833I-112J-286D01*
G01X20471D01*
G03X20164Y3526I0J-307D01*
G01Y2824D01*
G03X20471Y2517I307J0D01*
G01X20900D01*
G03X21208Y2824I0J307D01*
G01Y3346D01*
G03X21320Y3325I112J286D01*
G01X21860D01*
G03X22167Y3632I0J307D01*
G01Y4422D01*
G03X22128Y4572I-307J0D01*
G03X22167Y4722I-268J150D01*
G01Y5509D01*
G01X22283D01*
G01Y5321D01*
G03X22248Y5117I577J-204D01*
G03X22283Y4913I612J0D01*
G01Y4722D01*
G03X22322Y4572I307J0D01*
G03X22283Y4422I268J-150D01*
G01Y3632D01*
G03X22590Y3325I307J0D01*
G01X23130D01*
G03X23437Y3632I0J307D01*
G01Y4422D01*
G03X23398Y4572I-307J0D01*
G03X23437Y4722I-268J150D01*
G01Y4913D01*
G03X23472Y5117I-577J204D01*
G03X23437Y5321I-612J0D01*
G01Y5512D01*
G03X23262Y5790I-307J0D01*
G03X23240Y5865I-402J-75D01*
G01X23275D01*
G01X23560Y5580D01*
G03X23553Y5512I300J-67D01*
G01Y4722D01*
G03X23592Y4572I307J0D01*
G03X23553Y4422I268J-150D01*
G01Y3632D01*
G03X23860Y3325I307J0D01*
G01X24400D01*
G03X24707Y3632I0J307D01*
G01Y4422D01*
G03X24668Y4572I-307J0D01*
G03X24707Y4722I-268J150D01*
G01Y5080D01*
G01X24819Y5192D01*
G01X24824D01*
G03X24867Y5127I276J135D01*
G03X24788Y4826I533J-301D01*
G03X24867Y4525I612J0D01*
G03X24793Y4326I234J-200D01*
G01Y3726D01*
G03X24918Y3478I307J0D01*
G03X24823Y3256I212J-223D01*
G01Y2690D01*
G03X24862Y2540I307J0D01*
G03X24823Y2390I268J-150D01*
G01Y2311D01*
G03X24788Y2107I577J-204D01*
G03X24823Y1903I612J0D01*
G01Y1824D01*
G03X25130Y1517I307J0D01*
G01X25237D01*
G03X25400Y1495I163J590D01*
G03X25563Y1517I0J612D01*
G01X25670D01*
G03X25977Y1824I0J307D01*
G01Y1903D01*
G03X26012Y2107I-577J204D01*
G03X25977Y2311I-612J0D01*
G01Y2390D01*
G03X25938Y2540I-307J0D01*
G03X25977Y2690I-268J150D01*
G01Y3256D01*
G03X25882Y3478I-307J0D01*
G03X26007Y3726I-182J248D01*
G01Y4326D01*
G03X25933Y4525I-307J0D01*
G03X26012Y4826I-533J301D01*
G03X25933Y5127I-612J0D01*
G03X26007Y5326I-234J200D01*
G01Y5926D01*
G03X25881Y6174I-307J0D01*
G03X25922Y6328I-266J154D01*
G01Y7377D01*
G03X25615Y7685I-307J0D01*
G01X24011D01*
G01X24898Y8571D01*
G01X25615D01*
G03X25922Y8879I0J307D01*
G01Y9928D01*
G03X25615Y10235I-307J0D01*
G01X24275D01*
G01X24553Y10513D01*
G01X24817D01*
G03X25273Y10310I456J409D01*
G03X25885Y10922I0J612D01*
G03X25732Y11327I-612J0D01*
G03X25994Y11446I-27J408D01*
G01X26451Y11903D01*
G03X26571Y12192I-289J289D01*
G01Y14149D01*
G03X26774Y14605I-409J456D01*
G03X26162Y15217I-612J0D01*
G03X25550Y14605I0J-612D01*
G03X25753Y14149I612J0D01*
G01Y13931D01*
G03X25611Y13965I-142J-273D01*
G01X24811D01*
G03X24511Y13725I0J-307D01*
G03X24245Y13963I-300J-67D01*
G01Y14307D01*
G03X24511Y14247I266J552D01*
G03X25123Y14859I0J612D01*
G03X24511Y15471I-612J0D01*
G03X24079Y15293I0J-612D01*
G01X24003D01*
G03X23696Y15166I0J-434D01*
G01X23504Y14974D01*
G03X23377Y14667I307J-307D01*
G01Y13963D01*
G03X23104Y13658I34J-305D01*
G01Y12758D01*
G03X23402Y12451I307J0D01*
G01Y12169D01*
G01X22945Y11712D01*
G01X22831D01*
G03X22581Y11814I-250J-257D01*
G01X22532D01*
G01Y12469D01*
G01X22563D01*
G03X22870Y12776I0J307D01*
G01Y13640D01*
G03X22563Y13947I-307J0D01*
G01X21763D01*
G03X21463Y13707I0J-307D01*
G03X21172Y13947I-300J-67D01*
G01Y14102D01*
G03X21463Y14342I-9J307D01*
G03X21763Y14102I300J67D01*
G01X22563D01*
G03X22870Y14409I0J307D01*
G01Y15309D01*
G03X22563Y15616I-307J0D01*
G01X21763D01*
G03X21463Y15376I0J-307D01*
G03X21163Y15616I-300J-67D01*
G01X20363D01*
G03X20056Y15309I0J-307D01*
G01Y14409D01*
G03X20354Y14102I307J0D01*
G01Y13947D01*
G03X20056Y13640I9J-307D01*
G01Y12776D01*
G03X20060Y12728I307J0D01*
G01X19878D01*
G03X19881Y12776I-304J48D01*
G01Y13566D01*
G03X19842Y13716I-307J0D01*
G03X19881Y13866I-268J150D01*
G01Y14656D01*
G03X19574Y14963I-307J0D01*
G01X19034D01*
G03X18727Y14656I0J-307D01*
G01Y13866D01*
G03X18766Y13716I307J0D01*
G03X18727Y13566I268J-150D01*
G01Y12776D01*
G03X18902Y12498I307J0D01*
G03X19015Y12284I402J75D01*
G01X19269Y12030D01*
G03X19558Y11910I289J289D01*
G01X20846D01*
G01X20902Y11854D01*
G01Y11814D01*
G01X20853D01*
G03X20701Y11779I0J-358D01*
G03X20549Y11814I-152J-324D01*
G01X20447D01*
G03X20295Y11779I0J-358D01*
G03X20142Y11814I-152J-324D01*
G01X20041D01*
G03X19888Y11779I0J-358D01*
G03X19736Y11814I-152J-324D01*
G01X19634D01*
G03X19482Y11779I0J-358D01*
G03X19329Y11814I-152J-324D01*
G01X19228D01*
G03X19075Y11779I0J-358D01*
G03X18923Y11814I-152J-324D01*
G01X18821D01*
G03X18545Y11683I0J-358D01*
G01Y15050D01*
G01X19367Y15872D01*
G01X25171D01*
G03X25461Y15992I0J409D01*
G01X26324Y16856D01*
G03X26444Y17145I-289J289D01*
G01Y24511D01*
G03X26324Y24800I-409J0D01*
G01X25689Y25435D01*
G03X25400Y25555I-289J-289D01*
G01X24967D01*
G03X24853Y25654I-456J-409D01*
G03X25123Y26162I-342J508D01*
G03X24511Y26774I-612J0D01*
G03X23899Y26162I0J-612D01*
G03X24169Y25654I612J0D01*
G03X24080Y25580I342J-508D01*
G01X23754D01*
G03X23449Y25850I-305J-37D01*
G01X22883D01*
G03X22733Y25811I0J-307D01*
G03X22583Y25850I-150J-268D01*
G01X22017D01*
G03X21710Y25543I0J-307D01*
G01Y25003D01*
G03X21866Y24736I307J0D01*
G01Y24540D01*
G03X21710Y24273I152J-267D01*
G01Y23733D01*
G03X21866Y23466I307J0D01*
G01Y23420D01*
G03X21993Y23113I434J0D01*
G01X22299Y22807D01*
G03X22606Y22680I307J307D01*
G01X22733D01*
G03X23165Y22502I432J434D01*
G03X23596Y22680I0J612D01*
G01X24080D01*
G03X24511Y22502I431J434D01*
G03X25123Y23114I0J612D01*
G03X24853Y23622I-612J0D01*
G03X24967Y23721I-342J508D01*
G01X25104D01*
G01X25245Y23580D01*
G01Y17436D01*
G01X24855Y17046D01*
G01X19230D01*
G01Y18110D01*
G03X19408Y18542I-434J432D01*
G03X18796Y19154I-612J0D01*
G03X18364Y18976I0J-612D01*
G01X16814D01*
G03X16383Y19154I-431J-434D01*
G03X15952Y18976I0J-612D01*
G01X14658D01*
G01X14539Y19095D01*
G03X14674Y19350I-172J255D01*
G01Y19916D01*
G03X14635Y20066I-307J0D01*
G03X14674Y20216I-268J150D01*
G01Y20782D01*
G03X14560Y21021I-307J0D01*
G01Y21067D01*
G03X14750Y21163I-34J305D01*
G03X14941Y21067I225J209D01*
G01Y21046D01*
G03X14790Y20782I156J-265D01*
G01Y20216D01*
G03X14829Y20066I307J0D01*
G03X14790Y19916I268J-150D01*
G01Y19350D01*
G03X15097Y19043I307J0D01*
G01X15637D01*
G03X15905Y19200I0J307D01*
G01X16587D01*
G03X17018Y19022I431J434D01*
G03X17449Y19200I0J612D01*
G01X19380D01*
G03X19812Y19022I432J434D01*
G03X20424Y19634I0J612D01*
G03X19812Y20247I-612J0D01*
G03X19380Y20069I0J-612D01*
G01X17449D01*
G03X17018Y20246I-431J-434D01*
G03X16587Y20069I0J-612D01*
G01X15907D01*
G03X15944Y20216I-270J147D01*
G01Y20782D01*
G03X15810Y21036I-307J0D01*
G01Y21067D01*
G03X16000Y21163I-34J305D01*
G03X16225Y21065I225J209D01*
G01X17025D01*
G03X17333Y21372I0J307D01*
G01Y22972D01*
G03X17025Y23279I-307J0D01*
G01X16225D01*
G03X16000Y23181I0J-307D01*
G03X15775Y23279I-225J-209D01*
G01X14975D01*
G03X14750Y23181I0J-307D01*
G03X14525Y23279I-225J-209D01*
G01X13725D01*
G03X13500Y23181I0J-307D01*
G03X13275Y23279I-225J-209D01*
G01X12475D01*
G03X12250Y23181I0J-307D01*
G03X12025Y23279I-225J-209D01*
G01X11225D01*
G03X11000Y23181I0J-307D01*
G03X10775Y23279I-225J-209D01*
G01X9975D01*
G03X9668Y22972I0J-307D01*
G01Y22278D01*
G01X9322D01*
G03X8890Y22456I-432J-434D01*
G03X8278Y21844I0J-612D01*
G03X8342Y21571I612J0D01*
G03X8103Y21621I-239J-537D01*
G01X6918D01*
G03X6553Y21494I0J-587D01*
G01X6328Y21718D01*
G01Y21914D01*
G03X6469Y22135I-164J260D01*
G01X7187D01*
G03X7620Y21956I433J433D01*
G03X8232Y22568I0J612D01*
G03X7620Y23180I-612J0D01*
G03X7189Y23003I0J-612D01*
G01X6469D01*
G03X6432Y23114I-305J-39D01*
G03X6471Y23264I-268J150D01*
G01Y23525D01*
G03X6775Y23265I304J47D01*
G01X8875D01*
G03X9182Y23572I0J307D01*
G01Y26572D01*
G03X9053Y26822I-307J0D01*
G01X17947D01*
G03X17818Y26572I178J-250D01*
G01Y23572D01*
G03X18125Y23265I307J0D01*
G01X20225D01*
G03X20533Y23572I0J307D01*
G01Y26572D01*
G03X20403Y26822I-307J0D01*
G01X25506D01*
G02X26820Y25153I-404J-1669D01*
G01Y2203D01*
G01X586Y18494D02*
G03X1173Y17907I587J0D01*
G01X2358D01*
G03X2754Y18060I0J587D01*
G01X4016D01*
G03X4323Y18187I0J434D01*
G01X4918Y18782D01*
G03X5045Y19089I-307J307D01*
G01Y21914D01*
G03X5188Y22174I-164J260D01*
G01Y22964D01*
G03X5149Y23114I-307J0D01*
G03X5188Y23264I-268J150D01*
G01Y24054D01*
G03X5045Y24314I-307J0D01*
G01Y24726D01*
G03X4918Y25033I-434J0D01*
G01X4752Y25199D01*
G03X4445Y25326I-307J-307D01*
G01X2159D01*
G03X1852Y25199I0J-434D01*
G01X1459Y24806D01*
G03X1331Y24499I307J-307D01*
G01Y21621D01*
G01X1173D01*
G03X586Y21034I0J-587D01*
G03X1173Y20447I587J0D01*
G01X2358D01*
G03X2932Y20909I0J587D01*
G01Y20310D01*
G01X2820Y20198D01*
G01X2754D01*
G03X2358Y20351I-395J-434D01*
G01X1173D01*
G03X586Y19764I0J-587D01*
G03X1173Y19177I587J0D01*
G01X2358D01*
G03X2754Y19330I0J587D01*
G01X3000D01*
G03X3307Y19457I0J434D01*
G01X3674Y19823D01*
G03X3801Y20131I-307J307D01*
G01Y21914D01*
G03X3944Y22174I-164J260D01*
G01Y22964D01*
G03X3905Y23114I-307J0D01*
G03X3944Y23264I-268J150D01*
G01Y24054D01*
G03X3637Y24361I-307J0D01*
G01X3097D01*
G03X2789Y24054I0J-307D01*
G01Y23264D01*
G03X2828Y23114I307J0D01*
G03X2789Y22964I268J-150D01*
G01Y22174D01*
G03X2932Y21914I307J0D01*
G01Y21159D01*
G03X2358Y21621I-574J-125D01*
G01X2200D01*
G01Y24319D01*
G01X2339Y24458D01*
G01X4177D01*
G01Y24314D01*
G03X4034Y24054I164J-260D01*
G01Y23264D01*
G03X4073Y23114I307J0D01*
G03X4034Y22964I268J-150D01*
G01Y22174D01*
G03X4177Y21914I307J0D01*
G01Y19269D01*
G01X3836Y18928D01*
G01X2754D01*
G03X2358Y19081I-395J-434D01*
G01X1173D01*
G03X586Y18494I0J-587D01*
G01X5639Y10091D02*
G03X5946Y10398I0J307D01*
G01Y10938D01*
G03X5639Y11245I-307J0D01*
G01X4849D01*
G03X4699Y11206I0J-307D01*
G03X4588Y11243I-150J-268D01*
G01Y14007D01*
G03X4461Y14314I-434J0D01*
G01X3784Y14991D01*
G03X3477Y15118I-307J-307D01*
G01X2754D01*
G03X2358Y15271I-395J-434D01*
G01X1173D01*
G03X586Y14684I0J-587D01*
G03X1173Y14097I587J0D01*
G01X2358D01*
G03X2754Y14250I0J587D01*
G01X3297D01*
G01X3720Y13827D01*
G01Y11243D01*
G03X3452Y10938I39J-305D01*
G01Y10398D01*
G03X3759Y10091I307J0D01*
G01X4549D01*
G03X4699Y10130I0J307D01*
G03X4849Y10091I150J268D01*
G01X5639D01*
G01X4988Y3810D02*
G03X5601Y3198I612J0D01*
G03X6213Y3810I0J612D01*
G03X6154Y4072I-612J0D01*
G01Y4980D01*
G01X6466D01*
G03X6799Y5118I0J470D01*
G01X7171Y5490D01*
G03X7308Y5822I-332J332D01*
G01Y6330D01*
G01Y6353D01*
G01Y6514D01*
G03X7294Y6604I-307J0D01*
G03X7308Y6694I-294J90D01*
G01Y7063D01*
G03X7000Y7370I-307J0D01*
G01X6676D01*
G03X6369Y7063I0J-307D01*
G01Y6694D01*
G03X6383Y6604I307J0D01*
G03X6369Y6514I294J-90D01*
G01Y6353D01*
G01Y6330D01*
G01Y6017D01*
G01X6272Y5920D01*
G01X6154D01*
G01Y6038D01*
G03X5847Y6345I-307J0D01*
G01X5357D01*
G03X5049Y6038I0J-307D01*
G01Y5462D01*
G01Y5450D01*
G01Y4076D01*
G03X4988Y3810I552J-266D01*
G01X4897Y6872D02*
G03X5127Y6975I0J307D01*
G03X5357Y6872I230J204D01*
G01X5847D01*
G03X6154Y7179I0J307D01*
G01Y8336D01*
G03X6036Y8578I-307J0D01*
G01Y8712D01*
G03X6214Y9144I-434J432D01*
G03X5602Y9756I-612J0D01*
G03X5170Y9578I0J-612D01*
G01X3937D01*
G03X3630Y9451I0J-434D01*
G01X3395Y9216D01*
G03X3267Y8909I307J-307D01*
G01Y8578D01*
G03X3149Y8336I189J-242D01*
G01Y7179D01*
G03X3457Y6872I307J0D01*
G01X3947D01*
G03X4177Y6975I0J307D01*
G03X4407Y6872I230J204D01*
G01X4897D01*
G01X22941Y1656D02*
G03X23241Y1896I0J307D01*
G03X23541Y1656I300J67D01*
G01X24341D01*
G03X24648Y1963I0J307D01*
G01Y2863D01*
G03X24341Y3170I-307J0D01*
G01X23541D01*
G03X23241Y2930I0J-307D01*
G03X22941Y3170I-300J-67D01*
G01X22141D01*
G03X21834Y2863I0J-307D01*
G01Y1963D01*
G03X22141Y1656I307J0D01*
G01X22941D01*
G01X2358Y15367D02*
G03X2946Y15954I0J587D01*
G03X2358Y16541I-587J0D01*
G01X1173D01*
G03X586Y15954I0J-587D01*
G03X1173Y15367I587J0D01*
G01X2358D01*
G01X6331Y12144D02*
G03X6918Y11557I587J0D01*
G01X8103D01*
G03X8691Y12144I0J587D01*
G03X8103Y12731I-587J0D01*
G01X6918D01*
G03X6331Y12144I0J-587D01*
G01X586Y12144D02*
G03X1173Y11557I587J0D01*
G01X2358D01*
G03X2946Y12144I0J587D01*
G03X2358Y12731I-587J0D01*
G01X1173D01*
G03X586Y12144I0J-587D01*
G01X8103Y19177D02*
G03X8691Y19764I0J587D01*
G03X8103Y20351I-587J0D01*
G01X6918D01*
G03X6331Y19764I0J-587D01*
G03X6918Y19177I587J0D01*
G01X8103D01*
G01X6331Y13414D02*
G03X6918Y12827I587J0D01*
G01X8103D01*
G03X8691Y13414I0J587D01*
G03X8103Y14001I-587J0D01*
G01X6918D01*
G03X6331Y13414I0J-587D01*
G01X2358Y12827D02*
G03X2946Y13414I0J587D01*
G03X2358Y14001I-587J0D01*
G01X1173D01*
G03X586Y13414I0J-587D01*
G03X1173Y12827I587J0D01*
G01X2358D01*
G01X586Y17224D02*
G03X1173Y16637I587J0D01*
G01X2358D01*
G03X2946Y17224I0J587D01*
G03X2358Y17811I-587J0D01*
G01X1173D01*
G03X586Y17224I0J-587D01*
G01X3947Y4555D02*
G03X4254Y4863I0J307D01*
G01Y6038D01*
G03X3947Y6345I-307J0D01*
G01X3457D01*
G03X3149Y6038I0J-307D01*
G01Y4863D01*
G03X3457Y4555I307J0D01*
G01X3947D01*
G01X20898Y1368D02*
G03X21205Y1675I0J307D01*
G01Y2176D01*
G03X20898Y2483I-307J0D01*
G01X20072D01*
G03X19765Y2176I0J-307D01*
G01Y1675D01*
G03X20072Y1368I307J0D01*
G01X20898D01*
G01X16129Y12532D02*
G03X16741Y13145I0J612D01*
G03X16129Y13757I-612J0D01*
G03X15517Y13145I0J-612D01*
G03X16129Y12532I612J0D01*
G01X5127Y8540D02*
G03X4897Y8644I-230J-204D01*
G01X4407D01*
G03X4177Y8540I0J-307D01*
G03X4136Y8578I-230J-204D01*
G01Y8710D01*
G01X5167D01*
G01Y8578D01*
G03X5127Y8540I189J-242D01*
G01X10121Y7140D02*
G01X10121Y7161D01*
G01Y7530D01*
G03X10108Y7620I-307J0D01*
G03X10121Y7710I-294J90D01*
G01Y8047D01*
G01X10217D01*
G01Y7954D01*
G03X10524Y7647I307J0D01*
G01X10615D01*
G01Y7256D01*
G01X10499Y7140D01*
G01X10121D01*
G01X14422Y17071D02*
G03X14455Y17272I-579J201D01*
G03X13843Y17884I-612J0D01*
G03X13411Y17706I0J-612D01*
G01X11971D01*
G01X13182Y18918D01*
G03X13283Y19076I-307J307D01*
G03X13453Y19350I-138J275D01*
G01Y19916D01*
G03X13414Y20066I-307J0D01*
G03X13453Y20216I-268J150D01*
G01Y20782D01*
G03X13310Y21041I-307J0D01*
G01Y21067D01*
G03X13500Y21163I-34J305D01*
G03X13691Y21067I225J209D01*
G01Y21057D01*
G03X13520Y20782I136J-276D01*
G01Y20216D01*
G03X13559Y20066I307J0D01*
G03X13520Y19916I268J-150D01*
G01Y19350D01*
G03X13663Y19091I307J0D01*
G01Y18923D01*
G03X13790Y18616I434J0D01*
G01X14171Y18235D01*
G03X14478Y18108I307J307D01*
G01X15952D01*
G03X16383Y17930I431J434D01*
G03X16814Y18108I0J612D01*
G01X18362D01*
G01Y17102D01*
G01X18331Y17071D01*
G01X17958D01*
G03X17526Y17249I-432J-434D01*
G03X17094Y17071I0J-612D01*
G01X14422D01*
G01X17203Y2489D02*
G03X17231Y2360I307J0D01*
G01X17059D01*
G03X17087Y2489I-279J129D01*
G01Y3279D01*
G03X17048Y3429I-307J0D01*
G03X17085Y3540I-268J150D01*
G01X17205D01*
G03X17242Y3429I305J39D01*
G03X17203Y3279I268J-150D01*
G01Y2489D01*
G01X21013Y4960D02*
G03X20898Y4982I-115J-285D01*
G01X20094D01*
G01Y6118D01*
G03X20209Y5893I404J64D01*
G01X21013Y5089D01*
G01Y4960D01*
G01X24156Y11780D02*
G03X24220Y12000I-345J220D01*
G01Y12451D01*
G03X24511Y12691I-9J307D01*
G03X24811Y12451I300J67D01*
G01X25611D01*
G03X25753Y12485I0J307D01*
G01Y12361D01*
G01X25536Y12144D01*
G01X24689D01*
G03X24400Y12024I0J-409D01*
G01X24156Y11780D01*
G54D10*
G01X3367Y23659D02*
G01X3367Y24262D01*
G01X3367Y23659D02*
G01X2888Y23659D01*
G01X3367Y23659D02*
G01X3845Y23659D01*
G01X9413Y11577D02*
G01X9065Y11577D01*
G01X9413Y11577D02*
G01X9413Y11144D01*
G01X9413Y11577D02*
G01X9413Y12010D01*
G01X24130Y4027D02*
G01X24130Y3424D01*
G01X24130Y4027D02*
G01X23652Y4027D01*
G01X24130Y4027D02*
G01X24608Y4027D01*
G01X22860Y4027D02*
G01X22860Y3424D01*
G01X22860Y4027D02*
G01X22382Y4027D01*
G01X22860Y4027D02*
G01X23338Y4027D01*
G01X21590Y4027D02*
G01X21590Y3424D01*
G01X21590Y4027D02*
G01X22068Y4027D01*
G01X17780Y2884D02*
G01X17302Y2884D01*
G01X19304Y14261D02*
G01X19304Y14864D01*
G01X19304Y14261D02*
G01X19782Y14261D01*
G01X19304Y14261D02*
G01X18826Y14261D01*
G01X10375Y19792D02*
G01X10375Y19399D01*
G01X10375Y19792D02*
G01X10005Y19792D01*
G01X10375Y19792D02*
G01X10746Y19792D01*
G01X13996Y6935D02*
G01X13996Y7306D01*
G01X7825Y25072D02*
G01X9083Y25072D01*
G01X7825Y25072D02*
G01X6567Y25072D01*
G01X7825Y25072D02*
G01X7825Y23364D01*
G01X20485Y1925D02*
G01X21106Y1925D01*
G01X20485Y1925D02*
G01X19864Y1925D01*
G01X20485Y1925D02*
G01X20485Y1467D01*
G01X20485Y1925D02*
G01X20485Y2384D01*
G01X19175Y25072D02*
G01X20433Y25072D01*
G01X19175Y25072D02*
G01X17917Y25072D01*
G01X19175Y25072D02*
G01X19175Y23364D01*
G01X5244Y10668D02*
G01X5847Y10668D01*
G01X5244Y10668D02*
G01X5244Y10190D01*
G01X5244Y10668D02*
G01X5244Y11146D01*
G01X25211Y13208D02*
G01X25211Y12550D01*
G01X25211Y13208D02*
G01X25211Y13866D01*
G01X22541Y2413D02*
G01X21933Y2413D01*
G01X22541Y2413D02*
G01X22541Y3071D01*
G01X22541Y2413D02*
G01X22541Y1755D01*
G01X20485Y4425D02*
G01X20485Y3966D01*
G01X20485Y4425D02*
G01X20485Y4883D01*
G01X20686Y3175D02*
G01X20686Y3734D01*
G01X20686Y3175D02*
G01X20686Y2616D01*
G01X20686Y3175D02*
G01X21109Y3175D01*
G01X20686Y3175D02*
G01X20263Y3175D01*
G01X18684Y3175D02*
G01X18684Y3734D01*
G01X18684Y3175D02*
G01X18684Y2616D01*
G01X18684Y3175D02*
G01X19107Y3175D01*
G01X19279Y11303D02*
G01X19279Y11714D01*
G01X5894Y23659D02*
G01X5894Y24262D01*
G01X5894Y23659D02*
G01X5416Y23659D01*
G01X24511Y26162D02*
G01X23998Y26162D01*
G01X24511Y26162D02*
G01X25024Y26162D01*
G01X24511Y26162D02*
G01X24511Y26675D01*
G01X7511Y19764D02*
G01X7511Y20252D01*
G01X7511Y19764D02*
G01X7511Y19276D01*
G01X7511Y19764D02*
G01X8592Y19764D01*
G01X7511Y19764D02*
G01X6430Y19764D01*
G01X16625Y22172D02*
G01X17234Y22172D01*
G01X16625Y22172D02*
G01X16625Y21164D01*
G01X16625Y22172D02*
G01X16625Y23180D01*
G01X16764Y10959D02*
G01X16764Y11562D01*
G01X16764Y10959D02*
G01X17242Y10959D01*
G01X16764Y10959D02*
G01X16286Y10959D01*
G01X6838Y6878D02*
G01X6838Y7271D01*
G01X6838Y6878D02*
G01X7209Y6878D01*
G01X6838Y6878D02*
G01X6468Y6878D01*
G01X4652Y7758D02*
G01X4652Y6971D01*
G01X4652Y7758D02*
G01X4652Y8544D01*
G01X9652Y7894D02*
G01X10022Y7894D01*
G01X9652Y7894D02*
G01X9282Y7894D01*
G01X13996Y6359D02*
G01X13996Y5988D01*
G01X14501Y6359D02*
G01X14860Y6359D01*
G01X14501Y6359D02*
G01X14501Y5988D01*
G01X17419Y5969D02*
G01X17812Y5969D01*
G01X17419Y5969D02*
G01X17419Y5599D01*
G01X17419Y5969D02*
G01X17419Y6339D01*
G01X22163Y14859D02*
G01X22771Y14859D01*
G01X22163Y14859D02*
G01X22163Y15517D01*
G01X22163Y14859D02*
G01X22163Y14201D01*
G01X15494Y10959D02*
G01X15494Y11562D01*
G01X15494Y10959D02*
G01X15972Y10959D01*
G01X15494Y10959D02*
G01X15016Y10959D01*
G01X19685Y11303D02*
G01X19685Y11714D01*
G01X20498Y11303D02*
G01X20498Y11714D01*
G01X20091Y11303D02*
G01X20091Y11714D01*
G04 Copper End*

G04 PolygonModel Start*
G01X12446Y6985D02*
G03X13489Y6647I926J1081D01*
G01X11430Y8001D02*
G03X12030Y7332I1490J732D01*
G04 PolygonModel End*

G04 Rect Start*
G36*
G01X10160Y8156D02*
G01X10160Y7239D01*
G01X10724D01*
G01Y8156D01*
G01X10160D01*
G37*
G54D11*
G01X10160Y8156D02*
G01X10160Y7239D01*
G01X10724D01*
G01Y8156D01*
G01X10160D01*
G04 Rect End*

G04 Pad Start*
G54D12*
G01X16383Y18542D03*
G01X17018Y19634D03*
G01X24511Y26162D03*
G01X24511Y24130D03*
G01X24511Y25146D03*
G01X24511Y23114D03*
G36*
G01X18771Y6883D02*
G01X18771Y6579D01*
G03X18821Y6528I51J0D01*
G01X18923D01*
G03X18974Y6579I0J51D01*
G01Y6883D01*
G03X18923Y6934I-51J0D01*
G01X18821D01*
G03X18771Y6883I0J-51D01*
G37*
G36*
G01X19177Y6883D02*
G01X19177Y6579D01*
G03X19228Y6528I51J0D01*
G01X19329D01*
G03X19380Y6579I0J51D01*
G01Y6883D01*
G03X19329Y6934I-51J0D01*
G01X19228D01*
G03X19177Y6883I0J-51D01*
G37*
G36*
G01X19583Y6883D02*
G01X19583Y6579D01*
G03X19634Y6528I51J0D01*
G01X19736D01*
G03X19787Y6579I0J51D01*
G01Y6883D01*
G03X19736Y6934I-51J0D01*
G01X19634D01*
G03X19583Y6883I0J-51D01*
G37*
G36*
G01X19990Y6883D02*
G01X19990Y6579D01*
G03X20041Y6528I51J0D01*
G01X20142D01*
G03X20193Y6579I0J51D01*
G01Y6883D01*
G03X20142Y6934I-51J0D01*
G01X20041D01*
G03X19990Y6883I0J-51D01*
G37*
G36*
G01X20396Y6883D02*
G01X20396Y6579D01*
G03X20447Y6528I51J0D01*
G01X20549D01*
G03X20599Y6579I0J51D01*
G01Y6883D01*
G03X20549Y6934I-51J0D01*
G01X20447D01*
G03X20396Y6883I0J-51D01*
G37*
G36*
G01X20803Y6883D02*
G01X20803Y6579D01*
G03X20853Y6528I51J0D01*
G01X20955D01*
G03X21006Y6579I0J51D01*
G01Y6883D01*
G03X20955Y6934I-51J0D01*
G01X20853D01*
G03X20803Y6883I0J-51D01*
G37*
G36*
G01X21209Y6883D02*
G01X21209Y6579D01*
G03X21260Y6528I51J0D01*
G01X21361D01*
G03X21412Y6579I0J51D01*
G01Y6883D01*
G03X21361Y6934I-51J0D01*
G01X21260D01*
G03X21209Y6883I0J-51D01*
G37*
G36*
G01X21615Y6883D02*
G01X21615Y6579D01*
G03X21666Y6528I51J0D01*
G01X21768D01*
G03X21819Y6579I0J51D01*
G01Y6883D01*
G03X21768Y6934I-51J0D01*
G01X21666D01*
G03X21615Y6883I0J-51D01*
G37*
G36*
G01X22022Y6883D02*
G01X22022Y6579D01*
G03X22073Y6528I51J0D01*
G01X22174D01*
G03X22225Y6579I0J51D01*
G01Y6883D01*
G03X22174Y6934I-51J0D01*
G01X22073D01*
G03X22022Y6883I0J-51D01*
G37*
G36*
G01X22428Y6883D02*
G01X22428Y6579D01*
G03X22479Y6528I51J0D01*
G01X22581D01*
G03X22631Y6579I0J51D01*
G01Y6883D01*
G03X22581Y6934I-51J0D01*
G01X22479D01*
G03X22428Y6883I0J-51D01*
G37*
G36*
G01X22784Y7239D02*
G01X22784Y7137D01*
G03X22835Y7087I51J0D01*
G01X23139D01*
G03X23190Y7137I0J51D01*
G01Y7239D01*
G03X23139Y7290I-51J0D01*
G01X22835D01*
G03X22784Y7239I0J-51D01*
G37*
G36*
G01X22784Y7645D02*
G01X22784Y7544D01*
G03X22835Y7493I51J0D01*
G01X23139D01*
G03X23190Y7544I0J51D01*
G01Y7645D01*
G03X23139Y7696I-51J0D01*
G01X22835D01*
G03X22784Y7645I0J-51D01*
G37*
G36*
G01X22784Y8052D02*
G01X22784Y7950D01*
G03X22835Y7899I51J0D01*
G01X23139D01*
G03X23190Y7950I0J51D01*
G01Y8052D01*
G03X23139Y8103I-51J0D01*
G01X22835D01*
G03X22784Y8052I0J-51D01*
G37*
G36*
G01X22784Y8458D02*
G01X22784Y8357D01*
G03X22835Y8306I51J0D01*
G01X23139D01*
G03X23190Y8357I0J51D01*
G01Y8458D01*
G03X23139Y8509I-51J0D01*
G01X22835D01*
G03X22784Y8458I0J-51D01*
G37*
G36*
G01X22784Y8865D02*
G01X22784Y8763D01*
G03X22835Y8712I51J0D01*
G01X23139D01*
G03X23190Y8763I0J51D01*
G01Y8865D01*
G03X23139Y8915I-51J0D01*
G01X22835D01*
G03X22784Y8865I0J-51D01*
G37*
G36*
G01X22784Y9271D02*
G01X22784Y9169D01*
G03X22835Y9119I51J0D01*
G01X23139D01*
G03X23190Y9169I0J51D01*
G01Y9271D01*
G03X23139Y9322I-51J0D01*
G01X22835D01*
G03X22784Y9271I0J-51D01*
G37*
G36*
G01X22784Y9677D02*
G01X22784Y9576D01*
G03X22835Y9525I51J0D01*
G01X23139D01*
G03X23190Y9576I0J51D01*
G01Y9677D01*
G03X23139Y9728I-51J0D01*
G01X22835D01*
G03X22784Y9677I0J-51D01*
G37*
G36*
G01X22784Y10084D02*
G01X22784Y9982D01*
G03X22835Y9931I51J0D01*
G01X23139D01*
G03X23190Y9982I0J51D01*
G01Y10084D01*
G03X23139Y10135I-51J0D01*
G01X22835D01*
G03X22784Y10084I0J-51D01*
G37*
G36*
G01X22784Y10490D02*
G01X22784Y10389D01*
G03X22835Y10338I51J0D01*
G01X23139D01*
G03X23190Y10389I0J51D01*
G01Y10490D01*
G03X23139Y10541I-51J0D01*
G01X22835D01*
G03X22784Y10490I0J-51D01*
G37*
G36*
G01X22784Y10897D02*
G01X22784Y10795D01*
G03X22835Y10744I51J0D01*
G01X23139D01*
G03X23190Y10795I0J51D01*
G01Y10897D01*
G03X23139Y10947I-51J0D01*
G01X22835D01*
G03X22784Y10897I0J-51D01*
G37*
G36*
G01X22428Y11455D02*
G01X22428Y11151D01*
G03X22479Y11100I51J0D01*
G01X22581D01*
G03X22631Y11151I0J51D01*
G01Y11455D01*
G03X22581Y11506I-51J0D01*
G01X22479D01*
G03X22428Y11455I0J-51D01*
G37*
G36*
G01X22022Y11455D02*
G01X22022Y11151D01*
G03X22073Y11100I51J0D01*
G01X22174D01*
G03X22225Y11151I0J51D01*
G01Y11455D01*
G03X22174Y11506I-51J0D01*
G01X22073D01*
G03X22022Y11455I0J-51D01*
G37*
G36*
G01X21615Y11455D02*
G01X21615Y11151D01*
G03X21666Y11100I51J0D01*
G01X21768D01*
G03X21819Y11151I0J51D01*
G01Y11455D01*
G03X21768Y11506I-51J0D01*
G01X21666D01*
G03X21615Y11455I0J-51D01*
G37*
G36*
G01X21209Y11455D02*
G01X21209Y11151D01*
G03X21260Y11100I51J0D01*
G01X21361D01*
G03X21412Y11151I0J51D01*
G01Y11455D01*
G03X21361Y11506I-51J0D01*
G01X21260D01*
G03X21209Y11455I0J-51D01*
G37*
G36*
G01X20803Y11455D02*
G01X20803Y11151D01*
G03X20853Y11100I51J0D01*
G01X20955D01*
G03X21006Y11151I0J51D01*
G01Y11455D01*
G03X20955Y11506I-51J0D01*
G01X20853D01*
G03X20803Y11455I0J-51D01*
G37*
G36*
G01X20396Y11455D02*
G01X20396Y11151D01*
G03X20447Y11100I51J0D01*
G01X20549D01*
G03X20599Y11151I0J51D01*
G01Y11455D01*
G03X20549Y11506I-51J0D01*
G01X20447D01*
G03X20396Y11455I0J-51D01*
G37*
G36*
G01X19990Y11455D02*
G01X19990Y11151D01*
G03X20041Y11100I51J0D01*
G01X20142D01*
G03X20193Y11151I0J51D01*
G01Y11455D01*
G03X20142Y11506I-51J0D01*
G01X20041D01*
G03X19990Y11455I0J-51D01*
G37*
G36*
G01X19583Y11455D02*
G01X19583Y11151D01*
G03X19634Y11100I51J0D01*
G01X19736D01*
G03X19787Y11151I0J51D01*
G01Y11455D01*
G03X19736Y11506I-51J0D01*
G01X19634D01*
G03X19583Y11455I0J-51D01*
G37*
G36*
G01X19177Y11455D02*
G01X19177Y11151D01*
G03X19228Y11100I51J0D01*
G01X19329D01*
G03X19380Y11151I0J51D01*
G01Y11455D01*
G03X19329Y11506I-51J0D01*
G01X19228D01*
G03X19177Y11455I0J-51D01*
G37*
G36*
G01X18771Y11455D02*
G01X18771Y11151D01*
G03X18821Y11100I51J0D01*
G01X18923D01*
G03X18974Y11151I0J51D01*
G01Y11455D01*
G03X18923Y11506I-51J0D01*
G01X18821D01*
G03X18771Y11455I0J-51D01*
G37*
G36*
G01X18212Y10897D02*
G01X18212Y10795D01*
G03X18263Y10744I51J0D01*
G01X18567D01*
G03X18618Y10795I0J51D01*
G01Y10897D01*
G03X18567Y10947I-51J0D01*
G01X18263D01*
G03X18212Y10897I0J-51D01*
G37*
G36*
G01X18212Y10490D02*
G01X18212Y10389D01*
G03X18263Y10338I51J0D01*
G01X18567D01*
G03X18618Y10389I0J51D01*
G01Y10490D01*
G03X18567Y10541I-51J0D01*
G01X18263D01*
G03X18212Y10490I0J-51D01*
G37*
G36*
G01X18212Y10084D02*
G01X18212Y9982D01*
G03X18263Y9931I51J0D01*
G01X18567D01*
G03X18618Y9982I0J51D01*
G01Y10084D01*
G03X18567Y10135I-51J0D01*
G01X18263D01*
G03X18212Y10084I0J-51D01*
G37*
G36*
G01X18212Y9677D02*
G01X18212Y9576D01*
G03X18263Y9525I51J0D01*
G01X18567D01*
G03X18618Y9576I0J51D01*
G01Y9677D01*
G03X18567Y9728I-51J0D01*
G01X18263D01*
G03X18212Y9677I0J-51D01*
G37*
G36*
G01X18212Y9271D02*
G01X18212Y9169D01*
G03X18263Y9119I51J0D01*
G01X18567D01*
G03X18618Y9169I0J51D01*
G01Y9271D01*
G03X18567Y9322I-51J0D01*
G01X18263D01*
G03X18212Y9271I0J-51D01*
G37*
G36*
G01X18212Y8865D02*
G01X18212Y8763D01*
G03X18263Y8712I51J0D01*
G01X18567D01*
G03X18618Y8763I0J51D01*
G01Y8865D01*
G03X18567Y8915I-51J0D01*
G01X18263D01*
G03X18212Y8865I0J-51D01*
G37*
G36*
G01X18212Y8458D02*
G01X18212Y8357D01*
G03X18263Y8306I51J0D01*
G01X18567D01*
G03X18618Y8357I0J51D01*
G01Y8458D01*
G03X18567Y8509I-51J0D01*
G01X18263D01*
G03X18212Y8458I0J-51D01*
G37*
G36*
G01X18212Y8052D02*
G01X18212Y7950D01*
G03X18263Y7899I51J0D01*
G01X18567D01*
G03X18618Y7950I0J51D01*
G01Y8052D01*
G03X18567Y8103I-51J0D01*
G01X18263D01*
G03X18212Y8052I0J-51D01*
G37*
G36*
G01X18212Y7645D02*
G01X18212Y7544D01*
G03X18263Y7493I51J0D01*
G01X18567D01*
G03X18618Y7544I0J51D01*
G01Y7645D01*
G03X18567Y7696I-51J0D01*
G01X18263D01*
G03X18212Y7645I0J-51D01*
G37*
G36*
G01X18212Y7239D02*
G01X18212Y7137D01*
G03X18263Y7087I51J0D01*
G01X18567D01*
G03X18618Y7137I0J51D01*
G01Y7239D01*
G03X18567Y7290I-51J0D01*
G01X18263D01*
G03X18212Y7239I0J-51D01*
G37*
G36*
G01X10524Y8355D02*
G01X10725Y8355D01*
G01Y8556D01*
G01X10524D01*
G01Y8355D01*
G37*
G36*
G01X10923Y8355D02*
G01X11124Y8355D01*
G01Y8556D01*
G01X10923D01*
G01Y8355D01*
G37*
G36*
G01X11325Y8355D02*
G01X11525Y8355D01*
G01Y8556D01*
G01X11325D01*
G01Y8355D01*
G37*
G36*
G01X11325Y7954D02*
G01X11525Y7954D01*
G01Y8155D01*
G01X11325D01*
G01Y7954D01*
G37*
G36*
G01X10923Y7954D02*
G01X11124Y7954D01*
G01Y8155D01*
G01X10923D01*
G01Y7954D01*
G37*
G36*
G01X10524Y7954D02*
G01X10725Y7954D01*
G01Y8155D01*
G01X10524D01*
G01Y7954D01*
G37*
G36*
G01X13339Y6810D02*
G01X13339Y6485D01*
G01X13639D01*
G01Y6810D01*
G01X13339D01*
G37*
G36*
G01X14146Y6773D02*
G01X14146Y7098D01*
G01X13846D01*
G01Y6773D01*
G01X14146D01*
G37*
G36*
G01X14351Y7098D02*
G01X14351Y6773D01*
G01X14651D01*
G01Y7098D01*
G01X14351D01*
G37*
G36*
G01X14351Y6522D02*
G01X14351Y6197D01*
G01X14651D01*
G01Y6522D01*
G01X14351D01*
G37*
G36*
G01X14146Y6197D02*
G01X14146Y6522D01*
G01X13846D01*
G01Y6197D01*
G01X14146D01*
G37*
G36*
G01X23915Y6328D02*
G01X25615Y6328D01*
G01Y7377D01*
G01X23915D01*
G01Y6328D01*
G37*
G36*
G01X23915Y8879D02*
G01X25615Y8879D01*
G01Y9928D01*
G01X23915D01*
G01Y8879D01*
G37*
G36*
G01X20898Y1675D02*
G01X20898Y2176D01*
G01X20072D01*
G01Y1675D01*
G01X20898D01*
G37*
G36*
G01X20898Y4174D02*
G01X20898Y4675D01*
G01X20072D01*
G01Y4174D01*
G01X20898D01*
G37*
G36*
G01X19298Y4174D02*
G01X19298Y4675D01*
G01X18472D01*
G01Y4174D01*
G01X19298D01*
G37*
G36*
G01X19298Y1675D02*
G01X19298Y2176D01*
G01X18472D01*
G01Y1675D01*
G01X19298D01*
G37*
G36*
G01X18899Y3526D02*
G01X18470Y3526D01*
G01Y2824D01*
G01X18899D01*
G01Y3526D01*
G37*
G36*
G01X20900Y3526D02*
G01X20471Y3526D01*
G01Y2824D01*
G01X20900D01*
G01Y3526D01*
G37*
G36*
G01X13827Y20216D02*
G01X14367Y20216D01*
G01Y20782D01*
G01X13827D01*
G01Y20216D01*
G37*
G36*
G01X13827Y19350D02*
G01X14367Y19350D01*
G01Y19916D01*
G01X13827D01*
G01Y19350D01*
G37*
G36*
G01X15097Y20216D02*
G01X15637Y20216D01*
G01Y20782D01*
G01X15097D01*
G01Y20216D01*
G37*
G36*
G01X15097Y19350D02*
G01X15637Y19350D01*
G01Y19916D01*
G01X15097D01*
G01Y19350D01*
G37*
G36*
G01X17235Y7096D02*
G01X17235Y6772D01*
G01X17604D01*
G01Y7096D01*
G01X17235D01*
G37*
G36*
G01X16686Y7096D02*
G01X16686Y6772D01*
G01X17055D01*
G01Y7096D01*
G01X16686D01*
G37*
G36*
G01X17055Y5807D02*
G01X17055Y6131D01*
G01X16686D01*
G01Y5807D01*
G01X17055D01*
G37*
G36*
G01X17604Y5807D02*
G01X17604Y6131D01*
G01X17235D01*
G01Y5807D01*
G01X17604D01*
G37*
G36*
G01X15680Y7096D02*
G01X15680Y6772D01*
G01X16048D01*
G01Y7096D01*
G01X15680D01*
G37*
G36*
G01X15131Y7096D02*
G01X15131Y6772D01*
G01X15499D01*
G01Y7096D01*
G01X15131D01*
G37*
G36*
G01X12067Y7089D02*
G01X12276Y7337D01*
G01X11993Y7574D01*
G01X11785Y7326D01*
G01X12067Y7089D01*
G37*
G36*
G01X12488Y6736D02*
G01X12696Y6985D01*
G01X12414Y7221D01*
G01X12205Y6973D01*
G01X12488Y6736D01*
G37*
G36*
G01X9814Y7530D02*
G01X9490Y7530D01*
G01Y7161D01*
G01X9814D01*
G01Y7530D01*
G37*
G36*
G01X9814Y8079D02*
G01X9490Y8079D01*
G01Y7710D01*
G01X9814D01*
G01Y8079D01*
G37*
G36*
G01X10862Y9244D02*
G01X11186Y9244D01*
G01Y9613D01*
G01X10862D01*
G01Y9244D01*
G37*
G36*
G01X10862Y9793D02*
G01X11186Y9793D01*
G01Y10161D01*
G01X10862D01*
G01Y9793D01*
G37*
G36*
G01X11186Y11213D02*
G01X10862Y11213D01*
G01Y10844D01*
G01X11186D01*
G01Y11213D01*
G37*
G36*
G01X11186Y11762D02*
G01X10862Y11762D01*
G01Y11393D01*
G01X11186D01*
G01Y11762D01*
G37*
G36*
G01X17034Y10264D02*
G01X16494Y10264D01*
G01Y9474D01*
G01X17034D01*
G01Y10264D01*
G37*
G36*
G01X17034Y11354D02*
G01X16494Y11354D01*
G01Y10564D01*
G01X17034D01*
G01Y11354D01*
G37*
G36*
G01X15764Y10264D02*
G01X15224Y10264D01*
G01Y9474D01*
G01X15764D01*
G01Y10264D01*
G37*
G36*
G01X15764Y11354D02*
G01X15224Y11354D01*
G01Y10564D01*
G01X15764D01*
G01Y11354D01*
G37*
G36*
G01X15979Y8239D02*
G01X15979Y8779D01*
G01X15189D01*
G01Y8239D01*
G01X15979D01*
G37*
G36*
G01X17069Y8239D02*
G01X17069Y8779D01*
G01X16279D01*
G01Y8239D01*
G01X17069D01*
G37*
G36*
G01X17510Y3579D02*
G01X18050Y3579D01*
G01Y4369D01*
G01X17510D01*
G01Y3579D01*
G37*
G36*
G01X17510Y2489D02*
G01X18050Y2489D01*
G01Y3279D01*
G01X17510D01*
G01Y2489D01*
G37*
G36*
G01X16240Y3579D02*
G01X16780Y3579D01*
G01Y4369D01*
G01X16240D01*
G01Y3579D01*
G37*
G36*
G01X16240Y2489D02*
G01X16780Y2489D01*
G01Y3279D01*
G01X16240D01*
G01Y2489D01*
G37*
G36*
G01X21763Y13640D02*
G01X21763Y12776D01*
G01X22563D01*
G01Y13640D01*
G01X21763D01*
G37*
G36*
G01X20363Y13640D02*
G01X20363Y12776D01*
G01X21163D01*
G01Y13640D01*
G01X20363D01*
G37*
G36*
G01X21763Y15309D02*
G01X21763Y14409D01*
G01X22563D01*
G01Y15309D01*
G01X21763D01*
G37*
G36*
G01X20363Y15309D02*
G01X20363Y14409D01*
G01X21163D01*
G01Y15309D01*
G01X20363D01*
G37*
G36*
G01X24211Y12758D02*
G01X24211Y13658D01*
G01X23411D01*
G01Y12758D01*
G01X24211D01*
G37*
G36*
G01X25611Y12758D02*
G01X25611Y13658D01*
G01X24811D01*
G01Y12758D01*
G01X25611D01*
G37*
G36*
G01X23541Y2863D02*
G01X23541Y1963D01*
G01X24341D01*
G01Y2863D01*
G01X23541D01*
G37*
G36*
G01X22141Y2863D02*
G01X22141Y1963D01*
G01X22941D01*
G01Y2863D01*
G01X22141D01*
G37*
G36*
G01X23860Y4722D02*
G01X24400Y4722D01*
G01Y5512D01*
G01X23860D01*
G01Y4722D01*
G37*
G36*
G01X23860Y3632D02*
G01X24400Y3632D01*
G01Y4422D01*
G01X23860D01*
G01Y3632D01*
G37*
G36*
G01X22590Y4722D02*
G01X23130Y4722D01*
G01Y5512D01*
G01X22590D01*
G01Y4722D01*
G37*
G36*
G01X22590Y3632D02*
G01X23130Y3632D01*
G01Y4422D01*
G01X22590D01*
G01Y3632D01*
G37*
G36*
G01X21320Y4722D02*
G01X21860Y4722D01*
G01Y5512D01*
G01X21320D01*
G01Y4722D01*
G37*
G36*
G01X21320Y3632D02*
G01X21860Y3632D01*
G01Y4422D01*
G01X21320D01*
G01Y3632D01*
G37*
G36*
G01X19574Y13566D02*
G01X19034Y13566D01*
G01Y12776D01*
G01X19574D01*
G01Y13566D01*
G37*
G36*
G01X19574Y14656D02*
G01X19034Y14656D01*
G01Y13866D01*
G01X19574D01*
G01Y14656D01*
G37*
G36*
G01X25100Y3726D02*
G01X25700Y3726D01*
G01Y4326D01*
G01X25100D01*
G01Y3726D01*
G37*
G36*
G01X25700Y5926D02*
G01X25100Y5926D01*
G01Y5326D01*
G01X25700D01*
G01Y5926D01*
G37*
G36*
G01X25670Y2390D02*
G01X25130Y2390D01*
G01Y1824D01*
G01X25670D01*
G01Y2390D01*
G37*
G36*
G01X25670Y3256D02*
G01X25130Y3256D01*
G01Y2690D01*
G01X25670D01*
G01Y3256D01*
G37*
G36*
G01X10049Y9629D02*
G01X9509Y9629D01*
G01Y8839D01*
G01X10049D01*
G01Y9629D01*
G37*
G36*
G01X10049Y10719D02*
G01X9509Y10719D01*
G01Y9929D01*
G01X10049D01*
G01Y10719D01*
G37*
G36*
G01X22883Y25543D02*
G01X22883Y25003D01*
G01X23449D01*
G01Y25543D01*
G01X22883D01*
G37*
G36*
G01X22017Y25543D02*
G01X22017Y25003D01*
G01X22583D01*
G01Y25543D01*
G01X22017D01*
G37*
G36*
G01X22883Y24273D02*
G01X22883Y23733D01*
G01X23449D01*
G01Y24273D01*
G01X22883D01*
G37*
G36*
G01X22017Y24273D02*
G01X22017Y23733D01*
G01X22583D01*
G01Y24273D01*
G01X22017D01*
G37*
G36*
G01X9553Y11353D02*
G01X9553Y11802D01*
G01X9274D01*
G01Y11353D01*
G01X9553D01*
G37*
G36*
G01X10213Y11353D02*
G01X10213Y11802D01*
G01X9934D01*
G01Y11353D01*
G01X10213D01*
G37*
G36*
G01X8875Y23572D02*
G01X8875Y26572D01*
G01X6775D01*
G01Y23572D01*
G01X8875D01*
G37*
G36*
G01X20225Y23572D02*
G01X20225Y26572D01*
G01X18125D01*
G01Y23572D01*
G01X20225D01*
G37*
G36*
G01X17025Y21372D02*
G01X17025Y22972D01*
G01X16225D01*
G01Y21372D01*
G01X17025D01*
G37*
G36*
G01X15775Y21372D02*
G01X15775Y22972D01*
G01X14975D01*
G01Y21372D01*
G01X15775D01*
G37*
G36*
G01X14525Y21372D02*
G01X14525Y22972D01*
G01X13725D01*
G01Y21372D01*
G01X14525D01*
G37*
G36*
G01X13275Y21372D02*
G01X13275Y22972D01*
G01X12475D01*
G01Y21372D01*
G01X13275D01*
G37*
G36*
G01X12025Y21372D02*
G01X12025Y22972D01*
G01X11225D01*
G01Y21372D01*
G01X12025D01*
G37*
G36*
G01X10775Y21372D02*
G01X10775Y22972D01*
G01X9975D01*
G01Y21372D01*
G01X10775D01*
G37*
G54D13*
G01X1766Y21034D03*
G01X1766Y19764D03*
G01X1766Y18494D03*
G01X1766Y17224D03*
G01X1766Y15954D03*
G01X1766Y14684D03*
G01X1766Y13414D03*
G01X1766Y12144D03*
G01X7511Y21034D03*
G01X7511Y19764D03*
G01X7511Y18494D03*
G01X7511Y17224D03*
G01X7511Y15954D03*
G01X7511Y14684D03*
G01X7511Y13414D03*
G01X7511Y12144D03*
G36*
G01X4881Y22964D02*
G01X4341Y22964D01*
G01Y22174D01*
G01X4881D01*
G01Y22964D01*
G37*
G36*
G01X4881Y24054D02*
G01X4341Y24054D01*
G01Y23264D01*
G01X4881D01*
G01Y24054D01*
G37*
G36*
G01X3097Y23264D02*
G01X3637Y23264D01*
G01Y24054D01*
G01X3097D01*
G01Y23264D01*
G37*
G36*
G01X3097Y22174D02*
G01X3637Y22174D01*
G01Y22964D01*
G01X3097D01*
G01Y22174D01*
G37*
G36*
G01X4549Y10398D02*
G01X4549Y10938D01*
G01X3759D01*
G01Y10398D01*
G01X4549D01*
G37*
G36*
G01X5639Y10398D02*
G01X5639Y10938D01*
G01X4849D01*
G01Y10398D01*
G01X5639D01*
G37*
G36*
G01X5624Y23264D02*
G01X6164Y23264D01*
G01Y24054D01*
G01X5624D01*
G01Y23264D01*
G37*
G36*
G01X5624Y22174D02*
G01X6164Y22174D01*
G01Y22964D01*
G01X5624D01*
G01Y22174D01*
G37*
G36*
G01X11356Y20216D02*
G01X11896Y20216D01*
G01Y20782D01*
G01X11356D01*
G01Y20216D01*
G37*
G36*
G01X11356Y19350D02*
G01X11896Y19350D01*
G01Y19916D01*
G01X11356D01*
G01Y19350D01*
G37*
G36*
G01X12605Y20216D02*
G01X13145Y20216D01*
G01Y20782D01*
G01X12605D01*
G01Y20216D01*
G37*
G36*
G01X12605Y19350D02*
G01X13145Y19350D01*
G01Y19916D01*
G01X12605D01*
G01Y19350D01*
G37*
G36*
G01X5847Y7179D02*
G01X5847Y8336D01*
G01X5357D01*
G01Y7179D01*
G01X5847D01*
G37*
G36*
G01X4897Y7179D02*
G01X4897Y8336D01*
G01X4407D01*
G01Y7179D01*
G01X4897D01*
G37*
G36*
G01X3947Y7179D02*
G01X3947Y8336D01*
G01X3457D01*
G01Y7179D01*
G01X3947D01*
G37*
G36*
G01X3947Y4863D02*
G01X3947Y6038D01*
G01X3457D01*
G01Y4863D01*
G01X3947D01*
G37*
G36*
G01X5847Y4863D02*
G01X5847Y6038D01*
G01X5357D01*
G01Y4863D01*
G01X5847D01*
G37*
G36*
G01X7000Y6514D02*
G01X6676Y6514D01*
G01Y6145D01*
G01X7000D01*
G01Y6514D01*
G37*
G36*
G01X7000Y7063D02*
G01X6676Y7063D01*
G01Y6694D01*
G01X7000D01*
G01Y7063D01*
G37*
G36*
G01X10213Y20156D02*
G01X10537Y20156D01*
G01Y20525D01*
G01X10213D01*
G01Y20156D01*
G37*
G36*
G01X10213Y19607D02*
G01X10537Y19607D01*
G01Y19976D01*
G01X10213D01*
G01Y19607D01*
G37*
G36*
G01X19050Y10668D02*
G01X22352Y10668D01*
G01Y7366D01*
G01X19431D01*
G01X19050Y7747D01*
G01Y10668D01*
G37*
G04 Pad End*

G04 Via Start*
G54D14*
G01X16129Y13145D03*
G01X2413Y2667D03*
G01X2413Y1651D03*
G01X1397Y2667D03*
G01X19685Y3175D03*
G54D15*
G01X11024Y13145D03*
G54D14*
G01X25400Y4826D03*
G01X24003Y2413D03*
G01X24511Y14859D03*
G01X26162Y14605D03*
G01X25273Y10922D03*
G01X22860Y5117D03*
G01X25400Y2107D03*
G01X8509Y10324D03*
G01X18796Y18542D03*
G01X19812Y19634D03*
G01X23165Y23114D03*
G01X13843Y17272D03*
G01X17526Y16637D03*
G01X7620Y22568D03*
G01X9414Y13145D03*
G01X11049Y14732D03*
G01X13081Y14732D03*
G01X15113Y14732D03*
G01X12065Y15875D03*
G01X14097Y15875D03*
G01X16129Y15875D03*
G01X7493Y11049D03*
G01X4572Y17399D03*
G01X4572Y14986D03*
G01X3810Y19431D03*
G01X10541Y25654D03*
G01X16637Y23876D03*
G01X14478Y25654D03*
G01X21082Y23876D03*
G01X21082Y20828D03*
G01X21082Y25654D03*
G01X8636Y9017D03*
G01X8636Y7493D03*
G01X3683Y3810D03*
G01X11049Y3810D03*
G01X7493Y2667D03*
G01X14351Y2794D03*
G01X25250Y8128D03*
G01X15621Y17526D03*
G01X21082Y17399D03*
G01X24638Y20828D03*
G01X1397Y9144D03*
G01X1397Y25654D03*
G01X4826Y25654D03*
G01X11938Y11303D03*
G01X11938Y10287D03*
G01X11938Y9271D03*
G01X19558Y15367D03*
G01X5602Y9144D03*
G01X8890Y21844D03*
G01X9525Y6096D03*
G01X2667Y9144D03*
G01X5601Y3810D03*
G01X11430Y6096D03*
G01X12827Y5461D03*
G01X14351Y5461D03*
G01X15875Y5461D03*
G01X12446Y8382D03*
G01X13335Y7874D03*
G01X14478Y7874D03*
G01X7493Y9779D03*
G01X13081Y13145D03*
G01X14478Y11303D03*
G01X14478Y10287D03*
G01X14478Y9144D03*
G01X18466Y5969D03*
G54D12*
G01X21717Y8001D03*
G01X19685Y10033D03*
G54D16*
G01X20701Y9017D03*
G54D12*
G01X21717Y10033D03*
G01X19685Y8001D03*
G04 Via End*

G04 Track Start*
G54D10*
G01X18872Y6731D02*
G01X18872Y7417D01*
G01X18694Y7595D01*
G01X18415D01*
G01X19279Y11303D02*
G01X19685Y11303D01*
G01X20498Y11303D02*
G01X20091Y11303D01*
G01X19685D01*
G01X22987Y7188D02*
G01X24430Y7188D01*
G01X24765Y6853D01*
G01X21311Y6375D02*
G01X21311Y6731D01*
G01X21412Y6274D02*
G01X21311Y6375D01*
G01X20904Y6731D02*
G01X20904Y6279D01*
G01X21265Y5918D01*
G01X22657D01*
G01X22860Y5715D01*
G01Y5117D01*
G54D18*
G01X24130Y5117D02*
G01X24639Y5626D01*
G01X25400D01*
G01X16510Y2884D02*
G01X16510Y2286D01*
G01X16871Y1925D02*
G01X18885Y1925D01*
G01X16510Y2286D02*
G01X16871Y1925D01*
G54D10*
G01X17780Y3974D02*
G01X17780Y4801D01*
G01X18885Y4425D02*
G01X19411Y4425D01*
G01X19279Y5436D02*
G01X19279Y6731D01*
G01X17780Y4801D02*
G01X17932Y4953D01*
G01X18796D01*
G01X19279Y5436D01*
G54D18*
G01X16510Y3974D02*
G01X17780Y3974D01*
G54D10*
G01X23811Y13208D02*
G01X23811Y12000D01*
G01X23114Y11303D01*
G01X22530D01*
G01X22123Y11303D02*
G01X22123Y13169D01*
G01X22163Y13208D01*
G01X21717Y11303D02*
G01X21717Y12192D01*
G01X20763Y13146D01*
G01X19558Y12319D02*
G01X19304Y12573D01*
G01Y13171D01*
G01X21311Y11303D02*
G01X21311Y12024D01*
G01X21015Y12319D01*
G01X19558D01*
G01X16871Y6934D02*
G01X16871Y5969D01*
G01X16871Y6934D02*
G01X15864Y6934D01*
G01X15314Y6935D02*
G01X14501Y6935D01*
G01X11024Y9428D02*
G01X11024Y8456D01*
G01X11024Y11029D02*
G01X11024Y9977D01*
G01X10074Y11577D02*
G01X11024Y11577D01*
G54D18*
G01X11024Y13145D02*
G01X11024Y11577D01*
G54D10*
G01X20763Y13208D02*
G01X20763Y14921D01*
G01X17983Y7188D02*
G01X18415Y7188D01*
G01X9779Y9234D02*
G01X9779Y8763D01*
G01X10086Y8456D01*
G01X17729Y6934D02*
G01X17983Y7188D01*
G01X17419Y6934D02*
G01X17729Y6934D01*
G54D18*
G01X25400Y4826D02*
G01X25400Y5626D01*
G01X25400Y4026D02*
G01X25400Y2973D01*
G54D10*
G01X11425Y8456D02*
G01X12012Y8456D01*
G54D18*
G01X13996Y6359D02*
G01X13996Y5868D01*
G01X13996Y6935D02*
G01X13996Y7467D01*
G54D10*
G01X17709Y5969D02*
G01X17709Y6541D01*
G01X17419Y5969D02*
G01X17709Y5969D01*
G01X18034D01*
G01X19685Y6731D02*
G01X19685Y4699D01*
G01X19411Y4425D01*
G01X20498Y6731D02*
G01X20498Y6182D01*
G01X21563Y5117D01*
G01X21590D01*
G54D18*
G01X20485Y4425D02*
G01X20883Y4027D01*
G01X21590D01*
G01X9779Y10324D02*
G01X8509Y10324D01*
G54D10*
G01X22987Y7595D02*
G01X23343Y7595D01*
G01X24765Y9017D01*
G01Y9403D01*
G01X10086Y8456D02*
G01X10625Y8456D01*
G01X9906Y6731D02*
G01X10668Y6731D01*
G01X9652Y7346D02*
G01X9652Y6985D01*
G01X9906Y6731D01*
G01X10668Y6731D02*
G01X11024Y7087D01*
G01Y8054D01*
G01X24130Y5117D02*
G01X24130Y5588D01*
G01X23444Y6274D01*
G01X21412D01*
G54D18*
G01X14125Y22172D02*
G01X14125Y20527D01*
G01X14097Y20499D01*
G01X15375Y22172D02*
G01X15375Y20507D01*
G01X15367Y20499D01*
G01X23811Y14667D02*
G01X23811Y13208D01*
G01X24511Y14859D02*
G01X24003Y14859D01*
G01X23811Y14667D01*
G01X14097Y19633D02*
G01X14097Y18923D01*
G01X23166Y25273D02*
G01X23293Y25146D01*
G01X24511D01*
G01X24511Y24130D02*
G01X23293Y24130D01*
G01X23166Y24003D01*
G01X14478Y18542D02*
G01X14097Y18923D01*
G01X18796Y18542D02*
G01X16383Y18542D01*
G01X14478D01*
G54D10*
G01X26035Y24511D02*
G01X25400Y25146D01*
G01X24511D01*
G01X25654Y23749D02*
G01X25273Y24130D01*
G01X24511D01*
G54D18*
G01X11625Y22172D02*
G01X11625Y20499D01*
G01X12875Y20499D02*
G01X12875Y22172D01*
G01X15368Y19634D02*
G01X17018Y19634D01*
G01X19799D01*
G01X4611Y23659D02*
G01X4611Y24726D01*
G01X4445Y24892D01*
G01X2159D01*
G01X1766Y24499D02*
G01X1766Y21034D01*
G01X2159Y24892D02*
G01X1766Y24499D01*
G01X3367Y22569D02*
G01X3367Y20131D01*
G01X3000Y19764D01*
G01X1766D01*
G01X5894Y22569D02*
G01X5894Y21538D01*
G01X6398Y21034D01*
G01X7511Y21034D02*
G01X6398Y21034D01*
G01X18684Y3175D02*
G01X18415Y3175D01*
G01X18124Y2884D01*
G01X17780D01*
G54D10*
G01X19050Y16637D02*
G01X25024Y16637D01*
G01X25654Y17267D01*
G01X19197Y16281D02*
G01X25171Y16281D01*
G01X26035Y17145D01*
G01Y24511D01*
G01X25654Y17267D02*
G01X25654Y23749D01*
G54D18*
G01X7619Y22569D02*
G01X5894Y22569D01*
G01X4611Y22569D02*
G01X4611Y19089D01*
G01X4016Y18494D01*
G01X1766D01*
G01X1766Y14684D02*
G01X3477Y14684D01*
G01X4154Y14007D01*
G01Y10668D01*
G54D19*
G01X6838Y6330D02*
G01X6838Y5822D01*
G01X6466Y5450D01*
G01X5602D01*
G54D20*
G01X5602Y3811D01*
G54D18*
G01X5602Y9144D02*
G01X5602Y7758D01*
G01X5602Y9144D02*
G01X3937Y9144D01*
G01X3702Y8909D01*
G01Y7758D01*
G01X22300Y25273D02*
G01X22300Y24003D01*
G01X23165Y23114D02*
G01X24511Y23114D01*
G01X22300Y24003D02*
G01X22300Y23420D01*
G01X22606Y23114D02*
G01X23165Y23114D01*
G01X22300Y23420D02*
G01X22606Y23114D01*
G01X10375Y21844D02*
G01X8890Y21844D01*
G01X10375Y22172D02*
G01X10375Y21844D01*
G01Y20340D01*
G01X17526Y16637D02*
G01X18511Y16637D01*
G01X18796Y16922D01*
G01Y18542D01*
G01X9544Y14684D02*
G01X7511Y14684D01*
G01X10239Y15954D02*
G01X7511Y15954D01*
G01X13843Y17272D02*
G01X11557Y17272D01*
G01X10239Y15954D01*
G01X11497Y16637D02*
G01X9544Y14684D01*
G01X17526Y16637D02*
G01X11497Y16637D01*
G54D10*
G01X23495Y10033D02*
G01X22987Y10033D01*
G01X22987Y10439D02*
G01X23393Y10439D01*
G01X24689Y11735D01*
G01X25705D01*
G01X26162Y14605D02*
G01X26162Y12192D01*
G01X25705Y11735D01*
G54D18*
G01X12875Y19633D02*
G01X12875Y19225D01*
G01X10874Y17224D01*
G01X7511D01*
G01X7511Y18494D02*
G01X10874Y18494D01*
G01X11626Y19246D01*
G01Y19633D01*
G54D10*
G01X18009Y10439D02*
G01X18415Y10439D01*
G01X17780Y15367D02*
G01X19050Y16637D01*
G01X17780Y10668D02*
G01X17780Y15367D01*
G01X18009Y10439D02*
G01X17780Y10668D01*
G01X18136Y15220D02*
G01X19197Y16281D01*
G01X18136Y10947D02*
G01X18136Y15220D01*
G01X18136Y10947D02*
G01X18237Y10846D01*
G01X18415Y10846D02*
G01X18237Y10846D01*
G01X16027Y7595D02*
G01X18415Y7595D01*
G01X15584Y8038D02*
G01X16027Y7595D01*
G01X15584Y8509D02*
G01X15584Y8038D01*
G01X15584Y8509D02*
G01X15584Y9779D01*
G01X15494Y9869D01*
G01X16674Y8509D02*
G01X16674Y9779D01*
G01X16764Y9869D01*
G01X16674Y8509D02*
G01X16674Y8091D01*
G01X16764Y8001D01*
G01X18415D01*
G01X25273Y10922D02*
G01X24384Y10922D01*
G01X23495Y10033D01*
G04 Track End*

M02*
