G04 Layer: DrillDrawingLayer*
G04 EasyEDA Pro v1.7.31.78bc6e, 2022-08-09 17:47:50*
G04 Gerber Generator version 0.3*
G04 Scale: 100 percent, Rotated: No, Reflected: No*
G04 Dimensions in millimeters*
G04 Leading zeros omitted, absolute positions, 3 integers and 3 decimals*
%FSLAX33Y33*%
%MOMM*%
%ADD10C,0.254*%
G75*


G04 Image Start*
G36*
G01X10824Y13344D02*
G01X10824Y13308D01*
G01X10861D01*
G01X11187D01*
G01Y12981D01*
G01X10861D01*
G01Y13308D01*
G01X10824D01*
G01Y12945D01*
G01X11223D01*
G01Y13344D01*
G37*
G36*
G01X20701Y9217D02*
G01X20681Y9215D01*
G01X20661Y9213D01*
G01X20642Y9208D01*
G01X20623Y9201D01*
G01X20606Y9192D01*
G01X20590Y9182D01*
G01X20574Y9171D01*
G01X20560Y9158D01*
G01X20547Y9144D01*
G01X20536Y9128D01*
G01X20526Y9112D01*
G01X20517Y9095D01*
G01X20511Y9076D01*
G01X20505Y9057D01*
G01X20503Y9037D01*
G01X20502Y9017D01*
G01X20535D01*
G01X20536Y9034D01*
G01X20538Y9051D01*
G01X20543Y9066D01*
G01X20548Y9082D01*
G01X20555Y9096D01*
G01X20563Y9110D01*
G01X20573Y9123D01*
G01X20584Y9134D01*
G01X20595Y9145D01*
G01X20608Y9155D01*
G01X20622Y9163D01*
G01X20636Y9170D01*
G01X20652Y9175D01*
G01X20667Y9180D01*
G01X20684Y9182D01*
G01X20701Y9183D01*
G01X20718Y9182D01*
G01X20735Y9180D01*
G01X20750Y9175D01*
G01X20766Y9170D01*
G01X20780Y9163D01*
G01X20794Y9155D01*
G01X20807Y9145D01*
G01X20818Y9134D01*
G01X20829Y9123D01*
G01X20839Y9110D01*
G01X20847Y9096D01*
G01X20854Y9082D01*
G01X20859Y9066D01*
G01X20864Y9051D01*
G01X20866Y9034D01*
G01X20867Y9017D01*
G01X20866Y9000D01*
G01X20864Y8983D01*
G01X20859Y8968D01*
G01X20854Y8952D01*
G01X20847Y8938D01*
G01X20839Y8924D01*
G01X20829Y8911D01*
G01X20818Y8900D01*
G01X20807Y8889D01*
G01X20794Y8879D01*
G01X20780Y8871D01*
G01X20766Y8864D01*
G01X20750Y8859D01*
G01X20735Y8854D01*
G01X20718Y8852D01*
G01X20701Y8851D01*
G01X20684Y8852D01*
G01X20667Y8854D01*
G01X20652Y8859D01*
G01X20636Y8864D01*
G01X20622Y8871D01*
G01X20608Y8879D01*
G01X20595Y8889D01*
G01X20584Y8900D01*
G01X20573Y8911D01*
G01X20563Y8924D01*
G01X20555Y8938D01*
G01X20548Y8952D01*
G01X20543Y8968D01*
G01X20538Y8983D01*
G01X20536Y9000D01*
G01X20535Y9017D01*
G01X20502D01*
G01X20503Y8997D01*
G01X20505Y8977D01*
G01X20511Y8958D01*
G01X20517Y8939D01*
G01X20526Y8922D01*
G01X20536Y8906D01*
G01X20547Y8890D01*
G01X20560Y8876D01*
G01X20574Y8863D01*
G01X20590Y8852D01*
G01X20606Y8842D01*
G01X20623Y8833D01*
G01X20642Y8827D01*
G01X20661Y8821D01*
G01X20681Y8819D01*
G01X20701Y8818D01*
G01X20721Y8819D01*
G01X20741Y8821D01*
G01X20760Y8827D01*
G01X20779Y8833D01*
G01X20796Y8842D01*
G01X20812Y8852D01*
G01X20828Y8863D01*
G01X20842Y8876D01*
G01X20855Y8890D01*
G01X20866Y8906D01*
G01X20876Y8922D01*
G01X20885Y8939D01*
G01X20892Y8958D01*
G01X20897Y8977D01*
G01X20899Y8997D01*
G01X20901Y9017D01*
G01X20899Y9037D01*
G01X20897Y9057D01*
G01X20892Y9076D01*
G01X20885Y9095D01*
G01X20876Y9112D01*
G01X20866Y9128D01*
G01X20855Y9144D01*
G01X20842Y9158D01*
G01X20828Y9171D01*
G01X20812Y9182D01*
G01X20796Y9192D01*
G01X20779Y9201D01*
G01X20760Y9208D01*
G01X20741Y9213D01*
G01X20721Y9215D01*
G37*
G36*
G01X2214Y1824D02*
G01X2233Y1790D01*
G01X2271D01*
G01X2555D01*
G01X2484Y1668D01*
G01X2413Y1545D01*
G01X2342Y1668D01*
G01X2271Y1790D01*
G01X2233D01*
G01X2413Y1478D01*
G01X2513Y1651D01*
G01X2613Y1824D01*
G37*
G36*
G01X1198Y2840D02*
G01X1217Y2806D01*
G01X1255D01*
G01X1539D01*
G01X1468Y2684D01*
G01X1397Y2561D01*
G01X1326Y2684D01*
G01X1255Y2806D01*
G01X1217D01*
G01X1397Y2494D01*
G01X1497Y2667D01*
G01X1597Y2840D01*
G37*
G36*
G01X1198Y25827D02*
G01X1217Y25793D01*
G01X1255D01*
G01X1539D01*
G01X1468Y25671D01*
G01X1397Y25548D01*
G01X1326Y25671D01*
G01X1255Y25793D01*
G01X1217D01*
G01X1397Y25481D01*
G01X1497Y25654D01*
G01X1597Y25827D01*
G37*
G36*
G01X16129Y13375D02*
G01X16072Y13244D01*
G01X15929Y13260D01*
G01X16014Y13145D01*
G01X15960Y13072D01*
G01X16003D01*
G01X16042Y13124D01*
G01X16056Y13145D01*
G01X16042Y13165D01*
G01X16003Y13217D01*
G01X16068Y13211D01*
G01X16092Y13207D01*
G01X16103Y13230D01*
G01X16129Y13290D01*
G01X16155Y13230D01*
G01X16166Y13207D01*
G01X16190Y13210D01*
G01X16255Y13217D01*
G01X16216Y13165D01*
G01X16202Y13145D01*
G01X16216Y13124D01*
G01X16255Y13072D01*
G01X16190Y13078D01*
G01X16166Y13082D01*
G01X16155Y13059D01*
G01X16129Y12999D01*
G01X16103Y13059D01*
G01X16092Y13082D01*
G01X16068Y13078D01*
G01X16003Y13072D01*
G01X15960D01*
G01X15929Y13029D01*
G01X16072Y13045D01*
G01X16129Y12914D01*
G01X16186Y13045D01*
G01X16329Y13029D01*
G01X16244Y13145D01*
G01X16329Y13260D01*
G01X16186Y13244D01*
G37*
G36*
G01X25400Y5056D02*
G01X25343Y4926D01*
G01X25201Y4941D01*
G01X25285Y4826D01*
G01X25232Y4753D01*
G01X25274D01*
G01X25313Y4806D01*
G01X25327Y4826D01*
G01X25313Y4846D01*
G01X25274Y4899D01*
G01X25339Y4892D01*
G01X25363Y4889D01*
G01X25374Y4912D01*
G01X25400Y4972D01*
G01X25426Y4912D01*
G01X25437Y4889D01*
G01X25461Y4892D01*
G01X25526Y4899D01*
G01X25487Y4846D01*
G01X25473Y4826D01*
G01X25487Y4806D01*
G01X25526Y4753D01*
G01X25461Y4760D01*
G01X25437Y4763D01*
G01X25426Y4740D01*
G01X25400Y4680D01*
G01X25374Y4740D01*
G01X25363Y4763D01*
G01X25339Y4760D01*
G01X25274Y4753D01*
G01X25232D01*
G01X25201Y4711D01*
G01X25343Y4726D01*
G01X25400Y4596D01*
G01X25457Y4726D01*
G01X25600Y4711D01*
G01X25515Y4826D01*
G01X25600Y4941D01*
G01X25457Y4926D01*
G37*
G36*
G01X24003Y2643D02*
G01X23946Y2513D01*
G01X23804Y2528D01*
G01X23888Y2413D01*
G01X23835Y2340D01*
G01X23877D01*
G01X23916Y2393D01*
G01X23930Y2413D01*
G01X23916Y2433D01*
G01X23877Y2486D01*
G01X23942Y2479D01*
G01X23966Y2476D01*
G01X23977Y2499D01*
G01X24003Y2559D01*
G01X24029Y2499D01*
G01X24040Y2476D01*
G01X24064Y2479D01*
G01X24129Y2486D01*
G01X24090Y2433D01*
G01X24076Y2413D01*
G01X24090Y2393D01*
G01X24129Y2340D01*
G01X24064Y2347D01*
G01X24040Y2350D01*
G01X24029Y2327D01*
G01X24003Y2267D01*
G01X23977Y2327D01*
G01X23966Y2350D01*
G01X23942Y2347D01*
G01X23877Y2340D01*
G01X23835D01*
G01X23804Y2298D01*
G01X23946Y2313D01*
G01X24003Y2183D01*
G01X24060Y2313D01*
G01X24203Y2298D01*
G01X24118Y2413D01*
G01X24203Y2528D01*
G01X24060Y2513D01*
G37*
G36*
G01X24511Y15089D02*
G01X24454Y14959D01*
G01X24312Y14974D01*
G01X24396Y14859D01*
G01X24343Y14786D01*
G01X24385D01*
G01X24424Y14839D01*
G01X24438Y14859D01*
G01X24424Y14879D01*
G01X24385Y14932D01*
G01X24450Y14925D01*
G01X24474Y14922D01*
G01X24485Y14945D01*
G01X24511Y15005D01*
G01X24537Y14945D01*
G01X24548Y14922D01*
G01X24572Y14925D01*
G01X24637Y14932D01*
G01X24598Y14879D01*
G01X24584Y14859D01*
G01X24598Y14839D01*
G01X24637Y14786D01*
G01X24572Y14793D01*
G01X24548Y14796D01*
G01X24537Y14773D01*
G01X24511Y14713D01*
G01X24485Y14773D01*
G01X24474Y14796D01*
G01X24450Y14793D01*
G01X24385Y14786D01*
G01X24343D01*
G01X24312Y14744D01*
G01X24454Y14759D01*
G01X24511Y14629D01*
G01X24568Y14759D01*
G01X24711Y14744D01*
G01X24626Y14859D01*
G01X24711Y14974D01*
G01X24568Y14959D01*
G37*
G36*
G01X8509Y10554D02*
G01X8452Y10424D01*
G01X8309Y10439D01*
G01X8394Y10324D01*
G01X8340Y10251D01*
G01X8383D01*
G01X8421Y10304D01*
G01X8436Y10324D01*
G01X8421Y10344D01*
G01X8383Y10397D01*
G01X8448Y10390D01*
G01X8472Y10387D01*
G01X8483Y10410D01*
G01X8509Y10470D01*
G01X8535Y10410D01*
G01X8546Y10387D01*
G01X8570Y10390D01*
G01X8635Y10397D01*
G01X8596Y10344D01*
G01X8582Y10324D01*
G01X8596Y10304D01*
G01X8635Y10251D01*
G01X8570Y10258D01*
G01X8546Y10261D01*
G01X8535Y10238D01*
G01X8509Y10178D01*
G01X8483Y10238D01*
G01X8472Y10261D01*
G01X8448Y10258D01*
G01X8383Y10251D01*
G01X8340D01*
G01X8309Y10209D01*
G01X8452Y10225D01*
G01X8509Y10094D01*
G01X8566Y10225D01*
G01X8708Y10209D01*
G01X8624Y10324D01*
G01X8708Y10439D01*
G01X8566Y10424D01*
G37*
G36*
G01X23165Y23344D02*
G01X23107Y23214D01*
G01X22966Y23229D01*
G01X23049Y23114D01*
G01X22997Y23041D01*
G01X23039D01*
G01X23077Y23094D01*
G01X23092Y23114D01*
G01X23077Y23134D01*
G01X23039Y23187D01*
G01X23103Y23180D01*
G01X23128Y23177D01*
G01X23138Y23200D01*
G01X23165Y23260D01*
G01X23191Y23200D01*
G01X23201Y23177D01*
G01X23226Y23180D01*
G01X23291Y23187D01*
G01X23252Y23134D01*
G01X23237Y23114D01*
G01X23252Y23094D01*
G01X23291Y23041D01*
G01X23226Y23048D01*
G01X23201Y23051D01*
G01X23191Y23028D01*
G01X23165Y22968D01*
G01X23138Y23028D01*
G01X23128Y23051D01*
G01X23103Y23048D01*
G01X23039Y23041D01*
G01X22997D01*
G01X22966Y22999D01*
G01X23107Y23014D01*
G01X23165Y22884D01*
G01X23222Y23014D01*
G01X23364Y22999D01*
G01X23280Y23114D01*
G01X23364Y23229D01*
G01X23222Y23214D01*
G37*
G36*
G01X7620Y22798D02*
G01X7563Y22667D01*
G01X7421Y22683D01*
G01X7505Y22568D01*
G01X7452Y22495D01*
G01X7494D01*
G01X7533Y22548D01*
G01X7547Y22568D01*
G01X7533Y22588D01*
G01X7494Y22641D01*
G01X7559Y22634D01*
G01X7583Y22631D01*
G01X7594Y22654D01*
G01X7620Y22714D01*
G01X7646Y22654D01*
G01X7657Y22631D01*
G01X7681Y22633D01*
G01X7746Y22641D01*
G01X7707Y22588D01*
G01X7693Y22568D01*
G01X7707Y22548D01*
G01X7746Y22495D01*
G01X7681Y22502D01*
G01X7657Y22505D01*
G01X7646Y22482D01*
G01X7620Y22422D01*
G01X7594Y22482D01*
G01X7583Y22505D01*
G01X7559Y22502D01*
G01X7494Y22495D01*
G01X7452D01*
G01X7421Y22453D01*
G01X7563Y22468D01*
G01X7620Y22338D01*
G01X7677Y22468D01*
G01X7820Y22453D01*
G01X7735Y22568D01*
G01X7820Y22683D01*
G01X7677Y22667D01*
G37*
G36*
G01X5601Y4040D02*
G01X5543Y3910D01*
G01X5402Y3925D01*
G01X5485Y3810D01*
G01X5433Y3737D01*
G01X5475D01*
G01X5513Y3790D01*
G01X5528Y3810D01*
G01X5513Y3830D01*
G01X5475Y3883D01*
G01X5539Y3876D01*
G01X5564Y3873D01*
G01X5574Y3896D01*
G01X5601Y3956D01*
G01X5627Y3896D01*
G01X5637Y3873D01*
G01X5662Y3876D01*
G01X5727Y3883D01*
G01X5688Y3830D01*
G01X5673Y3810D01*
G01X5688Y3790D01*
G01X5727Y3737D01*
G01X5662Y3744D01*
G01X5637Y3747D01*
G01X5627Y3724D01*
G01X5601Y3664D01*
G01X5574Y3724D01*
G01X5564Y3747D01*
G01X5539Y3744D01*
G01X5475Y3737D01*
G01X5433D01*
G01X5402Y3695D01*
G01X5543Y3710D01*
G01X5601Y3580D01*
G01X5658Y3710D01*
G01X5800Y3695D01*
G01X5716Y3810D01*
G01X5800Y3925D01*
G01X5658Y3910D01*
G37*
G36*
G01X2214Y2867D02*
G01X2245Y2799D01*
G01X2281D01*
G01X2399Y2745D01*
G01X2413Y2738D01*
G01X2427Y2745D01*
G01X2545Y2799D01*
G01X2491Y2681D01*
G01X2484Y2667D01*
G01X2491Y2653D01*
G01X2545Y2535D01*
G01X2427Y2589D01*
G01X2413Y2596D01*
G01X2399Y2589D01*
G01X2281Y2535D01*
G01X2335Y2653D01*
G01X2342Y2667D01*
G01X2335Y2681D01*
G01X2281Y2799D01*
G01X2245D01*
G01X2305Y2667D01*
G01X2214Y2468D01*
G01X2413Y2559D01*
G01X2613Y2468D01*
G01X2521Y2667D01*
G01X2613Y2867D01*
G01X2413Y2775D01*
G37*
G36*
G01X19486Y3375D02*
G01X19517Y3307D01*
G01X19553D01*
G01X19671Y3253D01*
G01X19685Y3246D01*
G01X19699Y3253D01*
G01X19817Y3307D01*
G01X19763Y3189D01*
G01X19756Y3175D01*
G01X19763Y3161D01*
G01X19817Y3043D01*
G01X19699Y3097D01*
G01X19685Y3104D01*
G01X19671Y3097D01*
G01X19553Y3043D01*
G01X19607Y3161D01*
G01X19614Y3175D01*
G01X19607Y3189D01*
G01X19553Y3307D01*
G01X19517D01*
G01X19577Y3175D01*
G01X19486Y2976D01*
G01X19685Y3067D01*
G01X19885Y2976D01*
G01X19793Y3175D01*
G01X19885Y3375D01*
G01X19685Y3283D01*
G37*
G36*
G01X25963Y14805D02*
G01X25994Y14737D01*
G01X26030D01*
G01X26148Y14683D01*
G01X26162Y14676D01*
G01X26176Y14683D01*
G01X26294Y14737D01*
G01X26240Y14619D01*
G01X26233Y14605D01*
G01X26240Y14591D01*
G01X26294Y14473D01*
G01X26176Y14527D01*
G01X26162Y14534D01*
G01X26148Y14527D01*
G01X26030Y14473D01*
G01X26084Y14591D01*
G01X26091Y14605D01*
G01X26084Y14619D01*
G01X26030Y14737D01*
G01X25994D01*
G01X26054Y14605D01*
G01X25963Y14406D01*
G01X26162Y14497D01*
G01X26362Y14406D01*
G01X26270Y14605D01*
G01X26362Y14805D01*
G01X26162Y14713D01*
G37*
G36*
G01X25074Y11122D02*
G01X25105Y11054D01*
G01X25141D01*
G01X25259Y11000D01*
G01X25273Y10993D01*
G01X25287Y11000D01*
G01X25405Y11054D01*
G01X25351Y10936D01*
G01X25344Y10922D01*
G01X25351Y10908D01*
G01X25405Y10790D01*
G01X25287Y10844D01*
G01X25273Y10851D01*
G01X25259Y10844D01*
G01X25141Y10790D01*
G01X25195Y10908D01*
G01X25202Y10922D01*
G01X25195Y10936D01*
G01X25141Y11054D01*
G01X25105D01*
G01X25165Y10922D01*
G01X25074Y10723D01*
G01X25273Y10814D01*
G01X25473Y10723D01*
G01X25381Y10922D01*
G01X25473Y11122D01*
G01X25273Y11030D01*
G37*
G36*
G01X22661Y5317D02*
G01X22692Y5249D01*
G01X22728D01*
G01X22846Y5195D01*
G01X22860Y5188D01*
G01X22874Y5195D01*
G01X22992Y5249D01*
G01X22938Y5131D01*
G01X22931Y5117D01*
G01X22938Y5103D01*
G01X22992Y4986D01*
G01X22874Y5039D01*
G01X22860Y5046D01*
G01X22846Y5039D01*
G01X22728Y4986D01*
G01X22782Y5103D01*
G01X22789Y5117D01*
G01X22782Y5131D01*
G01X22728Y5249D01*
G01X22692D01*
G01X22752Y5117D01*
G01X22661Y4918D01*
G01X22860Y5009D01*
G01X23060Y4918D01*
G01X22968Y5117D01*
G01X23060Y5317D01*
G01X22860Y5225D01*
G37*
G36*
G01X25201Y2307D02*
G01X25232Y2239D01*
G01X25268D01*
G01X25386Y2185D01*
G01X25400Y2178D01*
G01X25414Y2185D01*
G01X25532Y2239D01*
G01X25478Y2121D01*
G01X25471Y2107D01*
G01X25478Y2093D01*
G01X25532Y1976D01*
G01X25414Y2029D01*
G01X25400Y2036D01*
G01X25386Y2029D01*
G01X25268Y1976D01*
G01X25322Y2093D01*
G01X25329Y2107D01*
G01X25322Y2121D01*
G01X25268Y2239D01*
G01X25232D01*
G01X25292Y2107D01*
G01X25201Y1908D01*
G01X25400Y1999D01*
G01X25600Y1908D01*
G01X25508Y2107D01*
G01X25600Y2307D01*
G01X25400Y2215D01*
G37*
G36*
G01X18597Y18742D02*
G01X18628Y18674D01*
G01X18664D01*
G01X18782Y18620D01*
G01X18796Y18613D01*
G01X18810Y18620D01*
G01X18928Y18674D01*
G01X18874Y18556D01*
G01X18867Y18542D01*
G01X18874Y18528D01*
G01X18928Y18410D01*
G01X18810Y18464D01*
G01X18796Y18471D01*
G01X18782Y18464D01*
G01X18664Y18410D01*
G01X18718Y18528D01*
G01X18725Y18542D01*
G01X18718Y18556D01*
G01X18664Y18674D01*
G01X18628D01*
G01X18688Y18542D01*
G01X18597Y18343D01*
G01X18796Y18434D01*
G01X18996Y18343D01*
G01X18904Y18542D01*
G01X18996Y18742D01*
G01X18796Y18650D01*
G37*
G36*
G01X19613Y19834D02*
G01X19644Y19766D01*
G01X19680D01*
G01X19798Y19712D01*
G01X19812Y19705D01*
G01X19826Y19712D01*
G01X19944Y19766D01*
G01X19890Y19648D01*
G01X19883Y19634D01*
G01X19890Y19620D01*
G01X19944Y19503D01*
G01X19826Y19556D01*
G01X19812Y19563D01*
G01X19798Y19556D01*
G01X19680Y19503D01*
G01X19734Y19620D01*
G01X19741Y19634D01*
G01X19734Y19648D01*
G01X19680Y19766D01*
G01X19644D01*
G01X19704Y19634D01*
G01X19613Y19435D01*
G01X19812Y19527D01*
G01X20012Y19435D01*
G01X19920Y19634D01*
G01X20012Y19834D01*
G01X19812Y19742D01*
G37*
G36*
G01X13643Y17472D02*
G01X13675Y17404D01*
G01X13711D01*
G01X13829Y17350D01*
G01X13843Y17343D01*
G01X13857Y17350D01*
G01X13975Y17404D01*
G01X13921Y17286D01*
G01X13914Y17272D01*
G01X13921Y17258D01*
G01X13975Y17140D01*
G01X13857Y17194D01*
G01X13843Y17201D01*
G01X13829Y17194D01*
G01X13711Y17140D01*
G01X13765Y17258D01*
G01X13772Y17272D01*
G01X13765Y17286D01*
G01X13711Y17404D01*
G01X13675D01*
G01X13735Y17272D01*
G01X13643Y17073D01*
G01X13843Y17164D01*
G01X14043Y17073D01*
G01X13951Y17272D01*
G01X14043Y17472D01*
G01X13843Y17380D01*
G37*
G36*
G01X17327Y16837D02*
G01X17358Y16769D01*
G01X17394D01*
G01X17512Y16715D01*
G01X17526Y16708D01*
G01X17540Y16715D01*
G01X17658Y16769D01*
G01X17604Y16651D01*
G01X17597Y16637D01*
G01X17604Y16623D01*
G01X17658Y16505D01*
G01X17540Y16559D01*
G01X17526Y16566D01*
G01X17512Y16559D01*
G01X17394Y16505D01*
G01X17448Y16623D01*
G01X17455Y16637D01*
G01X17448Y16651D01*
G01X17394Y16769D01*
G01X17358D01*
G01X17418Y16637D01*
G01X17327Y16438D01*
G01X17526Y16529D01*
G01X17726Y16438D01*
G01X17634Y16637D01*
G01X17726Y16837D01*
G01X17526Y16745D01*
G37*
G36*
G01X9214Y13344D02*
G01X9245Y13276D01*
G01X9282D01*
G01X9400Y13222D01*
G01X9414Y13216D01*
G01X9427Y13222D01*
G01X9545Y13276D01*
G01X9491Y13158D01*
G01X9485Y13145D01*
G01X9491Y13131D01*
G01X9545Y13013D01*
G01X9427Y13067D01*
G01X9414Y13073D01*
G01X9400Y13067D01*
G01X9282Y13013D01*
G01X9336Y13131D01*
G01X9342Y13145D01*
G01X9336Y13158D01*
G01X9282Y13276D01*
G01X9245D01*
G01X9306Y13145D01*
G01X9214Y12945D01*
G01X9414Y13037D01*
G01X9613Y12945D01*
G01X9521Y13145D01*
G01X9613Y13344D01*
G01X9414Y13252D01*
G37*
G36*
G01X10849Y14932D02*
G01X10881Y14864D01*
G01X10917D01*
G01X11035Y14810D01*
G01X11049Y14803D01*
G01X11063Y14810D01*
G01X11181Y14864D01*
G01X11127Y14746D01*
G01X11120Y14732D01*
G01X11127Y14718D01*
G01X11181Y14600D01*
G01X11063Y14654D01*
G01X11049Y14661D01*
G01X11035Y14654D01*
G01X10917Y14600D01*
G01X10971Y14718D01*
G01X10978Y14732D01*
G01X10971Y14746D01*
G01X10917Y14864D01*
G01X10881D01*
G01X10941Y14732D01*
G01X10849Y14533D01*
G01X11049Y14624D01*
G01X11249Y14533D01*
G01X11157Y14732D01*
G01X11249Y14932D01*
G01X11049Y14840D01*
G37*
G36*
G01X12881Y14932D02*
G01X12913Y14864D01*
G01X12949D01*
G01X13067Y14810D01*
G01X13081Y14803D01*
G01X13095Y14810D01*
G01X13213Y14864D01*
G01X13159Y14746D01*
G01X13152Y14732D01*
G01X13159Y14718D01*
G01X13213Y14600D01*
G01X13095Y14654D01*
G01X13081Y14661D01*
G01X13067Y14654D01*
G01X12949Y14600D01*
G01X13003Y14718D01*
G01X13010Y14732D01*
G01X13003Y14746D01*
G01X12949Y14864D01*
G01X12913D01*
G01X12973Y14732D01*
G01X12881Y14533D01*
G01X13081Y14624D01*
G01X13281Y14533D01*
G01X13189Y14732D01*
G01X13281Y14932D01*
G01X13081Y14840D01*
G37*
G36*
G01X14913Y14932D02*
G01X14945Y14864D01*
G01X14981D01*
G01X15099Y14810D01*
G01X15113Y14803D01*
G01X15127Y14810D01*
G01X15245Y14864D01*
G01X15191Y14746D01*
G01X15184Y14732D01*
G01X15191Y14718D01*
G01X15245Y14600D01*
G01X15127Y14654D01*
G01X15113Y14661D01*
G01X15099Y14654D01*
G01X14981Y14600D01*
G01X15035Y14718D01*
G01X15042Y14732D01*
G01X15035Y14746D01*
G01X14981Y14864D01*
G01X14945D01*
G01X15005Y14732D01*
G01X14913Y14533D01*
G01X15113Y14624D01*
G01X15313Y14533D01*
G01X15221Y14732D01*
G01X15313Y14932D01*
G01X15113Y14840D01*
G37*
G36*
G01X11865Y16075D02*
G01X11897Y16007D01*
G01X11933D01*
G01X12051Y15953D01*
G01X12065Y15946D01*
G01X12079Y15953D01*
G01X12197Y16007D01*
G01X12143Y15889D01*
G01X12136Y15875D01*
G01X12143Y15861D01*
G01X12197Y15743D01*
G01X12079Y15797D01*
G01X12065Y15804D01*
G01X12051Y15797D01*
G01X11933Y15743D01*
G01X11987Y15861D01*
G01X11994Y15875D01*
G01X11987Y15889D01*
G01X11933Y16007D01*
G01X11897D01*
G01X11957Y15875D01*
G01X11865Y15676D01*
G01X12065Y15767D01*
G01X12265Y15676D01*
G01X12173Y15875D01*
G01X12265Y16075D01*
G01X12065Y15983D01*
G37*
G36*
G01X13897Y16075D02*
G01X13929Y16007D01*
G01X13965D01*
G01X14083Y15953D01*
G01X14097Y15946D01*
G01X14111Y15953D01*
G01X14229Y16007D01*
G01X14175Y15889D01*
G01X14168Y15875D01*
G01X14175Y15861D01*
G01X14229Y15743D01*
G01X14111Y15797D01*
G01X14097Y15804D01*
G01X14083Y15797D01*
G01X13965Y15743D01*
G01X14019Y15861D01*
G01X14026Y15875D01*
G01X14019Y15889D01*
G01X13965Y16007D01*
G01X13929D01*
G01X13989Y15875D01*
G01X13897Y15676D01*
G01X14097Y15767D01*
G01X14297Y15676D01*
G01X14205Y15875D01*
G01X14297Y16075D01*
G01X14097Y15983D01*
G37*
G36*
G01X15929Y16075D02*
G01X15961Y16007D01*
G01X15997D01*
G01X16115Y15953D01*
G01X16129Y15946D01*
G01X16143Y15953D01*
G01X16261Y16007D01*
G01X16207Y15889D01*
G01X16200Y15875D01*
G01X16207Y15861D01*
G01X16261Y15743D01*
G01X16143Y15797D01*
G01X16129Y15804D01*
G01X16115Y15797D01*
G01X15997Y15743D01*
G01X16051Y15861D01*
G01X16058Y15875D01*
G01X16051Y15889D01*
G01X15997Y16007D01*
G01X15961D01*
G01X16021Y15875D01*
G01X15929Y15676D01*
G01X16129Y15767D01*
G01X16329Y15676D01*
G01X16237Y15875D01*
G01X16329Y16075D01*
G01X16129Y15983D01*
G37*
G36*
G01X7294Y11249D02*
G01X7325Y11181D01*
G01X7361D01*
G01X7479Y11127D01*
G01X7493Y11120D01*
G01X7507Y11127D01*
G01X7625Y11181D01*
G01X7571Y11063D01*
G01X7564Y11049D01*
G01X7571Y11035D01*
G01X7625Y10917D01*
G01X7507Y10971D01*
G01X7493Y10978D01*
G01X7479Y10971D01*
G01X7361Y10917D01*
G01X7415Y11035D01*
G01X7422Y11049D01*
G01X7415Y11063D01*
G01X7361Y11181D01*
G01X7325D01*
G01X7385Y11049D01*
G01X7294Y10850D01*
G01X7493Y10941D01*
G01X7693Y10850D01*
G01X7601Y11049D01*
G01X7693Y11249D01*
G01X7493Y11157D01*
G37*
G36*
G01X4373Y17599D02*
G01X4404Y17531D01*
G01X4440D01*
G01X4558Y17477D01*
G01X4572Y17470D01*
G01X4586Y17477D01*
G01X4704Y17531D01*
G01X4650Y17413D01*
G01X4643Y17399D01*
G01X4650Y17385D01*
G01X4704Y17267D01*
G01X4586Y17321D01*
G01X4572Y17328D01*
G01X4558Y17321D01*
G01X4440Y17267D01*
G01X4494Y17385D01*
G01X4501Y17399D01*
G01X4494Y17413D01*
G01X4440Y17531D01*
G01X4404D01*
G01X4464Y17399D01*
G01X4373Y17200D01*
G01X4572Y17291D01*
G01X4772Y17200D01*
G01X4680Y17399D01*
G01X4772Y17599D01*
G01X4572Y17507D01*
G37*
G36*
G01X4373Y15186D02*
G01X4404Y15118D01*
G01X4440D01*
G01X4558Y15064D01*
G01X4572Y15057D01*
G01X4586Y15064D01*
G01X4704Y15118D01*
G01X4650Y15000D01*
G01X4643Y14986D01*
G01X4650Y14972D01*
G01X4704Y14854D01*
G01X4586Y14908D01*
G01X4572Y14915D01*
G01X4558Y14908D01*
G01X4440Y14854D01*
G01X4494Y14972D01*
G01X4501Y14986D01*
G01X4494Y15000D01*
G01X4440Y15118D01*
G01X4404D01*
G01X4464Y14986D01*
G01X4373Y14787D01*
G01X4572Y14878D01*
G01X4772Y14787D01*
G01X4680Y14986D01*
G01X4772Y15186D01*
G01X4572Y15094D01*
G37*
G36*
G01X3611Y19631D02*
G01X3642Y19563D01*
G01X3678D01*
G01X3796Y19509D01*
G01X3810Y19502D01*
G01X3824Y19509D01*
G01X3942Y19563D01*
G01X3888Y19445D01*
G01X3881Y19431D01*
G01X3888Y19417D01*
G01X3942Y19299D01*
G01X3824Y19353D01*
G01X3810Y19360D01*
G01X3796Y19353D01*
G01X3678Y19299D01*
G01X3732Y19417D01*
G01X3739Y19431D01*
G01X3732Y19445D01*
G01X3678Y19563D01*
G01X3642D01*
G01X3702Y19431D01*
G01X3611Y19232D01*
G01X3810Y19323D01*
G01X4010Y19232D01*
G01X3918Y19431D01*
G01X4010Y19631D01*
G01X3810Y19539D01*
G37*
G36*
G01X10341Y25854D02*
G01X10373Y25786D01*
G01X10409D01*
G01X10527Y25732D01*
G01X10541Y25725D01*
G01X10555Y25732D01*
G01X10673Y25786D01*
G01X10619Y25668D01*
G01X10612Y25654D01*
G01X10619Y25640D01*
G01X10673Y25522D01*
G01X10555Y25576D01*
G01X10541Y25583D01*
G01X10527Y25576D01*
G01X10409Y25522D01*
G01X10463Y25640D01*
G01X10470Y25654D01*
G01X10463Y25668D01*
G01X10409Y25786D01*
G01X10373D01*
G01X10433Y25654D01*
G01X10341Y25455D01*
G01X10541Y25546D01*
G01X10741Y25455D01*
G01X10649Y25654D01*
G01X10741Y25854D01*
G01X10541Y25762D01*
G37*
G36*
G01X16438Y24076D02*
G01X16469Y24008D01*
G01X16505D01*
G01X16623Y23954D01*
G01X16637Y23947D01*
G01X16651Y23954D01*
G01X16769Y24008D01*
G01X16715Y23890D01*
G01X16708Y23876D01*
G01X16715Y23862D01*
G01X16769Y23744D01*
G01X16651Y23798D01*
G01X16637Y23805D01*
G01X16623Y23798D01*
G01X16505Y23744D01*
G01X16559Y23862D01*
G01X16566Y23876D01*
G01X16559Y23890D01*
G01X16505Y24008D01*
G01X16469D01*
G01X16529Y23876D01*
G01X16438Y23677D01*
G01X16637Y23768D01*
G01X16837Y23677D01*
G01X16745Y23876D01*
G01X16837Y24076D01*
G01X16637Y23984D01*
G37*
G36*
G01X14278Y25854D02*
G01X14310Y25786D01*
G01X14346D01*
G01X14464Y25732D01*
G01X14478Y25725D01*
G01X14492Y25732D01*
G01X14610Y25786D01*
G01X14556Y25668D01*
G01X14549Y25654D01*
G01X14556Y25640D01*
G01X14610Y25522D01*
G01X14492Y25576D01*
G01X14478Y25583D01*
G01X14464Y25576D01*
G01X14346Y25522D01*
G01X14400Y25640D01*
G01X14407Y25654D01*
G01X14400Y25668D01*
G01X14346Y25786D01*
G01X14310D01*
G01X14370Y25654D01*
G01X14278Y25455D01*
G01X14478Y25546D01*
G01X14678Y25455D01*
G01X14586Y25654D01*
G01X14678Y25854D01*
G01X14478Y25762D01*
G37*
G36*
G01X20883Y24076D02*
G01X20914Y24008D01*
G01X20950D01*
G01X21068Y23954D01*
G01X21082Y23947D01*
G01X21096Y23954D01*
G01X21214Y24008D01*
G01X21160Y23890D01*
G01X21153Y23876D01*
G01X21160Y23862D01*
G01X21214Y23744D01*
G01X21096Y23798D01*
G01X21082Y23805D01*
G01X21068Y23798D01*
G01X20950Y23744D01*
G01X21004Y23862D01*
G01X21011Y23876D01*
G01X21004Y23890D01*
G01X20950Y24008D01*
G01X20914D01*
G01X20974Y23876D01*
G01X20883Y23677D01*
G01X21082Y23768D01*
G01X21282Y23677D01*
G01X21190Y23876D01*
G01X21282Y24076D01*
G01X21082Y23984D01*
G37*
G36*
G01X20883Y21028D02*
G01X20914Y20960D01*
G01X20950D01*
G01X21068Y20906D01*
G01X21082Y20899D01*
G01X21096Y20906D01*
G01X21214Y20960D01*
G01X21160Y20842D01*
G01X21153Y20828D01*
G01X21160Y20814D01*
G01X21214Y20696D01*
G01X21096Y20750D01*
G01X21082Y20757D01*
G01X21068Y20750D01*
G01X20950Y20696D01*
G01X21004Y20814D01*
G01X21011Y20828D01*
G01X21004Y20842D01*
G01X20950Y20960D01*
G01X20914D01*
G01X20974Y20828D01*
G01X20883Y20629D01*
G01X21082Y20720D01*
G01X21282Y20629D01*
G01X21190Y20828D01*
G01X21282Y21028D01*
G01X21082Y20936D01*
G37*
G36*
G01X20883Y25854D02*
G01X20914Y25786D01*
G01X20950D01*
G01X21068Y25732D01*
G01X21082Y25725D01*
G01X21096Y25732D01*
G01X21214Y25786D01*
G01X21160Y25668D01*
G01X21153Y25654D01*
G01X21160Y25640D01*
G01X21214Y25522D01*
G01X21096Y25576D01*
G01X21082Y25583D01*
G01X21068Y25576D01*
G01X20950Y25522D01*
G01X21004Y25640D01*
G01X21011Y25654D01*
G01X21004Y25668D01*
G01X20950Y25786D01*
G01X20914D01*
G01X20974Y25654D01*
G01X20883Y25455D01*
G01X21082Y25546D01*
G01X21282Y25455D01*
G01X21190Y25654D01*
G01X21282Y25854D01*
G01X21082Y25762D01*
G37*
G36*
G01X8436Y9217D02*
G01X8468Y9149D01*
G01X8504D01*
G01X8622Y9095D01*
G01X8636Y9088D01*
G01X8650Y9095D01*
G01X8768Y9149D01*
G01X8714Y9031D01*
G01X8707Y9017D01*
G01X8714Y9003D01*
G01X8768Y8885D01*
G01X8650Y8939D01*
G01X8636Y8946D01*
G01X8622Y8939D01*
G01X8504Y8885D01*
G01X8558Y9003D01*
G01X8565Y9017D01*
G01X8558Y9031D01*
G01X8504Y9149D01*
G01X8468D01*
G01X8528Y9017D01*
G01X8436Y8818D01*
G01X8636Y8909D01*
G01X8836Y8818D01*
G01X8744Y9017D01*
G01X8836Y9217D01*
G01X8636Y9125D01*
G37*
G36*
G01X8436Y7693D02*
G01X8468Y7625D01*
G01X8504D01*
G01X8622Y7571D01*
G01X8636Y7564D01*
G01X8650Y7571D01*
G01X8768Y7625D01*
G01X8714Y7507D01*
G01X8707Y7493D01*
G01X8714Y7479D01*
G01X8768Y7361D01*
G01X8650Y7415D01*
G01X8636Y7422D01*
G01X8622Y7415D01*
G01X8504Y7361D01*
G01X8558Y7479D01*
G01X8565Y7493D01*
G01X8558Y7507D01*
G01X8504Y7625D01*
G01X8468D01*
G01X8528Y7493D01*
G01X8436Y7294D01*
G01X8636Y7385D01*
G01X8836Y7294D01*
G01X8744Y7493D01*
G01X8836Y7693D01*
G01X8636Y7601D01*
G37*
G36*
G01X3484Y4010D02*
G01X3515Y3942D01*
G01X3551D01*
G01X3669Y3888D01*
G01X3683Y3881D01*
G01X3697Y3888D01*
G01X3815Y3942D01*
G01X3761Y3824D01*
G01X3754Y3810D01*
G01X3761Y3796D01*
G01X3815Y3678D01*
G01X3697Y3732D01*
G01X3683Y3739D01*
G01X3669Y3732D01*
G01X3551Y3678D01*
G01X3605Y3796D01*
G01X3612Y3810D01*
G01X3605Y3824D01*
G01X3551Y3942D01*
G01X3515D01*
G01X3575Y3810D01*
G01X3484Y3611D01*
G01X3683Y3702D01*
G01X3883Y3611D01*
G01X3791Y3810D01*
G01X3883Y4010D01*
G01X3683Y3918D01*
G37*
G36*
G01X10849Y4010D02*
G01X10881Y3942D01*
G01X10917D01*
G01X11035Y3888D01*
G01X11049Y3881D01*
G01X11063Y3888D01*
G01X11181Y3942D01*
G01X11127Y3824D01*
G01X11120Y3810D01*
G01X11127Y3796D01*
G01X11181Y3678D01*
G01X11063Y3732D01*
G01X11049Y3739D01*
G01X11035Y3732D01*
G01X10917Y3678D01*
G01X10971Y3796D01*
G01X10978Y3810D01*
G01X10971Y3824D01*
G01X10917Y3942D01*
G01X10881D01*
G01X10941Y3810D01*
G01X10849Y3611D01*
G01X11049Y3702D01*
G01X11249Y3611D01*
G01X11157Y3810D01*
G01X11249Y4010D01*
G01X11049Y3918D01*
G37*
G36*
G01X7294Y2867D02*
G01X7325Y2799D01*
G01X7361D01*
G01X7479Y2745D01*
G01X7493Y2738D01*
G01X7507Y2745D01*
G01X7625Y2799D01*
G01X7571Y2681D01*
G01X7564Y2667D01*
G01X7571Y2653D01*
G01X7625Y2535D01*
G01X7507Y2589D01*
G01X7493Y2596D01*
G01X7479Y2589D01*
G01X7361Y2535D01*
G01X7415Y2653D01*
G01X7422Y2667D01*
G01X7415Y2681D01*
G01X7361Y2799D01*
G01X7325D01*
G01X7385Y2667D01*
G01X7294Y2468D01*
G01X7493Y2559D01*
G01X7693Y2468D01*
G01X7601Y2667D01*
G01X7693Y2867D01*
G01X7493Y2775D01*
G37*
G36*
G01X14151Y2994D02*
G01X14183Y2926D01*
G01X14219D01*
G01X14337Y2872D01*
G01X14351Y2865D01*
G01X14365Y2872D01*
G01X14483Y2926D01*
G01X14429Y2808D01*
G01X14422Y2794D01*
G01X14429Y2780D01*
G01X14483Y2662D01*
G01X14365Y2716D01*
G01X14351Y2723D01*
G01X14337Y2716D01*
G01X14219Y2662D01*
G01X14273Y2780D01*
G01X14280Y2794D01*
G01X14273Y2808D01*
G01X14219Y2926D01*
G01X14183D01*
G01X14243Y2794D01*
G01X14151Y2595D01*
G01X14351Y2686D01*
G01X14551Y2595D01*
G01X14459Y2794D01*
G01X14551Y2994D01*
G01X14351Y2902D01*
G37*
G36*
G01X25050Y8328D02*
G01X25081Y8260D01*
G01X25118D01*
G01X25236Y8206D01*
G01X25250Y8199D01*
G01X25263Y8206D01*
G01X25381Y8260D01*
G01X25327Y8142D01*
G01X25321Y8128D01*
G01X25327Y8114D01*
G01X25381Y7996D01*
G01X25263Y8050D01*
G01X25250Y8057D01*
G01X25236Y8050D01*
G01X25118Y7996D01*
G01X25172Y8114D01*
G01X25179Y8128D01*
G01X25172Y8142D01*
G01X25118Y8260D01*
G01X25081D01*
G01X25142Y8128D01*
G01X25050Y7929D01*
G01X25250Y8020D01*
G01X25449Y7929D01*
G01X25357Y8128D01*
G01X25449Y8328D01*
G01X25250Y8236D01*
G37*
G36*
G01X15421Y17726D02*
G01X15453Y17658D01*
G01X15489D01*
G01X15607Y17604D01*
G01X15621Y17597D01*
G01X15635Y17604D01*
G01X15753Y17658D01*
G01X15699Y17540D01*
G01X15692Y17526D01*
G01X15699Y17512D01*
G01X15753Y17394D01*
G01X15635Y17448D01*
G01X15621Y17455D01*
G01X15607Y17448D01*
G01X15489Y17394D01*
G01X15543Y17512D01*
G01X15550Y17526D01*
G01X15543Y17540D01*
G01X15489Y17658D01*
G01X15453D01*
G01X15513Y17526D01*
G01X15421Y17327D01*
G01X15621Y17418D01*
G01X15821Y17327D01*
G01X15729Y17526D01*
G01X15821Y17726D01*
G01X15621Y17634D01*
G37*
G36*
G01X20883Y17599D02*
G01X20914Y17531D01*
G01X20950D01*
G01X21068Y17477D01*
G01X21082Y17470D01*
G01X21096Y17477D01*
G01X21214Y17531D01*
G01X21160Y17413D01*
G01X21153Y17399D01*
G01X21160Y17385D01*
G01X21214Y17267D01*
G01X21096Y17321D01*
G01X21082Y17328D01*
G01X21068Y17321D01*
G01X20950Y17267D01*
G01X21004Y17385D01*
G01X21011Y17399D01*
G01X21004Y17413D01*
G01X20950Y17531D01*
G01X20914D01*
G01X20974Y17399D01*
G01X20883Y17200D01*
G01X21082Y17291D01*
G01X21282Y17200D01*
G01X21190Y17399D01*
G01X21282Y17599D01*
G01X21082Y17507D01*
G37*
G36*
G01X24439Y21028D02*
G01X24470Y20960D01*
G01X24506D01*
G01X24624Y20906D01*
G01X24638Y20899D01*
G01X24652Y20906D01*
G01X24770Y20960D01*
G01X24716Y20842D01*
G01X24709Y20828D01*
G01X24716Y20814D01*
G01X24770Y20696D01*
G01X24652Y20750D01*
G01X24638Y20757D01*
G01X24624Y20750D01*
G01X24506Y20696D01*
G01X24560Y20814D01*
G01X24567Y20828D01*
G01X24560Y20842D01*
G01X24506Y20960D01*
G01X24470D01*
G01X24530Y20828D01*
G01X24439Y20629D01*
G01X24638Y20720D01*
G01X24838Y20629D01*
G01X24746Y20828D01*
G01X24838Y21028D01*
G01X24638Y20936D01*
G37*
G36*
G01X1198Y9344D02*
G01X1229Y9276D01*
G01X1265D01*
G01X1383Y9222D01*
G01X1397Y9215D01*
G01X1411Y9222D01*
G01X1529Y9276D01*
G01X1475Y9158D01*
G01X1468Y9144D01*
G01X1475Y9130D01*
G01X1529Y9012D01*
G01X1411Y9066D01*
G01X1397Y9073D01*
G01X1383Y9066D01*
G01X1265Y9012D01*
G01X1319Y9130D01*
G01X1326Y9144D01*
G01X1319Y9158D01*
G01X1265Y9276D01*
G01X1229D01*
G01X1289Y9144D01*
G01X1198Y8945D01*
G01X1397Y9036D01*
G01X1597Y8945D01*
G01X1505Y9144D01*
G01X1597Y9344D01*
G01X1397Y9252D01*
G37*
G36*
G01X4627Y25854D02*
G01X4658Y25786D01*
G01X4694D01*
G01X4812Y25732D01*
G01X4826Y25725D01*
G01X4840Y25732D01*
G01X4958Y25786D01*
G01X4904Y25668D01*
G01X4897Y25654D01*
G01X4904Y25640D01*
G01X4958Y25522D01*
G01X4840Y25576D01*
G01X4826Y25583D01*
G01X4812Y25576D01*
G01X4694Y25522D01*
G01X4748Y25640D01*
G01X4755Y25654D01*
G01X4748Y25668D01*
G01X4694Y25786D01*
G01X4658D01*
G01X4718Y25654D01*
G01X4627Y25455D01*
G01X4826Y25546D01*
G01X5026Y25455D01*
G01X4934Y25654D01*
G01X5026Y25854D01*
G01X4826Y25762D01*
G37*
G36*
G01X11738Y11503D02*
G01X11770Y11435D01*
G01X11806D01*
G01X11924Y11381D01*
G01X11938Y11374D01*
G01X11952Y11381D01*
G01X12070Y11435D01*
G01X12016Y11317D01*
G01X12009Y11303D01*
G01X12016Y11289D01*
G01X12070Y11171D01*
G01X11952Y11225D01*
G01X11938Y11232D01*
G01X11924Y11225D01*
G01X11806Y11171D01*
G01X11860Y11289D01*
G01X11867Y11303D01*
G01X11860Y11317D01*
G01X11806Y11435D01*
G01X11770D01*
G01X11830Y11303D01*
G01X11738Y11104D01*
G01X11938Y11195D01*
G01X12138Y11104D01*
G01X12046Y11303D01*
G01X12138Y11503D01*
G01X11938Y11411D01*
G37*
G36*
G01X11738Y10487D02*
G01X11770Y10419D01*
G01X11806D01*
G01X11924Y10365D01*
G01X11938Y10358D01*
G01X11952Y10365D01*
G01X12070Y10419D01*
G01X12016Y10301D01*
G01X12009Y10287D01*
G01X12016Y10273D01*
G01X12070Y10155D01*
G01X11952Y10209D01*
G01X11938Y10216D01*
G01X11924Y10209D01*
G01X11806Y10155D01*
G01X11860Y10273D01*
G01X11867Y10287D01*
G01X11860Y10301D01*
G01X11806Y10419D01*
G01X11770D01*
G01X11830Y10287D01*
G01X11738Y10088D01*
G01X11938Y10179D01*
G01X12138Y10088D01*
G01X12046Y10287D01*
G01X12138Y10487D01*
G01X11938Y10395D01*
G37*
G36*
G01X11738Y9471D02*
G01X11770Y9403D01*
G01X11806D01*
G01X11924Y9349D01*
G01X11938Y9342D01*
G01X11952Y9349D01*
G01X12070Y9403D01*
G01X12016Y9285D01*
G01X12009Y9271D01*
G01X12016Y9257D01*
G01X12070Y9139D01*
G01X11952Y9193D01*
G01X11938Y9200D01*
G01X11924Y9193D01*
G01X11806Y9139D01*
G01X11860Y9257D01*
G01X11867Y9271D01*
G01X11860Y9285D01*
G01X11806Y9403D01*
G01X11770D01*
G01X11830Y9271D01*
G01X11738Y9072D01*
G01X11938Y9163D01*
G01X12138Y9072D01*
G01X12046Y9271D01*
G01X12138Y9471D01*
G01X11938Y9379D01*
G37*
G36*
G01X19359Y15567D02*
G01X19390Y15499D01*
G01X19426D01*
G01X19544Y15445D01*
G01X19558Y15438D01*
G01X19572Y15445D01*
G01X19690Y15499D01*
G01X19636Y15381D01*
G01X19629Y15367D01*
G01X19636Y15353D01*
G01X19690Y15235D01*
G01X19572Y15289D01*
G01X19558Y15296D01*
G01X19544Y15289D01*
G01X19426Y15235D01*
G01X19480Y15353D01*
G01X19487Y15367D01*
G01X19480Y15381D01*
G01X19426Y15499D01*
G01X19390D01*
G01X19450Y15367D01*
G01X19359Y15168D01*
G01X19558Y15259D01*
G01X19758Y15168D01*
G01X19666Y15367D01*
G01X19758Y15567D01*
G01X19558Y15475D01*
G37*
G36*
G01X5402Y9344D02*
G01X5434Y9276D01*
G01X5470D01*
G01X5587Y9222D01*
G01X5602Y9215D01*
G01X5615Y9222D01*
G01X5733Y9276D01*
G01X5679Y9158D01*
G01X5673Y9144D01*
G01X5679Y9130D01*
G01X5733Y9012D01*
G01X5615Y9066D01*
G01X5602Y9073D01*
G01X5587Y9066D01*
G01X5470Y9012D01*
G01X5524Y9130D01*
G01X5531Y9144D01*
G01X5524Y9158D01*
G01X5470Y9276D01*
G01X5434D01*
G01X5494Y9144D01*
G01X5402Y8945D01*
G01X5602Y9036D01*
G01X5801Y8945D01*
G01X5709Y9144D01*
G01X5801Y9344D01*
G01X5602Y9252D01*
G37*
G36*
G01X8690Y22044D02*
G01X8722Y21976D01*
G01X8758D01*
G01X8876Y21922D01*
G01X8890Y21915D01*
G01X8904Y21922D01*
G01X9022Y21976D01*
G01X8968Y21858D01*
G01X8961Y21844D01*
G01X8968Y21830D01*
G01X9022Y21712D01*
G01X8904Y21766D01*
G01X8890Y21773D01*
G01X8876Y21766D01*
G01X8758Y21712D01*
G01X8812Y21830D01*
G01X8819Y21844D01*
G01X8812Y21858D01*
G01X8758Y21976D01*
G01X8722D01*
G01X8782Y21844D01*
G01X8690Y21645D01*
G01X8890Y21736D01*
G01X9090Y21645D01*
G01X8998Y21844D01*
G01X9090Y22044D01*
G01X8890Y21952D01*
G37*
G36*
G01X9325Y6296D02*
G01X9357Y6228D01*
G01X9393D01*
G01X9511Y6174D01*
G01X9525Y6167D01*
G01X9539Y6174D01*
G01X9657Y6228D01*
G01X9603Y6110D01*
G01X9596Y6096D01*
G01X9603Y6082D01*
G01X9657Y5964D01*
G01X9539Y6018D01*
G01X9525Y6025D01*
G01X9511Y6018D01*
G01X9393Y5964D01*
G01X9447Y6082D01*
G01X9454Y6096D01*
G01X9447Y6110D01*
G01X9393Y6228D01*
G01X9357D01*
G01X9417Y6096D01*
G01X9325Y5897D01*
G01X9525Y5988D01*
G01X9725Y5897D01*
G01X9633Y6096D01*
G01X9725Y6296D01*
G01X9525Y6204D01*
G37*
G36*
G01X2468Y9344D02*
G01X2499Y9276D01*
G01X2535D01*
G01X2653Y9222D01*
G01X2667Y9215D01*
G01X2681Y9222D01*
G01X2799Y9276D01*
G01X2745Y9158D01*
G01X2738Y9144D01*
G01X2745Y9130D01*
G01X2799Y9012D01*
G01X2681Y9066D01*
G01X2667Y9073D01*
G01X2653Y9066D01*
G01X2535Y9012D01*
G01X2589Y9130D01*
G01X2596Y9144D01*
G01X2589Y9158D01*
G01X2535Y9276D01*
G01X2499D01*
G01X2559Y9144D01*
G01X2468Y8945D01*
G01X2667Y9036D01*
G01X2867Y8945D01*
G01X2775Y9144D01*
G01X2867Y9344D01*
G01X2667Y9252D01*
G37*
G36*
G01X11230Y6296D02*
G01X11262Y6228D01*
G01X11298D01*
G01X11416Y6174D01*
G01X11430Y6167D01*
G01X11444Y6174D01*
G01X11562Y6228D01*
G01X11508Y6110D01*
G01X11501Y6096D01*
G01X11508Y6082D01*
G01X11562Y5964D01*
G01X11444Y6018D01*
G01X11430Y6025D01*
G01X11416Y6018D01*
G01X11298Y5964D01*
G01X11352Y6082D01*
G01X11359Y6096D01*
G01X11352Y6110D01*
G01X11298Y6228D01*
G01X11262D01*
G01X11322Y6096D01*
G01X11230Y5897D01*
G01X11430Y5988D01*
G01X11630Y5897D01*
G01X11538Y6096D01*
G01X11630Y6296D01*
G01X11430Y6204D01*
G37*
G36*
G01X12627Y5661D02*
G01X12659Y5593D01*
G01X12695D01*
G01X12813Y5539D01*
G01X12827Y5532D01*
G01X12841Y5539D01*
G01X12959Y5593D01*
G01X12905Y5475D01*
G01X12898Y5461D01*
G01X12905Y5447D01*
G01X12959Y5329D01*
G01X12841Y5383D01*
G01X12827Y5390D01*
G01X12813Y5383D01*
G01X12695Y5329D01*
G01X12749Y5447D01*
G01X12756Y5461D01*
G01X12749Y5475D01*
G01X12695Y5593D01*
G01X12659D01*
G01X12719Y5461D01*
G01X12627Y5262D01*
G01X12827Y5353D01*
G01X13027Y5262D01*
G01X12935Y5461D01*
G01X13027Y5661D01*
G01X12827Y5569D01*
G37*
G36*
G01X14151Y5661D02*
G01X14183Y5593D01*
G01X14219D01*
G01X14337Y5539D01*
G01X14351Y5532D01*
G01X14365Y5539D01*
G01X14483Y5593D01*
G01X14429Y5475D01*
G01X14422Y5461D01*
G01X14429Y5447D01*
G01X14483Y5329D01*
G01X14365Y5383D01*
G01X14351Y5390D01*
G01X14337Y5383D01*
G01X14219Y5329D01*
G01X14273Y5447D01*
G01X14280Y5461D01*
G01X14273Y5475D01*
G01X14219Y5593D01*
G01X14183D01*
G01X14243Y5461D01*
G01X14151Y5262D01*
G01X14351Y5353D01*
G01X14551Y5262D01*
G01X14459Y5461D01*
G01X14551Y5661D01*
G01X14351Y5569D01*
G37*
G36*
G01X15675Y5661D02*
G01X15707Y5593D01*
G01X15743D01*
G01X15861Y5539D01*
G01X15875Y5532D01*
G01X15889Y5539D01*
G01X16007Y5593D01*
G01X15953Y5475D01*
G01X15946Y5461D01*
G01X15953Y5447D01*
G01X16007Y5329D01*
G01X15889Y5383D01*
G01X15875Y5390D01*
G01X15861Y5383D01*
G01X15743Y5329D01*
G01X15797Y5447D01*
G01X15804Y5461D01*
G01X15797Y5475D01*
G01X15743Y5593D01*
G01X15707D01*
G01X15767Y5461D01*
G01X15675Y5262D01*
G01X15875Y5353D01*
G01X16075Y5262D01*
G01X15983Y5461D01*
G01X16075Y5661D01*
G01X15875Y5569D01*
G37*
G36*
G01X12246Y8582D02*
G01X12278Y8514D01*
G01X12314D01*
G01X12432Y8460D01*
G01X12446Y8453D01*
G01X12460Y8460D01*
G01X12578Y8514D01*
G01X12524Y8396D01*
G01X12517Y8382D01*
G01X12524Y8368D01*
G01X12578Y8250D01*
G01X12460Y8304D01*
G01X12446Y8311D01*
G01X12432Y8304D01*
G01X12314Y8250D01*
G01X12368Y8368D01*
G01X12375Y8382D01*
G01X12368Y8396D01*
G01X12314Y8514D01*
G01X12278D01*
G01X12338Y8382D01*
G01X12246Y8183D01*
G01X12446Y8274D01*
G01X12646Y8183D01*
G01X12554Y8382D01*
G01X12646Y8582D01*
G01X12446Y8490D01*
G37*
G36*
G01X13135Y8074D02*
G01X13167Y8006D01*
G01X13203D01*
G01X13321Y7952D01*
G01X13335Y7945D01*
G01X13349Y7952D01*
G01X13467Y8006D01*
G01X13413Y7888D01*
G01X13406Y7874D01*
G01X13413Y7860D01*
G01X13467Y7742D01*
G01X13349Y7796D01*
G01X13335Y7803D01*
G01X13321Y7796D01*
G01X13203Y7742D01*
G01X13257Y7860D01*
G01X13264Y7874D01*
G01X13257Y7888D01*
G01X13203Y8006D01*
G01X13167D01*
G01X13227Y7874D01*
G01X13135Y7675D01*
G01X13335Y7766D01*
G01X13535Y7675D01*
G01X13443Y7874D01*
G01X13535Y8074D01*
G01X13335Y7982D01*
G37*
G36*
G01X14278Y8074D02*
G01X14310Y8006D01*
G01X14346D01*
G01X14464Y7952D01*
G01X14478Y7945D01*
G01X14492Y7952D01*
G01X14610Y8006D01*
G01X14556Y7888D01*
G01X14549Y7874D01*
G01X14556Y7860D01*
G01X14610Y7742D01*
G01X14492Y7796D01*
G01X14478Y7803D01*
G01X14464Y7796D01*
G01X14346Y7742D01*
G01X14400Y7860D01*
G01X14407Y7874D01*
G01X14400Y7888D01*
G01X14346Y8006D01*
G01X14310D01*
G01X14370Y7874D01*
G01X14278Y7675D01*
G01X14478Y7766D01*
G01X14678Y7675D01*
G01X14586Y7874D01*
G01X14678Y8074D01*
G01X14478Y7982D01*
G37*
G36*
G01X7294Y9979D02*
G01X7325Y9911D01*
G01X7361D01*
G01X7479Y9857D01*
G01X7493Y9850D01*
G01X7507Y9857D01*
G01X7625Y9911D01*
G01X7571Y9793D01*
G01X7564Y9779D01*
G01X7571Y9765D01*
G01X7625Y9647D01*
G01X7507Y9701D01*
G01X7493Y9708D01*
G01X7479Y9701D01*
G01X7361Y9647D01*
G01X7415Y9765D01*
G01X7422Y9779D01*
G01X7415Y9793D01*
G01X7361Y9911D01*
G01X7325D01*
G01X7385Y9779D01*
G01X7294Y9580D01*
G01X7493Y9671D01*
G01X7693Y9580D01*
G01X7601Y9779D01*
G01X7693Y9979D01*
G01X7493Y9887D01*
G37*
G36*
G01X12881Y13344D02*
G01X12913Y13276D01*
G01X12949D01*
G01X13067Y13222D01*
G01X13081Y13216D01*
G01X13095Y13222D01*
G01X13213Y13276D01*
G01X13159Y13158D01*
G01X13152Y13145D01*
G01X13159Y13131D01*
G01X13213Y13013D01*
G01X13095Y13067D01*
G01X13081Y13073D01*
G01X13067Y13067D01*
G01X12949Y13013D01*
G01X13003Y13131D01*
G01X13010Y13145D01*
G01X13003Y13158D01*
G01X12949Y13276D01*
G01X12913D01*
G01X12973Y13145D01*
G01X12881Y12945D01*
G01X13081Y13037D01*
G01X13281Y12945D01*
G01X13189Y13145D01*
G01X13281Y13344D01*
G01X13081Y13252D01*
G37*
G36*
G01X14278Y11503D02*
G01X14310Y11435D01*
G01X14346D01*
G01X14464Y11381D01*
G01X14478Y11374D01*
G01X14492Y11381D01*
G01X14610Y11435D01*
G01X14556Y11317D01*
G01X14549Y11303D01*
G01X14556Y11289D01*
G01X14610Y11171D01*
G01X14492Y11225D01*
G01X14478Y11232D01*
G01X14464Y11225D01*
G01X14346Y11171D01*
G01X14400Y11289D01*
G01X14407Y11303D01*
G01X14400Y11317D01*
G01X14346Y11435D01*
G01X14310D01*
G01X14370Y11303D01*
G01X14278Y11104D01*
G01X14478Y11195D01*
G01X14678Y11104D01*
G01X14586Y11303D01*
G01X14678Y11503D01*
G01X14478Y11411D01*
G37*
G36*
G01X14278Y10487D02*
G01X14310Y10419D01*
G01X14346D01*
G01X14464Y10365D01*
G01X14478Y10358D01*
G01X14492Y10365D01*
G01X14610Y10419D01*
G01X14556Y10301D01*
G01X14549Y10287D01*
G01X14556Y10273D01*
G01X14610Y10155D01*
G01X14492Y10209D01*
G01X14478Y10216D01*
G01X14464Y10209D01*
G01X14346Y10155D01*
G01X14400Y10273D01*
G01X14407Y10287D01*
G01X14400Y10301D01*
G01X14346Y10419D01*
G01X14310D01*
G01X14370Y10287D01*
G01X14278Y10088D01*
G01X14478Y10179D01*
G01X14678Y10088D01*
G01X14586Y10287D01*
G01X14678Y10487D01*
G01X14478Y10395D01*
G37*
G36*
G01X14278Y9344D02*
G01X14310Y9276D01*
G01X14346D01*
G01X14464Y9222D01*
G01X14478Y9215D01*
G01X14492Y9222D01*
G01X14610Y9276D01*
G01X14556Y9158D01*
G01X14549Y9144D01*
G01X14556Y9130D01*
G01X14610Y9012D01*
G01X14492Y9066D01*
G01X14478Y9073D01*
G01X14464Y9066D01*
G01X14346Y9012D01*
G01X14400Y9130D01*
G01X14407Y9144D01*
G01X14400Y9158D01*
G01X14346Y9276D01*
G01X14310D01*
G01X14370Y9144D01*
G01X14278Y8945D01*
G01X14478Y9036D01*
G01X14678Y8945D01*
G01X14586Y9144D01*
G01X14678Y9344D01*
G01X14478Y9252D01*
G37*
G36*
G01X18267Y6169D02*
G01X18298Y6101D01*
G01X18334D01*
G01X18452Y6047D01*
G01X18466Y6040D01*
G01X18480Y6047D01*
G01X18597Y6101D01*
G01X18544Y5983D01*
G01X18537Y5969D01*
G01X18544Y5955D01*
G01X18597Y5837D01*
G01X18480Y5891D01*
G01X18466Y5898D01*
G01X18452Y5891D01*
G01X18334Y5837D01*
G01X18388Y5955D01*
G01X18395Y5969D01*
G01X18388Y5983D01*
G01X18334Y6101D01*
G01X18298D01*
G01X18358Y5969D01*
G01X18267Y5770D01*
G01X18466Y5861D01*
G01X18665Y5770D01*
G01X18573Y5969D01*
G01X18665Y6169D01*
G01X18466Y6077D01*
G37*
G36*
G01X21518Y8201D02*
G01X21549Y8133D01*
G01X21585D01*
G01X21703Y8079D01*
G01X21717Y8072D01*
G01X21731Y8079D01*
G01X21849Y8133D01*
G01X21795Y8015D01*
G01X21788Y8001D01*
G01X21795Y7987D01*
G01X21849Y7869D01*
G01X21731Y7923D01*
G01X21717Y7930D01*
G01X21703Y7923D01*
G01X21585Y7869D01*
G01X21639Y7987D01*
G01X21646Y8001D01*
G01X21639Y8015D01*
G01X21585Y8133D01*
G01X21549D01*
G01X21609Y8001D01*
G01X21518Y7802D01*
G01X21717Y7893D01*
G01X21917Y7802D01*
G01X21825Y8001D01*
G01X21917Y8201D01*
G01X21717Y8109D01*
G37*
G36*
G01X19486Y10233D02*
G01X19517Y10165D01*
G01X19553D01*
G01X19671Y10111D01*
G01X19685Y10104D01*
G01X19699Y10111D01*
G01X19817Y10165D01*
G01X19763Y10047D01*
G01X19756Y10033D01*
G01X19763Y10019D01*
G01X19817Y9901D01*
G01X19699Y9955D01*
G01X19685Y9962D01*
G01X19671Y9955D01*
G01X19553Y9901D01*
G01X19607Y10019D01*
G01X19614Y10033D01*
G01X19607Y10047D01*
G01X19553Y10165D01*
G01X19517D01*
G01X19577Y10033D01*
G01X19486Y9834D01*
G01X19685Y9925D01*
G01X19885Y9834D01*
G01X19793Y10033D01*
G01X19885Y10233D01*
G01X19685Y10141D01*
G37*
G36*
G01X21518Y10233D02*
G01X21549Y10165D01*
G01X21585D01*
G01X21703Y10111D01*
G01X21717Y10104D01*
G01X21731Y10111D01*
G01X21849Y10165D01*
G01X21795Y10047D01*
G01X21788Y10033D01*
G01X21795Y10019D01*
G01X21849Y9901D01*
G01X21731Y9955D01*
G01X21717Y9962D01*
G01X21703Y9955D01*
G01X21585Y9901D01*
G01X21639Y10019D01*
G01X21646Y10033D01*
G01X21639Y10047D01*
G01X21585Y10165D01*
G01X21549D01*
G01X21609Y10033D01*
G01X21518Y9834D01*
G01X21717Y9925D01*
G01X21917Y9834D01*
G01X21825Y10033D01*
G01X21917Y10233D01*
G01X21717Y10141D01*
G37*
G36*
G01X19486Y8201D02*
G01X19517Y8133D01*
G01X19553D01*
G01X19671Y8079D01*
G01X19685Y8072D01*
G01X19699Y8079D01*
G01X19817Y8133D01*
G01X19763Y8015D01*
G01X19756Y8001D01*
G01X19763Y7987D01*
G01X19817Y7869D01*
G01X19699Y7923D01*
G01X19685Y7930D01*
G01X19671Y7923D01*
G01X19553Y7869D01*
G01X19607Y7987D01*
G01X19614Y8001D01*
G01X19607Y8015D01*
G01X19553Y8133D01*
G01X19517D01*
G01X19577Y8001D01*
G01X19486Y7802D01*
G01X19685Y7893D01*
G01X19885Y7802D01*
G01X19793Y8001D01*
G01X19885Y8201D01*
G01X19685Y8109D01*
G37*
G04 Image End*
G54D10*

M02*
