G04 Layer: InnerLayer1*
G04 EasyEDA Pro v1.7.31.78bc6e, 2022-08-09 17:47:50*
G04 Gerber Generator version 0.3*
G04 Scale: 100 percent, Rotated: No, Reflected: No*
G04 Dimensions in millimeters*
G04 Leading zeros omitted, absolute positions, 3 integers and 3 decimals*
%FSLAX33Y33*%
%MOMM*%
%ADD10C,0.610001*%
%ADD11C,1.2954*%
%ADD12C,0.6096*%
%ADD13C,1.397*%
G75*


G04 PlaneZone Start*
G36*
G01X26871Y2203D02*
G02X25102Y434I-1768J0D01*
G01X2152D01*
G02X384Y2203I0J1768D01*
G01Y25153D01*
G02X2152Y26921I1768J0D01*
G01X25102D01*
G02X26871Y25153I0J-1768D01*
G01Y2203D01*
G37*
%LPC*%
G36*
G01X10119Y13145D02*
G03X11024Y12240I904J0D01*
G03X11928Y13145I0J904D01*
G03X11024Y14049I-904J0D01*
G03X10119Y13145I0J-904D01*
G37*
G36*
G01X22603Y23114D02*
G03X23165Y22552I562J0D01*
G03X23726Y23114I0J562D01*
G03X23165Y23676I-562J0D01*
G03X22603Y23114I0J-562D01*
G37*
G36*
G01X13281Y17272D02*
G03X13843Y16710I562J0D01*
G03X14405Y17272I0J562D01*
G03X13843Y17834I-562J0D01*
G03X13281Y17272I0J-562D01*
G37*
G36*
G01X8328Y21844D02*
G03X8890Y21282I562J0D01*
G03X9452Y21844I0J562D01*
G03X8890Y22406I-562J0D01*
G03X8328Y21844I0J-562D01*
G37*
G36*
G01X19812Y19073D02*
G03X20374Y19634I0J562D01*
G03X19812Y20196I-562J0D01*
G03X19250Y19634I0J-562D01*
G03X19812Y19073I562J0D01*
G37*
G36*
G01X18234Y18542D02*
G03X18796Y17980I562J0D01*
G03X19358Y18542I0J562D01*
G03X18796Y19104I-562J0D01*
G03X18234Y18542I0J-562D01*
G37*
G36*
G01X23949Y14859D02*
G03X24511Y14297I562J0D01*
G03X25073Y14859I0J562D01*
G03X24511Y15421I-562J0D01*
G03X23949Y14859I0J-562D01*
G37*
G36*
G01X25273Y10360D02*
G03X25835Y10922I0J562D01*
G03X25273Y11484I-562J0D01*
G03X24711Y10922I0J-562D01*
G03X25273Y10360I562J0D01*
G37*
G36*
G01X17526Y16075D02*
G03X18088Y16637I0J562D01*
G03X17526Y17199I-562J0D01*
G03X16964Y16637I0J-562D01*
G03X17526Y16075I562J0D01*
G37*
G36*
G01X16129Y12583D02*
G03X16691Y13145I0J562D01*
G03X16129Y13706I-562J0D01*
G03X15567Y13145I0J-562D01*
G03X16129Y12583I562J0D01*
G37*
G36*
G01X26162Y14043D02*
G03X26724Y14605I0J562D01*
G03X26162Y15167I-562J0D01*
G03X25600Y14605I0J-562D01*
G03X26162Y14043I562J0D01*
G37*
G36*
G01X8509Y9763D02*
G03X9070Y10324I0J562D01*
G03X8509Y10886I-562J0D01*
G03X7947Y10324I0J-562D01*
G03X8509Y9763I562J0D01*
G37*
G36*
G01X7058Y22568D02*
G03X7620Y22006I562J0D01*
G03X8182Y22568I0J562D01*
G03X7620Y23129I-562J0D01*
G03X7058Y22568I0J-562D01*
G37*
G36*
G01X23441Y2413D02*
G03X24003Y1851I562J0D01*
G03X24565Y2413I0J562D01*
G03X24003Y2975I-562J0D01*
G03X23441Y2413I0J-562D01*
G37*
G36*
G01X25400Y1546D02*
G03X25962Y2107I0J562D01*
G03X25400Y2669I-562J0D01*
G03X24838Y2107I0J-562D01*
G03X25400Y1546I562J0D01*
G37*
G36*
G01X5040Y9144D02*
G03X5602Y8582I562J0D01*
G03X6163Y9144I0J562D01*
G03X5602Y9706I-562J0D01*
G03X5040Y9144I0J-562D01*
G37*
G36*
G01X22298Y5117D02*
G03X22860Y4556I562J0D01*
G03X23422Y5117I0J562D01*
G03X22860Y5679I-562J0D01*
G03X22298Y5117I0J-562D01*
G37*
G36*
G01X25400Y4264D02*
G03X25962Y4826I0J562D01*
G03X25400Y5388I-562J0D01*
G03X24838Y4826I0J-562D01*
G03X25400Y4264I562J0D01*
G37*
G36*
G01X5601Y3248D02*
G03X6162Y3810I0J562D01*
G03X5601Y4372I-562J0D01*
G03X5039Y3810I0J-562D01*
G03X5601Y3248I562J0D01*
G37*
%LPD*%
G04 PlaneZone End*

G04 Via Start*
G54D10*
G01X16129Y13145D03*
G01X2413Y2667D03*
G01X2413Y1651D03*
G01X1397Y2667D03*
G01X19685Y3175D03*
G54D11*
G01X11024Y13145D03*
G54D10*
G01X25400Y4826D03*
G01X24003Y2413D03*
G01X24511Y14859D03*
G01X26162Y14605D03*
G01X25273Y10922D03*
G01X22860Y5117D03*
G01X25400Y2107D03*
G01X8509Y10324D03*
G01X18796Y18542D03*
G01X19812Y19634D03*
G01X23165Y23114D03*
G01X13843Y17272D03*
G01X17526Y16637D03*
G01X7620Y22568D03*
G01X9414Y13145D03*
G01X11049Y14732D03*
G01X13081Y14732D03*
G01X15113Y14732D03*
G01X12065Y15875D03*
G01X14097Y15875D03*
G01X16129Y15875D03*
G01X7493Y11049D03*
G01X4572Y17399D03*
G01X4572Y14986D03*
G01X3810Y19431D03*
G01X10541Y25654D03*
G01X16637Y23876D03*
G01X14478Y25654D03*
G01X21082Y23876D03*
G01X21082Y20828D03*
G01X21082Y25654D03*
G01X8636Y9017D03*
G01X8636Y7493D03*
G01X3683Y3810D03*
G01X11049Y3810D03*
G01X7493Y2667D03*
G01X14351Y2794D03*
G01X25250Y8128D03*
G01X15621Y17526D03*
G01X21082Y17399D03*
G01X24638Y20828D03*
G01X1397Y9144D03*
G01X1397Y25654D03*
G01X4826Y25654D03*
G01X11938Y11303D03*
G01X11938Y10287D03*
G01X11938Y9271D03*
G01X19558Y15367D03*
G01X5602Y9144D03*
G01X8890Y21844D03*
G01X9525Y6096D03*
G01X2667Y9144D03*
G01X5601Y3810D03*
G01X11430Y6096D03*
G01X12827Y5461D03*
G01X14351Y5461D03*
G01X15875Y5461D03*
G01X12446Y8382D03*
G01X13335Y7874D03*
G01X14478Y7874D03*
G01X7493Y9779D03*
G01X13081Y13145D03*
G01X14478Y11303D03*
G01X14478Y10287D03*
G01X14478Y9144D03*
G01X18466Y5969D03*
G54D12*
G01X21717Y8001D03*
G01X19685Y10033D03*
G54D13*
G01X20701Y9017D03*
G54D12*
G01X21717Y10033D03*
G01X19685Y8001D03*
G04 Via End*

M02*
