G04 Layer: TopSolderMaskLayer*
G04 EasyEDA Pro v1.7.31.78bc6e, 2022-08-09 17:47:50*
G04 Gerber Generator version 0.3*
G04 Scale: 100 percent, Rotated: No, Reflected: No*
G04 Dimensions in millimeters*
G04 Leading zeros omitted, absolute positions, 3 integers and 3 decimals*
%FSLAX33Y33*%
%MOMM*%
%ADD10C,0.8128*%
%ADD11O,1.846605X0.661594*%
G75*


G04 Pad Start*
G54D10*
G01X16383Y18542D03*
G01X17018Y19634D03*
G01X24511Y26162D03*
G01X24511Y24130D03*
G01X24511Y25146D03*
G01X24511Y23114D03*
G36*
G01X18720Y6883D02*
G01X18720Y6579D01*
G03X18821Y6477I102J0D01*
G01X18923D01*
G03X19025Y6579I0J102D01*
G01Y6883D01*
G03X18923Y6985I-102J0D01*
G01X18821D01*
G03X18720Y6883I0J-102D01*
G37*
G36*
G01X19126Y6883D02*
G01X19126Y6579D01*
G03X19228Y6477I102J0D01*
G01X19329D01*
G03X19431Y6579I0J102D01*
G01Y6883D01*
G03X19329Y6985I-102J0D01*
G01X19228D01*
G03X19126Y6883I0J-102D01*
G37*
G36*
G01X19533Y6883D02*
G01X19533Y6579D01*
G03X19634Y6477I102J0D01*
G01X19736D01*
G03X19837Y6579I0J102D01*
G01Y6883D01*
G03X19736Y6985I-102J0D01*
G01X19634D01*
G03X19533Y6883I0J-102D01*
G37*
G36*
G01X19939Y6883D02*
G01X19939Y6579D01*
G03X20041Y6477I102J0D01*
G01X20142D01*
G03X20244Y6579I0J102D01*
G01Y6883D01*
G03X20142Y6985I-102J0D01*
G01X20041D01*
G03X19939Y6883I0J-102D01*
G37*
G36*
G01X20345Y6883D02*
G01X20345Y6579D01*
G03X20447Y6477I102J0D01*
G01X20549D01*
G03X20650Y6579I0J102D01*
G01Y6883D01*
G03X20549Y6985I-102J0D01*
G01X20447D01*
G03X20345Y6883I0J-102D01*
G37*
G36*
G01X20752Y6883D02*
G01X20752Y6579D01*
G03X20853Y6477I102J0D01*
G01X20955D01*
G03X21057Y6579I0J102D01*
G01Y6883D01*
G03X20955Y6985I-102J0D01*
G01X20853D01*
G03X20752Y6883I0J-102D01*
G37*
G36*
G01X21158Y6883D02*
G01X21158Y6579D01*
G03X21260Y6477I102J0D01*
G01X21361D01*
G03X21463Y6579I0J102D01*
G01Y6883D01*
G03X21361Y6985I-102J0D01*
G01X21260D01*
G03X21158Y6883I0J-102D01*
G37*
G36*
G01X21565Y6883D02*
G01X21565Y6579D01*
G03X21666Y6477I102J0D01*
G01X21768D01*
G03X21869Y6579I0J102D01*
G01Y6883D01*
G03X21768Y6985I-102J0D01*
G01X21666D01*
G03X21565Y6883I0J-102D01*
G37*
G36*
G01X21971Y6883D02*
G01X21971Y6579D01*
G03X22073Y6477I102J0D01*
G01X22174D01*
G03X22276Y6579I0J102D01*
G01Y6883D01*
G03X22174Y6985I-102J0D01*
G01X22073D01*
G03X21971Y6883I0J-102D01*
G37*
G36*
G01X22377Y6883D02*
G01X22377Y6579D01*
G03X22479Y6477I102J0D01*
G01X22581D01*
G03X22682Y6579I0J102D01*
G01Y6883D01*
G03X22581Y6985I-102J0D01*
G01X22479D01*
G03X22377Y6883I0J-102D01*
G37*
G36*
G01X22733Y7239D02*
G01X22733Y7137D01*
G03X22835Y7036I102J0D01*
G01X23139D01*
G03X23241Y7137I0J102D01*
G01Y7239D01*
G03X23139Y7341I-102J0D01*
G01X22835D01*
G03X22733Y7239I0J-102D01*
G37*
G36*
G01X22733Y7645D02*
G01X22733Y7544D01*
G03X22835Y7442I102J0D01*
G01X23139D01*
G03X23241Y7544I0J102D01*
G01Y7645D01*
G03X23139Y7747I-102J0D01*
G01X22835D01*
G03X22733Y7645I0J-102D01*
G37*
G36*
G01X22733Y8052D02*
G01X22733Y7950D01*
G03X22835Y7849I102J0D01*
G01X23139D01*
G03X23241Y7950I0J102D01*
G01Y8052D01*
G03X23139Y8153I-102J0D01*
G01X22835D01*
G03X22733Y8052I0J-102D01*
G37*
G36*
G01X22733Y8458D02*
G01X22733Y8357D01*
G03X22835Y8255I102J0D01*
G01X23139D01*
G03X23241Y8357I0J102D01*
G01Y8458D01*
G03X23139Y8560I-102J0D01*
G01X22835D01*
G03X22733Y8458I0J-102D01*
G37*
G36*
G01X22733Y8865D02*
G01X22733Y8763D01*
G03X22835Y8661I102J0D01*
G01X23139D01*
G03X23241Y8763I0J102D01*
G01Y8865D01*
G03X23139Y8966I-102J0D01*
G01X22835D01*
G03X22733Y8865I0J-102D01*
G37*
G36*
G01X22733Y9271D02*
G01X22733Y9169D01*
G03X22835Y9068I102J0D01*
G01X23139D01*
G03X23241Y9169I0J102D01*
G01Y9271D01*
G03X23139Y9373I-102J0D01*
G01X22835D01*
G03X22733Y9271I0J-102D01*
G37*
G36*
G01X22733Y9677D02*
G01X22733Y9576D01*
G03X22835Y9474I102J0D01*
G01X23139D01*
G03X23241Y9576I0J102D01*
G01Y9677D01*
G03X23139Y9779I-102J0D01*
G01X22835D01*
G03X22733Y9677I0J-102D01*
G37*
G36*
G01X22733Y10084D02*
G01X22733Y9982D01*
G03X22835Y9881I102J0D01*
G01X23139D01*
G03X23241Y9982I0J102D01*
G01Y10084D01*
G03X23139Y10185I-102J0D01*
G01X22835D01*
G03X22733Y10084I0J-102D01*
G37*
G36*
G01X22733Y10490D02*
G01X22733Y10389D01*
G03X22835Y10287I102J0D01*
G01X23139D01*
G03X23241Y10389I0J102D01*
G01Y10490D01*
G03X23139Y10592I-102J0D01*
G01X22835D01*
G03X22733Y10490I0J-102D01*
G37*
G36*
G01X22733Y10897D02*
G01X22733Y10795D01*
G03X22835Y10693I102J0D01*
G01X23139D01*
G03X23241Y10795I0J102D01*
G01Y10897D01*
G03X23139Y10998I-102J0D01*
G01X22835D01*
G03X22733Y10897I0J-102D01*
G37*
G36*
G01X22377Y11455D02*
G01X22377Y11151D01*
G03X22479Y11049I102J0D01*
G01X22581D01*
G03X22682Y11151I0J102D01*
G01Y11455D01*
G03X22581Y11557I-102J0D01*
G01X22479D01*
G03X22377Y11455I0J-102D01*
G37*
G36*
G01X21971Y11455D02*
G01X21971Y11151D01*
G03X22073Y11049I102J0D01*
G01X22174D01*
G03X22276Y11151I0J102D01*
G01Y11455D01*
G03X22174Y11557I-102J0D01*
G01X22073D01*
G03X21971Y11455I0J-102D01*
G37*
G36*
G01X21565Y11455D02*
G01X21565Y11151D01*
G03X21666Y11049I102J0D01*
G01X21768D01*
G03X21869Y11151I0J102D01*
G01Y11455D01*
G03X21768Y11557I-102J0D01*
G01X21666D01*
G03X21565Y11455I0J-102D01*
G37*
G36*
G01X21158Y11455D02*
G01X21158Y11151D01*
G03X21260Y11049I102J0D01*
G01X21361D01*
G03X21463Y11151I0J102D01*
G01Y11455D01*
G03X21361Y11557I-102J0D01*
G01X21260D01*
G03X21158Y11455I0J-102D01*
G37*
G36*
G01X20752Y11455D02*
G01X20752Y11151D01*
G03X20853Y11049I102J0D01*
G01X20955D01*
G03X21057Y11151I0J102D01*
G01Y11455D01*
G03X20955Y11557I-102J0D01*
G01X20853D01*
G03X20752Y11455I0J-102D01*
G37*
G36*
G01X20345Y11455D02*
G01X20345Y11151D01*
G03X20447Y11049I102J0D01*
G01X20549D01*
G03X20650Y11151I0J102D01*
G01Y11455D01*
G03X20549Y11557I-102J0D01*
G01X20447D01*
G03X20345Y11455I0J-102D01*
G37*
G36*
G01X19939Y11455D02*
G01X19939Y11151D01*
G03X20041Y11049I102J0D01*
G01X20142D01*
G03X20244Y11151I0J102D01*
G01Y11455D01*
G03X20142Y11557I-102J0D01*
G01X20041D01*
G03X19939Y11455I0J-102D01*
G37*
G36*
G01X19533Y11455D02*
G01X19533Y11151D01*
G03X19634Y11049I102J0D01*
G01X19736D01*
G03X19837Y11151I0J102D01*
G01Y11455D01*
G03X19736Y11557I-102J0D01*
G01X19634D01*
G03X19533Y11455I0J-102D01*
G37*
G36*
G01X19126Y11455D02*
G01X19126Y11151D01*
G03X19228Y11049I102J0D01*
G01X19329D01*
G03X19431Y11151I0J102D01*
G01Y11455D01*
G03X19329Y11557I-102J0D01*
G01X19228D01*
G03X19126Y11455I0J-102D01*
G37*
G36*
G01X18720Y11455D02*
G01X18720Y11151D01*
G03X18821Y11049I102J0D01*
G01X18923D01*
G03X19025Y11151I0J102D01*
G01Y11455D01*
G03X18923Y11557I-102J0D01*
G01X18821D01*
G03X18720Y11455I0J-102D01*
G37*
G36*
G01X18161Y10897D02*
G01X18161Y10795D01*
G03X18263Y10693I102J0D01*
G01X18567D01*
G03X18669Y10795I0J102D01*
G01Y10897D01*
G03X18567Y10998I-102J0D01*
G01X18263D01*
G03X18161Y10897I0J-102D01*
G37*
G36*
G01X18161Y10490D02*
G01X18161Y10389D01*
G03X18263Y10287I102J0D01*
G01X18567D01*
G03X18669Y10389I0J102D01*
G01Y10490D01*
G03X18567Y10592I-102J0D01*
G01X18263D01*
G03X18161Y10490I0J-102D01*
G37*
G36*
G01X18161Y10084D02*
G01X18161Y9982D01*
G03X18263Y9881I102J0D01*
G01X18567D01*
G03X18669Y9982I0J102D01*
G01Y10084D01*
G03X18567Y10185I-102J0D01*
G01X18263D01*
G03X18161Y10084I0J-102D01*
G37*
G36*
G01X18161Y9677D02*
G01X18161Y9576D01*
G03X18263Y9474I102J0D01*
G01X18567D01*
G03X18669Y9576I0J102D01*
G01Y9677D01*
G03X18567Y9779I-102J0D01*
G01X18263D01*
G03X18161Y9677I0J-102D01*
G37*
G36*
G01X18161Y9271D02*
G01X18161Y9169D01*
G03X18263Y9068I102J0D01*
G01X18567D01*
G03X18669Y9169I0J102D01*
G01Y9271D01*
G03X18567Y9373I-102J0D01*
G01X18263D01*
G03X18161Y9271I0J-102D01*
G37*
G36*
G01X18161Y8865D02*
G01X18161Y8763D01*
G03X18263Y8661I102J0D01*
G01X18567D01*
G03X18669Y8763I0J102D01*
G01Y8865D01*
G03X18567Y8966I-102J0D01*
G01X18263D01*
G03X18161Y8865I0J-102D01*
G37*
G36*
G01X18161Y8458D02*
G01X18161Y8357D01*
G03X18263Y8255I102J0D01*
G01X18567D01*
G03X18669Y8357I0J102D01*
G01Y8458D01*
G03X18567Y8560I-102J0D01*
G01X18263D01*
G03X18161Y8458I0J-102D01*
G37*
G36*
G01X18161Y8052D02*
G01X18161Y7950D01*
G03X18263Y7849I102J0D01*
G01X18567D01*
G03X18669Y7950I0J102D01*
G01Y8052D01*
G03X18567Y8153I-102J0D01*
G01X18263D01*
G03X18161Y8052I0J-102D01*
G37*
G36*
G01X18161Y7645D02*
G01X18161Y7544D01*
G03X18263Y7442I102J0D01*
G01X18567D01*
G03X18669Y7544I0J102D01*
G01Y7645D01*
G03X18567Y7747I-102J0D01*
G01X18263D01*
G03X18161Y7645I0J-102D01*
G37*
G36*
G01X18161Y7239D02*
G01X18161Y7137D01*
G03X18263Y7036I102J0D01*
G01X18567D01*
G03X18669Y7137I0J102D01*
G01Y7239D01*
G03X18567Y7341I-102J0D01*
G01X18263D01*
G03X18161Y7239I0J-102D01*
G37*
G36*
G01X10524Y8305D02*
G01X10725Y8305D01*
G03X10776Y8355I0J51D01*
G01Y8556D01*
G03X10725Y8607I-51J0D01*
G01X10524D01*
G03X10474Y8556I0J-51D01*
G01Y8355D01*
G03X10524Y8305I51J0D01*
G37*
G36*
G01X10923Y8305D02*
G01X11124Y8305D01*
G03X11175Y8355I0J51D01*
G01Y8556D01*
G03X11124Y8607I-51J0D01*
G01X10923D01*
G03X10872Y8556I0J-51D01*
G01Y8355D01*
G03X10923Y8305I51J0D01*
G37*
G36*
G01X11325Y8305D02*
G01X11525Y8305D01*
G03X11576Y8355I0J51D01*
G01Y8556D01*
G03X11525Y8607I-51J0D01*
G01X11325D01*
G03X11274Y8556I0J-51D01*
G01Y8355D01*
G03X11325Y8305I51J0D01*
G37*
G36*
G01X11325Y7903D02*
G01X11525Y7903D01*
G03X11576Y7954I0J51D01*
G01Y8155D01*
G03X11525Y8205I-51J0D01*
G01X11325D01*
G03X11274Y8155I0J-51D01*
G01Y7954D01*
G03X11325Y7903I51J0D01*
G37*
G36*
G01X10923Y7903D02*
G01X11124Y7903D01*
G03X11175Y7954I0J51D01*
G01Y8155D01*
G03X11124Y8205I-51J0D01*
G01X10923D01*
G03X10872Y8155I0J-51D01*
G01Y7954D01*
G03X10923Y7903I51J0D01*
G37*
G36*
G01X10524Y7903D02*
G01X10725Y7903D01*
G03X10776Y7954I0J51D01*
G01Y8155D01*
G03X10725Y8205I-51J0D01*
G01X10524D01*
G03X10474Y8155I0J-51D01*
G01Y7954D01*
G03X10524Y7903I51J0D01*
G37*
G36*
G01X13289Y6810D02*
G01X13289Y6485D01*
G03X13339Y6435I50J0D01*
G01X13639D01*
G03X13689Y6485I0J50D01*
G01Y6810D01*
G03X13639Y6860I-50J0D01*
G01X13339D01*
G03X13289Y6810I0J-50D01*
G37*
G36*
G01X14196Y6773D02*
G01X14196Y7098D01*
G03X14146Y7148I-50J0D01*
G01X13846D01*
G03X13796Y7098I0J-50D01*
G01Y6773D01*
G03X13846Y6723I50J0D01*
G01X14146D01*
G03X14196Y6773I0J50D01*
G37*
G36*
G01X14301Y7098D02*
G01X14301Y6773D01*
G03X14351Y6723I50J0D01*
G01X14651D01*
G03X14701Y6773I0J50D01*
G01Y7098D01*
G03X14651Y7148I-50J0D01*
G01X14351D01*
G03X14301Y7098I0J-50D01*
G37*
G36*
G01X14301Y6522D02*
G01X14301Y6197D01*
G03X14351Y6147I50J0D01*
G01X14651D01*
G03X14701Y6197I0J50D01*
G01Y6522D01*
G03X14651Y6572I-50J0D01*
G01X14351D01*
G03X14301Y6522I0J-50D01*
G37*
G36*
G01X14196Y6197D02*
G01X14196Y6522D01*
G03X14146Y6572I-50J0D01*
G01X13846D01*
G03X13796Y6522I0J-50D01*
G01Y6197D01*
G03X13846Y6147I50J0D01*
G01X14146D01*
G03X14196Y6197I0J50D01*
G37*
G36*
G01X23915Y6278D02*
G01X25615Y6278D01*
G03X25665Y6328I0J51D01*
G01Y7377D01*
G03X25615Y7428I-51J0D01*
G01X23915D01*
G03X23865Y7377I0J-51D01*
G01Y6328D01*
G03X23915Y6278I51J0D01*
G37*
G36*
G01X23915Y8828D02*
G01X25615Y8828D01*
G03X25665Y8879I0J51D01*
G01Y9928D01*
G03X25615Y9978I-51J0D01*
G01X23915D01*
G03X23865Y9928I0J-51D01*
G01Y8879D01*
G03X23915Y8828I51J0D01*
G37*
G36*
G01X20949Y1675D02*
G01X20949Y2176D01*
G03X20898Y2226I-51J0D01*
G01X20072D01*
G03X20022Y2176I0J-51D01*
G01Y1675D01*
G03X20072Y1624I51J0D01*
G01X20898D01*
G03X20949Y1675I0J51D01*
G37*
G36*
G01X20949Y4174D02*
G01X20949Y4675D01*
G03X20898Y4726I-51J0D01*
G01X20072D01*
G03X20022Y4675I0J-51D01*
G01Y4174D01*
G03X20072Y4124I51J0D01*
G01X20898D01*
G03X20949Y4174I0J51D01*
G37*
G36*
G01X19348Y4174D02*
G01X19348Y4675D01*
G03X19298Y4726I-51J0D01*
G01X18472D01*
G03X18421Y4675I0J-51D01*
G01Y4174D01*
G03X18472Y4124I51J0D01*
G01X19298D01*
G03X19348Y4174I0J51D01*
G37*
G36*
G01X19348Y1675D02*
G01X19348Y2176D01*
G03X19298Y2226I-51J0D01*
G01X18472D01*
G03X18421Y2176I0J-51D01*
G01Y1675D01*
G03X18472Y1624I51J0D01*
G01X19298D01*
G03X19348Y1675I0J51D01*
G37*
G36*
G01X18899Y3576D02*
G01X18470Y3576D01*
G03X18419Y3526I0J-51D01*
G01Y2824D01*
G03X18470Y2774I51J0D01*
G01X18899D01*
G03X18950Y2824I0J51D01*
G01Y3526D01*
G03X18899Y3576I-51J0D01*
G37*
G36*
G01X20900Y3576D02*
G01X20471Y3576D01*
G03X20420Y3526I0J-51D01*
G01Y2824D01*
G03X20471Y2774I51J0D01*
G01X20900D01*
G03X20951Y2824I0J51D01*
G01Y3526D01*
G03X20900Y3576I-51J0D01*
G37*
G36*
G01X13827Y20165D02*
G01X14367Y20165D01*
G03X14418Y20216I0J51D01*
G01Y20782D01*
G03X14367Y20832I-51J0D01*
G01X13827D01*
G03X13776Y20782I0J-51D01*
G01Y20216D01*
G03X13827Y20165I51J0D01*
G37*
G36*
G01X13827Y19300D02*
G01X14367Y19300D01*
G03X14418Y19350I0J51D01*
G01Y19916D01*
G03X14367Y19967I-51J0D01*
G01X13827D01*
G03X13776Y19916I0J-51D01*
G01Y19350D01*
G03X13827Y19300I51J0D01*
G37*
G36*
G01X15097Y20165D02*
G01X15637Y20165D01*
G03X15688Y20216I0J51D01*
G01Y20782D01*
G03X15637Y20832I-51J0D01*
G01X15097D01*
G03X15046Y20782I0J-51D01*
G01Y20216D01*
G03X15097Y20165I51J0D01*
G37*
G36*
G01X15097Y19300D02*
G01X15637Y19300D01*
G03X15688Y19350I0J51D01*
G01Y19916D01*
G03X15637Y19967I-51J0D01*
G01X15097D01*
G03X15046Y19916I0J-51D01*
G01Y19350D01*
G03X15097Y19300I51J0D01*
G37*
G36*
G01X17184Y7096D02*
G01X17184Y6772D01*
G03X17235Y6721I51J0D01*
G01X17604D01*
G03X17654Y6772I0J51D01*
G01Y7096D01*
G03X17604Y7147I-51J0D01*
G01X17235D01*
G03X17184Y7096I0J-51D01*
G37*
G36*
G01X16636Y7096D02*
G01X16636Y6772D01*
G03X16686Y6721I51J0D01*
G01X17055D01*
G03X17106Y6772I0J51D01*
G01Y7096D01*
G03X17055Y7147I-51J0D01*
G01X16686D01*
G03X16636Y7096I0J-51D01*
G37*
G36*
G01X17106Y5807D02*
G01X17106Y6131D01*
G03X17055Y6182I-51J0D01*
G01X16686D01*
G03X16636Y6131I0J-51D01*
G01Y5807D01*
G03X16686Y5756I51J0D01*
G01X17055D01*
G03X17106Y5807I0J51D01*
G37*
G36*
G01X17654Y5807D02*
G01X17654Y6131D01*
G03X17604Y6182I-51J0D01*
G01X17235D01*
G03X17184Y6131I0J-51D01*
G01Y5807D01*
G03X17235Y5756I51J0D01*
G01X17604D01*
G03X17654Y5807I0J51D01*
G37*
G36*
G01X15629Y7096D02*
G01X15629Y6772D01*
G03X15680Y6721I51J0D01*
G01X16048D01*
G03X16099Y6772I0J51D01*
G01Y7096D01*
G03X16048Y7147I-51J0D01*
G01X15680D01*
G03X15629Y7096I0J-51D01*
G37*
G36*
G01X15080Y7096D02*
G01X15080Y6772D01*
G03X15131Y6721I51J0D01*
G01X15499D01*
G03X15550Y6772I0J51D01*
G01Y7096D01*
G03X15499Y7147I-51J0D01*
G01X15131D01*
G03X15080Y7096I0J-51D01*
G37*
G36*
G01X12106Y7056D02*
G01X12314Y7305D01*
G03X12308Y7376I-39J33D01*
G01X12026Y7613D01*
G03X11954Y7607I-33J-39D01*
G01X11746Y7358D01*
G03X11752Y7287I39J-33D01*
G01X12035Y7050D01*
G03X12106Y7056I33J39D01*
G37*
G36*
G01X12526Y6704D02*
G01X12735Y6952D01*
G03X12728Y7023I-39J33D01*
G01X12446Y7260D01*
G03X12375Y7254I-33J-39D01*
G01X12166Y7006D01*
G03X12173Y6934I39J-33D01*
G01X12455Y6697D01*
G03X12526Y6704I33J39D01*
G37*
G36*
G01X9814Y7581D02*
G01X9490Y7581D01*
G03X9439Y7530I0J-51D01*
G01Y7161D01*
G03X9490Y7111I51J0D01*
G01X9814D01*
G03X9865Y7161I0J51D01*
G01Y7530D01*
G03X9814Y7581I-51J0D01*
G37*
G36*
G01X9814Y8129D02*
G01X9490Y8129D01*
G03X9439Y8079I0J-51D01*
G01Y7710D01*
G03X9490Y7659I51J0D01*
G01X9814D01*
G03X9865Y7710I0J51D01*
G01Y8079D01*
G03X9814Y8129I-51J0D01*
G37*
G36*
G01X10862Y9193D02*
G01X11186Y9193D01*
G03X11236Y9244I0J51D01*
G01Y9613D01*
G03X11186Y9663I-51J0D01*
G01X10862D01*
G03X10811Y9613I0J-51D01*
G01Y9244D01*
G03X10862Y9193I51J0D01*
G37*
G36*
G01X10862Y9742D02*
G01X11186Y9742D01*
G03X11236Y9793I0J51D01*
G01Y10161D01*
G03X11186Y10212I-51J0D01*
G01X10862D01*
G03X10811Y10161I0J-51D01*
G01Y9793D01*
G03X10862Y9742I51J0D01*
G37*
G36*
G01X11186Y11264D02*
G01X10862Y11264D01*
G03X10811Y11213I0J-51D01*
G01Y10844D01*
G03X10862Y10794I51J0D01*
G01X11186D01*
G03X11236Y10844I0J51D01*
G01Y11213D01*
G03X11186Y11264I-51J0D01*
G37*
G36*
G01X11186Y11812D02*
G01X10862Y11812D01*
G03X10811Y11762I0J-51D01*
G01Y11393D01*
G03X10862Y11342I51J0D01*
G01X11186D01*
G03X11236Y11393I0J51D01*
G01Y11762D01*
G03X11186Y11812I-51J0D01*
G37*
G36*
G01X17034Y10315D02*
G01X16494Y10315D01*
G03X16443Y10264I0J-51D01*
G01Y9474D01*
G03X16494Y9423I51J0D01*
G01X17034D01*
G03X17085Y9474I0J51D01*
G01Y10264D01*
G03X17034Y10315I-51J0D01*
G37*
G36*
G01X17034Y11405D02*
G01X16494Y11405D01*
G03X16443Y11354I0J-51D01*
G01Y10564D01*
G03X16494Y10513I51J0D01*
G01X17034D01*
G03X17085Y10564I0J51D01*
G01Y11354D01*
G03X17034Y11405I-51J0D01*
G37*
G36*
G01X15764Y10315D02*
G01X15224Y10315D01*
G03X15173Y10264I0J-51D01*
G01Y9474D01*
G03X15224Y9423I51J0D01*
G01X15764D01*
G03X15815Y9474I0J51D01*
G01Y10264D01*
G03X15764Y10315I-51J0D01*
G37*
G36*
G01X15764Y11405D02*
G01X15224Y11405D01*
G03X15173Y11354I0J-51D01*
G01Y10564D01*
G03X15224Y10513I51J0D01*
G01X15764D01*
G03X15815Y10564I0J51D01*
G01Y11354D01*
G03X15764Y11405I-51J0D01*
G37*
G36*
G01X16030Y8239D02*
G01X16030Y8779D01*
G03X15979Y8830I-51J0D01*
G01X15189D01*
G03X15138Y8779I0J-51D01*
G01Y8239D01*
G03X15189Y8188I51J0D01*
G01X15979D01*
G03X16030Y8239I0J51D01*
G37*
G36*
G01X17120Y8239D02*
G01X17120Y8779D01*
G03X17069Y8830I-51J0D01*
G01X16279D01*
G03X16228Y8779I0J-51D01*
G01Y8239D01*
G03X16279Y8188I51J0D01*
G01X17069D01*
G03X17120Y8239I0J51D01*
G37*
G36*
G01X17510Y3528D02*
G01X18050Y3528D01*
G03X18101Y3579I0J51D01*
G01Y4369D01*
G03X18050Y4420I-51J0D01*
G01X17510D01*
G03X17459Y4369I0J-51D01*
G01Y3579D01*
G03X17510Y3528I51J0D01*
G37*
G36*
G01X17510Y2438D02*
G01X18050Y2438D01*
G03X18101Y2489I0J51D01*
G01Y3279D01*
G03X18050Y3330I-51J0D01*
G01X17510D01*
G03X17459Y3279I0J-51D01*
G01Y2489D01*
G03X17510Y2438I51J0D01*
G37*
G36*
G01X16240Y3528D02*
G01X16780Y3528D01*
G03X16831Y3579I0J51D01*
G01Y4369D01*
G03X16780Y4420I-51J0D01*
G01X16240D01*
G03X16189Y4369I0J-51D01*
G01Y3579D01*
G03X16240Y3528I51J0D01*
G37*
G36*
G01X16240Y2438D02*
G01X16780Y2438D01*
G03X16831Y2489I0J51D01*
G01Y3279D01*
G03X16780Y3330I-51J0D01*
G01X16240D01*
G03X16189Y3279I0J-51D01*
G01Y2489D01*
G03X16240Y2438I51J0D01*
G37*
G36*
G01X21712Y13640D02*
G01X21712Y12776D01*
G03X21763Y12725I51J0D01*
G01X22563D01*
G03X22614Y12776I0J51D01*
G01Y13640D01*
G03X22563Y13691I-51J0D01*
G01X21763D01*
G03X21712Y13640I0J-51D01*
G37*
G36*
G01X20312Y13640D02*
G01X20312Y12776D01*
G03X20363Y12725I51J0D01*
G01X21163D01*
G03X21214Y12776I0J51D01*
G01Y13640D01*
G03X21163Y13691I-51J0D01*
G01X20363D01*
G03X20312Y13640I0J-51D01*
G37*
G36*
G01X21712Y15309D02*
G01X21712Y14409D01*
G03X21763Y14358I51J0D01*
G01X22563D01*
G03X22614Y14409I0J51D01*
G01Y15309D01*
G03X22563Y15360I-51J0D01*
G01X21763D01*
G03X21712Y15309I0J-51D01*
G37*
G36*
G01X20312Y15309D02*
G01X20312Y14409D01*
G03X20363Y14358I51J0D01*
G01X21163D01*
G03X21214Y14409I0J51D01*
G01Y15309D01*
G03X21163Y15360I-51J0D01*
G01X20363D01*
G03X20312Y15309I0J-51D01*
G37*
G36*
G01X24262Y12758D02*
G01X24262Y13658D01*
G03X24211Y13709I-51J0D01*
G01X23411D01*
G03X23360Y13658I0J-51D01*
G01Y12758D01*
G03X23411Y12707I51J0D01*
G01X24211D01*
G03X24262Y12758I0J51D01*
G37*
G36*
G01X25662Y12758D02*
G01X25662Y13658D01*
G03X25611Y13709I-51J0D01*
G01X24811D01*
G03X24760Y13658I0J-51D01*
G01Y12758D01*
G03X24811Y12707I51J0D01*
G01X25611D01*
G03X25662Y12758I0J51D01*
G37*
G36*
G01X23490Y2863D02*
G01X23490Y1963D01*
G03X23541Y1912I51J0D01*
G01X24341D01*
G03X24392Y1963I0J51D01*
G01Y2863D01*
G03X24341Y2914I-51J0D01*
G01X23541D01*
G03X23490Y2863I0J-51D01*
G37*
G36*
G01X22090Y2863D02*
G01X22090Y1963D01*
G03X22141Y1912I51J0D01*
G01X22941D01*
G03X22992Y1963I0J51D01*
G01Y2863D01*
G03X22941Y2914I-51J0D01*
G01X22141D01*
G03X22090Y2863I0J-51D01*
G37*
G36*
G01X23860Y4671D02*
G01X24400Y4671D01*
G03X24451Y4722I0J51D01*
G01Y5512D01*
G03X24400Y5563I-51J0D01*
G01X23860D01*
G03X23809Y5512I0J-51D01*
G01Y4722D01*
G03X23860Y4671I51J0D01*
G37*
G36*
G01X23860Y3581D02*
G01X24400Y3581D01*
G03X24451Y3632I0J51D01*
G01Y4422D01*
G03X24400Y4473I-51J0D01*
G01X23860D01*
G03X23809Y4422I0J-51D01*
G01Y3632D01*
G03X23860Y3581I51J0D01*
G37*
G36*
G01X22590Y4671D02*
G01X23130Y4671D01*
G03X23181Y4722I0J51D01*
G01Y5512D01*
G03X23130Y5563I-51J0D01*
G01X22590D01*
G03X22539Y5512I0J-51D01*
G01Y4722D01*
G03X22590Y4671I51J0D01*
G37*
G36*
G01X22590Y3581D02*
G01X23130Y3581D01*
G03X23181Y3632I0J51D01*
G01Y4422D01*
G03X23130Y4473I-51J0D01*
G01X22590D01*
G03X22539Y4422I0J-51D01*
G01Y3632D01*
G03X22590Y3581I51J0D01*
G37*
G36*
G01X21320Y4671D02*
G01X21860Y4671D01*
G03X21911Y4722I0J51D01*
G01Y5512D01*
G03X21860Y5563I-51J0D01*
G01X21320D01*
G03X21269Y5512I0J-51D01*
G01Y4722D01*
G03X21320Y4671I51J0D01*
G37*
G36*
G01X21320Y3581D02*
G01X21860Y3581D01*
G03X21911Y3632I0J51D01*
G01Y4422D01*
G03X21860Y4473I-51J0D01*
G01X21320D01*
G03X21269Y4422I0J-51D01*
G01Y3632D01*
G03X21320Y3581I51J0D01*
G37*
G36*
G01X19574Y13617D02*
G01X19034Y13617D01*
G03X18983Y13566I0J-51D01*
G01Y12776D01*
G03X19034Y12725I51J0D01*
G01X19574D01*
G03X19625Y12776I0J51D01*
G01Y13566D01*
G03X19574Y13617I-51J0D01*
G37*
G36*
G01X19574Y14707D02*
G01X19034Y14707D01*
G03X18983Y14656I0J-51D01*
G01Y13866D01*
G03X19034Y13815I51J0D01*
G01X19574D01*
G03X19625Y13866I0J51D01*
G01Y14656D01*
G03X19574Y14707I-51J0D01*
G37*
G36*
G01X25100Y3675D02*
G01X25700Y3675D01*
G03X25751Y3726I0J51D01*
G01Y4326D01*
G03X25700Y4376I-51J0D01*
G01X25100D01*
G03X25049Y4326I0J-51D01*
G01Y3726D01*
G03X25100Y3675I51J0D01*
G37*
G36*
G01X25700Y5977D02*
G01X25100Y5977D01*
G03X25049Y5926I0J-51D01*
G01Y5326D01*
G03X25100Y5276I51J0D01*
G01X25700D01*
G03X25751Y5326I0J51D01*
G01Y5926D01*
G03X25700Y5977I-51J0D01*
G37*
G36*
G01X25670Y2441D02*
G01X25130Y2441D01*
G03X25079Y2390I0J-51D01*
G01Y1824D01*
G03X25130Y1774I51J0D01*
G01X25670D01*
G03X25721Y1824I0J51D01*
G01Y2390D01*
G03X25670Y2441I-51J0D01*
G37*
G36*
G01X25670Y3306D02*
G01X25130Y3306D01*
G03X25079Y3256I0J-51D01*
G01Y2690D01*
G03X25130Y2639I51J0D01*
G01X25670D01*
G03X25721Y2690I0J51D01*
G01Y3256D01*
G03X25670Y3306I-51J0D01*
G37*
G36*
G01X10049Y9680D02*
G01X9509Y9680D01*
G03X9458Y9629I0J-51D01*
G01Y8839D01*
G03X9509Y8788I51J0D01*
G01X10049D01*
G03X10100Y8839I0J51D01*
G01Y9629D01*
G03X10049Y9680I-51J0D01*
G37*
G36*
G01X10049Y10770D02*
G01X9509Y10770D01*
G03X9458Y10719I0J-51D01*
G01Y9929D01*
G03X9509Y9878I51J0D01*
G01X10049D01*
G03X10100Y9929I0J51D01*
G01Y10719D01*
G03X10049Y10770I-51J0D01*
G37*
G36*
G01X22832Y25543D02*
G01X22832Y25003D01*
G03X22883Y24952I51J0D01*
G01X23449D01*
G03X23499Y25003I0J51D01*
G01Y25543D01*
G03X23449Y25594I-51J0D01*
G01X22883D01*
G03X22832Y25543I0J-51D01*
G37*
G36*
G01X21967Y25543D02*
G01X21967Y25003D01*
G03X22017Y24952I51J0D01*
G01X22583D01*
G03X22634Y25003I0J51D01*
G01Y25543D01*
G03X22583Y25594I-51J0D01*
G01X22017D01*
G03X21967Y25543I0J-51D01*
G37*
G36*
G01X22832Y24273D02*
G01X22832Y23733D01*
G03X22883Y23682I51J0D01*
G01X23449D01*
G03X23499Y23733I0J51D01*
G01Y24273D01*
G03X23449Y24324I-51J0D01*
G01X22883D01*
G03X22832Y24273I0J-51D01*
G37*
G36*
G01X21967Y24273D02*
G01X21967Y23733D01*
G03X22017Y23682I51J0D01*
G01X22583D01*
G03X22634Y23733I0J51D01*
G01Y24273D01*
G03X22583Y24324I-51J0D01*
G01X22017D01*
G03X21967Y24273I0J-51D01*
G37*
G36*
G01X9604Y11353D02*
G01X9604Y11802D01*
G03X9553Y11853I-51J0D01*
G01X9274D01*
G03X9223Y11802I0J-51D01*
G01Y11353D01*
G03X9274Y11302I51J0D01*
G01X9553D01*
G03X9604Y11353I0J51D01*
G37*
G36*
G01X10264Y11353D02*
G01X10264Y11802D01*
G03X10213Y11853I-51J0D01*
G01X9934D01*
G03X9883Y11802I0J-51D01*
G01Y11353D01*
G03X9934Y11302I51J0D01*
G01X10213D01*
G03X10264Y11353I0J51D01*
G37*
G36*
G01X8926Y23572D02*
G01X8926Y26572D01*
G03X8875Y26623I-51J0D01*
G01X6775D01*
G03X6724Y26572I0J-51D01*
G01Y23572D01*
G03X6775Y23521I51J0D01*
G01X8875D01*
G03X8926Y23572I0J51D01*
G37*
G36*
G01X20276Y23572D02*
G01X20276Y26572D01*
G03X20225Y26623I-51J0D01*
G01X18125D01*
G03X18074Y26572I0J-51D01*
G01Y23572D01*
G03X18125Y23521I51J0D01*
G01X20225D01*
G03X20276Y23572I0J51D01*
G37*
G36*
G01X17076Y21372D02*
G01X17076Y22972D01*
G03X17025Y23023I-51J0D01*
G01X16225D01*
G03X16174Y22972I0J-51D01*
G01Y21372D01*
G03X16225Y21321I51J0D01*
G01X17025D01*
G03X17076Y21372I0J51D01*
G37*
G36*
G01X15826Y21372D02*
G01X15826Y22972D01*
G03X15775Y23023I-51J0D01*
G01X14975D01*
G03X14925Y22972I0J-51D01*
G01Y21372D01*
G03X14975Y21321I51J0D01*
G01X15775D01*
G03X15826Y21372I0J51D01*
G37*
G36*
G01X14576Y21372D02*
G01X14576Y22972D01*
G03X14525Y23023I-51J0D01*
G01X13725D01*
G03X13674Y22972I0J-51D01*
G01Y21372D01*
G03X13725Y21321I51J0D01*
G01X14525D01*
G03X14576Y21372I0J51D01*
G37*
G36*
G01X13326Y21372D02*
G01X13326Y22972D01*
G03X13275Y23023I-51J0D01*
G01X12475D01*
G03X12424Y22972I0J-51D01*
G01Y21372D01*
G03X12475Y21321I51J0D01*
G01X13275D01*
G03X13326Y21372I0J51D01*
G37*
G36*
G01X12076Y21372D02*
G01X12076Y22972D01*
G03X12025Y23023I-51J0D01*
G01X11225D01*
G03X11175Y22972I0J-51D01*
G01Y21372D01*
G03X11225Y21321I51J0D01*
G01X12025D01*
G03X12076Y21372I0J51D01*
G37*
G36*
G01X10826Y21372D02*
G01X10826Y22972D01*
G03X10775Y23023I-51J0D01*
G01X9975D01*
G03X9925Y22972I0J-51D01*
G01Y21372D01*
G03X9975Y21321I51J0D01*
G01X10775D01*
G03X10826Y21372I0J51D01*
G37*
G54D11*
G01X1766Y21034D03*
G01X1766Y19764D03*
G01X1766Y18494D03*
G01X1766Y17224D03*
G01X1766Y15954D03*
G01X1766Y14684D03*
G01X1766Y13414D03*
G01X1766Y12144D03*
G01X7511Y21034D03*
G01X7511Y19764D03*
G01X7511Y18494D03*
G01X7511Y17224D03*
G01X7511Y15954D03*
G01X7511Y14684D03*
G01X7511Y13414D03*
G01X7511Y12144D03*
G36*
G01X4881Y23015D02*
G01X4341Y23015D01*
G03X4290Y22964I0J-51D01*
G01Y22174D01*
G03X4341Y22123I51J0D01*
G01X4881D01*
G03X4932Y22174I0J51D01*
G01Y22964D01*
G03X4881Y23015I-51J0D01*
G37*
G36*
G01X4881Y24105D02*
G01X4341Y24105D01*
G03X4290Y24054I0J-51D01*
G01Y23264D01*
G03X4341Y23213I51J0D01*
G01X4881D01*
G03X4932Y23264I0J51D01*
G01Y24054D01*
G03X4881Y24105I-51J0D01*
G37*
G36*
G01X3097Y23213D02*
G01X3637Y23213D01*
G03X3687Y23264I0J51D01*
G01Y24054D01*
G03X3637Y24105I-51J0D01*
G01X3097D01*
G03X3046Y24054I0J-51D01*
G01Y23264D01*
G03X3097Y23213I51J0D01*
G37*
G36*
G01X3097Y22123D02*
G01X3637Y22123D01*
G03X3687Y22174I0J51D01*
G01Y22964D01*
G03X3637Y23015I-51J0D01*
G01X3097D01*
G03X3046Y22964I0J-51D01*
G01Y22174D01*
G03X3097Y22123I51J0D01*
G37*
G36*
G01X4600Y10398D02*
G01X4600Y10938D01*
G03X4549Y10989I-51J0D01*
G01X3759D01*
G03X3708Y10938I0J-51D01*
G01Y10398D01*
G03X3759Y10347I51J0D01*
G01X4549D01*
G03X4600Y10398I0J51D01*
G37*
G36*
G01X5690Y10398D02*
G01X5690Y10938D01*
G03X5639Y10989I-51J0D01*
G01X4849D01*
G03X4798Y10938I0J-51D01*
G01Y10398D01*
G03X4849Y10347I51J0D01*
G01X5639D01*
G03X5690Y10398I0J51D01*
G37*
G36*
G01X5624Y23213D02*
G01X6164Y23213D01*
G03X6215Y23264I0J51D01*
G01Y24054D01*
G03X6164Y24105I-51J0D01*
G01X5624D01*
G03X5573Y24054I0J-51D01*
G01Y23264D01*
G03X5624Y23213I51J0D01*
G37*
G36*
G01X5624Y22123D02*
G01X6164Y22123D01*
G03X6215Y22174I0J51D01*
G01Y22964D01*
G03X6164Y23015I-51J0D01*
G01X5624D01*
G03X5573Y22964I0J-51D01*
G01Y22174D01*
G03X5624Y22123I51J0D01*
G37*
G36*
G01X11356Y20165D02*
G01X11896Y20165D01*
G03X11946Y20216I0J51D01*
G01Y20782D01*
G03X11896Y20832I-51J0D01*
G01X11356D01*
G03X11305Y20782I0J-51D01*
G01Y20216D01*
G03X11356Y20165I51J0D01*
G37*
G36*
G01X11356Y19300D02*
G01X11896Y19300D01*
G03X11946Y19350I0J51D01*
G01Y19916D01*
G03X11896Y19967I-51J0D01*
G01X11356D01*
G03X11305Y19916I0J-51D01*
G01Y19350D01*
G03X11356Y19300I51J0D01*
G37*
G36*
G01X12605Y20165D02*
G01X13145Y20165D01*
G03X13196Y20216I0J51D01*
G01Y20782D01*
G03X13145Y20832I-51J0D01*
G01X12605D01*
G03X12554Y20782I0J-51D01*
G01Y20216D01*
G03X12605Y20165I51J0D01*
G37*
G36*
G01X12605Y19300D02*
G01X13145Y19300D01*
G03X13196Y19350I0J51D01*
G01Y19916D01*
G03X13145Y19967I-51J0D01*
G01X12605D01*
G03X12554Y19916I0J-51D01*
G01Y19350D01*
G03X12605Y19300I51J0D01*
G37*
G36*
G01X5897Y7179D02*
G01X5897Y8336D01*
G03X5847Y8387I-51J0D01*
G01X5357D01*
G03X5306Y8336I0J-51D01*
G01Y7179D01*
G03X5357Y7128I51J0D01*
G01X5847D01*
G03X5897Y7179I0J51D01*
G37*
G36*
G01X4947Y7179D02*
G01X4947Y8336D01*
G03X4897Y8387I-51J0D01*
G01X4407D01*
G03X4356Y8336I0J-51D01*
G01Y7179D01*
G03X4407Y7128I51J0D01*
G01X4897D01*
G03X4947Y7179I0J51D01*
G37*
G36*
G01X3997Y7179D02*
G01X3997Y8336D01*
G03X3947Y8387I-51J0D01*
G01X3457D01*
G03X3406Y8336I0J-51D01*
G01Y7179D01*
G03X3457Y7128I51J0D01*
G01X3947D01*
G03X3997Y7179I0J51D01*
G37*
G36*
G01X3997Y4863D02*
G01X3997Y6038D01*
G03X3947Y6089I-51J0D01*
G01X3457D01*
G03X3406Y6038I0J-51D01*
G01Y4863D01*
G03X3457Y4812I51J0D01*
G01X3947D01*
G03X3997Y4863I0J51D01*
G37*
G36*
G01X5897Y4863D02*
G01X5897Y6038D01*
G03X5847Y6089I-51J0D01*
G01X5357D01*
G03X5306Y6038I0J-51D01*
G01Y4863D01*
G03X5357Y4812I51J0D01*
G01X5847D01*
G03X5897Y4863I0J51D01*
G37*
G36*
G01X7000Y6565D02*
G01X6676Y6565D01*
G03X6626Y6514I0J-51D01*
G01Y6145D01*
G03X6676Y6095I51J0D01*
G01X7000D01*
G03X7051Y6145I0J51D01*
G01Y6514D01*
G03X7000Y6565I-51J0D01*
G37*
G36*
G01X7000Y7113D02*
G01X6676Y7113D01*
G03X6626Y7063I0J-51D01*
G01Y6694D01*
G03X6676Y6643I51J0D01*
G01X7000D01*
G03X7051Y6694I0J51D01*
G01Y7063D01*
G03X7000Y7113I-51J0D01*
G37*
G36*
G01X10213Y20105D02*
G01X10537Y20105D01*
G03X10588Y20156I0J51D01*
G01Y20525D01*
G03X10537Y20575I-51J0D01*
G01X10213D01*
G03X10163Y20525I0J-51D01*
G01Y20156D01*
G03X10213Y20105I51J0D01*
G37*
G36*
G01X10213Y19557D02*
G01X10537Y19557D01*
G03X10588Y19607I0J51D01*
G01Y19976D01*
G03X10537Y20027I-51J0D01*
G01X10213D01*
G03X10163Y19976I0J-51D01*
G01Y19607D01*
G03X10213Y19557I51J0D01*
G37*
G36*
G01X19431Y7264D02*
G02X19359Y7294I0J102D01*
G01X18978Y7675D01*
G02X18948Y7747I72J72D01*
G01Y10668D01*
G02X19050Y10770I102J0D01*
G01X22352D01*
G02X22454Y10668I0J-102D01*
G01Y7366D01*
G02X22352Y7264I-102J0D01*
G01X19431D01*
G37*
G04 Pad End*

M02*
